<?xml version="1.0" encoding="UTF-8" standalone="no"?>
<!-- Created with Inkscape (http://www.inkscape.org/) -->

<svg
   width="226.71552mm"
   height="61.383331mm"
   viewBox="0 0 226.71552 61.383331"
   version="1.1"
   id="svg5"
   xml:space="preserve"
   inkscape:version="1.2.2 (b0a8486541, 2022-12-01)"
   sodipodi:docname="logo.svg"
   xmlns:inkscape="http://www.inkscape.org/namespaces/inkscape"
   xmlns:sodipodi="http://sodipodi.sourceforge.net/DTD/sodipodi-0.dtd"
   xmlns="http://www.w3.org/2000/svg"
   xmlns:svg="http://www.w3.org/2000/svg"><sodipodi:namedview
     id="namedview7"
     pagecolor="#ffffff"
     bordercolor="#666666"
     borderopacity="1.0"
     inkscape:showpageshadow="2"
     inkscape:pageopacity="0.0"
     inkscape:pagecheckerboard="0"
     inkscape:deskcolor="#d1d1d1"
     inkscape:document-units="mm"
     showgrid="false"
     inkscape:zoom="0.80622194"
     inkscape:cx="352.26032"
     inkscape:cy="313.18919"
     inkscape:window-width="1920"
     inkscape:window-height="1095"
     inkscape:window-x="0"
     inkscape:window-y="0"
     inkscape:window-maximized="1"
     inkscape:current-layer="layer1" /><defs
     id="defs2" /><g
     inkscape:label="Vrstva 1"
     inkscape:groupmode="layer"
     id="layer1"
     transform="translate(-5.4446328,-66.123047)"><path
       style="fill:#000000;stroke-width:0.264583"
       d="m 17.547017,125.98503 c -0.811085,-0.83674 -2.090149,-2.27512 -2.842364,-3.1964 -0.752216,-0.92127 -1.943499,-2.52862 -2.647296,-3.57187 -0.703798,-1.04326 -1.640953,-2.61286 -2.0825674,-3.48802 -0.4416147,-0.87515 -1.2191503,-2.72061 -1.7278564,-4.10104 -0.5087062,-1.38042 -1.1720864,-3.28376 -1.4741784,-4.22965 -0.3020917,-0.94588 -0.6730034,-2.4937 -0.8242482,-3.43958 -0.1512446,-0.94589 -0.3520157,-3.52577 -0.4461581,-5.733063 -0.1130676,-2.65102 -0.05968,-4.85135 0.1572836,-6.48229 0.1806485,-1.35796 0.5546924,-3.48106 0.8312084,-4.71798 0.2765163,-1.23693 0.7978198,-3.0471 1.1584521,-4.02259 0.3606327,-0.9755 1.1899662,-2.82097 1.8429634,-4.10105 0.652997,-1.28007 1.601665,-3.05951 2.108152,-3.9543 0.506486,-0.8948 0.839394,-1.70839 0.739796,-1.80799 -0.0996,-0.0996 -0.05406,-0.1414 0.101205,-0.0929 0.155261,0.0485 0.855603,-0.62618 1.556316,-1.49931 0.700712,-0.87312 1.81936,-2.15304 2.485885,-2.84427 0.701595,-0.72759 1.449448,-1.25677 1.776115,-1.25677 0.310338,0 0.761298,0.21774 1.002133,0.48386 0.240836,0.26612 0.43623,0.7126 0.43421,0.99218 -0.002,0.27959 -0.845967,1.46084 -1.875437,2.625 -1.029471,1.16417 -2.39633,2.90553 -3.037465,3.86968 -0.641135,0.96416 -1.938134,3.34541 -2.882221,5.29167 -0.944087,1.94626 -1.9606973,4.49116 -2.2591349,5.65532 -0.2984375,1.16417 -0.7320528,3.36682 -0.9635894,4.89479 -0.3149481,2.07843 -0.3809193,3.77771 -0.2619341,6.74688 0.087473,2.182813 0.2866435,4.742653 0.4426011,5.688533 0.1559576,0.94589 0.7068304,2.96995 1.2241613,4.49792 0.517331,1.52797 1.512583,3.99096 2.211669,5.4733 0.699087,1.48235 1.660786,3.26829 2.13711,3.96875 0.476324,0.70047 1.407569,1.92842 2.069434,2.72879 0.661864,0.80036 1.949941,2.26111 2.862393,3.2461 1.046935,1.13017 1.659002,2.01798 1.659002,2.40639 0,0.33852 -0.217734,0.81254 -0.483854,1.05337 -0.26612,0.24084 -0.716331,0.43789 -1.00047,0.43789 -0.284138,0 -1.180231,-0.68461 -1.991316,-1.52136 z m 55.507271,-0.28542 c -0.240837,-0.26612 -0.437883,-0.71972 -0.437883,-1.008 0,-0.28828 0.552995,-1.17187 1.228876,-1.96354 0.675881,-0.79167 1.903698,-2.33236 2.728478,-3.42377 0.824783,-1.0914 1.942735,-2.72103 2.48434,-3.62138 0.541605,-0.90035 1.324353,-2.38863 1.739439,-3.30729 0.415087,-0.91866 1.072558,-2.6799 1.461045,-3.91388 0.388488,-1.23398 0.950082,-3.61523 1.247987,-5.29167 0.366633,-2.0632 0.549685,-4.287683 0.566534,-6.884533 0.01688,-2.60178 -0.114642,-4.52195 -0.408676,-5.96646 -0.238461,-1.1715 -0.662868,-2.95746 -0.943123,-3.9688 -0.280257,-1.01134 -0.885489,-2.74183 -1.344961,-3.84553 -0.459473,-1.1037 -1.44149,-3.06821 -2.182263,-4.36557 -0.740772,-1.29737 -1.870453,-3.09666 -2.5104,-3.99844 -0.639948,-0.90178 -2.11454,-2.64426 -3.276868,-3.87218 -1.162327,-1.22792 -2.113324,-2.4235 -2.113324,-2.65686 0,-0.23335 0.205054,-0.66376 0.455676,-0.95647 0.250621,-0.2927 0.712274,-0.53219 1.025892,-0.53219 0.37714,0 1.442905,0.90922 3.14755,2.68522 1.417531,1.47687 3.195436,3.64976 3.950898,4.82864 0.755459,1.17889 1.874025,3.07824 2.485697,4.22077 0.611674,1.14254 1.471401,2.94034 1.910503,3.99511 0.439105,1.05478 1.143788,3.28548 1.565966,4.95712 0.422179,1.67163 0.905917,4.27915 1.074973,5.79447 0.169058,1.51532 0.232825,3.8267 0.141702,5.13638 -0.09112,1.30969 -0.285908,3.274223 -0.432863,4.365623 -0.146955,1.09141 -0.44504,2.81782 -0.662411,3.83646 -0.217371,1.01865 -0.642485,2.62599 -0.944703,3.57188 -0.302215,0.94588 -0.971494,2.67229 -1.487289,3.83646 -0.515794,1.16416 -1.513141,3.04683 -2.216324,4.18371 -0.703186,1.13687 -1.838868,2.80375 -2.523739,3.70416 -0.684871,0.90042 -1.891273,2.38127 -2.680893,3.29077 -0.956704,1.10196 -1.631889,1.65365 -2.023814,1.65365 -0.323477,0 -0.785188,-0.21774 -1.026022,-0.48386 z m 27.199052,-4.13432 -0.649436,-0.64944 v -9.14015 -9.14015 h -2.128692 c -1.907317,0 -2.196232,-0.0675 -2.778125,-0.64943 -0.357187,-0.35719 -0.649433,-0.95791 -0.649433,-1.33494 0,-0.37704 0.292246,-0.977763 0.649433,-1.334953 l 0.649431,-0.64943 h 6.241762 6.24176 l 0.64944,0.64943 c 0.35718,0.35719 0.64943,0.957913 0.64943,1.334953 0,0.37703 -0.29225,0.97775 -0.64943,1.33494 -0.5819,0.58189 -0.87081,0.64943 -2.77813,0.64943 h -2.1287 v 9.14015 9.14015 l -0.64943,0.64944 c -0.35719,0.35718 -0.95791,0.64943 -1.33494,0.64943 -0.37703,0 -0.97775,-0.29225 -1.33494,-0.64943 z m 12.17083,0 -0.64943,-0.64944 V 110.44076 99.965657 l 0.64943,-0.64943 c 0.64747,-0.64746 0.66591,-0.64943 6.09744,-0.64943 5.43153,0 5.44998,0.002 6.09744,0.64943 0.35719,0.35719 0.64944,0.957913 0.64944,1.334953 0,0.37703 -0.29225,0.97775 -0.64944,1.33494 -0.63381,0.63382 -0.74831,0.64943 -4.7625,0.64943 h -4.11306 v 2.64583 2.64584 h 2.65786 c 2.46915,0 2.70397,0.0461 3.30729,0.64943 0.35718,0.35719 0.64943,0.95791 0.64943,1.33494 0,0.37703 -0.29225,0.97776 -0.64943,1.33494 -0.60332,0.60333 -0.83814,0.64944 -3.30729,0.64944 h -2.65786 v 3.175 3.175 h 4.11306 c 4.01419,0 4.12869,0.0156 4.7625,0.64943 0.35719,0.35719 0.64944,0.95791 0.64944,1.33494 0,0.37703 -0.29225,0.97776 -0.64944,1.33495 -0.64746,0.64746 -0.66591,0.64943 -6.09744,0.64943 -5.43153,0 -5.44997,-0.002 -6.09744,-0.64943 z m 17.72708,0 -0.64943,-0.64944 V 110.44076 99.965657 l 0.64943,-0.64943 c 0.63882,-0.63882 0.72328,-0.64943 5.16817,-0.64943 4.25123,0 4.59262,0.0377 5.76671,0.63679 0.68639,0.35023 1.5623,0.975313 1.94648,1.389063 0.38417,0.41375 0.94971,1.25355 1.25677,1.86621 0.43086,0.85971 0.55476,1.58434 0.54287,3.175 -0.0126,1.68073 -0.14682,2.3296 -0.7276,3.51627 -0.51544,1.05316 -1.04921,1.67451 -1.93199,2.24896 -0.67088,0.43657 -1.42923,0.91598 -1.68523,1.06537 -0.41442,0.24184 -0.20095,0.64383 1.94739,3.66717 1.45066,2.0415 2.41283,3.65249 2.41283,4.03989 0,0.35438 -0.29224,0.93658 -0.64943,1.29377 -0.35719,0.35718 -0.9008,0.64943 -1.20802,0.64943 -0.30722,0 -0.77641,-0.11658 -1.04265,-0.25907 -0.26624,-0.14248 -1.8854,-2.22607 -3.59813,-4.6302 -2.96045,-4.15553 -3.15759,-4.37115 -3.99646,-4.37115 h -0.88239 v 3.98078 c 0,3.87372 -0.0175,3.99824 -0.64943,4.63021 -0.35719,0.35718 -0.95791,0.64943 -1.33495,0.64943 -0.37703,0 -0.97775,-0.29225 -1.33494,-0.64943 z m 9.13723,-12.9751 c 0.4205,-0.21745 0.95037,-0.66066 1.17749,-0.98491 0.22711,-0.32426 0.41293,-1.10476 0.41293,-1.73445 0,-0.62969 -0.16966,-1.47298 -0.37703,-1.87399 -0.20737,-0.401 -0.68922,-0.87134 -1.07078,-1.04519 -0.38941,-0.17743 -1.84898,-0.3161 -3.32714,-0.3161 h -2.63338 v 3.175 3.175 h 2.52668 c 1.72416,0 2.76952,-0.12557 3.29123,-0.39536 z m 10.70652,12.9751 -0.64943,-0.64944 V 110.44076 99.965657 l 0.64943,-0.64943 c 0.35719,-0.35718 0.92601,-0.64943 1.26405,-0.64943 0.33803,0 0.85947,0.1715 1.15873,0.38112 0.29927,0.20962 1.66105,2.763713 3.02617,5.675763 1.36513,2.91205 2.50167,5.27062 2.52566,5.24127 0.024,-0.0293 1.1307,-2.37508 2.45935,-5.21273 1.32866,-2.83766 2.66584,-5.367743 2.97153,-5.622403 0.30568,-0.25466 0.84566,-0.46302 1.19996,-0.46302 0.35429,0 0.93641,0.29225 1.2936,0.64943 l 0.64943,0.64943 v 10.475103 10.47509 l -0.64943,0.64944 c -0.35719,0.35718 -0.95791,0.64943 -1.33494,0.64943 -0.37703,0 -0.97775,-0.29225 -1.33494,-0.64943 -0.64816,-0.64816 -0.64945,-0.66047 -0.65943,-6.28386 l -0.01,-5.63442 -1.64365,3.30729 c -1.31999,2.65603 -1.78484,3.35569 -2.3606,3.55306 -0.48407,0.16594 -0.94194,0.14325 -1.40964,-0.0699 -0.51921,-0.23657 -1.08183,-1.12648 -2.24632,-3.55306 l -1.55362,-3.23744 -0.0133,5.63442 c -0.0133,5.62138 -0.0148,5.63593 -0.66273,6.28386 -0.35719,0.35718 -0.95792,0.64943 -1.33495,0.64943 -0.37703,0 -0.97775,-0.29225 -1.33494,-0.64943 z m 22.48958,0 -0.64943,-0.64944 V 110.44076 99.965657 l 0.64943,-0.64943 c 0.35719,-0.35718 0.95791,-0.64943 1.33495,-0.64943 0.37703,0 0.97775,0.29225 1.33494,0.64943 l 0.64943,0.64943 v 10.475103 10.47509 l -0.64943,0.64944 c -0.35719,0.35718 -0.95791,0.64943 -1.33494,0.64943 -0.37704,0 -0.97776,-0.29225 -1.33495,-0.64943 z m 9.525,0 -0.64943,-0.64944 V 110.44076 99.965657 l 0.64943,-0.64943 c 0.35719,-0.35718 0.95791,-0.64943 1.33495,-0.64943 0.37703,0 0.9482,0.26789 1.26928,0.59531 0.32107,0.32743 2.19089,3.438823 4.15516,6.914223 l 3.57139,6.3189 0.13229,-6.40889 c 0.13091,-6.342123 0.1388,-6.414143 0.75692,-6.914213 0.34354,-0.27793 0.9145,-0.50533 1.26879,-0.50533 0.3543,0 0.93642,0.29225 1.29361,0.64943 l 0.64943,0.64943 v 10.475103 10.47509 l -0.64943,0.64944 c -0.35719,0.35718 -0.95791,0.64943 -1.33494,0.64943 -0.37704,0 -0.94821,-0.26789 -1.26928,-0.59531 -0.32108,-0.32743 -2.1909,-3.43882 -4.15516,-6.91422 l -3.5714,-6.3189 -0.13229,6.40888 c -0.13091,6.34213 -0.1388,6.41415 -0.75691,6.91422 -0.34355,0.27793 -0.91451,0.50533 -1.2688,0.50533 -0.3543,0 -0.93642,-0.29225 -1.29361,-0.64943 z m 17.72709,0 c -0.35719,-0.35719 -0.64944,-0.88373 -0.64944,-1.17009 0,-0.28636 1.54436,-5.08404 3.43191,-10.66151 2.44709,-7.23086 3.59436,-10.273713 3.99806,-10.603873 0.31138,-0.25466 0.85603,-0.46302 1.21033,-0.46302 0.3543,0 0.90665,0.26789 1.22746,0.59531 0.38844,0.39645 1.73228,4.017863 4.02287,10.840883 3.31068,9.86158 3.4244,10.27296 3.03452,10.97671 -0.22278,0.40214 -0.7369,0.84786 -1.14249,0.9905 -0.55011,0.19346 -0.91768,0.15901 -1.44702,-0.13564 -0.55005,-0.30617 -0.89474,-0.92883 -1.53304,-2.76939 l -0.82346,-2.37441 h -3.38582 -3.38582 l -0.75038,2.24896 c -0.41642,1.24805 -0.9995,2.45502 -1.31014,2.71198 -0.30787,0.25466 -0.84964,0.46302 -1.20394,0.46302 -0.3543,0 -0.93642,-0.29225 -1.2936,-0.64943 z m 9.03229,-11.45526 c -0.47663,-1.41883 -0.91689,-2.73349 -0.97837,-2.92147 -0.0615,-0.18799 -0.5461,0.97287 -1.07695,2.57968 l -0.96517,2.92148 h 1.94354 1.94354 z m 10.81146,11.45526 -0.64944,-0.64944 V 110.44076 99.965657 l 0.64944,-0.64943 c 0.35718,-0.35718 0.95791,-0.64943 1.33494,-0.64943 0.37703,0 0.97775,0.29225 1.33494,0.64943 l 0.64943,0.64943 v 9.140163 9.14015 h 3.98078 c 3.87373,0 3.99824,0.0175 4.63021,0.64943 0.35718,0.35719 0.64943,0.95791 0.64943,1.33494 0,0.37703 -0.29225,0.97776 -0.64943,1.33495 -0.64642,0.64642 -0.67408,0.64943 -5.96515,0.64943 -5.29108,0 -5.31873,-0.003 -5.96515,-0.64943 z M 40.094749,120.75131 c -1.370295,-0.354 -3.572952,-1.17532 -4.894791,-1.82515 -1.321837,-0.64984 -3.337872,-1.91745 -4.480076,-2.81692 -1.142204,-0.89947 -2.846647,-2.60238 -3.787648,-3.78423 -0.941004,-1.18186 -2.240359,-3.22889 -2.887456,-4.54897 -0.647098,-1.32007 -1.472734,-3.56776 -1.834747,-4.99486 -0.531046,-2.09345 -0.658207,-3.246133 -0.658207,-5.966463 0,-2.72034 0.127161,-3.87301 0.658207,-5.96646 0.362013,-1.4271 1.189187,-3.67479 1.838163,-4.99486 0.648976,-1.32008 1.915887,-3.33467 2.81536,-4.47687 0.899469,-1.14221 2.602375,-2.84665 3.784232,-3.78765 1.181856,-0.941 3.22889,-2.24036 4.548965,-2.88746 1.320075,-0.64709 3.567763,-1.47273 4.994865,-1.83474 2.093444,-0.53105 3.24612,-0.65821 5.966457,-0.65821 2.720337,0 3.873013,0.12716 5.966457,0.65821 1.427102,0.36201 3.67479,1.18765 4.994865,1.83474 1.320075,0.6471 3.367108,1.94646 4.548965,2.88746 1.181857,0.941 2.884763,2.64544 3.784232,3.78765 0.899472,1.1422 2.166385,3.15679 2.81536,4.47687 0.648975,1.32007 1.47615,3.56776 1.838163,4.99486 0.531045,2.09345 0.658207,3.24612 0.658207,5.96646 0,2.72033 -0.127162,3.873013 -0.658207,5.966463 -0.362013,1.4271 -1.189188,3.67479 -1.838163,4.99486 -0.648975,1.32008 -1.915888,3.33467 -2.81536,4.47687 -0.899469,1.1422 -2.602375,2.84665 -3.784232,3.78765 -1.181857,0.941 -3.22889,2.24036 -4.548965,2.88745 -1.320075,0.6471 -3.567763,1.47274 -4.994865,1.83475 -2.134952,0.54158 -3.209914,0.6559 -6.066528,0.6452 -2.78819,-0.0105 -3.962384,-0.13975 -5.963253,-0.65665 z m 12.047175,-4.03266 c 0.890026,-0.28567 2.378307,-0.90335 3.307291,-1.37262 0.928987,-0.46928 2.284378,-1.30366 3.011982,-1.85419 0.727605,-0.55053 1.784194,-1.46224 2.347976,-2.02602 0.563785,-0.56378 1.476412,-1.62037 2.028063,-2.34798 0.551651,-0.7276 1.415976,-2.15635 1.920724,-3.175 0.504749,-1.01864 1.138037,-2.56646 1.407308,-3.43958 0.387057,-1.25504 0.489588,-2.44635 0.489588,-5.688543 0,-3.24219 -0.102531,-4.4335 -0.489588,-5.68854 -0.269271,-0.87313 -0.902559,-2.42094 -1.407308,-3.43958 -0.504748,-1.01865 -1.369073,-2.4474 -1.920724,-3.175 -0.551651,-0.72761 -1.464278,-1.7842 -2.028063,-2.34798 -0.563782,-0.56378 -1.620371,-1.47641 -2.347976,-2.02806 -0.727604,-0.55165 -2.156354,-1.41598 -3.175,-1.92073 -1.018645,-0.50474 -2.566458,-1.13803 -3.439583,-1.40731 -1.25504,-0.38705 -2.44635,-0.48958 -5.688541,-0.48958 -3.242191,0 -4.433501,0.10253 -5.688542,0.48958 -0.873125,0.26928 -2.420937,0.90257 -3.439583,1.40731 -1.018646,0.50475 -2.447396,1.36908 -3.175,1.92073 -0.727604,0.55165 -1.784193,1.46428 -2.347976,2.02806 -0.563784,0.56378 -1.476412,1.62037 -2.028063,2.34798 -0.55165,0.7276 -1.415975,2.15635 -1.920724,3.175 -0.504748,1.01864 -1.138036,2.56645 -1.407308,3.43958 -0.387055,1.25504 -0.489586,2.44635 -0.489586,5.68854 0,3.242193 0.102531,4.433503 0.489586,5.688543 0.269272,0.87312 0.90256,2.42094 1.407308,3.43958 0.504749,1.01865 1.369074,2.4474 1.920724,3.175 0.551651,0.72761 1.464279,1.7842 2.028063,2.34798 0.563783,0.56378 1.620372,1.47641 2.347976,2.02806 0.727604,0.55165 2.156354,1.41736 3.175,1.9238 1.018646,0.50643 2.566458,1.10808 3.439583,1.33698 0.873125,0.2289 1.825625,0.47286 2.116667,0.54211 0.291042,0.0693 2.196042,0.0844 4.233333,0.0336 2.753942,-0.0686 4.119287,-0.22557 5.322393,-0.61172 z m -8.021526,-16.71822 c -0.465879,-0.284063 -1.031426,-0.873023 -1.256771,-1.308793 -0.225346,-0.43577 -0.409721,-1.2823 -0.409721,-1.88117 0,-0.59888 0.137174,-1.34893 0.304829,-1.66679 0.167656,-0.31785 0.590511,-0.84581 0.939673,-1.17323 0.349166,-0.32742 0.747774,-0.59531 0.885796,-0.59531 0.152014,0 0.250952,-2.81522 0.250952,-7.14073 0,-6.37445 0.0489,-7.19783 0.455676,-7.67292 0.250621,-0.2927 0.708419,-0.53219 1.017326,-0.53219 0.308909,0 0.758698,0.21774 0.999532,0.48386 0.384416,0.42477 0.437883,1.34552 0.437883,7.54062 v 7.05677 l 1.058333,1.05834 1.058333,1.05833 h 7.102742 c 6.545003,0 7.137128,0.038 7.540625,0.48386 0.240837,0.26612 0.437883,0.71961 0.437883,1.00776 0,0.28815 -0.159777,0.74241 -0.355058,1.00948 -0.331258,0.45302 -0.842235,0.48192 -7.623018,0.43114 l -7.267961,-0.0544 -0.309087,0.67837 c -0.169997,0.3731 -0.698465,0.91577 -1.174377,1.20594 -0.525973,0.320683 -1.332185,0.527573 -2.055915,0.527573 -0.715198,0 -1.52886,-0.20624 -2.037675,-0.51648 z m -23.698214,18.0471 c -0.638313,-0.83674 -1.672456,-2.28127 -2.298095,-3.21007 -0.62564,-0.92879 -1.70109,-2.89332 -2.389889,-4.36562 -0.688799,-1.4723 -1.501593,-3.74848 -1.80621,-5.05816 -0.304617,-1.30969 -0.678402,-3.39016 -0.830632,-4.62327 -0.152231,-1.233113 -0.274425,-3.376233 -0.271542,-4.762503 0.0029,-1.38626 0.124706,-3.35392 0.27072,-4.37256 0.146013,-1.01865 0.858181,-3.60695 1.582595,-5.75177 0.749393,-2.21878 1.795504,-4.69837 2.426974,-5.75263 0.610422,-1.01911 1.537291,-2.41941 2.05971,-3.11177 0.552977,-0.73286 1.203727,-1.29536 1.557458,-1.34624 0.334183,-0.0481 0.835912,0.11921 1.114953,0.37173 0.279041,0.25253 0.507348,0.69199 0.507348,0.97657 0,0.28458 -0.543572,1.29501 -1.207937,2.24539 -0.664365,0.95039 -1.555187,2.37871 -1.979604,3.17405 -0.424418,0.79534 -1.246497,2.90558 -1.826843,4.68942 -0.580346,1.78384 -1.193041,4.12258 -1.361546,5.19721 -0.182778,1.16566 -0.247568,3.28806 -0.160606,5.26116 0.08017,1.81901 0.397225,4.557453 0.704564,6.085413 0.436657,2.17089 0.901566,3.47212 2.126961,5.95313 0.862489,1.74625 2.345524,4.24656 3.295632,5.55625 0.950108,1.30969 1.728555,2.63069 1.729882,2.93555 0.0013,0.30487 -0.215321,0.75136 -0.481441,0.99219 -0.266119,0.24084 -0.735411,0.43788 -1.042869,0.43788 -0.369592,0 -0.952274,-0.51551 -1.719583,-1.52135 z m 49.986271,-0.55 c -0.240837,-0.26612 -0.437883,-0.67874 -0.437883,-0.91694 0,-0.23819 0.640371,-1.41944 1.423045,-2.625 0.782675,-1.20555 1.777879,-2.90629 2.211562,-3.77941 0.433684,-0.87313 1.096915,-2.3665 1.473843,-3.31861 0.376931,-0.9521 0.943896,-3.21429 1.259925,-5.02708 0.471334,-2.703633 0.545076,-3.866583 0.410318,-6.470983 -0.09035,-1.74625 -0.33188,-3.9489 -0.536725,-4.89479 -0.204846,-0.94588 -0.858298,-2.96995 -1.452113,-4.49792 -0.593815,-1.52796 -1.661634,-3.75396 -2.372926,-4.94664 -0.711295,-1.19269 -1.843744,-2.81287 -2.516553,-3.6004 -0.672811,-0.78754 -1.223293,-1.62604 -1.223293,-1.86335 0,-0.23731 0.205055,-0.67096 0.455676,-0.96367 0.250622,-0.2927 0.715838,-0.53219 1.033815,-0.53219 0.362124,0 1.04576,0.51901 1.829673,1.38907 0.688342,0.76398 1.555265,1.86531 1.926497,2.44739 0.371232,0.58209 1.168559,1.9513 1.771843,3.04271 0.603282,1.09141 1.584576,3.35359 2.180654,5.02708 0.596077,1.67349 1.216265,3.75709 1.378196,4.63021 0.16193,0.87313 0.361711,3.01625 0.44396,4.7625 0.119232,2.53144 0.03477,3.87042 -0.4167,6.605853 -0.311434,1.88697 -0.860119,4.24555 -1.219301,5.24128 -0.359182,0.99574 -1.120119,2.78561 -1.690971,3.97749 -0.570851,1.19187 -1.535943,2.94095 -2.144646,3.88684 -0.608703,0.94588 -1.353023,1.98768 -1.654042,2.3151 -0.301022,0.32742 -0.80576,0.59531 -1.121643,0.59531 -0.315881,0 -0.771377,-0.21773 -1.012211,-0.48385 z m 32.226135,-27.682243 -0.64944,-0.64943 v -9.14015 -9.14016 h -2.26098 c -2.047774,0 -2.322226,-0.0612 -2.910416,-0.64943 -0.357188,-0.35719 -0.649433,-0.95791 -0.649433,-1.33494 0,-0.37703 0.292245,-0.97776 0.649433,-1.33495 l 0.64943,-0.64943 h 6.374056 6.37405 l 0.64944,0.64943 c 0.35718,0.35719 0.64943,0.95792 0.64943,1.33495 0,0.37703 -0.29225,0.97775 -0.64943,1.33494 -0.5819,0.58189 -0.87081,0.64943 -2.77813,0.64943 h -2.1287 v 9.14016 9.14015 l -0.64943,0.64943 c -0.35719,0.35719 -0.95791,0.64943 -1.33494,0.64943 -0.37703,0 -0.97776,-0.29224 -1.33494,-0.64943 z m 12.17083,0 -0.64943,-0.64943 v -10.4751 -10.47509 l 0.64943,-0.64944 c 0.35719,-0.35718 0.95791,-0.64943 1.33494,-0.64943 0.37703,0 0.97776,0.29225 1.33494,0.64943 0.63197,0.63197 0.64944,0.75649 0.64944,4.63021 v 3.98078 h 3.70416 3.70417 v -3.98078 c 0,-3.87372 0.0175,-3.99824 0.64943,-4.63021 0.35719,-0.35718 0.95791,-0.64943 1.33494,-0.64943 0.37704,0 0.97776,0.29225 1.33495,0.64943 l 0.64943,0.64944 v 10.47509 10.4751 l -0.64943,0.64943 c -0.35719,0.35719 -0.95791,0.64943 -1.33495,0.64943 -0.37703,0 -0.97775,-0.29224 -1.33494,-0.64943 -0.63872,-0.63872 -0.64943,-0.72382 -0.64943,-5.15938 v -4.50994 h -3.70417 -3.70416 v 4.50994 c 0,4.43556 -0.0107,4.52066 -0.64944,5.15938 -0.35718,0.35719 -0.95791,0.64943 -1.33494,0.64943 -0.37703,0 -0.97775,-0.29224 -1.33494,-0.64943 z m 20.6375,0 -0.64943,-0.64943 v -10.4751 -10.47509 l 0.64943,-0.64944 c 0.64747,-0.64746 0.66591,-0.64943 6.09744,-0.64943 5.43153,0 5.44998,0.002 6.09744,0.64943 0.35719,0.35719 0.64944,0.95792 0.64944,1.33495 0,0.37703 -0.29225,0.97775 -0.64944,1.33494 -0.63381,0.63382 -0.74831,0.64943 -4.7625,0.64943 h -4.11306 v 2.64584 2.64583 h 2.65785 c 2.46915,0 2.70398,0.0461 3.3073,0.64943 0.35718,0.35719 0.64943,0.95791 0.64943,1.33495 0,0.37703 -0.29225,0.97775 -0.64943,1.33494 -0.60332,0.60332 -0.83815,0.64943 -3.3073,0.64943 h -2.65785 v 3.175 3.175 h 4.11306 c 4.01419,0 4.12869,0.0156 4.7625,0.64943 0.35719,0.35719 0.64944,0.95791 0.64944,1.33495 0,0.37703 -0.29225,0.97775 -0.64944,1.33494 -0.64746,0.64747 -0.66591,0.64943 -6.09744,0.64943 -5.43153,0 -5.44997,-0.002 -6.09744,-0.64943 z m 35.71875,0 -0.64944,-0.64943 v -9.14015 -9.14016 h -2.12869 c -1.90731,0 -2.19623,-0.0675 -2.77812,-0.64943 -0.35719,-0.35719 -0.64944,-0.95791 -0.64944,-1.33494 0,-0.37703 0.29225,-0.97776 0.64944,-1.33495 l 0.64943,-0.64943 h 6.24176 6.24176 l 0.64943,0.64943 c 0.35719,0.35719 0.64943,0.95792 0.64943,1.33495 0,0.37703 -0.29224,0.97775 -0.64943,1.33494 -0.58189,0.58189 -0.87081,0.64943 -2.77812,0.64943 h -2.1287 v 9.14016 9.14015 l -0.64943,0.64943 c -0.35719,0.35719 -0.95791,0.64943 -1.33494,0.64943 -0.37703,0 -0.97775,-0.29224 -1.33494,-0.64943 z m 12.17083,0 -0.64943,-0.64943 v -10.4751 -10.47509 l 0.64943,-0.64944 c 0.35719,-0.35718 0.95791,-0.64943 1.33494,-0.64943 0.37703,0 0.97776,0.29225 1.33494,0.64943 l 0.64944,0.64944 v 10.47509 10.4751 l -0.64944,0.64943 c -0.35718,0.35719 -0.95791,0.64943 -1.33494,0.64943 -0.37703,0 -0.97775,-0.29224 -1.33494,-0.64943 z m 9.525,0 -0.64943,-0.64943 v -10.4751 -10.47509 l 0.64943,-0.64944 c 0.35719,-0.35718 0.92601,-0.64943 1.26404,-0.64943 0.33804,0 0.85269,0.16676 1.14367,0.37056 0.29098,0.20381 1.59066,2.70491 2.88818,5.55799 1.29752,2.85308 2.44006,5.09734 2.53898,4.98725 0.0989,-0.1101 1.22881,-2.44114 2.51089,-5.1801 1.28207,-2.73896 2.57382,-5.14998 2.87055,-5.35781 0.29672,-0.20784 0.81608,-0.37789 1.15411,-0.37789 0.33804,0 0.90686,0.29225 1.26405,0.64943 l 0.64943,0.64944 v 10.47509 10.4751 l -0.64943,0.64943 c -0.35719,0.35719 -0.95791,0.64943 -1.33495,0.64943 -0.37703,0 -0.97775,-0.29224 -1.33494,-0.64943 -0.64816,-0.64816 -0.64945,-0.66047 -0.65942,-6.28386 l -0.01,-5.63442 -1.64366,3.30729 c -1.34784,2.71207 -1.77784,3.35334 -2.38927,3.56314 -0.55168,0.18931 -0.92441,0.1549 -1.43304,-0.13229 -0.48304,-0.27273 -1.10588,-1.29284 -2.09474,-3.43085 l -1.4073,-3.0427 -0.004,5.50213 c -0.004,5.4866 -0.006,5.50396 -0.65336,6.15156 -0.35719,0.35719 -0.95792,0.64943 -1.33495,0.64943 -0.37703,0 -0.97775,-0.29224 -1.33494,-0.64943 z m 22.48958,0 -0.64943,-0.64943 v -10.4751 -10.47509 l 0.64943,-0.64944 c 0.64642,-0.64642 0.67408,-0.64943 5.96515,-0.64943 5.29108,0 5.31873,0.003 5.96515,0.64943 0.35719,0.35719 0.64944,0.95792 0.64944,1.33495 0,0.37703 -0.29225,0.97775 -0.64944,1.33494 -0.63196,0.63197 -0.75648,0.64943 -4.63021,0.64943 h -3.98077 v 2.64584 2.64583 h 2.65786 c 2.46915,0 2.70397,0.0461 3.30729,0.64943 0.35719,0.35719 0.64943,0.95791 0.64943,1.33495 0,0.37703 -0.29224,0.97775 -0.64943,1.33494 -0.60332,0.60332 -0.83814,0.64943 -3.30729,0.64943 h -2.65786 v 3.175 3.175 h 3.98077 c 3.87373,0 3.99825,0.0175 4.63021,0.64943 0.35719,0.35719 0.64944,0.95791 0.64944,1.33495 0,0.37703 -0.29225,0.97775 -0.64944,1.33494 -0.64642,0.64642 -0.67407,0.64943 -5.96515,0.64943 -5.29107,0 -5.31873,-0.003 -5.96515,-0.64943 z"
       id="path320" /></g></svg>
