<?xml version="1.0" standalone="no"?>
 <!DOCTYPE svg PUBLIC "-//W3C//DTD SVG 1.1//EN" 
 "http://www.w3.org/Graphics/SVG/1.1/DTD/svg11.dtd"> 
<svg
  xmlns:svg="http://www.w3.org/2000/svg"
  xmlns="http://www.w3.org/2000/svg"
  xmlns:xlink="http://www.w3.org/1999/xlink"
  version="1.1"
  width="110.9980mm" height="80.7466mm" viewBox="0.0000 0.0000 110.9980 80.7466">
<title>SVG Image created as time_terminal-F_Silkscreen.svg date 2025/07/22 15:40:31 </title>
  <desc>Image generated by PCBNEW </desc>
<g style="fill:#000000; fill-opacity:1.0000;stroke:#000000; stroke-opacity:1.0000;
stroke-linecap:round; stroke-linejoin:round;"
 transform="translate(0 0) scale(1 1)">
</g>
<g style="fill:none; 
stroke:#F2EDA1; stroke-width:0.1000; stroke-opacity:1; 
stroke-linecap:round; stroke-linejoin:round;">
<path d="M37.0000 5.0000
L37.0000 65.0000
" />
</g>
<g style="fill:none; 
stroke:#F2EDA1; stroke-width:0.3000; stroke-opacity:1; 
stroke-linecap:round; stroke-linejoin:round;">
<path d="M13.0848 69.8999 A3.2500 3.2500 0.0 0 0 13.2211 74.0544" />
</g>
<g style="fill:none; 
stroke:#F2EDA1; stroke-width:0.1000; stroke-opacity:1; 
stroke-linecap:round; stroke-linejoin:round;">
<path d="M37.0000 65.0000
L76.5000 65.0000
" />
<path d="M76.5000 65.0000
L76.5000 32.7500
" />
<path d="M76.5000 5.0000
L37.0000 5.0000
" />
<path d="M15.9002 71.8952
L17.4002 71.8952
" />
</g>
<g style="fill:none; 
stroke:#F2EDA1; stroke-width:0.3000; stroke-opacity:1; 
stroke-linecap:round; stroke-linejoin:round;">
<circle cx="15.6502" cy="71.8952" r="0.2500" /> 
</g>
<g style="fill:none; 
stroke:#F2EDA1; stroke-width:0.1000; stroke-opacity:1; 
stroke-linecap:round; stroke-linejoin:round;">
<path d="M76.5000 8.2500
L76.5000 5.0000
" />
</g>
<g style="fill:#F2EDA1; fill-opacity:1.0000; stroke:none;">
<circle cx="17.4002" cy="71.8952" r="0.1500" /> 
</g>
<g style="fill:none; 
stroke:#F2EDA1; stroke-width:0.1000; stroke-opacity:1; 
stroke-linecap:round; stroke-linejoin:round;">
<path d="M76.5000 25.7500
L76.5000 15.5000
" />
</g>
<g style="fill:none; 
stroke:#F2EDA1; stroke-width:0.3000; stroke-opacity:1; 
stroke-linecap:round; stroke-linejoin:round;">
<path d="M17.4002 71.8952
L15.9002 71.8952
" />
<path d="M18.4793 74.7243 A4.0010 4.0010 0.0 0 0 18.3415 68.9347" />
<path d="M18.2167 73.8914 A3.2515 3.2515 0.0 0 0 18.0804 69.7350" />
<path d="M15.6502 71.6452
L15.6502 70.1452
" />
<path d="M12.8210 69.0661 A4.0010 4.0010 0.0 0 0 12.9588 74.8557" />
</g>
<g style="fill:none; 
stroke:#F2EDA1; stroke-width:0.4000; stroke-opacity:1; 
stroke-linecap:round; stroke-linejoin:round;">
<circle cx="15.6502" cy="71.8952" r="2.3049" /> 
</g>
<g style="fill:none; 
stroke:#F2EDA1; stroke-width:0.2400; stroke-opacity:1; 
stroke-linecap:round; stroke-linejoin:round;">
<text x="29.2500" y="12.2500"
textLength="5.1086" font-size="1.6000" lengthAdjust="spacingAndGlyphs"
text-anchor="start" opacity="0" stroke-opacity="0">BOOT</text>
<g class="stroked-text"><desc>BOOT</desc>
<path d="M30.0936 11.4621
L30.2650 11.5192
" />
<path d="M30.2650 11.5192
L30.3222 11.5764
" />
<path d="M30.3222 11.5764
L30.3793 11.6907
" />
<path d="M30.3793 11.6907
L30.3793 11.8621
" />
<path d="M30.3793 11.8621
L30.3222 11.9764
" />
<path d="M30.3222 11.9764
L30.2650 12.0335
" />
<path d="M30.2650 12.0335
L30.1508 12.0907
" />
<path d="M30.1508 12.0907
L29.6936 12.0907
" />
<path d="M29.6936 12.0907
L29.6936 10.8907
" />
<path d="M29.6936 10.8907
L30.0936 10.8907
" />
<path d="M30.0936 10.8907
L30.2079 10.9478
" />
<path d="M30.2079 10.9478
L30.2650 11.0049
" />
<path d="M30.2650 11.0049
L30.3222 11.1192
" />
<path d="M30.3222 11.1192
L30.3222 11.2335
" />
<path d="M30.3222 11.2335
L30.2650 11.3478
" />
<path d="M30.2650 11.3478
L30.2079 11.4049
" />
<path d="M30.2079 11.4049
L30.0936 11.4621
" />
<path d="M30.0936 11.4621
L29.6936 11.4621
" />
<path d="M31.1222 10.8907
L31.3508 10.8907
" />
<path d="M31.3508 10.8907
L31.4650 10.9478
" />
<path d="M31.4650 10.9478
L31.5793 11.0621
" />
<path d="M31.5793 11.0621
L31.6365 11.2907
" />
<path d="M31.6365 11.2907
L31.6365 11.6907
" />
<path d="M31.6365 11.6907
L31.5793 11.9192
" />
<path d="M31.5793 11.9192
L31.4650 12.0335
" />
<path d="M31.4650 12.0335
L31.3508 12.0907
" />
<path d="M31.3508 12.0907
L31.1222 12.0907
" />
<path d="M31.1222 12.0907
L31.0079 12.0335
" />
<path d="M31.0079 12.0335
L30.8936 11.9192
" />
<path d="M30.8936 11.9192
L30.8365 11.6907
" />
<path d="M30.8365 11.6907
L30.8365 11.2907
" />
<path d="M30.8365 11.2907
L30.8936 11.0621
" />
<path d="M30.8936 11.0621
L31.0079 10.9478
" />
<path d="M31.0079 10.9478
L31.1222 10.8907
" />
<path d="M32.3793 10.8907
L32.6079 10.8907
" />
<path d="M32.6079 10.8907
L32.7222 10.9478
" />
<path d="M32.7222 10.9478
L32.8365 11.0621
" />
<path d="M32.8365 11.0621
L32.8936 11.2907
" />
<path d="M32.8936 11.2907
L32.8936 11.6907
" />
<path d="M32.8936 11.6907
L32.8365 11.9192
" />
<path d="M32.8365 11.9192
L32.7222 12.0335
" />
<path d="M32.7222 12.0335
L32.6079 12.0907
" />
<path d="M32.6079 12.0907
L32.3793 12.0907
" />
<path d="M32.3793 12.0907
L32.2650 12.0335
" />
<path d="M32.2650 12.0335
L32.1508 11.9192
" />
<path d="M32.1508 11.9192
L32.0936 11.6907
" />
<path d="M32.0936 11.6907
L32.0936 11.2907
" />
<path d="M32.0936 11.2907
L32.1508 11.0621
" />
<path d="M32.1508 11.0621
L32.2650 10.9478
" />
<path d="M32.2650 10.9478
L32.3793 10.8907
" />
<path d="M33.2365 10.8907
L33.9222 10.8907
" />
<path d="M33.5793 12.0907
L33.5793 10.8907
" />
</g><text x="14.2500" y="12.2500"
textLength="5.9086" font-size="1.6000" lengthAdjust="spacingAndGlyphs"
text-anchor="start" opacity="0" stroke-opacity="0">RESET</text>
<g class="stroked-text"><desc>RESET</desc>
<path d="M15.3793 12.0907
L14.9793 11.5192
" />
<path d="M14.6936 12.0907
L14.6936 10.8907
" />
<path d="M14.6936 10.8907
L15.1508 10.8907
" />
<path d="M15.1508 10.8907
L15.2650 10.9478
" />
<path d="M15.2650 10.9478
L15.3222 11.0049
" />
<path d="M15.3222 11.0049
L15.3793 11.1192
" />
<path d="M15.3793 11.1192
L15.3793 11.2907
" />
<path d="M15.3793 11.2907
L15.3222 11.4049
" />
<path d="M15.3222 11.4049
L15.2650 11.4621
" />
<path d="M15.2650 11.4621
L15.1508 11.5192
" />
<path d="M15.1508 11.5192
L14.6936 11.5192
" />
<path d="M15.8936 11.4621
L16.2936 11.4621
" />
<path d="M16.4650 12.0907
L15.8936 12.0907
" />
<path d="M15.8936 12.0907
L15.8936 10.8907
" />
<path d="M15.8936 10.8907
L16.4650 10.8907
" />
<path d="M16.9222 12.0335
L17.0936 12.0907
" />
<path d="M17.0936 12.0907
L17.3793 12.0907
" />
<path d="M17.3793 12.0907
L17.4936 12.0335
" />
<path d="M17.4936 12.0335
L17.5508 11.9764
" />
<path d="M17.5508 11.9764
L17.6079 11.8621
" />
<path d="M17.6079 11.8621
L17.6079 11.7478
" />
<path d="M17.6079 11.7478
L17.5508 11.6335
" />
<path d="M17.5508 11.6335
L17.4936 11.5764
" />
<path d="M17.4936 11.5764
L17.3793 11.5192
" />
<path d="M17.3793 11.5192
L17.1507 11.4621
" />
<path d="M17.1507 11.4621
L17.0365 11.4049
" />
<path d="M17.0365 11.4049
L16.9793 11.3478
" />
<path d="M16.9793 11.3478
L16.9222 11.2335
" />
<path d="M16.9222 11.2335
L16.9222 11.1192
" />
<path d="M16.9222 11.1192
L16.9793 11.0049
" />
<path d="M16.9793 11.0049
L17.0365 10.9478
" />
<path d="M17.0365 10.9478
L17.1507 10.8907
" />
<path d="M17.1507 10.8907
L17.4365 10.8907
" />
<path d="M17.4365 10.8907
L17.6079 10.9478
" />
<path d="M18.1222 11.4621
L18.5222 11.4621
" />
<path d="M18.6936 12.0907
L18.1222 12.0907
" />
<path d="M18.1222 12.0907
L18.1222 10.8907
" />
<path d="M18.1222 10.8907
L18.6936 10.8907
" />
<path d="M19.0365 10.8907
L19.7222 10.8907
" />
<path d="M19.3793 12.0907
L19.3793 10.8907
" />
</g><g transform="rotate(-90.000000 103.0000 20.0000)">
<text x="103.0000" y="20.0000"
textLength="9.3943" font-size="1.6000" lengthAdjust="spacingAndGlyphs"
text-anchor="start" opacity="0" stroke-opacity="0">CHARGING</text>
</g>
<g class="stroked-text"><desc>CHARGING</desc>
<path d="M102.7264 18.8707
L102.7835 18.9278
" />
<path d="M102.7835 18.9278
L102.8407 19.0992
" />
<path d="M102.8407 19.0992
L102.8407 19.2135
" />
<path d="M102.8407 19.2135
L102.7835 19.3850
" />
<path d="M102.7835 19.3850
L102.6692 19.4992
" />
<path d="M102.6692 19.4992
L102.5549 19.5564
" />
<path d="M102.5549 19.5564
L102.3264 19.6135
" />
<path d="M102.3264 19.6135
L102.1549 19.6135
" />
<path d="M102.1549 19.6135
L101.9264 19.5564
" />
<path d="M101.9264 19.5564
L101.8121 19.4992
" />
<path d="M101.8121 19.4992
L101.6978 19.3850
" />
<path d="M101.6978 19.3850
L101.6407 19.2135
" />
<path d="M101.6407 19.2135
L101.6407 19.0992
" />
<path d="M101.6407 19.0992
L101.6978 18.9278
" />
<path d="M101.6978 18.9278
L101.7549 18.8707
" />
<path d="M102.8407 18.3564
L101.6407 18.3564
" />
<path d="M102.2121 18.3564
L102.2121 17.6707
" />
<path d="M102.8407 17.6707
L101.6407 17.6707
" />
<path d="M102.4978 17.1564
L102.4978 16.5850
" />
<path d="M102.8407 17.2707
L101.6407 16.8707
" />
<path d="M101.6407 16.8707
L102.8407 16.4707
" />
<path d="M102.8407 15.3850
L102.2692 15.7850
" />
<path d="M102.8407 16.0707
L101.6407 16.0707
" />
<path d="M101.6407 16.0707
L101.6407 15.6135
" />
<path d="M101.6407 15.6135
L101.6978 15.4992
" />
<path d="M101.6978 15.4992
L101.7549 15.4421
" />
<path d="M101.7549 15.4421
L101.8692 15.3850
" />
<path d="M101.8692 15.3850
L102.0407 15.3850
" />
<path d="M102.0407 15.3850
L102.1549 15.4421
" />
<path d="M102.1549 15.4421
L102.2121 15.4992
" />
<path d="M102.2121 15.4992
L102.2692 15.6135
" />
<path d="M102.2692 15.6135
L102.2692 16.0707
" />
<path d="M101.6978 14.2421
L101.6407 14.3564
" />
<path d="M101.6407 14.3564
L101.6407 14.5278
" />
<path d="M101.6407 14.5278
L101.6978 14.6992
" />
<path d="M101.6978 14.6992
L101.8121 14.8135
" />
<path d="M101.8121 14.8135
L101.9264 14.8707
" />
<path d="M101.9264 14.8707
L102.1549 14.9278
" />
<path d="M102.1549 14.9278
L102.3264 14.9278
" />
<path d="M102.3264 14.9278
L102.5549 14.8707
" />
<path d="M102.5549 14.8707
L102.6692 14.8135
" />
<path d="M102.6692 14.8135
L102.7835 14.6992
" />
<path d="M102.7835 14.6992
L102.8407 14.5278
" />
<path d="M102.8407 14.5278
L102.8407 14.4135
" />
<path d="M102.8407 14.4135
L102.7835 14.2421
" />
<path d="M102.7835 14.2421
L102.7264 14.1850
" />
<path d="M102.7264 14.1850
L102.3264 14.1850
" />
<path d="M102.3264 14.1850
L102.3264 14.4135
" />
<path d="M102.8407 13.6707
L101.6407 13.6707
" />
<path d="M102.8407 13.0992
L101.6407 13.0992
" />
<path d="M101.6407 13.0992
L102.8407 12.4135
" />
<path d="M102.8407 12.4135
L101.6407 12.4135
" />
<path d="M101.6978 11.2135
L101.6407 11.3278
" />
<path d="M101.6407 11.3278
L101.6407 11.4992
" />
<path d="M101.6407 11.4992
L101.6978 11.6707
" />
<path d="M101.6978 11.6707
L101.8121 11.7850
" />
<path d="M101.8121 11.7850
L101.9264 11.8421
" />
<path d="M101.9264 11.8421
L102.1549 11.8992
" />
<path d="M102.1549 11.8992
L102.3264 11.8992
" />
<path d="M102.3264 11.8992
L102.5549 11.8421
" />
<path d="M102.5549 11.8421
L102.6692 11.7850
" />
<path d="M102.6692 11.7850
L102.7835 11.6707
" />
<path d="M102.7835 11.6707
L102.8407 11.4992
" />
<path d="M102.8407 11.4992
L102.8407 11.3850
" />
<path d="M102.8407 11.3850
L102.7835 11.2135
" />
<path d="M102.7835 11.2135
L102.7264 11.1564
" />
<path d="M102.7264 11.1564
L102.3264 11.1564
" />
<path d="M102.3264 11.1564
L102.3264 11.3850
" />
</g><text x="46.7500" y="74.0000"
textLength="8.2514" font-size="1.6000" lengthAdjust="spacingAndGlyphs"
text-anchor="start" opacity="0" stroke-opacity="0">USR LED</text>
<g class="stroked-text"><desc>USR LED</desc>
<path d="M47.1936 72.6407
L47.1936 73.6121
" />
<path d="M47.1936 73.6121
L47.2508 73.7264
" />
<path d="M47.2508 73.7264
L47.3079 73.7835
" />
<path d="M47.3079 73.7835
L47.4222 73.8407
" />
<path d="M47.4222 73.8407
L47.6508 73.8407
" />
<path d="M47.6508 73.8407
L47.7650 73.7835
" />
<path d="M47.7650 73.7835
L47.8222 73.7264
" />
<path d="M47.8222 73.7264
L47.8793 73.6121
" />
<path d="M47.8793 73.6121
L47.8793 72.6407
" />
<path d="M48.3936 73.7835
L48.5650 73.8407
" />
<path d="M48.5650 73.8407
L48.8508 73.8407
" />
<path d="M48.8508 73.8407
L48.9650 73.7835
" />
<path d="M48.9650 73.7835
L49.0222 73.7264
" />
<path d="M49.0222 73.7264
L49.0793 73.6121
" />
<path d="M49.0793 73.6121
L49.0793 73.4978
" />
<path d="M49.0793 73.4978
L49.0222 73.3835
" />
<path d="M49.0222 73.3835
L48.9650 73.3264
" />
<path d="M48.9650 73.3264
L48.8508 73.2692
" />
<path d="M48.8508 73.2692
L48.6222 73.2121
" />
<path d="M48.6222 73.2121
L48.5079 73.1549
" />
<path d="M48.5079 73.1549
L48.4508 73.0978
" />
<path d="M48.4508 73.0978
L48.3936 72.9835
" />
<path d="M48.3936 72.9835
L48.3936 72.8692
" />
<path d="M48.3936 72.8692
L48.4508 72.7549
" />
<path d="M48.4508 72.7549
L48.5079 72.6978
" />
<path d="M48.5079 72.6978
L48.6222 72.6407
" />
<path d="M48.6222 72.6407
L48.9079 72.6407
" />
<path d="M48.9079 72.6407
L49.0793 72.6978
" />
<path d="M50.2793 73.8407
L49.8793 73.2692
" />
<path d="M49.5936 73.8407
L49.5936 72.6407
" />
<path d="M49.5936 72.6407
L50.0508 72.6407
" />
<path d="M50.0508 72.6407
L50.1650 72.6978
" />
<path d="M50.1650 72.6978
L50.2222 72.7549
" />
<path d="M50.2222 72.7549
L50.2793 72.8692
" />
<path d="M50.2793 72.8692
L50.2793 73.0407
" />
<path d="M50.2793 73.0407
L50.2222 73.1549
" />
<path d="M50.2222 73.1549
L50.1650 73.2121
" />
<path d="M50.1650 73.2121
L50.0508 73.2692
" />
<path d="M50.0508 73.2692
L49.5936 73.2692
" />
<path d="M52.2793 73.8407
L51.7079 73.8407
" />
<path d="M51.7079 73.8407
L51.7079 72.6407
" />
<path d="M52.6793 73.2121
L53.0793 73.2121
" />
<path d="M53.2508 73.8407
L52.6793 73.8407
" />
<path d="M52.6793 73.8407
L52.6793 72.6407
" />
<path d="M52.6793 72.6407
L53.2508 72.6407
" />
<path d="M53.7650 73.8407
L53.7650 72.6407
" />
<path d="M53.7650 72.6407
L54.0508 72.6407
" />
<path d="M54.0508 72.6407
L54.2222 72.6978
" />
<path d="M54.2222 72.6978
L54.3365 72.8121
" />
<path d="M54.3365 72.8121
L54.3936 72.9264
" />
<path d="M54.3936 72.9264
L54.4508 73.1549
" />
<path d="M54.4508 73.1549
L54.4508 73.3264
" />
<path d="M54.4508 73.3264
L54.3936 73.5549
" />
<path d="M54.3936 73.5549
L54.3365 73.6692
" />
<path d="M54.3365 73.6692
L54.2222 73.7835
" />
<path d="M54.2222 73.7835
L54.0508 73.8407
" />
<path d="M54.0508 73.8407
L53.7650 73.8407
" />
</g><text x="87.7500" y="6.5000"
textLength="7.6800" font-size="1.6000" lengthAdjust="spacingAndGlyphs"
text-anchor="start" opacity="0" stroke-opacity="0">PWR SW</text>
<g class="stroked-text"><desc>PWR SW</desc>
<path d="M88.1936 6.3407
L88.1936 5.1407
" />
<path d="M88.1936 5.1407
L88.6508 5.1407
" />
<path d="M88.6508 5.1407
L88.7650 5.1978
" />
<path d="M88.7650 5.1978
L88.8222 5.2549
" />
<path d="M88.8222 5.2549
L88.8793 5.3692
" />
<path d="M88.8793 5.3692
L88.8793 5.5407
" />
<path d="M88.8793 5.5407
L88.8222 5.6549
" />
<path d="M88.8222 5.6549
L88.7650 5.7121
" />
<path d="M88.7650 5.7121
L88.6508 5.7692
" />
<path d="M88.6508 5.7692
L88.1936 5.7692
" />
<path d="M89.2793 5.1407
L89.5650 6.3407
" />
<path d="M89.5650 6.3407
L89.7936 5.4835
" />
<path d="M89.7936 5.4835
L90.0222 6.3407
" />
<path d="M90.0222 6.3407
L90.3079 5.1407
" />
<path d="M91.4508 6.3407
L91.0508 5.7692
" />
<path d="M90.7650 6.3407
L90.7650 5.1407
" />
<path d="M90.7650 5.1407
L91.2222 5.1407
" />
<path d="M91.2222 5.1407
L91.3365 5.1978
" />
<path d="M91.3365 5.1978
L91.3936 5.2549
" />
<path d="M91.3936 5.2549
L91.4508 5.3692
" />
<path d="M91.4508 5.3692
L91.4508 5.5407
" />
<path d="M91.4508 5.5407
L91.3936 5.6549
" />
<path d="M91.3936 5.6549
L91.3365 5.7121
" />
<path d="M91.3365 5.7121
L91.2222 5.7692
" />
<path d="M91.2222 5.7692
L90.7650 5.7692
" />
<path d="M92.8222 6.2835
L92.9936 6.3407
" />
<path d="M92.9936 6.3407
L93.2793 6.3407
" />
<path d="M93.2793 6.3407
L93.3936 6.2835
" />
<path d="M93.3936 6.2835
L93.4508 6.2264
" />
<path d="M93.4508 6.2264
L93.5079 6.1121
" />
<path d="M93.5079 6.1121
L93.5079 5.9978
" />
<path d="M93.5079 5.9978
L93.4508 5.8835
" />
<path d="M93.4508 5.8835
L93.3936 5.8264
" />
<path d="M93.3936 5.8264
L93.2793 5.7692
" />
<path d="M93.2793 5.7692
L93.0508 5.7121
" />
<path d="M93.0508 5.7121
L92.9365 5.6549
" />
<path d="M92.9365 5.6549
L92.8793 5.5978
" />
<path d="M92.8793 5.5978
L92.8222 5.4835
" />
<path d="M92.8222 5.4835
L92.8222 5.3692
" />
<path d="M92.8222 5.3692
L92.8793 5.2549
" />
<path d="M92.8793 5.2549
L92.9365 5.1978
" />
<path d="M92.9365 5.1978
L93.0508 5.1407
" />
<path d="M93.0508 5.1407
L93.3365 5.1407
" />
<path d="M93.3365 5.1407
L93.5079 5.1978
" />
<path d="M93.9079 5.1407
L94.1936 6.3407
" />
<path d="M94.1936 6.3407
L94.4222 5.4835
" />
<path d="M94.4222 5.4835
L94.6508 6.3407
" />
<path d="M94.6508 6.3407
L94.9365 5.1407
" />
</g><g transform="rotate(-90.000000 103.0000 67.2500)">
<text x="103.0000" y="67.2500"
textLength="5.9086" font-size="1.6000" lengthAdjust="spacingAndGlyphs"
text-anchor="start" opacity="0" stroke-opacity="0">BTN 2</text>
</g>
<g class="stroked-text"><desc>BTN 2</desc>
<path d="M102.2121 66.4064
L102.2692 66.2350
" />
<path d="M102.2692 66.2350
L102.3264 66.1778
" />
<path d="M102.3264 66.1778
L102.4407 66.1207
" />
<path d="M102.4407 66.1207
L102.6121 66.1207
" />
<path d="M102.6121 66.1207
L102.7264 66.1778
" />
<path d="M102.7264 66.1778
L102.7835 66.2350
" />
<path d="M102.7835 66.2350
L102.8407 66.3492
" />
<path d="M102.8407 66.3492
L102.8407 66.8064
" />
<path d="M102.8407 66.8064
L101.6407 66.8064
" />
<path d="M101.6407 66.8064
L101.6407 66.4064
" />
<path d="M101.6407 66.4064
L101.6978 66.2921
" />
<path d="M101.6978 66.2921
L101.7549 66.2350
" />
<path d="M101.7549 66.2350
L101.8692 66.1778
" />
<path d="M101.8692 66.1778
L101.9835 66.1778
" />
<path d="M101.9835 66.1778
L102.0978 66.2350
" />
<path d="M102.0978 66.2350
L102.1549 66.2921
" />
<path d="M102.1549 66.2921
L102.2121 66.4064
" />
<path d="M102.2121 66.4064
L102.2121 66.8064
" />
<path d="M101.6407 65.7778
L101.6407 65.0921
" />
<path d="M102.8407 65.4350
L101.6407 65.4350
" />
<path d="M102.8407 64.6921
L101.6407 64.6921
" />
<path d="M101.6407 64.6921
L102.8407 64.0064
" />
<path d="M102.8407 64.0064
L101.6407 64.0064
" />
<path d="M101.7549 62.5778
L101.6978 62.5207
" />
<path d="M101.6978 62.5207
L101.6407 62.4064
" />
<path d="M101.6407 62.4064
L101.6407 62.1207
" />
<path d="M101.6407 62.1207
L101.6978 62.0064
" />
<path d="M101.6978 62.0064
L101.7549 61.9492
" />
<path d="M101.7549 61.9492
L101.8692 61.8921
" />
<path d="M101.8692 61.8921
L101.9835 61.8921
" />
<path d="M101.9835 61.8921
L102.1549 61.9492
" />
<path d="M102.1549 61.9492
L102.8407 62.6350
" />
<path d="M102.8407 62.6350
L102.8407 61.8921
" />
</g><text x="57.7500" y="74.0000"
textLength="10.8229" font-size="1.6000" lengthAdjust="spacingAndGlyphs"
text-anchor="start" opacity="0" stroke-opacity="0">3V3 POWER</text>
<g class="stroked-text"><desc>3V3 POWER</desc>
<path d="M58.0793 72.6407
L58.8222 72.6407
" />
<path d="M58.8222 72.6407
L58.4222 73.0978
" />
<path d="M58.4222 73.0978
L58.5936 73.0978
" />
<path d="M58.5936 73.0978
L58.7079 73.1549
" />
<path d="M58.7079 73.1549
L58.7650 73.2121
" />
<path d="M58.7650 73.2121
L58.8222 73.3264
" />
<path d="M58.8222 73.3264
L58.8222 73.6121
" />
<path d="M58.8222 73.6121
L58.7650 73.7264
" />
<path d="M58.7650 73.7264
L58.7079 73.7835
" />
<path d="M58.7079 73.7835
L58.5936 73.8407
" />
<path d="M58.5936 73.8407
L58.2508 73.8407
" />
<path d="M58.2508 73.8407
L58.1365 73.7835
" />
<path d="M58.1365 73.7835
L58.0793 73.7264
" />
<path d="M59.1650 72.6407
L59.5650 73.8407
" />
<path d="M59.5650 73.8407
L59.9650 72.6407
" />
<path d="M60.2507 72.6407
L60.9936 72.6407
" />
<path d="M60.9936 72.6407
L60.5936 73.0978
" />
<path d="M60.5936 73.0978
L60.7650 73.0978
" />
<path d="M60.7650 73.0978
L60.8793 73.1549
" />
<path d="M60.8793 73.1549
L60.9365 73.2121
" />
<path d="M60.9365 73.2121
L60.9936 73.3264
" />
<path d="M60.9936 73.3264
L60.9936 73.6121
" />
<path d="M60.9936 73.6121
L60.9365 73.7264
" />
<path d="M60.9365 73.7264
L60.8793 73.7835
" />
<path d="M60.8793 73.7835
L60.7650 73.8407
" />
<path d="M60.7650 73.8407
L60.4222 73.8407
" />
<path d="M60.4222 73.8407
L60.3079 73.7835
" />
<path d="M60.3079 73.7835
L60.2507 73.7264
" />
<path d="M62.4222 73.8407
L62.4222 72.6407
" />
<path d="M62.4222 72.6407
L62.8793 72.6407
" />
<path d="M62.8793 72.6407
L62.9936 72.6978
" />
<path d="M62.9936 72.6978
L63.0507 72.7549
" />
<path d="M63.0507 72.7549
L63.1079 72.8692
" />
<path d="M63.1079 72.8692
L63.1079 73.0407
" />
<path d="M63.1079 73.0407
L63.0507 73.1549
" />
<path d="M63.0507 73.1549
L62.9936 73.2121
" />
<path d="M62.9936 73.2121
L62.8793 73.2692
" />
<path d="M62.8793 73.2692
L62.4222 73.2692
" />
<path d="M63.8507 72.6407
L64.0793 72.6407
" />
<path d="M64.0793 72.6407
L64.1936 72.6978
" />
<path d="M64.1936 72.6978
L64.3079 72.8121
" />
<path d="M64.3079 72.8121
L64.3650 73.0407
" />
<path d="M64.3650 73.0407
L64.3650 73.4407
" />
<path d="M64.3650 73.4407
L64.3079 73.6692
" />
<path d="M64.3079 73.6692
L64.1936 73.7835
" />
<path d="M64.1936 73.7835
L64.0793 73.8407
" />
<path d="M64.0793 73.8407
L63.8507 73.8407
" />
<path d="M63.8507 73.8407
L63.7365 73.7835
" />
<path d="M63.7365 73.7835
L63.6222 73.6692
" />
<path d="M63.6222 73.6692
L63.5650 73.4407
" />
<path d="M63.5650 73.4407
L63.5650 73.0407
" />
<path d="M63.5650 73.0407
L63.6222 72.8121
" />
<path d="M63.6222 72.8121
L63.7365 72.6978
" />
<path d="M63.7365 72.6978
L63.8507 72.6407
" />
<path d="M64.7650 72.6407
L65.0507 73.8407
" />
<path d="M65.0507 73.8407
L65.2793 72.9835
" />
<path d="M65.2793 72.9835
L65.5079 73.8407
" />
<path d="M65.5079 73.8407
L65.7936 72.6407
" />
<path d="M66.2508 73.2121
L66.6508 73.2121
" />
<path d="M66.8222 73.8407
L66.2508 73.8407
" />
<path d="M66.2508 73.8407
L66.2508 72.6407
" />
<path d="M66.2508 72.6407
L66.8222 72.6407
" />
<path d="M68.0222 73.8407
L67.6222 73.2692
" />
<path d="M67.3365 73.8407
L67.3365 72.6407
" />
<path d="M67.3365 72.6407
L67.7936 72.6407
" />
<path d="M67.7936 72.6407
L67.9079 72.6978
" />
<path d="M67.9079 72.6978
L67.9650 72.7549
" />
<path d="M67.9650 72.7549
L68.0222 72.8692
" />
<path d="M68.0222 72.8692
L68.0222 73.0407
" />
<path d="M68.0222 73.0407
L67.9650 73.1549
" />
<path d="M67.9650 73.1549
L67.9079 73.2121
" />
<path d="M67.9079 73.2121
L67.7936 73.2692
" />
<path d="M67.7936 73.2692
L67.3365 73.2692
" />
</g><g transform="rotate(-90.000000 103.0000 57.7500)">
<text x="103.0000" y="57.7500"
textLength="5.9086" font-size="1.6000" lengthAdjust="spacingAndGlyphs"
text-anchor="start" opacity="0" stroke-opacity="0">BTN 1</text>
</g>
<g class="stroked-text"><desc>BTN 1</desc>
<path d="M102.2121 56.9064
L102.2692 56.7350
" />
<path d="M102.2692 56.7350
L102.3264 56.6778
" />
<path d="M102.3264 56.6778
L102.4407 56.6207
" />
<path d="M102.4407 56.6207
L102.6121 56.6207
" />
<path d="M102.6121 56.6207
L102.7264 56.6778
" />
<path d="M102.7264 56.6778
L102.7835 56.7350
" />
<path d="M102.7835 56.7350
L102.8407 56.8492
" />
<path d="M102.8407 56.8492
L102.8407 57.3064
" />
<path d="M102.8407 57.3064
L101.6407 57.3064
" />
<path d="M101.6407 57.3064
L101.6407 56.9064
" />
<path d="M101.6407 56.9064
L101.6978 56.7921
" />
<path d="M101.6978 56.7921
L101.7549 56.7350
" />
<path d="M101.7549 56.7350
L101.8692 56.6778
" />
<path d="M101.8692 56.6778
L101.9835 56.6778
" />
<path d="M101.9835 56.6778
L102.0978 56.7350
" />
<path d="M102.0978 56.7350
L102.1549 56.7921
" />
<path d="M102.1549 56.7921
L102.2121 56.9064
" />
<path d="M102.2121 56.9064
L102.2121 57.3064
" />
<path d="M101.6407 56.2778
L101.6407 55.5921
" />
<path d="M102.8407 55.9350
L101.6407 55.9350
" />
<path d="M102.8407 55.1921
L101.6407 55.1921
" />
<path d="M101.6407 55.1921
L102.8407 54.5064
" />
<path d="M102.8407 54.5064
L101.6407 54.5064
" />
<path d="M102.8407 52.3921
L102.8407 53.0778
" />
<path d="M102.8407 52.7350
L101.6407 52.7350
" />
<path d="M101.6407 52.7350
L101.8121 52.8492
" />
<path d="M101.8121 52.8492
L101.9264 52.9635
" />
<path d="M101.9264 52.9635
L101.9835 53.0778
" />
</g></g>
<g style="fill:none; 
stroke:#F2EDA1; stroke-width:0.4000; stroke-opacity:1; 
stroke-linecap:round; stroke-linejoin:round;">
<text x="27.5002" y="71.3253"
textLength="14.3238" font-size="2.6667" lengthAdjust="spacingAndGlyphs"
text-anchor="middle" opacity="0" stroke-opacity="0">THE TIME</text>
<g class="stroked-text"><desc>THE TIME</desc>
<path d="M20.9287 69.0597
L22.0716 69.0597
" />
<path d="M21.5002 71.0597
L21.5002 69.0597
" />
<path d="M22.7383 71.0597
L22.7383 69.0597
" />
<path d="M22.7383 70.0121
L23.8811 70.0121
" />
<path d="M23.8811 71.0597
L23.8811 69.0597
" />
<path d="M24.8335 70.0121
L25.5002 70.0121
" />
<path d="M25.7859 71.0597
L24.8335 71.0597
" />
<path d="M24.8335 71.0597
L24.8335 69.0597
" />
<path d="M24.8335 69.0597
L25.7859 69.0597
" />
<path d="M27.8811 69.0597
L29.0240 69.0597
" />
<path d="M28.4525 71.0597
L28.4525 69.0597
" />
<path d="M29.6906 71.0597
L29.6906 69.0597
" />
<path d="M30.6430 71.0597
L30.6430 69.0597
" />
<path d="M30.6430 69.0597
L31.3097 70.4883
" />
<path d="M31.3097 70.4883
L31.9763 69.0597
" />
<path d="M31.9763 69.0597
L31.9763 71.0597
" />
<path d="M32.9287 70.0121
L33.5954 70.0121
" />
<path d="M33.8811 71.0597
L32.9287 71.0597
" />
<path d="M32.9287 71.0597
L32.9287 69.0597
" />
<path d="M32.9287 69.0597
L33.8811 69.0597
" />
</g><text x="27.5002" y="74.5452"
textLength="14.8000" font-size="2.6667" lengthAdjust="spacingAndGlyphs"
text-anchor="middle" opacity="0" stroke-opacity="0">TERMINAL</text>
<g class="stroked-text"><desc>TERMINAL</desc>
<path d="M20.6906 72.2796
L21.8335 72.2796
" />
<path d="M21.2621 74.2796
L21.2621 72.2796
" />
<path d="M22.5002 73.2320
L23.1668 73.2320
" />
<path d="M23.4525 74.2796
L22.5002 74.2796
" />
<path d="M22.5002 74.2796
L22.5002 72.2796
" />
<path d="M22.5002 72.2796
L23.4525 72.2796
" />
<path d="M25.4525 74.2796
L24.7859 73.3272
" />
<path d="M24.3097 74.2796
L24.3097 72.2796
" />
<path d="M24.3097 72.2796
L25.0716 72.2796
" />
<path d="M25.0716 72.2796
L25.2621 72.3749
" />
<path d="M25.2621 72.3749
L25.3573 72.4701
" />
<path d="M25.3573 72.4701
L25.4525 72.6606
" />
<path d="M25.4525 72.6606
L25.4525 72.9463
" />
<path d="M25.4525 72.9463
L25.3573 73.1368
" />
<path d="M25.3573 73.1368
L25.2621 73.2320
" />
<path d="M25.2621 73.2320
L25.0716 73.3272
" />
<path d="M25.0716 73.3272
L24.3097 73.3272
" />
<path d="M26.3097 74.2796
L26.3097 72.2796
" />
<path d="M26.3097 72.2796
L26.9763 73.7082
" />
<path d="M26.9763 73.7082
L27.6430 72.2796
" />
<path d="M27.6430 72.2796
L27.6430 74.2796
" />
<path d="M28.5954 74.2796
L28.5954 72.2796
" />
<path d="M29.5478 74.2796
L29.5478 72.2796
" />
<path d="M29.5478 72.2796
L30.6906 74.2796
" />
<path d="M30.6906 74.2796
L30.6906 72.2796
" />
<path d="M31.5478 73.7082
L32.5002 73.7082
" />
<path d="M31.3573 74.2796
L32.0240 72.2796
" />
<path d="M32.0240 72.2796
L32.6906 74.2796
" />
<path d="M34.3097 74.2796
L33.3573 74.2796
" />
<path d="M33.3573 74.2796
L33.3573 72.2796
" />
</g></g>
<g style="fill:none; 
stroke:#F2EDA1; stroke-width:0.2400; stroke-opacity:1; 
stroke-linecap:round; stroke-linejoin:round;">
<text x="56.7500" y="60.2500"
textLength="15.1086" font-size="1.6000" lengthAdjust="spacingAndGlyphs"
text-anchor="middle" opacity="0" stroke-opacity="0">RFID MFRC-522</text>
<g class="stroked-text"><desc>RFID MFRC-522</desc>
<path d="M50.4071 60.0907
L50.0071 59.5192
" />
<path d="M49.7214 60.0907
L49.7214 58.8907
" />
<path d="M49.7214 58.8907
L50.1786 58.8907
" />
<path d="M50.1786 58.8907
L50.2929 58.9478
" />
<path d="M50.2929 58.9478
L50.3500 59.0049
" />
<path d="M50.3500 59.0049
L50.4071 59.1192
" />
<path d="M50.4071 59.1192
L50.4071 59.2907
" />
<path d="M50.4071 59.2907
L50.3500 59.4049
" />
<path d="M50.3500 59.4049
L50.2929 59.4621
" />
<path d="M50.2929 59.4621
L50.1786 59.5192
" />
<path d="M50.1786 59.5192
L49.7214 59.5192
" />
<path d="M51.3214 59.4621
L50.9214 59.4621
" />
<path d="M50.9214 60.0907
L50.9214 58.8907
" />
<path d="M50.9214 58.8907
L51.4929 58.8907
" />
<path d="M51.9500 60.0907
L51.9500 58.8907
" />
<path d="M52.5214 60.0907
L52.5214 58.8907
" />
<path d="M52.5214 58.8907
L52.8071 58.8907
" />
<path d="M52.8071 58.8907
L52.9786 58.9478
" />
<path d="M52.9786 58.9478
L53.0929 59.0621
" />
<path d="M53.0929 59.0621
L53.1500 59.1764
" />
<path d="M53.1500 59.1764
L53.2071 59.4049
" />
<path d="M53.2071 59.4049
L53.2071 59.5764
" />
<path d="M53.2071 59.5764
L53.1500 59.8049
" />
<path d="M53.1500 59.8049
L53.0929 59.9192
" />
<path d="M53.0929 59.9192
L52.9786 60.0335
" />
<path d="M52.9786 60.0335
L52.8071 60.0907
" />
<path d="M52.8071 60.0907
L52.5214 60.0907
" />
<path d="M54.6357 60.0907
L54.6357 58.8907
" />
<path d="M54.6357 58.8907
L55.0357 59.7478
" />
<path d="M55.0357 59.7478
L55.4357 58.8907
" />
<path d="M55.4357 58.8907
L55.4357 60.0907
" />
<path d="M56.4071 59.4621
L56.0071 59.4621
" />
<path d="M56.0071 60.0907
L56.0071 58.8907
" />
<path d="M56.0071 58.8907
L56.5786 58.8907
" />
<path d="M57.7214 60.0907
L57.3214 59.5192
" />
<path d="M57.0357 60.0907
L57.0357 58.8907
" />
<path d="M57.0357 58.8907
L57.4929 58.8907
" />
<path d="M57.4929 58.8907
L57.6071 58.9478
" />
<path d="M57.6071 58.9478
L57.6643 59.0049
" />
<path d="M57.6643 59.0049
L57.7214 59.1192
" />
<path d="M57.7214 59.1192
L57.7214 59.2907
" />
<path d="M57.7214 59.2907
L57.6643 59.4049
" />
<path d="M57.6643 59.4049
L57.6071 59.4621
" />
<path d="M57.6071 59.4621
L57.4929 59.5192
" />
<path d="M57.4929 59.5192
L57.0357 59.5192
" />
<path d="M58.9214 59.9764
L58.8643 60.0335
" />
<path d="M58.8643 60.0335
L58.6929 60.0907
" />
<path d="M58.6929 60.0907
L58.5786 60.0907
" />
<path d="M58.5786 60.0907
L58.4071 60.0335
" />
<path d="M58.4071 60.0335
L58.2929 59.9192
" />
<path d="M58.2929 59.9192
L58.2357 59.8049
" />
<path d="M58.2357 59.8049
L58.1786 59.5764
" />
<path d="M58.1786 59.5764
L58.1786 59.4049
" />
<path d="M58.1786 59.4049
L58.2357 59.1764
" />
<path d="M58.2357 59.1764
L58.2929 59.0621
" />
<path d="M58.2929 59.0621
L58.4071 58.9478
" />
<path d="M58.4071 58.9478
L58.5786 58.8907
" />
<path d="M58.5786 58.8907
L58.6929 58.8907
" />
<path d="M58.6929 58.8907
L58.8643 58.9478
" />
<path d="M58.8643 58.9478
L58.9214 59.0049
" />
<path d="M59.4357 59.6335
L60.3500 59.6335
" />
<path d="M61.4929 58.8907
L60.9214 58.8907
" />
<path d="M60.9214 58.8907
L60.8643 59.4621
" />
<path d="M60.8643 59.4621
L60.9214 59.4049
" />
<path d="M60.9214 59.4049
L61.0357 59.3478
" />
<path d="M61.0357 59.3478
L61.3214 59.3478
" />
<path d="M61.3214 59.3478
L61.4357 59.4049
" />
<path d="M61.4357 59.4049
L61.4929 59.4621
" />
<path d="M61.4929 59.4621
L61.5500 59.5764
" />
<path d="M61.5500 59.5764
L61.5500 59.8621
" />
<path d="M61.5500 59.8621
L61.4929 59.9764
" />
<path d="M61.4929 59.9764
L61.4357 60.0335
" />
<path d="M61.4357 60.0335
L61.3214 60.0907
" />
<path d="M61.3214 60.0907
L61.0357 60.0907
" />
<path d="M61.0357 60.0907
L60.9214 60.0335
" />
<path d="M60.9214 60.0335
L60.8643 59.9764
" />
<path d="M62.0071 59.0049
L62.0643 58.9478
" />
<path d="M62.0643 58.9478
L62.1786 58.8907
" />
<path d="M62.1786 58.8907
L62.4643 58.8907
" />
<path d="M62.4643 58.8907
L62.5786 58.9478
" />
<path d="M62.5786 58.9478
L62.6357 59.0049
" />
<path d="M62.6357 59.0049
L62.6929 59.1192
" />
<path d="M62.6929 59.1192
L62.6929 59.2335
" />
<path d="M62.6929 59.2335
L62.6357 59.4049
" />
<path d="M62.6357 59.4049
L61.9500 60.0907
" />
<path d="M61.9500 60.0907
L62.6929 60.0907
" />
<path d="M63.1500 59.0049
L63.2071 58.9478
" />
<path d="M63.2071 58.9478
L63.3214 58.8907
" />
<path d="M63.3214 58.8907
L63.6071 58.8907
" />
<path d="M63.6071 58.8907
L63.7214 58.9478
" />
<path d="M63.7214 58.9478
L63.7786 59.0049
" />
<path d="M63.7786 59.0049
L63.8357 59.1192
" />
<path d="M63.8357 59.1192
L63.8357 59.2335
" />
<path d="M63.8357 59.2335
L63.7786 59.4049
" />
<path d="M63.7786 59.4049
L63.0929 60.0907
" />
<path d="M63.0929 60.0907
L63.8357 60.0907
" />
</g></g>
<g style="fill:none; 
stroke:#F2EDA1; stroke-width:0.1500; stroke-opacity:1; 
stroke-linecap:round; stroke-linejoin:round;">
<text x="79.3000" y="28.2500"
textLength="2.2500" font-size="1.3333" lengthAdjust="spacingAndGlyphs"
text-anchor="middle" opacity="0" stroke-opacity="0">Q1</text>
<g class="stroked-text"><desc>Q1</desc>
<path d="M79.2048 28.3001
L79.1095 28.2524
" />
<path d="M79.1095 28.2524
L79.0143 28.1572
" />
<path d="M79.0143 28.1572
L78.8714 28.0143
" />
<path d="M78.8714 28.0143
L78.7762 27.9667
" />
<path d="M78.7762 27.9667
L78.6810 27.9667
" />
<path d="M78.7286 28.2048
L78.6333 28.1572
" />
<path d="M78.6333 28.1572
L78.5381 28.0620
" />
<path d="M78.5381 28.0620
L78.4905 27.8715
" />
<path d="M78.4905 27.8715
L78.4905 27.5382
" />
<path d="M78.4905 27.5382
L78.5381 27.3477
" />
<path d="M78.5381 27.3477
L78.6333 27.2524
" />
<path d="M78.6333 27.2524
L78.7286 27.2048
" />
<path d="M78.7286 27.2048
L78.9190 27.2048
" />
<path d="M78.9190 27.2048
L79.0143 27.2524
" />
<path d="M79.0143 27.2524
L79.1095 27.3477
" />
<path d="M79.1095 27.3477
L79.1571 27.5382
" />
<path d="M79.1571 27.5382
L79.1571 27.8715
" />
<path d="M79.1571 27.8715
L79.1095 28.0620
" />
<path d="M79.1095 28.0620
L79.0143 28.1572
" />
<path d="M79.0143 28.1572
L78.9190 28.2048
" />
<path d="M78.9190 28.2048
L78.7286 28.2048
" />
<path d="M80.1095 28.2048
L79.5381 28.2048
" />
<path d="M79.8238 28.2048
L79.8238 27.2048
" />
<path d="M79.8238 27.2048
L79.7286 27.3477
" />
<path d="M79.7286 27.3477
L79.6333 27.4429
" />
<path d="M79.6333 27.4429
L79.5381 27.4905
" />
</g><g transform="rotate(-90.000000 82.5000 24.0000)">
<text x="82.5000" y="24.5000"
textLength="2.2500" font-size="1.3333" lengthAdjust="spacingAndGlyphs"
text-anchor="middle" opacity="0" stroke-opacity="0">U7</text>
</g>
<g class="stroked-text"><desc>U7</desc>
<path d="M81.9548 24.7619
L82.7643 24.7619
" />
<path d="M82.7643 24.7619
L82.8596 24.7143
" />
<path d="M82.8596 24.7143
L82.9072 24.6667
" />
<path d="M82.9072 24.6667
L82.9548 24.5714
" />
<path d="M82.9548 24.5714
L82.9548 24.3810
" />
<path d="M82.9548 24.3810
L82.9072 24.2857
" />
<path d="M82.9072 24.2857
L82.8596 24.2381
" />
<path d="M82.8596 24.2381
L82.7643 24.1905
" />
<path d="M82.7643 24.1905
L81.9548 24.1905
" />
<path d="M81.9548 23.8095
L81.9548 23.1429
" />
<path d="M81.9548 23.1429
L82.9548 23.5714
" />
</g><text x="86.0000" y="21.5000"
textLength="2.2024" font-size="1.3333" lengthAdjust="spacingAndGlyphs"
text-anchor="middle" opacity="0" stroke-opacity="0">R9</text>
<g class="stroked-text"><desc>R9</desc>
<path d="M85.8333 21.4548
L85.5000 20.9786
" />
<path d="M85.2619 21.4548
L85.2619 20.4548
" />
<path d="M85.2619 20.4548
L85.6429 20.4548
" />
<path d="M85.6429 20.4548
L85.7381 20.5024
" />
<path d="M85.7381 20.5024
L85.7857 20.5501
" />
<path d="M85.7857 20.5501
L85.8333 20.6453
" />
<path d="M85.8333 20.6453
L85.8333 20.7882
" />
<path d="M85.8333 20.7882
L85.7857 20.8834
" />
<path d="M85.7857 20.8834
L85.7381 20.9310
" />
<path d="M85.7381 20.9310
L85.6429 20.9786
" />
<path d="M85.6429 20.9786
L85.2619 20.9786
" />
<path d="M86.3095 21.4548
L86.5000 21.4548
" />
<path d="M86.5000 21.4548
L86.5952 21.4072
" />
<path d="M86.5952 21.4072
L86.6429 21.3596
" />
<path d="M86.6429 21.3596
L86.7381 21.2167
" />
<path d="M86.7381 21.2167
L86.7857 21.0262
" />
<path d="M86.7857 21.0262
L86.7857 20.6453
" />
<path d="M86.7857 20.6453
L86.7381 20.5501
" />
<path d="M86.7381 20.5501
L86.6905 20.5024
" />
<path d="M86.6905 20.5024
L86.5952 20.4548
" />
<path d="M86.5952 20.4548
L86.4048 20.4548
" />
<path d="M86.4048 20.4548
L86.3095 20.5024
" />
<path d="M86.3095 20.5024
L86.2619 20.5501
" />
<path d="M86.2619 20.5501
L86.2143 20.6453
" />
<path d="M86.2143 20.6453
L86.2143 20.8834
" />
<path d="M86.2143 20.8834
L86.2619 20.9786
" />
<path d="M86.2619 20.9786
L86.3095 21.0262
" />
<path d="M86.3095 21.0262
L86.4048 21.0739
" />
<path d="M86.4048 21.0739
L86.5952 21.0739
" />
<path d="M86.5952 21.0739
L86.6905 21.0262
" />
<path d="M86.6905 21.0262
L86.7381 20.9786
" />
<path d="M86.7381 20.9786
L86.7857 20.8834
" />
</g><text x="76.7500" y="10.0000"
textLength="2.2024" font-size="1.3333" lengthAdjust="spacingAndGlyphs"
text-anchor="middle" opacity="0" stroke-opacity="0">C5</text>
<g class="stroked-text"><desc>C5</desc>
<path d="M76.5833 9.8596
L76.5357 9.9072
" />
<path d="M76.5357 9.9072
L76.3929 9.9548
" />
<path d="M76.3929 9.9548
L76.2976 9.9548
" />
<path d="M76.2976 9.9548
L76.1548 9.9072
" />
<path d="M76.1548 9.9072
L76.0595 9.8120
" />
<path d="M76.0595 9.8120
L76.0119 9.7167
" />
<path d="M76.0119 9.7167
L75.9643 9.5262
" />
<path d="M75.9643 9.5262
L75.9643 9.3834
" />
<path d="M75.9643 9.3834
L76.0119 9.1929
" />
<path d="M76.0119 9.1929
L76.0595 9.0977
" />
<path d="M76.0595 9.0977
L76.1548 9.0024
" />
<path d="M76.1548 9.0024
L76.2976 8.9548
" />
<path d="M76.2976 8.9548
L76.3929 8.9548
" />
<path d="M76.3929 8.9548
L76.5357 9.0024
" />
<path d="M76.5357 9.0024
L76.5833 9.0501
" />
<path d="M77.4881 8.9548
L77.0119 8.9548
" />
<path d="M77.0119 8.9548
L76.9643 9.4310
" />
<path d="M76.9643 9.4310
L77.0119 9.3834
" />
<path d="M77.0119 9.3834
L77.1071 9.3358
" />
<path d="M77.1071 9.3358
L77.3452 9.3358
" />
<path d="M77.3452 9.3358
L77.4405 9.3834
" />
<path d="M77.4405 9.3834
L77.4881 9.4310
" />
<path d="M77.4881 9.4310
L77.5357 9.5262
" />
<path d="M77.5357 9.5262
L77.5357 9.7643
" />
<path d="M77.5357 9.7643
L77.4881 9.8596
" />
<path d="M77.4881 9.8596
L77.4405 9.9072
" />
<path d="M77.4405 9.9072
L77.3452 9.9548
" />
<path d="M77.3452 9.9548
L77.1071 9.9548
" />
<path d="M77.1071 9.9548
L77.0119 9.9072
" />
<path d="M77.0119 9.9072
L76.9643 9.8596
" />
</g><text x="20.5000" y="40.0000"
textLength="2.2024" font-size="1.3333" lengthAdjust="spacingAndGlyphs"
text-anchor="middle" opacity="0" stroke-opacity="0">R1</text>
<g class="stroked-text"><desc>R1</desc>
<path d="M20.3333 39.9548
L20.0000 39.4786
" />
<path d="M19.7619 39.9548
L19.7619 38.9548
" />
<path d="M19.7619 38.9548
L20.1429 38.9548
" />
<path d="M20.1429 38.9548
L20.2381 39.0024
" />
<path d="M20.2381 39.0024
L20.2857 39.0501
" />
<path d="M20.2857 39.0501
L20.3333 39.1453
" />
<path d="M20.3333 39.1453
L20.3333 39.2882
" />
<path d="M20.3333 39.2882
L20.2857 39.3834
" />
<path d="M20.2857 39.3834
L20.2381 39.4310
" />
<path d="M20.2381 39.4310
L20.1429 39.4786
" />
<path d="M20.1429 39.4786
L19.7619 39.4786
" />
<path d="M21.2857 39.9548
L20.7143 39.9548
" />
<path d="M21.0000 39.9548
L21.0000 38.9548
" />
<path d="M21.0000 38.9548
L20.9048 39.0977
" />
<path d="M20.9048 39.0977
L20.8095 39.1929
" />
<path d="M20.8095 39.1929
L20.7143 39.2405
" />
</g><text x="79.3375" y="35.0000"
textLength="2.2024" font-size="1.3333" lengthAdjust="spacingAndGlyphs"
text-anchor="middle" opacity="0" stroke-opacity="0">R5</text>
<g class="stroked-text"><desc>R5</desc>
<path d="M79.1708 34.9548
L78.8375 34.4786
" />
<path d="M78.5994 34.9548
L78.5994 33.9548
" />
<path d="M78.5994 33.9548
L78.9804 33.9548
" />
<path d="M78.9804 33.9548
L79.0756 34.0024
" />
<path d="M79.0756 34.0024
L79.1232 34.0501
" />
<path d="M79.1232 34.0501
L79.1708 34.1453
" />
<path d="M79.1708 34.1453
L79.1708 34.2882
" />
<path d="M79.1708 34.2882
L79.1232 34.3834
" />
<path d="M79.1232 34.3834
L79.0756 34.4310
" />
<path d="M79.0756 34.4310
L78.9804 34.4786
" />
<path d="M78.9804 34.4786
L78.5994 34.4786
" />
<path d="M80.0756 33.9548
L79.5994 33.9548
" />
<path d="M79.5994 33.9548
L79.5518 34.4310
" />
<path d="M79.5518 34.4310
L79.5994 34.3834
" />
<path d="M79.5994 34.3834
L79.6946 34.3358
" />
<path d="M79.6946 34.3358
L79.9327 34.3358
" />
<path d="M79.9327 34.3358
L80.0280 34.3834
" />
<path d="M80.0280 34.3834
L80.0756 34.4310
" />
<path d="M80.0756 34.4310
L80.1232 34.5262
" />
<path d="M80.1232 34.5262
L80.1232 34.7643
" />
<path d="M80.1232 34.7643
L80.0756 34.8596
" />
<path d="M80.0756 34.8596
L80.0280 34.9072
" />
<path d="M80.0280 34.9072
L79.9327 34.9548
" />
<path d="M79.9327 34.9548
L79.6946 34.9548
" />
<path d="M79.6946 34.9548
L79.5994 34.9072
" />
<path d="M79.5994 34.9072
L79.5518 34.8596
" />
</g><text x="84.7500" y="13.7500"
textLength="2.2500" font-size="1.3333" lengthAdjust="spacingAndGlyphs"
text-anchor="middle" opacity="0" stroke-opacity="0">Q2</text>
<g class="stroked-text"><desc>Q2</desc>
<path d="M84.6548 13.8001
L84.5595 13.7524
" />
<path d="M84.5595 13.7524
L84.4643 13.6572
" />
<path d="M84.4643 13.6572
L84.3214 13.5143
" />
<path d="M84.3214 13.5143
L84.2262 13.4667
" />
<path d="M84.2262 13.4667
L84.1310 13.4667
" />
<path d="M84.1786 13.7048
L84.0833 13.6572
" />
<path d="M84.0833 13.6572
L83.9881 13.5620
" />
<path d="M83.9881 13.5620
L83.9405 13.3715
" />
<path d="M83.9405 13.3715
L83.9405 13.0382
" />
<path d="M83.9405 13.0382
L83.9881 12.8477
" />
<path d="M83.9881 12.8477
L84.0833 12.7524
" />
<path d="M84.0833 12.7524
L84.1786 12.7048
" />
<path d="M84.1786 12.7048
L84.3690 12.7048
" />
<path d="M84.3690 12.7048
L84.4643 12.7524
" />
<path d="M84.4643 12.7524
L84.5595 12.8477
" />
<path d="M84.5595 12.8477
L84.6071 13.0382
" />
<path d="M84.6071 13.0382
L84.6071 13.3715
" />
<path d="M84.6071 13.3715
L84.5595 13.5620
" />
<path d="M84.5595 13.5620
L84.4643 13.6572
" />
<path d="M84.4643 13.6572
L84.3690 13.7048
" />
<path d="M84.3690 13.7048
L84.1786 13.7048
" />
<path d="M84.9881 12.8001
L85.0357 12.7524
" />
<path d="M85.0357 12.7524
L85.1310 12.7048
" />
<path d="M85.1310 12.7048
L85.3690 12.7048
" />
<path d="M85.3690 12.7048
L85.4643 12.7524
" />
<path d="M85.4643 12.7524
L85.5119 12.8001
" />
<path d="M85.5119 12.8001
L85.5595 12.8953
" />
<path d="M85.5595 12.8953
L85.5595 12.9905
" />
<path d="M85.5595 12.9905
L85.5119 13.1334
" />
<path d="M85.5119 13.1334
L84.9405 13.7048
" />
<path d="M84.9405 13.7048
L85.5595 13.7048
" />
</g><g transform="rotate(-90.000000 99.2500 41.2500)">
<text x="99.2500" y="41.7500"
textLength="2.2500" font-size="1.3333" lengthAdjust="spacingAndGlyphs"
text-anchor="middle" opacity="0" stroke-opacity="0">Q3</text>
</g>
<g class="stroked-text"><desc>Q3</desc>
<path d="M99.8001 41.3452
L99.7524 41.4405
" />
<path d="M99.7524 41.4405
L99.6572 41.5357
" />
<path d="M99.6572 41.5357
L99.5143 41.6786
" />
<path d="M99.5143 41.6786
L99.4667 41.7738
" />
<path d="M99.4667 41.7738
L99.4667 41.8690
" />
<path d="M99.7048 41.8214
L99.6572 41.9167
" />
<path d="M99.6572 41.9167
L99.5620 42.0119
" />
<path d="M99.5620 42.0119
L99.3715 42.0595
" />
<path d="M99.3715 42.0595
L99.0382 42.0595
" />
<path d="M99.0382 42.0595
L98.8477 42.0119
" />
<path d="M98.8477 42.0119
L98.7524 41.9167
" />
<path d="M98.7524 41.9167
L98.7048 41.8214
" />
<path d="M98.7048 41.8214
L98.7048 41.6310
" />
<path d="M98.7048 41.6310
L98.7524 41.5357
" />
<path d="M98.7524 41.5357
L98.8477 41.4405
" />
<path d="M98.8477 41.4405
L99.0382 41.3929
" />
<path d="M99.0382 41.3929
L99.3715 41.3929
" />
<path d="M99.3715 41.3929
L99.5620 41.4405
" />
<path d="M99.5620 41.4405
L99.6572 41.5357
" />
<path d="M99.6572 41.5357
L99.7048 41.6310
" />
<path d="M99.7048 41.6310
L99.7048 41.8214
" />
<path d="M98.7048 41.0595
L98.7048 40.4405
" />
<path d="M98.7048 40.4405
L99.0858 40.7738
" />
<path d="M99.0858 40.7738
L99.0858 40.6310
" />
<path d="M99.0858 40.6310
L99.1334 40.5357
" />
<path d="M99.1334 40.5357
L99.1810 40.4881
" />
<path d="M99.1810 40.4881
L99.2762 40.4405
" />
<path d="M99.2762 40.4405
L99.5143 40.4405
" />
<path d="M99.5143 40.4405
L99.6096 40.4881
" />
<path d="M99.6096 40.4881
L99.6572 40.5357
" />
<path d="M99.6572 40.5357
L99.7048 40.6310
" />
<path d="M99.7048 40.6310
L99.7048 40.9167
" />
<path d="M99.7048 40.9167
L99.6572 41.0119
" />
<path d="M99.6572 41.0119
L99.6096 41.0595
" />
</g><g transform="rotate(-90.000000 78.3000 63.9500)">
<text x="78.3000" y="64.4500"
textLength="3.2976" font-size="1.3333" lengthAdjust="spacingAndGlyphs"
text-anchor="middle" opacity="0" stroke-opacity="0">SW1</text>
</g>
<g class="stroked-text"><desc>SW1</desc>
<path d="M78.7072 65.2833
L78.7548 65.1405
" />
<path d="M78.7548 65.1405
L78.7548 64.9024
" />
<path d="M78.7548 64.9024
L78.7072 64.8071
" />
<path d="M78.7072 64.8071
L78.6596 64.7595
" />
<path d="M78.6596 64.7595
L78.5643 64.7119
" />
<path d="M78.5643 64.7119
L78.4691 64.7119
" />
<path d="M78.4691 64.7119
L78.3739 64.7595
" />
<path d="M78.3739 64.7595
L78.3262 64.8071
" />
<path d="M78.3262 64.8071
L78.2786 64.9024
" />
<path d="M78.2786 64.9024
L78.2310 65.0929
" />
<path d="M78.2310 65.0929
L78.1834 65.1881
" />
<path d="M78.1834 65.1881
L78.1358 65.2357
" />
<path d="M78.1358 65.2357
L78.0405 65.2833
" />
<path d="M78.0405 65.2833
L77.9453 65.2833
" />
<path d="M77.9453 65.2833
L77.8501 65.2357
" />
<path d="M77.8501 65.2357
L77.8024 65.1881
" />
<path d="M77.8024 65.1881
L77.7548 65.0929
" />
<path d="M77.7548 65.0929
L77.7548 64.8548
" />
<path d="M77.7548 64.8548
L77.8024 64.7119
" />
<path d="M77.7548 64.3786
L78.7548 64.1405
" />
<path d="M78.7548 64.1405
L78.0405 63.9500
" />
<path d="M78.0405 63.9500
L78.7548 63.7595
" />
<path d="M78.7548 63.7595
L77.7548 63.5214
" />
<path d="M78.7548 62.6167
L78.7548 63.1881
" />
<path d="M78.7548 62.9024
L77.7548 62.9024
" />
<path d="M77.7548 62.9024
L77.8977 62.9976
" />
<path d="M77.8977 62.9976
L77.9929 63.0929
" />
<path d="M77.9929 63.0929
L78.0405 63.1881
" />
</g><text x="11.5000" y="40.0000"
textLength="2.2024" font-size="1.3333" lengthAdjust="spacingAndGlyphs"
text-anchor="middle" opacity="0" stroke-opacity="0">C3</text>
<g class="stroked-text"><desc>C3</desc>
<path d="M11.3333 39.8596
L11.2857 39.9072
" />
<path d="M11.2857 39.9072
L11.1429 39.9548
" />
<path d="M11.1429 39.9548
L11.0476 39.9548
" />
<path d="M11.0476 39.9548
L10.9048 39.9072
" />
<path d="M10.9048 39.9072
L10.8095 39.8120
" />
<path d="M10.8095 39.8120
L10.7619 39.7167
" />
<path d="M10.7619 39.7167
L10.7143 39.5262
" />
<path d="M10.7143 39.5262
L10.7143 39.3834
" />
<path d="M10.7143 39.3834
L10.7619 39.1929
" />
<path d="M10.7619 39.1929
L10.8095 39.0977
" />
<path d="M10.8095 39.0977
L10.9048 39.0024
" />
<path d="M10.9048 39.0024
L11.0476 38.9548
" />
<path d="M11.0476 38.9548
L11.1429 38.9548
" />
<path d="M11.1429 38.9548
L11.2857 39.0024
" />
<path d="M11.2857 39.0024
L11.3333 39.0501
" />
<path d="M11.6667 38.9548
L12.2857 38.9548
" />
<path d="M12.2857 38.9548
L11.9524 39.3358
" />
<path d="M11.9524 39.3358
L12.0952 39.3358
" />
<path d="M12.0952 39.3358
L12.1905 39.3834
" />
<path d="M12.1905 39.3834
L12.2381 39.4310
" />
<path d="M12.2381 39.4310
L12.2857 39.5262
" />
<path d="M12.2857 39.5262
L12.2857 39.7643
" />
<path d="M12.2857 39.7643
L12.2381 39.8596
" />
<path d="M12.2381 39.8596
L12.1905 39.9072
" />
<path d="M12.1905 39.9072
L12.0952 39.9548
" />
<path d="M12.0952 39.9548
L11.8095 39.9548
" />
<path d="M11.8095 39.9548
L11.7143 39.9072
" />
<path d="M11.7143 39.9072
L11.6667 39.8596
" />
</g><g transform="rotate(-270.000000 87.2664 4.5000)">
<text x="87.2664" y="5.0000"
textLength="1.0119" font-size="1.3333" lengthAdjust="spacingAndGlyphs"
text-anchor="middle" opacity="0" stroke-opacity="0">*</text>
</g>
<g class="stroked-text"><desc>*</desc>
<path d="M87.8116 4.5000
L87.5735 4.5000
" />
<path d="M87.6688 4.2619
L87.5735 4.5000
" />
<path d="M87.5735 4.5000
L87.6688 4.7381
" />
<path d="M87.3830 4.3571
L87.5735 4.5000
" />
<path d="M87.5735 4.5000
L87.3830 4.6429
" />
</g><g transform="rotate(-90.000000 87.2664 4.5000)">
<text x="87.2664" y="5.0000"
textLength="1.0119" font-size="1.3333" lengthAdjust="spacingAndGlyphs"
text-anchor="middle" opacity="0" stroke-opacity="0">*</text>
</g>
<g class="stroked-text"><desc>*</desc>
<path d="M86.7213 4.5000
L86.9594 4.5000
" />
<path d="M86.8641 4.7381
L86.9594 4.5000
" />
<path d="M86.9594 4.5000
L86.8641 4.2619
" />
<path d="M87.1498 4.6429
L86.9594 4.5000
" />
<path d="M86.9594 4.5000
L87.1498 4.3571
" />
</g><text x="97.7750" y="19.8200"
textLength="2.2024" font-size="1.3333" lengthAdjust="spacingAndGlyphs"
text-anchor="middle" opacity="0" stroke-opacity="0">C4</text>
<g class="stroked-text"><desc>C4</desc>
<path d="M97.6083 19.6796
L97.5607 19.7272
" />
<path d="M97.5607 19.7272
L97.4179 19.7748
" />
<path d="M97.4179 19.7748
L97.3226 19.7748
" />
<path d="M97.3226 19.7748
L97.1798 19.7272
" />
<path d="M97.1798 19.7272
L97.0845 19.6320
" />
<path d="M97.0845 19.6320
L97.0369 19.5367
" />
<path d="M97.0369 19.5367
L96.9893 19.3462
" />
<path d="M96.9893 19.3462
L96.9893 19.2034
" />
<path d="M96.9893 19.2034
L97.0369 19.0129
" />
<path d="M97.0369 19.0129
L97.0845 18.9177
" />
<path d="M97.0845 18.9177
L97.1798 18.8224
" />
<path d="M97.1798 18.8224
L97.3226 18.7748
" />
<path d="M97.3226 18.7748
L97.4179 18.7748
" />
<path d="M97.4179 18.7748
L97.5607 18.8224
" />
<path d="M97.5607 18.8224
L97.6083 18.8701
" />
<path d="M98.4655 19.1082
L98.4655 19.7748
" />
<path d="M98.2274 18.7272
L97.9893 19.4415
" />
<path d="M97.9893 19.4415
L98.6083 19.4415
" />
</g><g transform="rotate(-90.000000 102.0000 54.7500)">
<text x="102.0000" y="55.2500"
textLength="3.2976" font-size="1.3333" lengthAdjust="spacingAndGlyphs"
text-anchor="middle" opacity="0" stroke-opacity="0">SW3</text>
</g>
<g class="stroked-text"><desc>SW3</desc>
<path d="M102.4072 56.0833
L102.4548 55.9405
" />
<path d="M102.4548 55.9405
L102.4548 55.7024
" />
<path d="M102.4548 55.7024
L102.4072 55.6071
" />
<path d="M102.4072 55.6071
L102.3596 55.5595
" />
<path d="M102.3596 55.5595
L102.2643 55.5119
" />
<path d="M102.2643 55.5119
L102.1691 55.5119
" />
<path d="M102.1691 55.5119
L102.0739 55.5595
" />
<path d="M102.0739 55.5595
L102.0262 55.6071
" />
<path d="M102.0262 55.6071
L101.9786 55.7024
" />
<path d="M101.9786 55.7024
L101.9310 55.8929
" />
<path d="M101.9310 55.8929
L101.8834 55.9881
" />
<path d="M101.8834 55.9881
L101.8358 56.0357
" />
<path d="M101.8358 56.0357
L101.7405 56.0833
" />
<path d="M101.7405 56.0833
L101.6453 56.0833
" />
<path d="M101.6453 56.0833
L101.5501 56.0357
" />
<path d="M101.5501 56.0357
L101.5024 55.9881
" />
<path d="M101.5024 55.9881
L101.4548 55.8929
" />
<path d="M101.4548 55.8929
L101.4548 55.6548
" />
<path d="M101.4548 55.6548
L101.5024 55.5119
" />
<path d="M101.4548 55.1786
L102.4548 54.9405
" />
<path d="M102.4548 54.9405
L101.7405 54.7500
" />
<path d="M101.7405 54.7500
L102.4548 54.5595
" />
<path d="M102.4548 54.5595
L101.4548 54.3214
" />
<path d="M101.4548 54.0357
L101.4548 53.4167
" />
<path d="M101.4548 53.4167
L101.8358 53.7500
" />
<path d="M101.8358 53.7500
L101.8358 53.6071
" />
<path d="M101.8358 53.6071
L101.8834 53.5119
" />
<path d="M101.8834 53.5119
L101.9310 53.4643
" />
<path d="M101.9310 53.4643
L102.0262 53.4167
" />
<path d="M102.0262 53.4167
L102.2643 53.4167
" />
<path d="M102.2643 53.4167
L102.3596 53.4643
" />
<path d="M102.3596 53.4643
L102.4072 53.5119
" />
<path d="M102.4072 53.5119
L102.4548 53.6071
" />
<path d="M102.4548 53.6071
L102.4548 53.8929
" />
<path d="M102.4548 53.8929
L102.4072 53.9881
" />
<path d="M102.4072 53.9881
L102.3596 54.0357
" />
</g><text x="48.8375" y="69.7500"
textLength="2.2024" font-size="1.3333" lengthAdjust="spacingAndGlyphs"
text-anchor="middle" opacity="0" stroke-opacity="0">R6</text>
<g class="stroked-text"><desc>R6</desc>
<path d="M48.6708 69.7048
L48.3375 69.2286
" />
<path d="M48.0994 69.7048
L48.0994 68.7048
" />
<path d="M48.0994 68.7048
L48.4804 68.7048
" />
<path d="M48.4804 68.7048
L48.5756 68.7524
" />
<path d="M48.5756 68.7524
L48.6232 68.8001
" />
<path d="M48.6232 68.8001
L48.6708 68.8953
" />
<path d="M48.6708 68.8953
L48.6708 69.0382
" />
<path d="M48.6708 69.0382
L48.6232 69.1334
" />
<path d="M48.6232 69.1334
L48.5756 69.1810
" />
<path d="M48.5756 69.1810
L48.4804 69.2286
" />
<path d="M48.4804 69.2286
L48.0994 69.2286
" />
<path d="M49.5280 68.7048
L49.3375 68.7048
" />
<path d="M49.3375 68.7048
L49.2423 68.7524
" />
<path d="M49.2423 68.7524
L49.1946 68.8001
" />
<path d="M49.1946 68.8001
L49.0994 68.9429
" />
<path d="M49.0994 68.9429
L49.0518 69.1334
" />
<path d="M49.0518 69.1334
L49.0518 69.5143
" />
<path d="M49.0518 69.5143
L49.0994 69.6096
" />
<path d="M49.0994 69.6096
L49.1470 69.6572
" />
<path d="M49.1470 69.6572
L49.2423 69.7048
" />
<path d="M49.2423 69.7048
L49.4327 69.7048
" />
<path d="M49.4327 69.7048
L49.5280 69.6572
" />
<path d="M49.5280 69.6572
L49.5756 69.6096
" />
<path d="M49.5756 69.6096
L49.6232 69.5143
" />
<path d="M49.6232 69.5143
L49.6232 69.2762
" />
<path d="M49.6232 69.2762
L49.5756 69.1810
" />
<path d="M49.5756 69.1810
L49.5280 69.1334
" />
<path d="M49.5280 69.1334
L49.4327 69.0858
" />
<path d="M49.4327 69.0858
L49.2423 69.0858
" />
<path d="M49.2423 69.0858
L49.1470 69.1334
" />
<path d="M49.1470 69.1334
L49.0994 69.1810
" />
<path d="M49.0994 69.1810
L49.0518 69.2762
" />
</g><text x="71.7500" y="71.2500"
textLength="2.2024" font-size="1.3333" lengthAdjust="spacingAndGlyphs"
text-anchor="middle" opacity="0" stroke-opacity="0">C2</text>
<g class="stroked-text"><desc>C2</desc>
<path d="M71.5833 71.1096
L71.5357 71.1572
" />
<path d="M71.5357 71.1572
L71.3929 71.2048
" />
<path d="M71.3929 71.2048
L71.2976 71.2048
" />
<path d="M71.2976 71.2048
L71.1548 71.1572
" />
<path d="M71.1548 71.1572
L71.0595 71.0620
" />
<path d="M71.0595 71.0620
L71.0119 70.9667
" />
<path d="M71.0119 70.9667
L70.9643 70.7762
" />
<path d="M70.9643 70.7762
L70.9643 70.6334
" />
<path d="M70.9643 70.6334
L71.0119 70.4429
" />
<path d="M71.0119 70.4429
L71.0595 70.3477
" />
<path d="M71.0595 70.3477
L71.1548 70.2524
" />
<path d="M71.1548 70.2524
L71.2976 70.2048
" />
<path d="M71.2976 70.2048
L71.3929 70.2048
" />
<path d="M71.3929 70.2048
L71.5357 70.2524
" />
<path d="M71.5357 70.2524
L71.5833 70.3001
" />
<path d="M71.9643 70.3001
L72.0119 70.2524
" />
<path d="M72.0119 70.2524
L72.1071 70.2048
" />
<path d="M72.1071 70.2048
L72.3452 70.2048
" />
<path d="M72.3452 70.2048
L72.4405 70.2524
" />
<path d="M72.4405 70.2524
L72.4881 70.3001
" />
<path d="M72.4881 70.3001
L72.5357 70.3953
" />
<path d="M72.5357 70.3953
L72.5357 70.4905
" />
<path d="M72.5357 70.4905
L72.4881 70.6334
" />
<path d="M72.4881 70.6334
L71.9167 71.2048
" />
<path d="M71.9167 71.2048
L72.5357 71.2048
" />
</g><text x="95.7500" y="12.0000"
textLength="2.2024" font-size="1.3333" lengthAdjust="spacingAndGlyphs"
text-anchor="middle" opacity="0" stroke-opacity="0">R2</text>
<g class="stroked-text"><desc>R2</desc>
<path d="M95.5833 11.9548
L95.2500 11.4786
" />
<path d="M95.0119 11.9548
L95.0119 10.9548
" />
<path d="M95.0119 10.9548
L95.3929 10.9548
" />
<path d="M95.3929 10.9548
L95.4881 11.0024
" />
<path d="M95.4881 11.0024
L95.5357 11.0501
" />
<path d="M95.5357 11.0501
L95.5833 11.1453
" />
<path d="M95.5833 11.1453
L95.5833 11.2882
" />
<path d="M95.5833 11.2882
L95.5357 11.3834
" />
<path d="M95.5357 11.3834
L95.4881 11.4310
" />
<path d="M95.4881 11.4310
L95.3929 11.4786
" />
<path d="M95.3929 11.4786
L95.0119 11.4786
" />
<path d="M95.9643 11.0501
L96.0119 11.0024
" />
<path d="M96.0119 11.0024
L96.1071 10.9548
" />
<path d="M96.1071 10.9548
L96.3452 10.9548
" />
<path d="M96.3452 10.9548
L96.4405 11.0024
" />
<path d="M96.4405 11.0024
L96.4881 11.0501
" />
<path d="M96.4881 11.0501
L96.5357 11.1453
" />
<path d="M96.5357 11.1453
L96.5357 11.2405
" />
<path d="M96.5357 11.2405
L96.4881 11.3834
" />
<path d="M96.4881 11.3834
L95.9167 11.9548
" />
<path d="M95.9167 11.9548
L96.5357 11.9548
" />
</g><text x="68.9750" y="67.3200"
textLength="2.2024" font-size="1.3333" lengthAdjust="spacingAndGlyphs"
text-anchor="middle" opacity="0" stroke-opacity="0">C1</text>
<g class="stroked-text"><desc>C1</desc>
<path d="M68.8083 67.1796
L68.7607 67.2272
" />
<path d="M68.7607 67.2272
L68.6179 67.2748
" />
<path d="M68.6179 67.2748
L68.5226 67.2748
" />
<path d="M68.5226 67.2748
L68.3798 67.2272
" />
<path d="M68.3798 67.2272
L68.2845 67.1320
" />
<path d="M68.2845 67.1320
L68.2369 67.0367
" />
<path d="M68.2369 67.0367
L68.1893 66.8462
" />
<path d="M68.1893 66.8462
L68.1893 66.7034
" />
<path d="M68.1893 66.7034
L68.2369 66.5129
" />
<path d="M68.2369 66.5129
L68.2845 66.4177
" />
<path d="M68.2845 66.4177
L68.3798 66.3224
" />
<path d="M68.3798 66.3224
L68.5226 66.2748
" />
<path d="M68.5226 66.2748
L68.6179 66.2748
" />
<path d="M68.6179 66.2748
L68.7607 66.3224
" />
<path d="M68.7607 66.3224
L68.8083 66.3701
" />
<path d="M69.7607 67.2748
L69.1893 67.2748
" />
<path d="M69.4750 67.2748
L69.4750 66.2748
" />
<path d="M69.4750 66.2748
L69.3798 66.4177
" />
<path d="M69.3798 66.4177
L69.2845 66.5129
" />
<path d="M69.2845 66.5129
L69.1893 66.5605
" />
</g><text x="93.4730" y="19.3450"
textLength="2.2024" font-size="1.3333" lengthAdjust="spacingAndGlyphs"
text-anchor="middle" opacity="0" stroke-opacity="0">D3</text>
<g class="stroked-text"><desc>D3</desc>
<path d="M92.7349 19.2998
L92.7349 18.2998
" />
<path d="M92.7349 18.2998
L92.9730 18.2998
" />
<path d="M92.9730 18.2998
L93.1159 18.3474
" />
<path d="M93.1159 18.3474
L93.2111 18.4427
" />
<path d="M93.2111 18.4427
L93.2587 18.5379
" />
<path d="M93.2587 18.5379
L93.3063 18.7284
" />
<path d="M93.3063 18.7284
L93.3063 18.8712
" />
<path d="M93.3063 18.8712
L93.2587 19.0617
" />
<path d="M93.2587 19.0617
L93.2111 19.1570
" />
<path d="M93.2111 19.1570
L93.1159 19.2522
" />
<path d="M93.1159 19.2522
L92.9730 19.2998
" />
<path d="M92.9730 19.2998
L92.7349 19.2998
" />
<path d="M93.6397 18.2998
L94.2587 18.2998
" />
<path d="M94.2587 18.2998
L93.9254 18.6808
" />
<path d="M93.9254 18.6808
L94.0682 18.6808
" />
<path d="M94.0682 18.6808
L94.1635 18.7284
" />
<path d="M94.1635 18.7284
L94.2111 18.7760
" />
<path d="M94.2111 18.7760
L94.2587 18.8712
" />
<path d="M94.2587 18.8712
L94.2587 19.1093
" />
<path d="M94.2587 19.1093
L94.2111 19.2046
" />
<path d="M94.2111 19.2046
L94.1635 19.2522
" />
<path d="M94.1635 19.2522
L94.0682 19.2998
" />
<path d="M94.0682 19.2998
L93.7825 19.2998
" />
<path d="M93.7825 19.2998
L93.6873 19.2522
" />
<path d="M93.6873 19.2522
L93.6397 19.2046
" />
</g><text x="91.0000" y="12.0000"
textLength="2.2024" font-size="1.3333" lengthAdjust="spacingAndGlyphs"
text-anchor="middle" opacity="0" stroke-opacity="0">C8</text>
<g class="stroked-text"><desc>C8</desc>
<path d="M90.8333 11.8596
L90.7857 11.9072
" />
<path d="M90.7857 11.9072
L90.6429 11.9548
" />
<path d="M90.6429 11.9548
L90.5476 11.9548
" />
<path d="M90.5476 11.9548
L90.4048 11.9072
" />
<path d="M90.4048 11.9072
L90.3095 11.8120
" />
<path d="M90.3095 11.8120
L90.2619 11.7167
" />
<path d="M90.2619 11.7167
L90.2143 11.5262
" />
<path d="M90.2143 11.5262
L90.2143 11.3834
" />
<path d="M90.2143 11.3834
L90.2619 11.1929
" />
<path d="M90.2619 11.1929
L90.3095 11.0977
" />
<path d="M90.3095 11.0977
L90.4048 11.0024
" />
<path d="M90.4048 11.0024
L90.5476 10.9548
" />
<path d="M90.5476 10.9548
L90.6429 10.9548
" />
<path d="M90.6429 10.9548
L90.7857 11.0024
" />
<path d="M90.7857 11.0024
L90.8333 11.0501
" />
<path d="M91.4048 11.3834
L91.3095 11.3358
" />
<path d="M91.3095 11.3358
L91.2619 11.2882
" />
<path d="M91.2619 11.2882
L91.2143 11.1929
" />
<path d="M91.2143 11.1929
L91.2143 11.1453
" />
<path d="M91.2143 11.1453
L91.2619 11.0501
" />
<path d="M91.2619 11.0501
L91.3095 11.0024
" />
<path d="M91.3095 11.0024
L91.4048 10.9548
" />
<path d="M91.4048 10.9548
L91.5952 10.9548
" />
<path d="M91.5952 10.9548
L91.6905 11.0024
" />
<path d="M91.6905 11.0024
L91.7381 11.0501
" />
<path d="M91.7381 11.0501
L91.7857 11.1453
" />
<path d="M91.7857 11.1453
L91.7857 11.1929
" />
<path d="M91.7857 11.1929
L91.7381 11.2882
" />
<path d="M91.7381 11.2882
L91.6905 11.3358
" />
<path d="M91.6905 11.3358
L91.5952 11.3834
" />
<path d="M91.5952 11.3834
L91.4048 11.3834
" />
<path d="M91.4048 11.3834
L91.3095 11.4310
" />
<path d="M91.3095 11.4310
L91.2619 11.4786
" />
<path d="M91.2619 11.4786
L91.2143 11.5739
" />
<path d="M91.2143 11.5739
L91.2143 11.7643
" />
<path d="M91.2143 11.7643
L91.2619 11.8596
" />
<path d="M91.2619 11.8596
L91.3095 11.9072
" />
<path d="M91.3095 11.9072
L91.4048 11.9548
" />
<path d="M91.4048 11.9548
L91.5952 11.9548
" />
<path d="M91.5952 11.9548
L91.6905 11.9072
" />
<path d="M91.6905 11.9072
L91.7381 11.8596
" />
<path d="M91.7381 11.8596
L91.7857 11.7643
" />
<path d="M91.7857 11.7643
L91.7857 11.5739
" />
<path d="M91.7857 11.5739
L91.7381 11.4786
" />
<path d="M91.7381 11.4786
L91.6905 11.4310
" />
<path d="M91.6905 11.4310
L91.5952 11.3834
" />
</g><text x="96.3375" y="46.6300"
textLength="3.1548" font-size="1.3333" lengthAdjust="spacingAndGlyphs"
text-anchor="middle" opacity="0" stroke-opacity="0">R15</text>
<g class="stroked-text"><desc>R15</desc>
<path d="M95.6946 46.5848
L95.3613 46.1086
" />
<path d="M95.1232 46.5848
L95.1232 45.5848
" />
<path d="M95.1232 45.5848
L95.5042 45.5848
" />
<path d="M95.5042 45.5848
L95.5994 45.6324
" />
<path d="M95.5994 45.6324
L95.6470 45.6801
" />
<path d="M95.6470 45.6801
L95.6946 45.7753
" />
<path d="M95.6946 45.7753
L95.6946 45.9182
" />
<path d="M95.6946 45.9182
L95.6470 46.0134
" />
<path d="M95.6470 46.0134
L95.5994 46.0610
" />
<path d="M95.5994 46.0610
L95.5042 46.1086
" />
<path d="M95.5042 46.1086
L95.1232 46.1086
" />
<path d="M96.6470 46.5848
L96.0756 46.5848
" />
<path d="M96.3613 46.5848
L96.3613 45.5848
" />
<path d="M96.3613 45.5848
L96.2661 45.7277
" />
<path d="M96.2661 45.7277
L96.1708 45.8229
" />
<path d="M96.1708 45.8229
L96.0756 45.8705
" />
<path d="M97.5518 45.5848
L97.0756 45.5848
" />
<path d="M97.0756 45.5848
L97.0280 46.0610
" />
<path d="M97.0280 46.0610
L97.0756 46.0134
" />
<path d="M97.0756 46.0134
L97.1708 45.9658
" />
<path d="M97.1708 45.9658
L97.4089 45.9658
" />
<path d="M97.4089 45.9658
L97.5042 46.0134
" />
<path d="M97.5042 46.0134
L97.5518 46.0610
" />
<path d="M97.5518 46.0610
L97.5994 46.1562
" />
<path d="M97.5994 46.1562
L97.5994 46.3943
" />
<path d="M97.5994 46.3943
L97.5518 46.4896
" />
<path d="M97.5518 46.4896
L97.5042 46.5372
" />
<path d="M97.5042 46.5372
L97.4089 46.5848
" />
<path d="M97.4089 46.5848
L97.1708 46.5848
" />
<path d="M97.1708 46.5848
L97.0756 46.5372
" />
<path d="M97.0756 46.5372
L97.0280 46.4896
" />
</g><g transform="rotate(-90.000000 100.2500 11.2500)">
<text x="100.2500" y="11.7500"
textLength="2.2024" font-size="1.3333" lengthAdjust="spacingAndGlyphs"
text-anchor="middle" opacity="0" stroke-opacity="0">D1</text>
</g>
<g class="stroked-text"><desc>D1</desc>
<path d="M100.7048 11.9881
L99.7048 11.9881
" />
<path d="M99.7048 11.9881
L99.7048 11.7500
" />
<path d="M99.7048 11.7500
L99.7524 11.6071
" />
<path d="M99.7524 11.6071
L99.8477 11.5119
" />
<path d="M99.8477 11.5119
L99.9429 11.4643
" />
<path d="M99.9429 11.4643
L100.1334 11.4167
" />
<path d="M100.1334 11.4167
L100.2762 11.4167
" />
<path d="M100.2762 11.4167
L100.4667 11.4643
" />
<path d="M100.4667 11.4643
L100.5620 11.5119
" />
<path d="M100.5620 11.5119
L100.6572 11.6071
" />
<path d="M100.6572 11.6071
L100.7048 11.7500
" />
<path d="M100.7048 11.7500
L100.7048 11.9881
" />
<path d="M100.7048 10.4643
L100.7048 11.0357
" />
<path d="M100.7048 10.7500
L99.7048 10.7500
" />
<path d="M99.7048 10.7500
L99.8477 10.8452
" />
<path d="M99.8477 10.8452
L99.9429 10.9405
" />
<path d="M99.9429 10.9405
L99.9905 11.0357
" />
</g><text x="52.7500" y="69.7500"
textLength="2.2024" font-size="1.3333" lengthAdjust="spacingAndGlyphs"
text-anchor="middle" opacity="0" stroke-opacity="0">D2</text>
<g class="stroked-text"><desc>D2</desc>
<path d="M52.0119 69.7048
L52.0119 68.7048
" />
<path d="M52.0119 68.7048
L52.2500 68.7048
" />
<path d="M52.2500 68.7048
L52.3929 68.7524
" />
<path d="M52.3929 68.7524
L52.4881 68.8477
" />
<path d="M52.4881 68.8477
L52.5357 68.9429
" />
<path d="M52.5357 68.9429
L52.5833 69.1334
" />
<path d="M52.5833 69.1334
L52.5833 69.2762
" />
<path d="M52.5833 69.2762
L52.5357 69.4667
" />
<path d="M52.5357 69.4667
L52.4881 69.5620
" />
<path d="M52.4881 69.5620
L52.3929 69.6572
" />
<path d="M52.3929 69.6572
L52.2500 69.7048
" />
<path d="M52.2500 69.7048
L52.0119 69.7048
" />
<path d="M52.9643 68.8001
L53.0119 68.7524
" />
<path d="M53.0119 68.7524
L53.1071 68.7048
" />
<path d="M53.1071 68.7048
L53.3452 68.7048
" />
<path d="M53.3452 68.7048
L53.4405 68.7524
" />
<path d="M53.4405 68.7524
L53.4881 68.8001
" />
<path d="M53.4881 68.8001
L53.5357 68.8953
" />
<path d="M53.5357 68.8953
L53.5357 68.9905
" />
<path d="M53.5357 68.9905
L53.4881 69.1334
" />
<path d="M53.4881 69.1334
L52.9167 69.7048
" />
<path d="M52.9167 69.7048
L53.5357 69.7048
" />
</g><g transform="rotate(-90.000000 102.0000 64.2500)">
<text x="102.0000" y="64.7500"
textLength="3.2976" font-size="1.3333" lengthAdjust="spacingAndGlyphs"
text-anchor="middle" opacity="0" stroke-opacity="0">SW5</text>
</g>
<g class="stroked-text"><desc>SW5</desc>
<path d="M102.4072 65.5833
L102.4548 65.4405
" />
<path d="M102.4548 65.4405
L102.4548 65.2024
" />
<path d="M102.4548 65.2024
L102.4072 65.1071
" />
<path d="M102.4072 65.1071
L102.3596 65.0595
" />
<path d="M102.3596 65.0595
L102.2643 65.0119
" />
<path d="M102.2643 65.0119
L102.1691 65.0119
" />
<path d="M102.1691 65.0119
L102.0739 65.0595
" />
<path d="M102.0739 65.0595
L102.0262 65.1071
" />
<path d="M102.0262 65.1071
L101.9786 65.2024
" />
<path d="M101.9786 65.2024
L101.9310 65.3929
" />
<path d="M101.9310 65.3929
L101.8834 65.4881
" />
<path d="M101.8834 65.4881
L101.8358 65.5357
" />
<path d="M101.8358 65.5357
L101.7405 65.5833
" />
<path d="M101.7405 65.5833
L101.6453 65.5833
" />
<path d="M101.6453 65.5833
L101.5501 65.5357
" />
<path d="M101.5501 65.5357
L101.5024 65.4881
" />
<path d="M101.5024 65.4881
L101.4548 65.3929
" />
<path d="M101.4548 65.3929
L101.4548 65.1548
" />
<path d="M101.4548 65.1548
L101.5024 65.0119
" />
<path d="M101.4548 64.6786
L102.4548 64.4405
" />
<path d="M102.4548 64.4405
L101.7405 64.2500
" />
<path d="M101.7405 64.2500
L102.4548 64.0595
" />
<path d="M102.4548 64.0595
L101.4548 63.8214
" />
<path d="M101.4548 62.9643
L101.4548 63.4405
" />
<path d="M101.4548 63.4405
L101.9310 63.4881
" />
<path d="M101.9310 63.4881
L101.8834 63.4405
" />
<path d="M101.8834 63.4405
L101.8358 63.3452
" />
<path d="M101.8358 63.3452
L101.8358 63.1071
" />
<path d="M101.8358 63.1071
L101.8834 63.0119
" />
<path d="M101.8834 63.0119
L101.9310 62.9643
" />
<path d="M101.9310 62.9643
L102.0262 62.9167
" />
<path d="M102.0262 62.9167
L102.2643 62.9167
" />
<path d="M102.2643 62.9167
L102.3596 62.9643
" />
<path d="M102.3596 62.9643
L102.4072 63.0119
" />
<path d="M102.4072 63.0119
L102.4548 63.1071
" />
<path d="M102.4548 63.1071
L102.4548 63.3452
" />
<path d="M102.4548 63.3452
L102.4072 63.4405
" />
<path d="M102.4072 63.4405
L102.3596 63.4881
" />
</g><g transform="rotate(-90.000000 33.2500 35.5000)">
<text x="33.2500" y="36.0000"
textLength="2.2500" font-size="1.3333" lengthAdjust="spacingAndGlyphs"
text-anchor="middle" opacity="0" stroke-opacity="0">U2</text>
</g>
<g class="stroked-text"><desc>U2</desc>
<path d="M32.7048 36.2619
L33.5143 36.2619
" />
<path d="M33.5143 36.2619
L33.6096 36.2143
" />
<path d="M33.6096 36.2143
L33.6572 36.1667
" />
<path d="M33.6572 36.1667
L33.7048 36.0714
" />
<path d="M33.7048 36.0714
L33.7048 35.8810
" />
<path d="M33.7048 35.8810
L33.6572 35.7857
" />
<path d="M33.6572 35.7857
L33.6096 35.7381
" />
<path d="M33.6096 35.7381
L33.5143 35.6905
" />
<path d="M33.5143 35.6905
L32.7048 35.6905
" />
<path d="M32.8001 35.2619
L32.7524 35.2143
" />
<path d="M32.7524 35.2143
L32.7048 35.1190
" />
<path d="M32.7048 35.1190
L32.7048 34.8810
" />
<path d="M32.7048 34.8810
L32.7524 34.7857
" />
<path d="M32.7524 34.7857
L32.8001 34.7381
" />
<path d="M32.8001 34.7381
L32.8953 34.6905
" />
<path d="M32.8953 34.6905
L32.9905 34.6905
" />
<path d="M32.9905 34.6905
L33.1334 34.7381
" />
<path d="M33.1334 34.7381
L33.7048 35.3095
" />
<path d="M33.7048 35.3095
L33.7048 34.6905
" />
</g><g transform="rotate(-90.000000 91.2500 17.0000)">
<text x="91.2500" y="17.5000"
textLength="2.2500" font-size="1.3333" lengthAdjust="spacingAndGlyphs"
text-anchor="middle" opacity="0" stroke-opacity="0">U6</text>
</g>
<g class="stroked-text"><desc>U6</desc>
<path d="M90.7048 17.7619
L91.5143 17.7619
" />
<path d="M91.5143 17.7619
L91.6096 17.7143
" />
<path d="M91.6096 17.7143
L91.6572 17.6667
" />
<path d="M91.6572 17.6667
L91.7048 17.5714
" />
<path d="M91.7048 17.5714
L91.7048 17.3810
" />
<path d="M91.7048 17.3810
L91.6572 17.2857
" />
<path d="M91.6572 17.2857
L91.6096 17.2381
" />
<path d="M91.6096 17.2381
L91.5143 17.1905
" />
<path d="M91.5143 17.1905
L90.7048 17.1905
" />
<path d="M90.7048 16.2857
L90.7048 16.4762
" />
<path d="M90.7048 16.4762
L90.7524 16.5714
" />
<path d="M90.7524 16.5714
L90.8001 16.6190
" />
<path d="M90.8001 16.6190
L90.9429 16.7143
" />
<path d="M90.9429 16.7143
L91.1334 16.7619
" />
<path d="M91.1334 16.7619
L91.5143 16.7619
" />
<path d="M91.5143 16.7619
L91.6096 16.7143
" />
<path d="M91.6096 16.7143
L91.6572 16.6667
" />
<path d="M91.6572 16.6667
L91.7048 16.5714
" />
<path d="M91.7048 16.5714
L91.7048 16.3810
" />
<path d="M91.7048 16.3810
L91.6572 16.2857
" />
<path d="M91.6572 16.2857
L91.6096 16.2381
" />
<path d="M91.6096 16.2381
L91.5143 16.1905
" />
<path d="M91.5143 16.1905
L91.2762 16.1905
" />
<path d="M91.2762 16.1905
L91.1810 16.2381
" />
<path d="M91.1810 16.2381
L91.1334 16.2857
" />
<path d="M91.1334 16.2857
L91.0858 16.3810
" />
<path d="M91.0858 16.3810
L91.0858 16.5714
" />
<path d="M91.0858 16.5714
L91.1334 16.6667
" />
<path d="M91.1334 16.6667
L91.1810 16.7143
" />
<path d="M91.1810 16.7143
L91.2762 16.7619
" />
</g><text x="64.8375" y="69.8200"
textLength="3.1548" font-size="1.3333" lengthAdjust="spacingAndGlyphs"
text-anchor="middle" opacity="0" stroke-opacity="0">R14</text>
<g class="stroked-text"><desc>R14</desc>
<path d="M64.1946 69.7748
L63.8613 69.2986
" />
<path d="M63.6232 69.7748
L63.6232 68.7748
" />
<path d="M63.6232 68.7748
L64.0042 68.7748
" />
<path d="M64.0042 68.7748
L64.0994 68.8224
" />
<path d="M64.0994 68.8224
L64.1470 68.8701
" />
<path d="M64.1470 68.8701
L64.1946 68.9653
" />
<path d="M64.1946 68.9653
L64.1946 69.1082
" />
<path d="M64.1946 69.1082
L64.1470 69.2034
" />
<path d="M64.1470 69.2034
L64.0994 69.2510
" />
<path d="M64.0994 69.2510
L64.0042 69.2986
" />
<path d="M64.0042 69.2986
L63.6232 69.2986
" />
<path d="M65.1470 69.7748
L64.5756 69.7748
" />
<path d="M64.8613 69.7748
L64.8613 68.7748
" />
<path d="M64.8613 68.7748
L64.7661 68.9177
" />
<path d="M64.7661 68.9177
L64.6708 69.0129
" />
<path d="M64.6708 69.0129
L64.5756 69.0605
" />
<path d="M66.0042 69.1082
L66.0042 69.7748
" />
<path d="M65.7661 68.7272
L65.5280 69.4415
" />
<path d="M65.5280 69.4415
L66.1470 69.4415
" />
</g><g transform="rotate(-90.000000 95.6050 28.1350)">
<text x="95.6050" y="28.6350"
textLength="1.9643" font-size="1.3333" lengthAdjust="spacingAndGlyphs"
text-anchor="middle" opacity="0" stroke-opacity="0">J5</text>
</g>
<g class="stroked-text"><desc>J5</desc>
<path d="M95.0598 28.4683
L95.7741 28.4683
" />
<path d="M95.7741 28.4683
L95.9170 28.5160
" />
<path d="M95.9170 28.5160
L96.0122 28.6112
" />
<path d="M96.0122 28.6112
L96.0598 28.7540
" />
<path d="M96.0598 28.7540
L96.0598 28.8493
" />
<path d="M95.0598 27.5160
L95.0598 27.9921
" />
<path d="M95.0598 27.9921
L95.5360 28.0398
" />
<path d="M95.5360 28.0398
L95.4884 27.9921
" />
<path d="M95.4884 27.9921
L95.4408 27.8969
" />
<path d="M95.4408 27.8969
L95.4408 27.6588
" />
<path d="M95.4408 27.6588
L95.4884 27.5636
" />
<path d="M95.4884 27.5636
L95.5360 27.5160
" />
<path d="M95.5360 27.5160
L95.6312 27.4683
" />
<path d="M95.6312 27.4683
L95.8693 27.4683
" />
<path d="M95.8693 27.4683
L95.9646 27.5160
" />
<path d="M95.9646 27.5160
L96.0122 27.5636
" />
<path d="M96.0122 27.5636
L96.0598 27.6588
" />
<path d="M96.0598 27.6588
L96.0598 27.8969
" />
<path d="M96.0598 27.8969
L96.0122 27.9921
" />
<path d="M96.0122 27.9921
L95.9646 28.0398
" />
</g><text x="13.2500" y="43.2500"
textLength="1.9643" font-size="1.3333" lengthAdjust="spacingAndGlyphs"
text-anchor="middle" opacity="0" stroke-opacity="0">J2</text>
<g class="stroked-text"><desc>J2</desc>
<path d="M12.9167 42.2048
L12.9167 42.9191
" />
<path d="M12.9167 42.9191
L12.8690 43.0620
" />
<path d="M12.8690 43.0620
L12.7738 43.1572
" />
<path d="M12.7738 43.1572
L12.6310 43.2048
" />
<path d="M12.6310 43.2048
L12.5357 43.2048
" />
<path d="M13.3452 42.3001
L13.3929 42.2524
" />
<path d="M13.3929 42.2524
L13.4881 42.2048
" />
<path d="M13.4881 42.2048
L13.7262 42.2048
" />
<path d="M13.7262 42.2048
L13.8214 42.2524
" />
<path d="M13.8214 42.2524
L13.8690 42.3001
" />
<path d="M13.8690 42.3001
L13.9167 42.3953
" />
<path d="M13.9167 42.3953
L13.9167 42.4905
" />
<path d="M13.9167 42.4905
L13.8690 42.6334
" />
<path d="M13.8690 42.6334
L13.2976 43.2048
" />
<path d="M13.2976 43.2048
L13.9167 43.2048
" />
</g><g transform="rotate(-90.000000 83.5000 19.0000)">
<text x="83.5000" y="19.5000"
textLength="3.1548" font-size="1.3333" lengthAdjust="spacingAndGlyphs"
text-anchor="middle" opacity="0" stroke-opacity="0">C10</text>
</g>
<g class="stroked-text"><desc>C10</desc>
<path d="M83.8596 19.6429
L83.9072 19.6905
" />
<path d="M83.9072 19.6905
L83.9548 19.8333
" />
<path d="M83.9548 19.8333
L83.9548 19.9286
" />
<path d="M83.9548 19.9286
L83.9072 20.0714
" />
<path d="M83.9072 20.0714
L83.8120 20.1667
" />
<path d="M83.8120 20.1667
L83.7167 20.2143
" />
<path d="M83.7167 20.2143
L83.5262 20.2619
" />
<path d="M83.5262 20.2619
L83.3834 20.2619
" />
<path d="M83.3834 20.2619
L83.1929 20.2143
" />
<path d="M83.1929 20.2143
L83.0977 20.1667
" />
<path d="M83.0977 20.1667
L83.0024 20.0714
" />
<path d="M83.0024 20.0714
L82.9548 19.9286
" />
<path d="M82.9548 19.9286
L82.9548 19.8333
" />
<path d="M82.9548 19.8333
L83.0024 19.6905
" />
<path d="M83.0024 19.6905
L83.0501 19.6429
" />
<path d="M83.9548 18.6905
L83.9548 19.2619
" />
<path d="M83.9548 18.9762
L82.9548 18.9762
" />
<path d="M82.9548 18.9762
L83.0977 19.0714
" />
<path d="M83.0977 19.0714
L83.1929 19.1667
" />
<path d="M83.1929 19.1667
L83.2405 19.2619
" />
<path d="M82.9548 18.0714
L82.9548 17.9762
" />
<path d="M82.9548 17.9762
L83.0024 17.8810
" />
<path d="M83.0024 17.8810
L83.0501 17.8333
" />
<path d="M83.0501 17.8333
L83.1453 17.7857
" />
<path d="M83.1453 17.7857
L83.3358 17.7381
" />
<path d="M83.3358 17.7381
L83.5739 17.7381
" />
<path d="M83.5739 17.7381
L83.7643 17.7857
" />
<path d="M83.7643 17.7857
L83.8596 17.8333
" />
<path d="M83.8596 17.8333
L83.9072 17.8810
" />
<path d="M83.9072 17.8810
L83.9548 17.9762
" />
<path d="M83.9548 17.9762
L83.9548 18.0714
" />
<path d="M83.9548 18.0714
L83.9072 18.1667
" />
<path d="M83.9072 18.1667
L83.8596 18.2143
" />
<path d="M83.8596 18.2143
L83.7643 18.2619
" />
<path d="M83.7643 18.2619
L83.5739 18.3095
" />
<path d="M83.5739 18.3095
L83.3358 18.3095
" />
<path d="M83.3358 18.3095
L83.1453 18.2619
" />
<path d="M83.1453 18.2619
L83.0501 18.2143
" />
<path d="M83.0501 18.2143
L83.0024 18.1667
" />
<path d="M83.0024 18.1667
L82.9548 18.0714
" />
</g><g transform="rotate(-90.000000 81.5000 9.7500)">
<text x="81.5000" y="10.2500"
textLength="2.2024" font-size="1.3333" lengthAdjust="spacingAndGlyphs"
text-anchor="middle" opacity="0" stroke-opacity="0">C6</text>
</g>
<g class="stroked-text"><desc>C6</desc>
<path d="M81.8596 9.9167
L81.9072 9.9643
" />
<path d="M81.9072 9.9643
L81.9548 10.1071
" />
<path d="M81.9548 10.1071
L81.9548 10.2024
" />
<path d="M81.9548 10.2024
L81.9072 10.3452
" />
<path d="M81.9072 10.3452
L81.8120 10.4405
" />
<path d="M81.8120 10.4405
L81.7167 10.4881
" />
<path d="M81.7167 10.4881
L81.5262 10.5357
" />
<path d="M81.5262 10.5357
L81.3834 10.5357
" />
<path d="M81.3834 10.5357
L81.1929 10.4881
" />
<path d="M81.1929 10.4881
L81.0977 10.4405
" />
<path d="M81.0977 10.4405
L81.0024 10.3452
" />
<path d="M81.0024 10.3452
L80.9548 10.2024
" />
<path d="M80.9548 10.2024
L80.9548 10.1071
" />
<path d="M80.9548 10.1071
L81.0024 9.9643
" />
<path d="M81.0024 9.9643
L81.0501 9.9167
" />
<path d="M80.9548 9.0595
L80.9548 9.2500
" />
<path d="M80.9548 9.2500
L81.0024 9.3452
" />
<path d="M81.0024 9.3452
L81.0501 9.3929
" />
<path d="M81.0501 9.3929
L81.1929 9.4881
" />
<path d="M81.1929 9.4881
L81.3834 9.5357
" />
<path d="M81.3834 9.5357
L81.7643 9.5357
" />
<path d="M81.7643 9.5357
L81.8596 9.4881
" />
<path d="M81.8596 9.4881
L81.9072 9.4405
" />
<path d="M81.9072 9.4405
L81.9548 9.3452
" />
<path d="M81.9548 9.3452
L81.9548 9.1548
" />
<path d="M81.9548 9.1548
L81.9072 9.0595
" />
<path d="M81.9072 9.0595
L81.8596 9.0119
" />
<path d="M81.8596 9.0119
L81.7643 8.9643
" />
<path d="M81.7643 8.9643
L81.5262 8.9643
" />
<path d="M81.5262 8.9643
L81.4310 9.0119
" />
<path d="M81.4310 9.0119
L81.3834 9.0595
" />
<path d="M81.3834 9.0595
L81.3358 9.1548
" />
<path d="M81.3358 9.1548
L81.3358 9.3452
" />
<path d="M81.3358 9.3452
L81.3834 9.4405
" />
<path d="M81.3834 9.4405
L81.4310 9.4881
" />
<path d="M81.4310 9.4881
L81.5262 9.5357
" />
</g><text x="61.0000" y="69.7500"
textLength="2.2024" font-size="1.3333" lengthAdjust="spacingAndGlyphs"
text-anchor="middle" opacity="0" stroke-opacity="0">D4</text>
<g class="stroked-text"><desc>D4</desc>
<path d="M60.2619 69.7048
L60.2619 68.7048
" />
<path d="M60.2619 68.7048
L60.5000 68.7048
" />
<path d="M60.5000 68.7048
L60.6429 68.7524
" />
<path d="M60.6429 68.7524
L60.7381 68.8477
" />
<path d="M60.7381 68.8477
L60.7857 68.9429
" />
<path d="M60.7857 68.9429
L60.8333 69.1334
" />
<path d="M60.8333 69.1334
L60.8333 69.2762
" />
<path d="M60.8333 69.2762
L60.7857 69.4667
" />
<path d="M60.7857 69.4667
L60.7381 69.5620
" />
<path d="M60.7381 69.5620
L60.6429 69.6572
" />
<path d="M60.6429 69.6572
L60.5000 69.7048
" />
<path d="M60.5000 69.7048
L60.2619 69.7048
" />
<path d="M61.6905 69.0382
L61.6905 69.7048
" />
<path d="M61.4524 68.6572
L61.2143 69.3715
" />
<path d="M61.2143 69.3715
L61.8333 69.3715
" />
</g><text x="45.0000" y="63.0000"
textLength="1.9643" font-size="1.3333" lengthAdjust="spacingAndGlyphs"
text-anchor="middle" opacity="0" stroke-opacity="0">J1</text>
<g class="stroked-text"><desc>J1</desc>
<path d="M44.6667 61.9548
L44.6667 62.6691
" />
<path d="M44.6667 62.6691
L44.6190 62.8120
" />
<path d="M44.6190 62.8120
L44.5238 62.9072
" />
<path d="M44.5238 62.9072
L44.3810 62.9548
" />
<path d="M44.3810 62.9548
L44.2857 62.9548
" />
<path d="M45.6667 62.9548
L45.0952 62.9548
" />
<path d="M45.3810 62.9548
L45.3810 61.9548
" />
<path d="M45.3810 61.9548
L45.2857 62.0977
" />
<path d="M45.2857 62.0977
L45.1905 62.1929
" />
<path d="M45.1905 62.1929
L45.0952 62.2405
" />
</g><g transform="rotate(-90.000000 75.5000 13.0000)">
<text x="75.5000" y="13.5000"
textLength="2.2500" font-size="1.3333" lengthAdjust="spacingAndGlyphs"
text-anchor="middle" opacity="0" stroke-opacity="0">U5</text>
</g>
<g class="stroked-text"><desc>U5</desc>
<path d="M74.9548 13.7619
L75.7643 13.7619
" />
<path d="M75.7643 13.7619
L75.8596 13.7143
" />
<path d="M75.8596 13.7143
L75.9072 13.6667
" />
<path d="M75.9072 13.6667
L75.9548 13.5714
" />
<path d="M75.9548 13.5714
L75.9548 13.3810
" />
<path d="M75.9548 13.3810
L75.9072 13.2857
" />
<path d="M75.9072 13.2857
L75.8596 13.2381
" />
<path d="M75.8596 13.2381
L75.7643 13.1905
" />
<path d="M75.7643 13.1905
L74.9548 13.1905
" />
<path d="M74.9548 12.2381
L74.9548 12.7143
" />
<path d="M74.9548 12.7143
L75.4310 12.7619
" />
<path d="M75.4310 12.7619
L75.3834 12.7143
" />
<path d="M75.3834 12.7143
L75.3358 12.6190
" />
<path d="M75.3358 12.6190
L75.3358 12.3810
" />
<path d="M75.3358 12.3810
L75.3834 12.2857
" />
<path d="M75.3834 12.2857
L75.4310 12.2381
" />
<path d="M75.4310 12.2381
L75.5262 12.1905
" />
<path d="M75.5262 12.1905
L75.7643 12.1905
" />
<path d="M75.7643 12.1905
L75.8596 12.2381
" />
<path d="M75.8596 12.2381
L75.9072 12.2857
" />
<path d="M75.9072 12.2857
L75.9548 12.3810
" />
<path d="M75.9548 12.3810
L75.9548 12.6190
" />
<path d="M75.9548 12.6190
L75.9072 12.7143
" />
<path d="M75.9072 12.7143
L75.8596 12.7619
" />
</g><g transform="rotate(-90.000000 76.2500 27.2500)">
<text x="76.2500" y="27.7500"
textLength="2.2024" font-size="1.3333" lengthAdjust="spacingAndGlyphs"
text-anchor="middle" opacity="0" stroke-opacity="0">R4</text>
</g>
<g class="stroked-text"><desc>R4</desc>
<path d="M76.7048 27.4167
L76.2286 27.7500
" />
<path d="M76.7048 27.9881
L75.7048 27.9881
" />
<path d="M75.7048 27.9881
L75.7048 27.6071
" />
<path d="M75.7048 27.6071
L75.7524 27.5119
" />
<path d="M75.7524 27.5119
L75.8001 27.4643
" />
<path d="M75.8001 27.4643
L75.8953 27.4167
" />
<path d="M75.8953 27.4167
L76.0382 27.4167
" />
<path d="M76.0382 27.4167
L76.1334 27.4643
" />
<path d="M76.1334 27.4643
L76.1810 27.5119
" />
<path d="M76.1810 27.5119
L76.2286 27.6071
" />
<path d="M76.2286 27.6071
L76.2286 27.9881
" />
<path d="M76.0382 26.5595
L76.7048 26.5595
" />
<path d="M75.6572 26.7976
L76.3715 27.0357
" />
<path d="M76.3715 27.0357
L76.3715 26.4167
" />
</g><g transform="rotate(-90.000000 93.0000 16.0000)">
<text x="93.0000" y="16.5000"
textLength="2.2500" font-size="1.3333" lengthAdjust="spacingAndGlyphs"
text-anchor="middle" opacity="0" stroke-opacity="0">U4</text>
</g>
<g class="stroked-text"><desc>U4</desc>
<path d="M92.4548 16.7619
L93.2643 16.7619
" />
<path d="M93.2643 16.7619
L93.3596 16.7143
" />
<path d="M93.3596 16.7143
L93.4072 16.6667
" />
<path d="M93.4072 16.6667
L93.4548 16.5714
" />
<path d="M93.4548 16.5714
L93.4548 16.3810
" />
<path d="M93.4548 16.3810
L93.4072 16.2857
" />
<path d="M93.4072 16.2857
L93.3596 16.2381
" />
<path d="M93.3596 16.2381
L93.2643 16.1905
" />
<path d="M93.2643 16.1905
L92.4548 16.1905
" />
<path d="M92.7882 15.2857
L93.4548 15.2857
" />
<path d="M92.4072 15.5238
L93.1215 15.7619
" />
<path d="M93.1215 15.7619
L93.1215 15.1429
" />
</g><g transform="rotate(-90.000000 100.2500 20.2500)">
<text x="100.2500" y="20.7500"
textLength="2.2024" font-size="1.3333" lengthAdjust="spacingAndGlyphs"
text-anchor="middle" opacity="0" stroke-opacity="0">R3</text>
</g>
<g class="stroked-text"><desc>R3</desc>
<path d="M100.7048 20.4167
L100.2286 20.7500
" />
<path d="M100.7048 20.9881
L99.7048 20.9881
" />
<path d="M99.7048 20.9881
L99.7048 20.6071
" />
<path d="M99.7048 20.6071
L99.7524 20.5119
" />
<path d="M99.7524 20.5119
L99.8001 20.4643
" />
<path d="M99.8001 20.4643
L99.8953 20.4167
" />
<path d="M99.8953 20.4167
L100.0382 20.4167
" />
<path d="M100.0382 20.4167
L100.1334 20.4643
" />
<path d="M100.1334 20.4643
L100.1810 20.5119
" />
<path d="M100.1810 20.5119
L100.2286 20.6071
" />
<path d="M100.2286 20.6071
L100.2286 20.9881
" />
<path d="M99.7048 20.0833
L99.7048 19.4643
" />
<path d="M99.7048 19.4643
L100.0858 19.7976
" />
<path d="M100.0858 19.7976
L100.0858 19.6548
" />
<path d="M100.0858 19.6548
L100.1334 19.5595
" />
<path d="M100.1334 19.5595
L100.1810 19.5119
" />
<path d="M100.1810 19.5119
L100.2762 19.4643
" />
<path d="M100.2762 19.4643
L100.5143 19.4643
" />
<path d="M100.5143 19.4643
L100.6096 19.5119
" />
<path d="M100.6096 19.5119
L100.6572 19.5595
" />
<path d="M100.6572 19.5595
L100.7048 19.6548
" />
<path d="M100.7048 19.6548
L100.7048 19.9405
" />
<path d="M100.7048 19.9405
L100.6572 20.0357
" />
<path d="M100.6572 20.0357
L100.6096 20.0833
" />
</g><text x="91.7500" y="46.5000"
textLength="3.1548" font-size="1.3333" lengthAdjust="spacingAndGlyphs"
text-anchor="middle" opacity="0" stroke-opacity="0">BZ1</text>
<g class="stroked-text"><desc>BZ1</desc>
<path d="M90.8690 45.9310
L91.0119 45.9786
" />
<path d="M91.0119 45.9786
L91.0595 46.0262
" />
<path d="M91.0595 46.0262
L91.1071 46.1215
" />
<path d="M91.1071 46.1215
L91.1071 46.2643
" />
<path d="M91.1071 46.2643
L91.0595 46.3596
" />
<path d="M91.0595 46.3596
L91.0119 46.4072
" />
<path d="M91.0119 46.4072
L90.9167 46.4548
" />
<path d="M90.9167 46.4548
L90.5357 46.4548
" />
<path d="M90.5357 46.4548
L90.5357 45.4548
" />
<path d="M90.5357 45.4548
L90.8690 45.4548
" />
<path d="M90.8690 45.4548
L90.9643 45.5024
" />
<path d="M90.9643 45.5024
L91.0119 45.5501
" />
<path d="M91.0119 45.5501
L91.0595 45.6453
" />
<path d="M91.0595 45.6453
L91.0595 45.7405
" />
<path d="M91.0595 45.7405
L91.0119 45.8358
" />
<path d="M91.0119 45.8358
L90.9643 45.8834
" />
<path d="M90.9643 45.8834
L90.8690 45.9310
" />
<path d="M90.8690 45.9310
L90.5357 45.9310
" />
<path d="M91.4405 45.4548
L92.1071 45.4548
" />
<path d="M92.1071 45.4548
L91.4405 46.4548
" />
<path d="M91.4405 46.4548
L92.1071 46.4548
" />
<path d="M93.0119 46.4548
L92.4405 46.4548
" />
<path d="M92.7262 46.4548
L92.7262 45.4548
" />
<path d="M92.7262 45.4548
L92.6310 45.5977
" />
<path d="M92.6310 45.5977
L92.5357 45.6929
" />
<path d="M92.5357 45.6929
L92.4405 45.7405
" />
</g><g transform="rotate(-90.000000 81.5000 19.0000)">
<text x="81.5000" y="19.5000"
textLength="3.1548" font-size="1.3333" lengthAdjust="spacingAndGlyphs"
text-anchor="middle" opacity="0" stroke-opacity="0">C11</text>
</g>
<g class="stroked-text"><desc>C11</desc>
<path d="M81.8596 19.6429
L81.9072 19.6905
" />
<path d="M81.9072 19.6905
L81.9548 19.8333
" />
<path d="M81.9548 19.8333
L81.9548 19.9286
" />
<path d="M81.9548 19.9286
L81.9072 20.0714
" />
<path d="M81.9072 20.0714
L81.8120 20.1667
" />
<path d="M81.8120 20.1667
L81.7167 20.2143
" />
<path d="M81.7167 20.2143
L81.5262 20.2619
" />
<path d="M81.5262 20.2619
L81.3834 20.2619
" />
<path d="M81.3834 20.2619
L81.1929 20.2143
" />
<path d="M81.1929 20.2143
L81.0977 20.1667
" />
<path d="M81.0977 20.1667
L81.0024 20.0714
" />
<path d="M81.0024 20.0714
L80.9548 19.9286
" />
<path d="M80.9548 19.9286
L80.9548 19.8333
" />
<path d="M80.9548 19.8333
L81.0024 19.6905
" />
<path d="M81.0024 19.6905
L81.0501 19.6429
" />
<path d="M81.9548 18.6905
L81.9548 19.2619
" />
<path d="M81.9548 18.9762
L80.9548 18.9762
" />
<path d="M80.9548 18.9762
L81.0977 19.0714
" />
<path d="M81.0977 19.0714
L81.1929 19.1667
" />
<path d="M81.1929 19.1667
L81.2405 19.2619
" />
<path d="M81.9548 17.7381
L81.9548 18.3095
" />
<path d="M81.9548 18.0238
L80.9548 18.0238
" />
<path d="M80.9548 18.0238
L81.0977 18.1190
" />
<path d="M81.0977 18.1190
L81.1929 18.2143
" />
<path d="M81.1929 18.2143
L81.2405 18.3095
" />
</g></g>
<g style="fill:none; 
stroke:#F2EDA1; stroke-width:0.1200; stroke-opacity:1; 
stroke-linecap:round; stroke-linejoin:round;">
<path d="M80.0000 28.9400
L78.6000 28.9400
" />
<path d="M80.0100 31.2600
L78.6000 31.2600
" />
<path style="fill:#F2EDA1; fill-opacity:1.0000; 
stroke:#F2EDA1; stroke-width:0.1200; stroke-opacity:1; 
stroke-linecap:round; stroke-linejoin:round;fill-rule:evenodd;"
d="M 80.6200,31.5400
80.1400,31.5400
80.3800,31.2100
Z" /> 
</g>
<g style="fill:none; 
stroke:#F2EDA1; stroke-width:0.1200; stroke-opacity:1; 
stroke-linecap:round; stroke-linejoin:round;">
<path d="M87.0000 23.0750
L85.0500 23.0750
" />
<path d="M87.0000 23.0750
L88.9500 23.0750
" />
<path d="M87.0000 33.1950
L85.0500 33.1950
" />
<path d="M87.0000 33.1950
L88.9500 33.1950
" />
<path style="fill:#F2EDA1; fill-opacity:1.0000; 
stroke:#F2EDA1; stroke-width:0.1200; stroke-opacity:1; 
stroke-linecap:round; stroke-linejoin:round;fill-rule:evenodd;"
d="M 89.9400,33.4700
89.4600,33.4700
89.7000,33.1400
Z" /> 
</g>
<g style="fill:none; 
stroke:#F2EDA1; stroke-width:0.1200; stroke-opacity:1; 
stroke-linecap:round; stroke-linejoin:round;">
<path d="M89.0047 20.2275
L88.4953 20.2275
" />
<path d="M89.0047 21.2725
L88.4953 21.2725
" />
<path d="M79.3906 8.9900
L79.1094 8.9900
" />
<path d="M79.3906 10.0100
L79.1094 10.0100
" />
<path d="M92.8344 32.1250
L93.1156 32.1250
" />
<path d="M92.8344 33.1450
L93.1156 33.1450
" />
<path d="M17.4953 38.9775
L18.0047 38.9775
" />
<path d="M17.4953 40.0225
L18.0047 40.0225
" />
<path d="M93.3422 26.3625
L92.8328 26.3625
" />
<path d="M93.3422 27.4075
L92.8328 27.4075
" />
<path d="M93.3422 28.6125
L92.8328 28.6125
" />
<path d="M93.3422 29.6575
L92.8328 29.6575
" />
<path d="M79.0828 32.4775
L79.5922 32.4775
" />
<path d="M79.0828 33.5225
L79.5922 33.5225
" />
<path d="M83.1900 10.5000
L83.1900 9.8500
" />
<path d="M83.1900 10.5000
L83.1900 11.1500
" />
<path d="M86.3100 10.5000
L86.3100 9.8500
" />
<path d="M86.3100 10.5000
L86.3100 11.1500
" />
<path style="fill:#F2EDA1; fill-opacity:1.0000; 
stroke:#F2EDA1; stroke-width:0.1200; stroke-opacity:1; 
stroke-linecap:round; stroke-linejoin:round;fill-rule:evenodd;"
d="M 83.2400,11.6625
82.9100,11.9025
82.9100,11.4225
Z" /> 
</g>
<g style="fill:none; 
stroke:#F2EDA1; stroke-width:0.1200; stroke-opacity:1; 
stroke-linecap:round; stroke-linejoin:round;">
<path d="M96.1375 39.6900
L95.3375 39.6900
" />
<path d="M96.1375 39.6900
L96.9375 39.6900
" />
<path d="M96.1375 42.8100
L95.3375 42.8100
" />
<path d="M96.1375 42.8100
L96.9375 42.8100
" />
<path style="fill:#F2EDA1; fill-opacity:1.0000; 
stroke:#F2EDA1; stroke-width:0.1200; stroke-opacity:1; 
stroke-linecap:round; stroke-linejoin:round;fill-rule:evenodd;"
d="M 97.6775,43.0900
97.1975,43.0900
97.4375,42.7600
Z" /> 
</g>
<g style="fill:none; 
stroke:#F2EDA1; stroke-width:0.1200; stroke-opacity:1; 
stroke-linecap:round; stroke-linejoin:round;">
<path d="M79.6000 53.1500
L82.0000 53.1500
" />
<path d="M79.6000 57.2500
L79.6000 53.1500
" />
<path d="M79.6000 61.2500
L79.6000 65.3500
" />
<path d="M79.6000 65.3500
L91.4000 65.3500
" />
<path d="M81.4000 66.4500
L81.7000 66.7500
" />
<path d="M81.4000 67.0500
L81.4000 66.4500
" />
<path d="M81.7000 66.7500
L81.4000 67.0500
" />
<path d="M84.2000 53.1500
L86.8000 53.1500
" />
<path d="M85.0000 59.2500
L86.0000 59.2500
" />
<path d="M85.5000 59.7500
L85.5000 58.7500
" />
<path d="M89.0000 53.1500
L91.4000 53.1500
" />
<path d="M91.4000 53.1500
L91.4000 57.2500
" />
<path d="M91.4000 61.2500
L91.4000 65.3500
" />
<circle cx="85.5000" cy="59.2500" r="3.0000" /> 
<path d="M14.3656 38.9900
L14.0844 38.9900
" />
<path d="M14.3656 40.0100
L14.0844 40.0100
" />
</g>
<g style="fill:none; 
stroke:#F2EDA1; stroke-width:0.1524; stroke-opacity:1; 
stroke-linecap:round; stroke-linejoin:round;">
<path d="M79.0267 5.2391
L79.0267 5.9609
" />
<path d="M81.6302 2.8822
L81.6302 4.1776
" />
<path d="M81.6302 4.1776
L79.6845 4.1776
" />
<path d="M82.4531 7.0224
L84.0610 7.0224
" />
<path d="M83.3828 2.8822
L81.6302 2.8822
" />
<path d="M83.3828 4.1776
L83.3828 2.8822
" />
<path d="M85.3284 4.1776
L83.3828 4.1776
" />
<path d="M85.9863 5.9609
L85.9863 5.2391
" />
</g>
<g style="fill:none; 
stroke:#F2EDA1; stroke-width:0.1200; stroke-opacity:1; 
stroke-linecap:round; stroke-linejoin:round;">
<path d="M97.6344 20.2400
L97.9156 20.2400
" />
<path d="M97.6344 21.2600
L97.9156 21.2600
" />
<path d="M29.0000 6.6250
L29.0000 8.6250
" />
<path d="M30.0000 5.3250
L30.4500 4.8750
" />
<path d="M30.0000 9.9250
L30.4500 10.3750
" />
<path d="M30.4500 4.8750
L33.0500 4.8750
" />
<path d="M30.4500 10.3750
L33.0500 10.3750
" />
<path d="M33.5000 5.3250
L33.0500 4.8750
" />
<path d="M33.5000 9.9250
L33.0500 10.3750
" />
<path d="M34.5000 6.6250
L34.5000 8.6250
" />
<path d="M95.5000 53.4500
L95.5000 56.0500
" />
<path d="M95.9500 53.0000
L95.5000 53.4500
" />
<path d="M95.9500 56.5000
L95.5000 56.0500
" />
<path d="M99.2500 52.0000
L97.2500 52.0000
" />
<path d="M99.2500 57.5000
L97.2500 57.5000
" />
<path d="M100.5500 53.0000
L101.0000 53.4500
" />
<path d="M100.5500 56.5000
L101.0000 56.0500
" />
<path d="M101.0000 53.4500
L101.0000 56.0500
" />
<path d="M49.0922 70.2275
L48.5828 70.2275
" />
<path d="M49.0922 71.2725
L48.5828 71.2725
" />
<path d="M68.8344 70.2400
L69.1156 70.2400
" />
<path d="M68.8344 71.2600
L69.1156 71.2600
" />
<path d="M96.1672 12.4775
L95.6578 12.4775
" />
<path d="M96.1672 13.5225
L95.6578 13.5225
" />
<path d="M68.8344 67.7400
L69.1156 67.7400
" />
<path d="M68.8344 68.7600
L69.1156 68.7600
" />
<path d="M91.3900 19.7500
L91.3900 21.7500
" />
<path d="M91.3900 19.7500
L95.2500 19.7500
" />
<path d="M91.3900 21.7500
L95.2500 21.7500
" />
<path d="M88.3844 10.9900
L88.6656 10.9900
" />
<path d="M88.3844 12.0100
L88.6656 12.0100
" />
<path d="M96.5922 44.1775
L96.0828 44.1775
" />
<path d="M96.5922 45.2225
L96.0828 45.2225
" />
<path d="M93.3422 22.7275
L92.8328 22.7275
" />
<path d="M93.3422 23.7725
L92.8328 23.7725
" />
<path d="M99.5150 12.3025
L99.5150 14.5875
" />
<path d="M100.9850 12.3025
L99.5150 12.3025
" />
<path d="M100.9850 14.5875
L100.9850 12.3025
" />
<path d="M51.9125 71.4850
L54.1975 71.4850
" />
<path d="M54.1975 70.0150
L51.9125 70.0150
" />
<path d="M54.1975 71.4850
L54.1975 70.0150
" />
<path d="M93.3422 24.6125
L92.8328 24.6125
" />
<path d="M93.3422 25.6575
L92.8328 25.6575
" />
<path d="M92.8328 30.3625
L93.3422 30.3625
" />
<path d="M92.8328 31.4075
L93.3422 31.4075
" />
<path d="M95.5000 62.9500
L95.5000 65.5500
" />
<path d="M95.9500 62.5000
L95.5000 62.9500
" />
<path d="M95.9500 66.0000
L95.5000 65.5500
" />
<path d="M99.2500 61.5000
L97.2500 61.5000
" />
<path d="M99.2500 67.0000
L97.2500 67.0000
" />
<path d="M100.5500 62.5000
L101.0000 62.9500
" />
<path d="M100.5500 66.0000
L101.0000 65.5500
" />
<path d="M101.0000 62.9500
L101.0000 65.5500
" />
<path d="M6.3250 18.6300
L12.7400 18.6300
" />
<path d="M6.3250 36.8700
L6.3250 18.6300
" />
<path d="M6.3250 36.8700
L12.4850 36.8700
" />
<path d="M31.2850 18.6300
L32.0650 18.6300
" />
<path d="M31.2850 36.8700
L32.0650 36.8700
" />
<path d="M32.0650 18.6300
L32.0650 19.6300
" />
<path d="M32.0650 36.8700
L32.0650 35.8700
" />
<path style="fill:#F2EDA1; fill-opacity:1.0000; 
stroke:#F2EDA1; stroke-width:0.1200; stroke-opacity:1; 
stroke-linecap:round; stroke-linejoin:round;fill-rule:evenodd;"
d="M 13.2100,37.3750
12.7100,36.8750
13.2100,36.8750
Z" /> 
</g>
<g style="fill:none; 
stroke:#F2EDA1; stroke-width:0.1200; stroke-opacity:1; 
stroke-linecap:round; stroke-linejoin:round;">
<path d="M86.2500 14.6400
L88.7500 14.6400
" />
<path d="M88.7500 19.3600
L86.2500 19.3600
" />
<path style="fill:#F2EDA1; fill-opacity:1.0000; 
stroke:#F2EDA1; stroke-width:0.1200; stroke-opacity:1; 
stroke-linecap:round; stroke-linejoin:round;fill-rule:evenodd;"
d="M 89.5100,19.5400
89.0300,19.5400
89.2700,19.2100
Z" /> 
</g>
<g style="fill:none; 
stroke:#F2EDA1; stroke-width:0.1200; stroke-opacity:1; 
stroke-linecap:round; stroke-linejoin:round;">
<path d="M64.5828 70.2275
L65.0922 70.2275
" />
<path d="M64.5828 71.2725
L65.0922 71.2725
" />
<path d="M96.5500 30.9350
L96.5500 31.7350
" />
<path d="M99.4700 23.4350
L101.2500 23.4350
" />
<path d="M99.4700 32.8350
L101.2500 32.8350
" />
<path d="M5.9300 41.0500
L33.3300 41.0500
" />
<path d="M5.9300 68.3500
L5.9300 41.0500
" />
<path d="M6.3520 44.3450
L29.4520 44.3450
" />
<path d="M6.3520 60.9450
L6.3520 44.3450
" />
<path d="M14.6310 41.5390
L14.6310 43.9520
" />
<path d="M14.6310 41.5390
L24.4100 41.5390
" />
<path d="M24.4100 41.5390
L24.4100 43.9520
" />
<path d="M24.4100 43.9520
L14.6310 43.9520
" />
<path d="M29.4520 44.3450
L32.5380 44.3450
" />
<path d="M29.4520 60.9450
L6.3520 60.9450
" />
<path d="M29.4520 60.9450
L32.7920 60.9700
" />
<path d="M32.7920 44.3330
L32.5380 44.3450
" />
<path d="M32.7920 60.9700
L32.7920 44.3330
" />
<path d="M33.3300 41.0500
L33.3300 68.3500
" />
<path d="M33.3300 68.3500
L5.9300 68.3500
" />
<path d="M82.9900 16.1656
L82.9900 15.8844
" />
<path d="M84.0100 16.1656
L84.0100 15.8844
" />
<path d="M80.9900 12.1344
L80.9900 12.4156
" />
<path d="M82.0100 12.1344
L82.0100 12.4156
" />
<path d="M59.4775 70.0150
L59.4775 71.4850
" />
<path d="M59.4775 71.4850
L61.7625 71.4850
" />
<path d="M61.7625 70.0150
L59.4775 70.0150
" />
<path d="M46.6700 63.8300
L46.6700 62.5000
" />
<path d="M48.0000 63.8300
L46.6700 63.8300
" />
<path d="M49.2700 61.1700
L67.1100 61.1700
" />
<path d="M49.2700 63.8300
L49.2700 61.1700
" />
<path d="M49.2700 63.8300
L67.1100 63.8300
" />
<path d="M67.1100 63.8300
L67.1100 61.1700
" />
</g>
<g style="fill:none; 
stroke:#F2EDA1; stroke-width:0.1524; stroke-opacity:1; 
stroke-linecap:round; stroke-linejoin:round;">
<path d="M77.2341 14.1811
L78.2593 14.1811
" />
<path d="M78.2593 11.8189
L77.2341 11.8189
" />
<circle cx="79.6564" cy="13.7500" r="0.1016" /> 
</g>
<g style="fill:none; 
stroke:#F2EDA1; stroke-width:0.1200; stroke-opacity:1; 
stroke-linecap:round; stroke-linejoin:round;">
<path d="M75.7275 30.4172
L75.7275 29.9078
" />
<path d="M76.7725 30.4172
L76.7725 29.9078
" />
<path d="M95.7500 14.4400
L94.9500 14.4400
" />
<path d="M95.7500 14.4400
L96.5500 14.4400
" />
<path d="M95.7500 17.5600
L94.9500 17.5600
" />
<path d="M95.7500 17.5600
L96.5500 17.5600
" />
<path style="fill:#F2EDA1; fill-opacity:1.0000; 
stroke:#F2EDA1; stroke-width:0.1200; stroke-opacity:1; 
stroke-linecap:round; stroke-linejoin:round;fill-rule:evenodd;"
d="M 94.4500,14.4900
94.2100,14.1600
94.6900,14.1600
Z" /> 
</g>
<g style="fill:none; 
stroke:#F2EDA1; stroke-width:0.1200; stroke-opacity:1; 
stroke-linecap:round; stroke-linejoin:round;">
<path d="M99.7275 17.1578
L99.7275 17.6672
" />
<path d="M100.7725 17.1578
L100.7725 17.6672
" />
<path d="M14.5000 6.6250
L14.5000 8.6250
" />
<path d="M15.5000 5.3250
L15.9500 4.8750
" />
<path d="M15.5000 9.9250
L15.9500 10.3750
" />
<path d="M15.9500 4.8750
L18.5500 4.8750
" />
<path d="M15.9500 10.3750
L18.5500 10.3750
" />
<path d="M19.0000 5.3250
L18.5500 4.8750
" />
<path d="M19.0000 9.9250
L18.5500 10.3750
" />
<path d="M20.0000 6.6250
L20.0000 8.6250
" />
<path d="M78.7292 39.7500 A6.5734 6.5734 0.0 0 0 78.7292 42.7500" />
<circle cx="85.1292" cy="41.2500" r="6.2300" /> 
<path d="M80.9900 16.1406
L80.9900 15.8594
" />
<path d="M82.0100 16.1406
L82.0100 15.8594
" />
</g>
<g style="fill:none; 
stroke:#D0D2CD; stroke-width:0.1000; stroke-opacity:1; 
stroke-linecap:round; stroke-linejoin:round;">
<path d="M100.0984 75.5001 A3.7501 3.7501 0.0 0 0 103.8484 71.7500" />
<path d="M4.2500 71.7500
L4.2500 7.2500
" />
<path d="M8.0000 3.5000 A3.7500 3.7500 0.0 0 0 4.2500 7.2500" />
<path d="M4.2500 71.7500 A3.7500 3.7500 0.0 0 0 8.0000 75.5000" />
<path d="M8.0000 3.5000
L100.0983 3.5000
" />
<path d="M103.8483 7.2500 A3.7500 3.7500 0.0 0 0 100.0983 3.5000" />
<path d="M103.8483 7.2500
L103.8484 71.7500
" />
<path d="M8.0000 75.5000
L100.0984 75.5000
" />
</g> 
</svg>
