<?xml version="1.0" standalone="no"?>
 <!DOCTYPE svg PUBLIC "-//W3C//DTD SVG 1.1//EN" 
 "http://www.w3.org/Graphics/SVG/1.1/DTD/svg11.dtd"> 
<svg
  xmlns:svg="http://www.w3.org/2000/svg"
  xmlns="http://www.w3.org/2000/svg"
  xmlns:xlink="http://www.w3.org/1999/xlink"
  version="1.1"
  width="110.9980mm" height="80.7466mm" viewBox="0.0000 0.0000 110.9980 80.7466">
<title>SVG Image created as time_terminal-B_Silkscreen.svg date 2025/07/22 15:40:31 </title>
  <desc>Image generated by PCBNEW </desc>
<g style="fill:#000000; fill-opacity:1.0000;stroke:#000000; stroke-opacity:1.0000;
stroke-linecap:round; stroke-linejoin:round;"
 transform="translate(0 0) scale(1 1)">
</g>
<g style="fill:none; 
stroke:#E8B2A7; stroke-width:0.1250; stroke-opacity:1; 
stroke-linecap:round; stroke-linejoin:round;">
<text x="19.7500" y="60.7500"
transform="scale(-1 1) translate(-39.500000 0)"
textLength="3.2226" font-size="1.3333" lengthAdjust="spacingAndGlyphs"
text-anchor="end" opacity="0" stroke-opacity="0">GND</text>
<g class="stroked-text"><desc>GND</desc>
<path d="M22.1180 59.6687
L22.2132 59.6211
" />
<path d="M22.2132 59.6211
L22.3560 59.6211
" />
<path d="M22.3560 59.6211
L22.4989 59.6687
" />
<path d="M22.4989 59.6687
L22.5941 59.7640
" />
<path d="M22.5941 59.7640
L22.6418 59.8592
" />
<path d="M22.6418 59.8592
L22.6894 60.0497
" />
<path d="M22.6894 60.0497
L22.6894 60.1925
" />
<path d="M22.6894 60.1925
L22.6418 60.3830
" />
<path d="M22.6418 60.3830
L22.5941 60.4783
" />
<path d="M22.5941 60.4783
L22.4989 60.5735
" />
<path d="M22.4989 60.5735
L22.3560 60.6211
" />
<path d="M22.3560 60.6211
L22.2608 60.6211
" />
<path d="M22.2608 60.6211
L22.1180 60.5735
" />
<path d="M22.1180 60.5735
L22.0703 60.5259
" />
<path d="M22.0703 60.5259
L22.0703 60.1925
" />
<path d="M22.0703 60.1925
L22.2608 60.1925
" />
<path d="M21.6418 60.6211
L21.6418 59.6211
" />
<path d="M21.6418 59.6211
L21.0703 60.6211
" />
<path d="M21.0703 60.6211
L21.0703 59.6211
" />
<path d="M20.5941 60.6211
L20.5941 59.6211
" />
<path d="M20.5941 59.6211
L20.3560 59.6211
" />
<path d="M20.3560 59.6211
L20.2132 59.6687
" />
<path d="M20.2132 59.6687
L20.1180 59.7640
" />
<path d="M20.1180 59.7640
L20.0703 59.8592
" />
<path d="M20.0703 59.8592
L20.0227 60.0497
" />
<path d="M20.0227 60.0497
L20.0227 60.1925
" />
<path d="M20.0227 60.1925
L20.0703 60.3830
" />
<path d="M20.0703 60.3830
L20.1180 60.4783
" />
<path d="M20.1180 60.4783
L20.2132 60.5735
" />
<path d="M20.2132 60.5735
L20.3560 60.6211
" />
<path d="M20.3560 60.6211
L20.5941 60.6211
" />
</g></g>
<g style="fill:none; 
stroke:#E8B2A7; stroke-width:0.2400; stroke-opacity:1; 
stroke-linecap:round; stroke-linejoin:round;">
<text x="27.7500" y="66.2500"
transform="scale(-1 1) translate(-55.500000 0)"
textLength="14.1371" font-size="1.6000" lengthAdjust="spacingAndGlyphs"
text-anchor="middle" opacity="0" stroke-opacity="0">RA-01SH LoRa</text>
<g class="stroked-text"><desc>RA-01SH LoRa</desc>
<path d="M33.6071 66.0907
L34.0071 65.5192
" />
<path d="M34.2929 66.0907
L34.2929 64.8907
" />
<path d="M34.2929 64.8907
L33.8357 64.8907
" />
<path d="M33.8357 64.8907
L33.7214 64.9478
" />
<path d="M33.7214 64.9478
L33.6643 65.0049
" />
<path d="M33.6643 65.0049
L33.6071 65.1192
" />
<path d="M33.6071 65.1192
L33.6071 65.2907
" />
<path d="M33.6071 65.2907
L33.6643 65.4049
" />
<path d="M33.6643 65.4049
L33.7214 65.4621
" />
<path d="M33.7214 65.4621
L33.8357 65.5192
" />
<path d="M33.8357 65.5192
L34.2929 65.5192
" />
<path d="M33.1500 65.7478
L32.5786 65.7478
" />
<path d="M33.2643 66.0907
L32.8643 64.8907
" />
<path d="M32.8643 64.8907
L32.4643 66.0907
" />
<path d="M32.0643 65.6335
L31.1500 65.6335
" />
<path d="M30.3500 64.8907
L30.2357 64.8907
" />
<path d="M30.2357 64.8907
L30.1214 64.9478
" />
<path d="M30.1214 64.9478
L30.0643 65.0049
" />
<path d="M30.0643 65.0049
L30.0071 65.1192
" />
<path d="M30.0071 65.1192
L29.9500 65.3478
" />
<path d="M29.9500 65.3478
L29.9500 65.6335
" />
<path d="M29.9500 65.6335
L30.0071 65.8621
" />
<path d="M30.0071 65.8621
L30.0643 65.9764
" />
<path d="M30.0643 65.9764
L30.1214 66.0335
" />
<path d="M30.1214 66.0335
L30.2357 66.0907
" />
<path d="M30.2357 66.0907
L30.3500 66.0907
" />
<path d="M30.3500 66.0907
L30.4643 66.0335
" />
<path d="M30.4643 66.0335
L30.5214 65.9764
" />
<path d="M30.5214 65.9764
L30.5786 65.8621
" />
<path d="M30.5786 65.8621
L30.6357 65.6335
" />
<path d="M30.6357 65.6335
L30.6357 65.3478
" />
<path d="M30.6357 65.3478
L30.5786 65.1192
" />
<path d="M30.5786 65.1192
L30.5214 65.0049
" />
<path d="M30.5214 65.0049
L30.4643 64.9478
" />
<path d="M30.4643 64.9478
L30.3500 64.8907
" />
<path d="M28.8071 66.0907
L29.4929 66.0907
" />
<path d="M29.1500 66.0907
L29.1500 64.8907
" />
<path d="M29.1500 64.8907
L29.2643 65.0621
" />
<path d="M29.2643 65.0621
L29.3786 65.1764
" />
<path d="M29.3786 65.1764
L29.4929 65.2335
" />
<path d="M28.3500 66.0335
L28.1786 66.0907
" />
<path d="M28.1786 66.0907
L27.8929 66.0907
" />
<path d="M27.8929 66.0907
L27.7786 66.0335
" />
<path d="M27.7786 66.0335
L27.7214 65.9764
" />
<path d="M27.7214 65.9764
L27.6643 65.8621
" />
<path d="M27.6643 65.8621
L27.6643 65.7478
" />
<path d="M27.6643 65.7478
L27.7214 65.6335
" />
<path d="M27.7214 65.6335
L27.7786 65.5764
" />
<path d="M27.7786 65.5764
L27.8929 65.5192
" />
<path d="M27.8929 65.5192
L28.1214 65.4621
" />
<path d="M28.1214 65.4621
L28.2357 65.4049
" />
<path d="M28.2357 65.4049
L28.2929 65.3478
" />
<path d="M28.2929 65.3478
L28.3500 65.2335
" />
<path d="M28.3500 65.2335
L28.3500 65.1192
" />
<path d="M28.3500 65.1192
L28.2929 65.0049
" />
<path d="M28.2929 65.0049
L28.2357 64.9478
" />
<path d="M28.2357 64.9478
L28.1214 64.8907
" />
<path d="M28.1214 64.8907
L27.8357 64.8907
" />
<path d="M27.8357 64.8907
L27.6643 64.9478
" />
<path d="M27.1500 66.0907
L27.1500 64.8907
" />
<path d="M27.1500 65.4621
L26.4643 65.4621
" />
<path d="M26.4643 66.0907
L26.4643 64.8907
" />
<path d="M24.4071 66.0907
L24.9786 66.0907
" />
<path d="M24.9786 66.0907
L24.9786 64.8907
" />
<path d="M23.8357 66.0907
L23.9500 66.0335
" />
<path d="M23.9500 66.0335
L24.0071 65.9764
" />
<path d="M24.0071 65.9764
L24.0643 65.8621
" />
<path d="M24.0643 65.8621
L24.0643 65.5192
" />
<path d="M24.0643 65.5192
L24.0071 65.4049
" />
<path d="M24.0071 65.4049
L23.9500 65.3478
" />
<path d="M23.9500 65.3478
L23.8357 65.2907
" />
<path d="M23.8357 65.2907
L23.6643 65.2907
" />
<path d="M23.6643 65.2907
L23.5500 65.3478
" />
<path d="M23.5500 65.3478
L23.4929 65.4049
" />
<path d="M23.4929 65.4049
L23.4357 65.5192
" />
<path d="M23.4357 65.5192
L23.4357 65.8621
" />
<path d="M23.4357 65.8621
L23.4929 65.9764
" />
<path d="M23.4929 65.9764
L23.5500 66.0335
" />
<path d="M23.5500 66.0335
L23.6643 66.0907
" />
<path d="M23.6643 66.0907
L23.8357 66.0907
" />
<path d="M22.2357 66.0907
L22.6357 65.5192
" />
<path d="M22.9214 66.0907
L22.9214 64.8907
" />
<path d="M22.9214 64.8907
L22.4643 64.8907
" />
<path d="M22.4643 64.8907
L22.3500 64.9478
" />
<path d="M22.3500 64.9478
L22.2929 65.0049
" />
<path d="M22.2929 65.0049
L22.2357 65.1192
" />
<path d="M22.2357 65.1192
L22.2357 65.2907
" />
<path d="M22.2357 65.2907
L22.2929 65.4049
" />
<path d="M22.2929 65.4049
L22.3500 65.4621
" />
<path d="M22.3500 65.4621
L22.4643 65.5192
" />
<path d="M22.4643 65.5192
L22.9214 65.5192
" />
<path d="M21.2071 66.0907
L21.2071 65.4621
" />
<path d="M21.2071 65.4621
L21.2643 65.3478
" />
<path d="M21.2643 65.3478
L21.3786 65.2907
" />
<path d="M21.3786 65.2907
L21.6071 65.2907
" />
<path d="M21.6071 65.2907
L21.7214 65.3478
" />
<path d="M21.2071 66.0335
L21.3214 66.0907
" />
<path d="M21.3214 66.0907
L21.6071 66.0907
" />
<path d="M21.6071 66.0907
L21.7214 66.0335
" />
<path d="M21.7214 66.0335
L21.7786 65.9192
" />
<path d="M21.7786 65.9192
L21.7786 65.8049
" />
<path d="M21.7786 65.8049
L21.7214 65.6907
" />
<path d="M21.7214 65.6907
L21.6071 65.6335
" />
<path d="M21.6071 65.6335
L21.3214 65.6335
" />
<path d="M21.3214 65.6335
L21.2071 65.5764
" />
</g></g>
<g style="fill:none; 
stroke:#E8B2A7; stroke-width:0.1250; stroke-opacity:1; 
stroke-linecap:round; stroke-linejoin:round;">
<text x="32.7500" y="56.7500"
transform="scale(-1 1) translate(-65.500000 0)"
textLength="3.7940" font-size="1.3333" lengthAdjust="spacingAndGlyphs"
text-anchor="start" opacity="0" stroke-opacity="0">MISO</text>
<g class="stroked-text"><desc>MISO</desc>
<path d="M32.4297 56.6211
L32.4297 55.6211
" />
<path d="M32.4297 55.6211
L32.0963 56.3354
" />
<path d="M32.0963 56.3354
L31.7630 55.6211
" />
<path d="M31.7630 55.6211
L31.7630 56.6211
" />
<path d="M31.2868 56.6211
L31.2868 55.6211
" />
<path d="M30.8582 56.5735
L30.7154 56.6211
" />
<path d="M30.7154 56.6211
L30.4773 56.6211
" />
<path d="M30.4773 56.6211
L30.3820 56.5735
" />
<path d="M30.3820 56.5735
L30.3344 56.5259
" />
<path d="M30.3344 56.5259
L30.2868 56.4306
" />
<path d="M30.2868 56.4306
L30.2868 56.3354
" />
<path d="M30.2868 56.3354
L30.3344 56.2402
" />
<path d="M30.3344 56.2402
L30.3820 56.1925
" />
<path d="M30.3820 56.1925
L30.4773 56.1449
" />
<path d="M30.4773 56.1449
L30.6678 56.0973
" />
<path d="M30.6678 56.0973
L30.7630 56.0497
" />
<path d="M30.7630 56.0497
L30.8106 56.0021
" />
<path d="M30.8106 56.0021
L30.8582 55.9068
" />
<path d="M30.8582 55.9068
L30.8582 55.8116
" />
<path d="M30.8582 55.8116
L30.8106 55.7164
" />
<path d="M30.8106 55.7164
L30.7630 55.6687
" />
<path d="M30.7630 55.6687
L30.6678 55.6211
" />
<path d="M30.6678 55.6211
L30.4297 55.6211
" />
<path d="M30.4297 55.6211
L30.2868 55.6687
" />
<path d="M29.6678 55.6211
L29.4773 55.6211
" />
<path d="M29.4773 55.6211
L29.3820 55.6687
" />
<path d="M29.3820 55.6687
L29.2868 55.7640
" />
<path d="M29.2868 55.7640
L29.2392 55.9545
" />
<path d="M29.2392 55.9545
L29.2392 56.2878
" />
<path d="M29.2392 56.2878
L29.2868 56.4783
" />
<path d="M29.2868 56.4783
L29.3820 56.5735
" />
<path d="M29.3820 56.5735
L29.4773 56.6211
" />
<path d="M29.4773 56.6211
L29.6678 56.6211
" />
<path d="M29.6678 56.6211
L29.7630 56.5735
" />
<path d="M29.7630 56.5735
L29.8582 56.4783
" />
<path d="M29.8582 56.4783
L29.9059 56.2878
" />
<path d="M29.9059 56.2878
L29.9059 55.9545
" />
<path d="M29.9059 55.9545
L29.8582 55.7640
" />
<path d="M29.8582 55.7640
L29.7630 55.6687
" />
<path d="M29.7630 55.6687
L29.6678 55.6211
" />
</g><text x="50.2500" y="43.5000"
transform="scale(-1 1) translate(-100.500000 0)"
textLength="2.9369" font-size="1.3333" lengthAdjust="spacingAndGlyphs"
text-anchor="end" opacity="0" stroke-opacity="0">3V3</text>
<g class="stroked-text"><desc>3V3</desc>
<path d="M52.9513 42.3711
L52.3322 42.3711
" />
<path d="M52.3322 42.3711
L52.6656 42.7521
" />
<path d="M52.6656 42.7521
L52.5227 42.7521
" />
<path d="M52.5227 42.7521
L52.4275 42.7997
" />
<path d="M52.4275 42.7997
L52.3799 42.8473
" />
<path d="M52.3799 42.8473
L52.3322 42.9425
" />
<path d="M52.3322 42.9425
L52.3322 43.1806
" />
<path d="M52.3322 43.1806
L52.3799 43.2759
" />
<path d="M52.3799 43.2759
L52.4275 43.3235
" />
<path d="M52.4275 43.3235
L52.5227 43.3711
" />
<path d="M52.5227 43.3711
L52.8084 43.3711
" />
<path d="M52.8084 43.3711
L52.9037 43.3235
" />
<path d="M52.9037 43.3235
L52.9513 43.2759
" />
<path d="M52.0465 42.3711
L51.7132 43.3711
" />
<path d="M51.7132 43.3711
L51.3799 42.3711
" />
<path d="M51.1418 42.3711
L50.5227 42.3711
" />
<path d="M50.5227 42.3711
L50.8560 42.7521
" />
<path d="M50.8560 42.7521
L50.7132 42.7521
" />
<path d="M50.7132 42.7521
L50.6180 42.7997
" />
<path d="M50.6180 42.7997
L50.5703 42.8473
" />
<path d="M50.5703 42.8473
L50.5227 42.9425
" />
<path d="M50.5227 42.9425
L50.5227 43.1806
" />
<path d="M50.5227 43.1806
L50.5703 43.2759
" />
<path d="M50.5703 43.2759
L50.6180 43.3235
" />
<path d="M50.6180 43.3235
L50.7132 43.3711
" />
<path d="M50.7132 43.3711
L50.9989 43.3711
" />
<path d="M50.9989 43.3711
L51.0941 43.3235
" />
<path d="M51.0941 43.3235
L51.1418 43.2759
" />
</g><text x="50.2500" y="41.0000"
transform="scale(-1 1) translate(-100.500000 0)"
textLength="2.9369" font-size="1.3333" lengthAdjust="spacingAndGlyphs"
text-anchor="end" opacity="0" stroke-opacity="0">3V3</text>
<g class="stroked-text"><desc>3V3</desc>
<path d="M52.9513 39.8711
L52.3322 39.8711
" />
<path d="M52.3322 39.8711
L52.6656 40.2521
" />
<path d="M52.6656 40.2521
L52.5227 40.2521
" />
<path d="M52.5227 40.2521
L52.4275 40.2997
" />
<path d="M52.4275 40.2997
L52.3799 40.3473
" />
<path d="M52.3799 40.3473
L52.3322 40.4425
" />
<path d="M52.3322 40.4425
L52.3322 40.6806
" />
<path d="M52.3322 40.6806
L52.3799 40.7759
" />
<path d="M52.3799 40.7759
L52.4275 40.8235
" />
<path d="M52.4275 40.8235
L52.5227 40.8711
" />
<path d="M52.5227 40.8711
L52.8084 40.8711
" />
<path d="M52.8084 40.8711
L52.9037 40.8235
" />
<path d="M52.9037 40.8235
L52.9513 40.7759
" />
<path d="M52.0465 39.8711
L51.7132 40.8711
" />
<path d="M51.7132 40.8711
L51.3799 39.8711
" />
<path d="M51.1418 39.8711
L50.5227 39.8711
" />
<path d="M50.5227 39.8711
L50.8560 40.2521
" />
<path d="M50.8560 40.2521
L50.7132 40.2521
" />
<path d="M50.7132 40.2521
L50.6180 40.2997
" />
<path d="M50.6180 40.2997
L50.5703 40.3473
" />
<path d="M50.5703 40.3473
L50.5227 40.4425
" />
<path d="M50.5227 40.4425
L50.5227 40.6806
" />
<path d="M50.5227 40.6806
L50.5703 40.7759
" />
<path d="M50.5703 40.7759
L50.6180 40.8235
" />
<path d="M50.6180 40.8235
L50.7132 40.8711
" />
<path d="M50.7132 40.8711
L50.9989 40.8711
" />
<path d="M50.9989 40.8711
L51.0941 40.8235
" />
<path d="M51.0941 40.8235
L51.1418 40.7759
" />
</g><text x="50.2500" y="48.7500"
transform="scale(-1 1) translate(-100.500000 0)"
textLength="1.8893" font-size="1.3333" lengthAdjust="spacingAndGlyphs"
text-anchor="end" opacity="0" stroke-opacity="0">TX</text>
<g class="stroked-text"><desc>TX</desc>
<path d="M51.9513 47.6211
L51.3799 47.6211
" />
<path d="M51.6656 48.6211
L51.6656 47.6211
" />
<path d="M51.1418 47.6211
L50.4751 48.6211
" />
<path d="M50.4751 47.6211
L51.1418 48.6211
" />
</g><text x="19.7500" y="62.7500"
transform="scale(-1 1) translate(-39.500000 0)"
textLength="2.8417" font-size="1.3333" lengthAdjust="spacingAndGlyphs"
text-anchor="end" opacity="0" stroke-opacity="0">ANT</text>
<g class="stroked-text"><desc>ANT</desc>
<path d="M22.3084 62.3354
L21.8322 62.3354
" />
<path d="M22.4037 62.6211
L22.0703 61.6211
" />
<path d="M22.0703 61.6211
L21.7370 62.6211
" />
<path d="M21.4037 62.6211
L21.4037 61.6211
" />
<path d="M21.4037 61.6211
L20.8322 62.6211
" />
<path d="M20.8322 62.6211
L20.8322 61.6211
" />
<path d="M20.4989 61.6211
L19.9275 61.6211
" />
<path d="M20.2132 62.6211
L20.2132 61.6211
" />
</g><text x="19.7500" y="56.7500"
transform="scale(-1 1) translate(-39.500000 0)"
textLength="2.8893" font-size="1.3333" lengthAdjust="spacingAndGlyphs"
text-anchor="end" opacity="0" stroke-opacity="0">RST</text>
<g class="stroked-text"><desc>RST</desc>
<path d="M21.7370 56.6211
L22.0703 56.1449
" />
<path d="M22.3084 56.6211
L22.3084 55.6211
" />
<path d="M22.3084 55.6211
L21.9275 55.6211
" />
<path d="M21.9275 55.6211
L21.8322 55.6687
" />
<path d="M21.8322 55.6687
L21.7846 55.7164
" />
<path d="M21.7846 55.7164
L21.7370 55.8116
" />
<path d="M21.7370 55.8116
L21.7370 55.9545
" />
<path d="M21.7370 55.9545
L21.7846 56.0497
" />
<path d="M21.7846 56.0497
L21.8322 56.0973
" />
<path d="M21.8322 56.0973
L21.9275 56.1449
" />
<path d="M21.9275 56.1449
L22.3084 56.1449
" />
<path d="M21.3560 56.5735
L21.2132 56.6211
" />
<path d="M21.2132 56.6211
L20.9751 56.6211
" />
<path d="M20.9751 56.6211
L20.8799 56.5735
" />
<path d="M20.8799 56.5735
L20.8322 56.5259
" />
<path d="M20.8322 56.5259
L20.7846 56.4306
" />
<path d="M20.7846 56.4306
L20.7846 56.3354
" />
<path d="M20.7846 56.3354
L20.8322 56.2402
" />
<path d="M20.8322 56.2402
L20.8799 56.1925
" />
<path d="M20.8799 56.1925
L20.9751 56.1449
" />
<path d="M20.9751 56.1449
L21.1656 56.0973
" />
<path d="M21.1656 56.0973
L21.2608 56.0497
" />
<path d="M21.2608 56.0497
L21.3084 56.0021
" />
<path d="M21.3084 56.0021
L21.3560 55.9068
" />
<path d="M21.3560 55.9068
L21.3560 55.8116
" />
<path d="M21.3560 55.8116
L21.3084 55.7164
" />
<path d="M21.3084 55.7164
L21.2608 55.6687
" />
<path d="M21.2608 55.6687
L21.1656 55.6211
" />
<path d="M21.1656 55.6211
L20.9275 55.6211
" />
<path d="M20.9275 55.6211
L20.7846 55.6687
" />
<path d="M20.4989 55.6211
L19.9275 55.6211
" />
<path d="M20.2132 56.6211
L20.2132 55.6211
" />
</g><text x="59.2500" y="51.2500"
transform="scale(-1 1) translate(-118.500000 0)"
textLength="3.2226" font-size="1.3333" lengthAdjust="spacingAndGlyphs"
text-anchor="end" opacity="0" stroke-opacity="0">GND</text>
<g class="stroked-text"><desc>GND</desc>
<path d="M61.6180 50.1687
L61.7132 50.1211
" />
<path d="M61.7132 50.1211
L61.8560 50.1211
" />
<path d="M61.8560 50.1211
L61.9989 50.1687
" />
<path d="M61.9989 50.1687
L62.0941 50.2640
" />
<path d="M62.0941 50.2640
L62.1418 50.3592
" />
<path d="M62.1418 50.3592
L62.1894 50.5497
" />
<path d="M62.1894 50.5497
L62.1894 50.6925
" />
<path d="M62.1894 50.6925
L62.1418 50.8830
" />
<path d="M62.1418 50.8830
L62.0941 50.9783
" />
<path d="M62.0941 50.9783
L61.9989 51.0735
" />
<path d="M61.9989 51.0735
L61.8560 51.1211
" />
<path d="M61.8560 51.1211
L61.7608 51.1211
" />
<path d="M61.7608 51.1211
L61.6180 51.0735
" />
<path d="M61.6180 51.0735
L61.5703 51.0259
" />
<path d="M61.5703 51.0259
L61.5703 50.6925
" />
<path d="M61.5703 50.6925
L61.7608 50.6925
" />
<path d="M61.1418 51.1211
L61.1418 50.1211
" />
<path d="M61.1418 50.1211
L60.5703 51.1211
" />
<path d="M60.5703 51.1211
L60.5703 50.1211
" />
<path d="M60.0941 51.1211
L60.0941 50.1211
" />
<path d="M60.0941 50.1211
L59.8560 50.1211
" />
<path d="M59.8560 50.1211
L59.7132 50.1687
" />
<path d="M59.7132 50.1687
L59.6180 50.2640
" />
<path d="M59.6180 50.2640
L59.5703 50.3592
" />
<path d="M59.5703 50.3592
L59.5227 50.5497
" />
<path d="M59.5227 50.5497
L59.5227 50.6925
" />
<path d="M59.5227 50.6925
L59.5703 50.8830
" />
<path d="M59.5703 50.8830
L59.6180 50.9783
" />
<path d="M59.6180 50.9783
L59.7132 51.0735
" />
<path d="M59.7132 51.0735
L59.8560 51.1211
" />
<path d="M59.8560 51.1211
L60.0941 51.1211
" />
</g><text x="50.2500" y="46.2500"
transform="scale(-1 1) translate(-100.500000 0)"
textLength="3.2226" font-size="1.3333" lengthAdjust="spacingAndGlyphs"
text-anchor="end" opacity="0" stroke-opacity="0">GND</text>
<g class="stroked-text"><desc>GND</desc>
<path d="M52.6180 45.1687
L52.7132 45.1211
" />
<path d="M52.7132 45.1211
L52.8560 45.1211
" />
<path d="M52.8560 45.1211
L52.9989 45.1687
" />
<path d="M52.9989 45.1687
L53.0941 45.2640
" />
<path d="M53.0941 45.2640
L53.1418 45.3592
" />
<path d="M53.1418 45.3592
L53.1894 45.5497
" />
<path d="M53.1894 45.5497
L53.1894 45.6925
" />
<path d="M53.1894 45.6925
L53.1418 45.8830
" />
<path d="M53.1418 45.8830
L53.0941 45.9783
" />
<path d="M53.0941 45.9783
L52.9989 46.0735
" />
<path d="M52.9989 46.0735
L52.8560 46.1211
" />
<path d="M52.8560 46.1211
L52.7608 46.1211
" />
<path d="M52.7608 46.1211
L52.6180 46.0735
" />
<path d="M52.6180 46.0735
L52.5703 46.0259
" />
<path d="M52.5703 46.0259
L52.5703 45.6925
" />
<path d="M52.5703 45.6925
L52.7608 45.6925
" />
<path d="M52.1418 46.1211
L52.1418 45.1211
" />
<path d="M52.1418 45.1211
L51.5703 46.1211
" />
<path d="M51.5703 46.1211
L51.5703 45.1211
" />
<path d="M51.0941 46.1211
L51.0941 45.1211
" />
<path d="M51.0941 45.1211
L50.8560 45.1211
" />
<path d="M50.8560 45.1211
L50.7132 45.1687
" />
<path d="M50.7132 45.1687
L50.6180 45.2640
" />
<path d="M50.6180 45.2640
L50.5703 45.3592
" />
<path d="M50.5703 45.3592
L50.5227 45.5497
" />
<path d="M50.5227 45.5497
L50.5227 45.6925
" />
<path d="M50.5227 45.6925
L50.5703 45.8830
" />
<path d="M50.5703 45.8830
L50.6180 45.9783
" />
<path d="M50.6180 45.9783
L50.7132 46.0735
" />
<path d="M50.7132 46.0735
L50.8560 46.1211
" />
<path d="M50.8560 46.1211
L51.0941 46.1211
" />
</g></g>
<g style="fill:none; 
stroke:#E8B2A7; stroke-width:0.2400; stroke-opacity:1; 
stroke-linecap:round; stroke-linejoin:round;">
<text x="10.5000" y="57.5000"
transform="scale(-1 1) translate(-21.000000 0)"
textLength="8.9371" font-size="1.6000" lengthAdjust="spacingAndGlyphs"
text-anchor="middle" opacity="0" stroke-opacity="0">LoRa ANT</text>
<g class="stroked-text"><desc>LoRa ANT</desc>
<path d="M13.8714 57.3407
L14.4429 57.3407
" />
<path d="M14.4429 57.3407
L14.4429 56.1407
" />
<path d="M13.3000 57.3407
L13.4143 57.2835
" />
<path d="M13.4143 57.2835
L13.4714 57.2264
" />
<path d="M13.4714 57.2264
L13.5286 57.1121
" />
<path d="M13.5286 57.1121
L13.5286 56.7692
" />
<path d="M13.5286 56.7692
L13.4714 56.6549
" />
<path d="M13.4714 56.6549
L13.4143 56.5978
" />
<path d="M13.4143 56.5978
L13.3000 56.5407
" />
<path d="M13.3000 56.5407
L13.1286 56.5407
" />
<path d="M13.1286 56.5407
L13.0143 56.5978
" />
<path d="M13.0143 56.5978
L12.9571 56.6549
" />
<path d="M12.9571 56.6549
L12.9000 56.7692
" />
<path d="M12.9000 56.7692
L12.9000 57.1121
" />
<path d="M12.9000 57.1121
L12.9571 57.2264
" />
<path d="M12.9571 57.2264
L13.0143 57.2835
" />
<path d="M13.0143 57.2835
L13.1286 57.3407
" />
<path d="M13.1286 57.3407
L13.3000 57.3407
" />
<path d="M11.7000 57.3407
L12.1000 56.7692
" />
<path d="M12.3857 57.3407
L12.3857 56.1407
" />
<path d="M12.3857 56.1407
L11.9286 56.1407
" />
<path d="M11.9286 56.1407
L11.8143 56.1978
" />
<path d="M11.8143 56.1978
L11.7571 56.2549
" />
<path d="M11.7571 56.2549
L11.7000 56.3692
" />
<path d="M11.7000 56.3692
L11.7000 56.5407
" />
<path d="M11.7000 56.5407
L11.7571 56.6549
" />
<path d="M11.7571 56.6549
L11.8143 56.7121
" />
<path d="M11.8143 56.7121
L11.9286 56.7692
" />
<path d="M11.9286 56.7692
L12.3857 56.7692
" />
<path d="M10.6714 57.3407
L10.6714 56.7121
" />
<path d="M10.6714 56.7121
L10.7286 56.5978
" />
<path d="M10.7286 56.5978
L10.8429 56.5407
" />
<path d="M10.8429 56.5407
L11.0714 56.5407
" />
<path d="M11.0714 56.5407
L11.1857 56.5978
" />
<path d="M10.6714 57.2835
L10.7857 57.3407
" />
<path d="M10.7857 57.3407
L11.0714 57.3407
" />
<path d="M11.0714 57.3407
L11.1857 57.2835
" />
<path d="M11.1857 57.2835
L11.2429 57.1692
" />
<path d="M11.2429 57.1692
L11.2429 57.0549
" />
<path d="M11.2429 57.0549
L11.1857 56.9407
" />
<path d="M11.1857 56.9407
L11.0714 56.8835
" />
<path d="M11.0714 56.8835
L10.7857 56.8835
" />
<path d="M10.7857 56.8835
L10.6714 56.8264
" />
<path d="M9.2429 56.9978
L8.6714 56.9978
" />
<path d="M9.3571 57.3407
L8.9571 56.1407
" />
<path d="M8.9571 56.1407
L8.5571 57.3407
" />
<path d="M8.1571 57.3407
L8.1571 56.1407
" />
<path d="M8.1571 56.1407
L7.4714 57.3407
" />
<path d="M7.4714 57.3407
L7.4714 56.1407
" />
<path d="M7.0714 56.1407
L6.3857 56.1407
" />
<path d="M6.7286 57.3407
L6.7286 56.1407
" />
</g></g>
<g style="fill:none; 
stroke:#E8B2A7; stroke-width:0.1250; stroke-opacity:1; 
stroke-linecap:round; stroke-linejoin:round;">
<text x="19.7500" y="54.7500"
transform="scale(-1 1) translate(-39.500000 0)"
textLength="3.6512" font-size="1.3333" lengthAdjust="spacingAndGlyphs"
text-anchor="end" opacity="0" stroke-opacity="0">DIO0</text>
<g class="stroked-text"><desc>DIO0</desc>
<path d="M23.0703 54.6211
L23.0703 53.6211
" />
<path d="M23.0703 53.6211
L22.8322 53.6211
" />
<path d="M22.8322 53.6211
L22.6894 53.6687
" />
<path d="M22.6894 53.6687
L22.5941 53.7640
" />
<path d="M22.5941 53.7640
L22.5465 53.8592
" />
<path d="M22.5465 53.8592
L22.4989 54.0497
" />
<path d="M22.4989 54.0497
L22.4989 54.1925
" />
<path d="M22.4989 54.1925
L22.5465 54.3830
" />
<path d="M22.5465 54.3830
L22.5941 54.4783
" />
<path d="M22.5941 54.4783
L22.6894 54.5735
" />
<path d="M22.6894 54.5735
L22.8322 54.6211
" />
<path d="M22.8322 54.6211
L23.0703 54.6211
" />
<path d="M22.0703 54.6211
L22.0703 53.6211
" />
<path d="M21.4037 53.6211
L21.2132 53.6211
" />
<path d="M21.2132 53.6211
L21.1180 53.6687
" />
<path d="M21.1180 53.6687
L21.0227 53.7640
" />
<path d="M21.0227 53.7640
L20.9751 53.9545
" />
<path d="M20.9751 53.9545
L20.9751 54.2878
" />
<path d="M20.9751 54.2878
L21.0227 54.4783
" />
<path d="M21.0227 54.4783
L21.1180 54.5735
" />
<path d="M21.1180 54.5735
L21.2132 54.6211
" />
<path d="M21.2132 54.6211
L21.4037 54.6211
" />
<path d="M21.4037 54.6211
L21.4989 54.5735
" />
<path d="M21.4989 54.5735
L21.5941 54.4783
" />
<path d="M21.5941 54.4783
L21.6418 54.2878
" />
<path d="M21.6418 54.2878
L21.6418 53.9545
" />
<path d="M21.6418 53.9545
L21.5941 53.7640
" />
<path d="M21.5941 53.7640
L21.4989 53.6687
" />
<path d="M21.4989 53.6687
L21.4037 53.6211
" />
<path d="M20.3560 53.6211
L20.2608 53.6211
" />
<path d="M20.2608 53.6211
L20.1656 53.6687
" />
<path d="M20.1656 53.6687
L20.1180 53.7164
" />
<path d="M20.1180 53.7164
L20.0703 53.8116
" />
<path d="M20.0703 53.8116
L20.0227 54.0021
" />
<path d="M20.0227 54.0021
L20.0227 54.2402
" />
<path d="M20.0227 54.2402
L20.0703 54.4306
" />
<path d="M20.0703 54.4306
L20.1180 54.5259
" />
<path d="M20.1180 54.5259
L20.1656 54.5735
" />
<path d="M20.1656 54.5735
L20.2608 54.6211
" />
<path d="M20.2608 54.6211
L20.3560 54.6211
" />
<path d="M20.3560 54.6211
L20.4513 54.5735
" />
<path d="M20.4513 54.5735
L20.4989 54.5259
" />
<path d="M20.4989 54.5259
L20.5465 54.4306
" />
<path d="M20.5465 54.4306
L20.5941 54.2402
" />
<path d="M20.5941 54.2402
L20.5941 54.0021
" />
<path d="M20.5941 54.0021
L20.5465 53.8116
" />
<path d="M20.5465 53.8116
L20.4989 53.7164
" />
<path d="M20.4989 53.7164
L20.4513 53.6687
" />
<path d="M20.4513 53.6687
L20.3560 53.6211
" />
</g><text x="32.7500" y="54.7500"
transform="scale(-1 1) translate(-65.500000 0)"
textLength="3.1274" font-size="1.3333" lengthAdjust="spacingAndGlyphs"
text-anchor="start" opacity="0" stroke-opacity="0">SCK</text>
<g class="stroked-text"><desc>SCK</desc>
<path d="M32.4773 54.5735
L32.3344 54.6211
" />
<path d="M32.3344 54.6211
L32.0963 54.6211
" />
<path d="M32.0963 54.6211
L32.0011 54.5735
" />
<path d="M32.0011 54.5735
L31.9535 54.5259
" />
<path d="M31.9535 54.5259
L31.9059 54.4306
" />
<path d="M31.9059 54.4306
L31.9059 54.3354
" />
<path d="M31.9059 54.3354
L31.9535 54.2402
" />
<path d="M31.9535 54.2402
L32.0011 54.1925
" />
<path d="M32.0011 54.1925
L32.0963 54.1449
" />
<path d="M32.0963 54.1449
L32.2868 54.0973
" />
<path d="M32.2868 54.0973
L32.3820 54.0497
" />
<path d="M32.3820 54.0497
L32.4297 54.0021
" />
<path d="M32.4297 54.0021
L32.4773 53.9068
" />
<path d="M32.4773 53.9068
L32.4773 53.8116
" />
<path d="M32.4773 53.8116
L32.4297 53.7164
" />
<path d="M32.4297 53.7164
L32.3820 53.6687
" />
<path d="M32.3820 53.6687
L32.2868 53.6211
" />
<path d="M32.2868 53.6211
L32.0487 53.6211
" />
<path d="M32.0487 53.6211
L31.9059 53.6687
" />
<path d="M30.9059 54.5259
L30.9535 54.5735
" />
<path d="M30.9535 54.5735
L31.0963 54.6211
" />
<path d="M31.0963 54.6211
L31.1916 54.6211
" />
<path d="M31.1916 54.6211
L31.3344 54.5735
" />
<path d="M31.3344 54.5735
L31.4297 54.4783
" />
<path d="M31.4297 54.4783
L31.4773 54.3830
" />
<path d="M31.4773 54.3830
L31.5249 54.1925
" />
<path d="M31.5249 54.1925
L31.5249 54.0497
" />
<path d="M31.5249 54.0497
L31.4773 53.8592
" />
<path d="M31.4773 53.8592
L31.4297 53.7640
" />
<path d="M31.4297 53.7640
L31.3344 53.6687
" />
<path d="M31.3344 53.6687
L31.1916 53.6211
" />
<path d="M31.1916 53.6211
L31.0963 53.6211
" />
<path d="M31.0963 53.6211
L30.9535 53.6687
" />
<path d="M30.9535 53.6687
L30.9059 53.7164
" />
<path d="M30.4773 54.6211
L30.4773 53.6211
" />
<path d="M29.9059 54.6211
L30.3344 54.0497
" />
<path d="M29.9059 53.6211
L30.4773 54.1925
" />
</g><text x="32.7500" y="48.7500"
transform="scale(-1 1) translate(-65.500000 0)"
textLength="3.2226" font-size="1.3333" lengthAdjust="spacingAndGlyphs"
text-anchor="start" opacity="0" stroke-opacity="0">GND</text>
<g class="stroked-text"><desc>GND</desc>
<path d="M31.9059 47.6687
L32.0011 47.6211
" />
<path d="M32.0011 47.6211
L32.1440 47.6211
" />
<path d="M32.1440 47.6211
L32.2868 47.6687
" />
<path d="M32.2868 47.6687
L32.3820 47.7640
" />
<path d="M32.3820 47.7640
L32.4297 47.8592
" />
<path d="M32.4297 47.8592
L32.4773 48.0497
" />
<path d="M32.4773 48.0497
L32.4773 48.1925
" />
<path d="M32.4773 48.1925
L32.4297 48.3830
" />
<path d="M32.4297 48.3830
L32.3820 48.4783
" />
<path d="M32.3820 48.4783
L32.2868 48.5735
" />
<path d="M32.2868 48.5735
L32.1440 48.6211
" />
<path d="M32.1440 48.6211
L32.0487 48.6211
" />
<path d="M32.0487 48.6211
L31.9059 48.5735
" />
<path d="M31.9059 48.5735
L31.8582 48.5259
" />
<path d="M31.8582 48.5259
L31.8582 48.1925
" />
<path d="M31.8582 48.1925
L32.0487 48.1925
" />
<path d="M31.4297 48.6211
L31.4297 47.6211
" />
<path d="M31.4297 47.6211
L30.8582 48.6211
" />
<path d="M30.8582 48.6211
L30.8582 47.6211
" />
<path d="M30.3820 48.6211
L30.3820 47.6211
" />
<path d="M30.3820 47.6211
L30.1440 47.6211
" />
<path d="M30.1440 47.6211
L30.0011 47.6687
" />
<path d="M30.0011 47.6687
L29.9059 47.7640
" />
<path d="M29.9059 47.7640
L29.8582 47.8592
" />
<path d="M29.8582 47.8592
L29.8106 48.0497
" />
<path d="M29.8106 48.0497
L29.8106 48.1925
" />
<path d="M29.8106 48.1925
L29.8582 48.3830
" />
<path d="M29.8582 48.3830
L29.9059 48.4783
" />
<path d="M29.9059 48.4783
L30.0011 48.5735
" />
<path d="M30.0011 48.5735
L30.1440 48.6211
" />
<path d="M30.1440 48.6211
L30.3820 48.6211
" />
</g><text x="32.7500" y="60.7500"
transform="scale(-1 1) translate(-65.500000 0)"
textLength="2.1274" font-size="1.3333" lengthAdjust="spacingAndGlyphs"
text-anchor="start" opacity="0" stroke-opacity="0">CS</text>
<g class="stroked-text"><desc>CS</desc>
<path d="M31.8582 60.5259
L31.9059 60.5735
" />
<path d="M31.9059 60.5735
L32.0487 60.6211
" />
<path d="M32.0487 60.6211
L32.1440 60.6211
" />
<path d="M32.1440 60.6211
L32.2868 60.5735
" />
<path d="M32.2868 60.5735
L32.3820 60.4783
" />
<path d="M32.3820 60.4783
L32.4297 60.3830
" />
<path d="M32.4297 60.3830
L32.4773 60.1925
" />
<path d="M32.4773 60.1925
L32.4773 60.0497
" />
<path d="M32.4773 60.0497
L32.4297 59.8592
" />
<path d="M32.4297 59.8592
L32.3820 59.7640
" />
<path d="M32.3820 59.7640
L32.2868 59.6687
" />
<path d="M32.2868 59.6687
L32.1440 59.6211
" />
<path d="M32.1440 59.6211
L32.0487 59.6211
" />
<path d="M32.0487 59.6211
L31.9059 59.6687
" />
<path d="M31.9059 59.6687
L31.8582 59.7164
" />
<path d="M31.4773 60.5735
L31.3344 60.6211
" />
<path d="M31.3344 60.6211
L31.0963 60.6211
" />
<path d="M31.0963 60.6211
L31.0011 60.5735
" />
<path d="M31.0011 60.5735
L30.9535 60.5259
" />
<path d="M30.9535 60.5259
L30.9059 60.4306
" />
<path d="M30.9059 60.4306
L30.9059 60.3354
" />
<path d="M30.9059 60.3354
L30.9535 60.2402
" />
<path d="M30.9535 60.2402
L31.0011 60.1925
" />
<path d="M31.0011 60.1925
L31.0963 60.1449
" />
<path d="M31.0963 60.1449
L31.2868 60.0973
" />
<path d="M31.2868 60.0973
L31.3820 60.0497
" />
<path d="M31.3820 60.0497
L31.4297 60.0021
" />
<path d="M31.4297 60.0021
L31.4773 59.9068
" />
<path d="M31.4773 59.9068
L31.4773 59.8116
" />
<path d="M31.4773 59.8116
L31.4297 59.7164
" />
<path d="M31.4297 59.7164
L31.3820 59.6687
" />
<path d="M31.3820 59.6687
L31.2868 59.6211
" />
<path d="M31.2868 59.6211
L31.0487 59.6211
" />
<path d="M31.0487 59.6211
L30.9059 59.6687
" />
</g><text x="32.7500" y="58.7500"
transform="scale(-1 1) translate(-65.500000 0)"
textLength="3.7940" font-size="1.3333" lengthAdjust="spacingAndGlyphs"
text-anchor="start" opacity="0" stroke-opacity="0">MOSI</text>
<g class="stroked-text"><desc>MOSI</desc>
<path d="M32.4297 58.6211
L32.4297 57.6211
" />
<path d="M32.4297 57.6211
L32.0963 58.3354
" />
<path d="M32.0963 58.3354
L31.7630 57.6211
" />
<path d="M31.7630 57.6211
L31.7630 58.6211
" />
<path d="M31.0963 57.6211
L30.9059 57.6211
" />
<path d="M30.9059 57.6211
L30.8106 57.6687
" />
<path d="M30.8106 57.6687
L30.7154 57.7640
" />
<path d="M30.7154 57.7640
L30.6678 57.9545
" />
<path d="M30.6678 57.9545
L30.6678 58.2878
" />
<path d="M30.6678 58.2878
L30.7154 58.4783
" />
<path d="M30.7154 58.4783
L30.8106 58.5735
" />
<path d="M30.8106 58.5735
L30.9059 58.6211
" />
<path d="M30.9059 58.6211
L31.0963 58.6211
" />
<path d="M31.0963 58.6211
L31.1916 58.5735
" />
<path d="M31.1916 58.5735
L31.2868 58.4783
" />
<path d="M31.2868 58.4783
L31.3344 58.2878
" />
<path d="M31.3344 58.2878
L31.3344 57.9545
" />
<path d="M31.3344 57.9545
L31.2868 57.7640
" />
<path d="M31.2868 57.7640
L31.1916 57.6687
" />
<path d="M31.1916 57.6687
L31.0963 57.6211
" />
<path d="M30.2868 58.5735
L30.1440 58.6211
" />
<path d="M30.1440 58.6211
L29.9059 58.6211
" />
<path d="M29.9059 58.6211
L29.8106 58.5735
" />
<path d="M29.8106 58.5735
L29.7630 58.5259
" />
<path d="M29.7630 58.5259
L29.7154 58.4306
" />
<path d="M29.7154 58.4306
L29.7154 58.3354
" />
<path d="M29.7154 58.3354
L29.7630 58.2402
" />
<path d="M29.7630 58.2402
L29.8106 58.1925
" />
<path d="M29.8106 58.1925
L29.9059 58.1449
" />
<path d="M29.9059 58.1449
L30.0963 58.0973
" />
<path d="M30.0963 58.0973
L30.1916 58.0497
" />
<path d="M30.1916 58.0497
L30.2392 58.0021
" />
<path d="M30.2392 58.0021
L30.2868 57.9068
" />
<path d="M30.2868 57.9068
L30.2868 57.8116
" />
<path d="M30.2868 57.8116
L30.2392 57.7164
" />
<path d="M30.2392 57.7164
L30.1916 57.6687
" />
<path d="M30.1916 57.6687
L30.0963 57.6211
" />
<path d="M30.0963 57.6211
L29.8582 57.6211
" />
<path d="M29.8582 57.6211
L29.7154 57.6687
" />
<path d="M29.2868 58.6211
L29.2868 57.6211
" />
</g><text x="50.2500" y="51.2500"
transform="scale(-1 1) translate(-100.500000 0)"
textLength="2.1274" font-size="1.3333" lengthAdjust="spacingAndGlyphs"
text-anchor="end" opacity="0" stroke-opacity="0">RX</text>
<g class="stroked-text"><desc>RX</desc>
<path d="M51.4751 51.1211
L51.8084 50.6449
" />
<path d="M52.0465 51.1211
L52.0465 50.1211
" />
<path d="M52.0465 50.1211
L51.6656 50.1211
" />
<path d="M51.6656 50.1211
L51.5703 50.1687
" />
<path d="M51.5703 50.1687
L51.5227 50.2164
" />
<path d="M51.5227 50.2164
L51.4751 50.3116
" />
<path d="M51.4751 50.3116
L51.4751 50.4545
" />
<path d="M51.4751 50.4545
L51.5227 50.5497
" />
<path d="M51.5227 50.5497
L51.5703 50.5973
" />
<path d="M51.5703 50.5973
L51.6656 50.6449
" />
<path d="M51.6656 50.6449
L52.0465 50.6449
" />
<path d="M51.1418 50.1211
L50.4751 51.1211
" />
<path d="M50.4751 50.1211
L51.1418 51.1211
" />
</g><text x="32.7500" y="62.7500"
transform="scale(-1 1) translate(-65.500000 0)"
textLength="3.2226" font-size="1.3333" lengthAdjust="spacingAndGlyphs"
text-anchor="start" opacity="0" stroke-opacity="0">GND</text>
<g class="stroked-text"><desc>GND</desc>
<path d="M31.9059 61.6687
L32.0011 61.6211
" />
<path d="M32.0011 61.6211
L32.1440 61.6211
" />
<path d="M32.1440 61.6211
L32.2868 61.6687
" />
<path d="M32.2868 61.6687
L32.3820 61.7640
" />
<path d="M32.3820 61.7640
L32.4297 61.8592
" />
<path d="M32.4297 61.8592
L32.4773 62.0497
" />
<path d="M32.4773 62.0497
L32.4773 62.1925
" />
<path d="M32.4773 62.1925
L32.4297 62.3830
" />
<path d="M32.4297 62.3830
L32.3820 62.4783
" />
<path d="M32.3820 62.4783
L32.2868 62.5735
" />
<path d="M32.2868 62.5735
L32.1440 62.6211
" />
<path d="M32.1440 62.6211
L32.0487 62.6211
" />
<path d="M32.0487 62.6211
L31.9059 62.5735
" />
<path d="M31.9059 62.5735
L31.8582 62.5259
" />
<path d="M31.8582 62.5259
L31.8582 62.1925
" />
<path d="M31.8582 62.1925
L32.0487 62.1925
" />
<path d="M31.4297 62.6211
L31.4297 61.6211
" />
<path d="M31.4297 61.6211
L30.8582 62.6211
" />
<path d="M30.8582 62.6211
L30.8582 61.6211
" />
<path d="M30.3820 62.6211
L30.3820 61.6211
" />
<path d="M30.3820 61.6211
L30.1440 61.6211
" />
<path d="M30.1440 61.6211
L30.0011 61.6687
" />
<path d="M30.0011 61.6687
L29.9059 61.7640
" />
<path d="M29.9059 61.7640
L29.8582 61.8592
" />
<path d="M29.8582 61.8592
L29.8106 62.0497
" />
<path d="M29.8106 62.0497
L29.8106 62.1925
" />
<path d="M29.8106 62.1925
L29.8582 62.3830
" />
<path d="M29.8582 62.3830
L29.9059 62.4783
" />
<path d="M29.9059 62.4783
L30.0011 62.5735
" />
<path d="M30.0011 62.5735
L30.1440 62.6211
" />
<path d="M30.1440 62.6211
L30.3820 62.6211
" />
</g><text x="19.7500" y="58.7500"
transform="scale(-1 1) translate(-39.500000 0)"
textLength="2.9369" font-size="1.3333" lengthAdjust="spacingAndGlyphs"
text-anchor="end" opacity="0" stroke-opacity="0">3V3</text>
<g class="stroked-text"><desc>3V3</desc>
<path d="M22.4513 57.6211
L21.8322 57.6211
" />
<path d="M21.8322 57.6211
L22.1656 58.0021
" />
<path d="M22.1656 58.0021
L22.0227 58.0021
" />
<path d="M22.0227 58.0021
L21.9275 58.0497
" />
<path d="M21.9275 58.0497
L21.8799 58.0973
" />
<path d="M21.8799 58.0973
L21.8322 58.1925
" />
<path d="M21.8322 58.1925
L21.8322 58.4306
" />
<path d="M21.8322 58.4306
L21.8799 58.5259
" />
<path d="M21.8799 58.5259
L21.9275 58.5735
" />
<path d="M21.9275 58.5735
L22.0227 58.6211
" />
<path d="M22.0227 58.6211
L22.3084 58.6211
" />
<path d="M22.3084 58.6211
L22.4037 58.5735
" />
<path d="M22.4037 58.5735
L22.4513 58.5259
" />
<path d="M21.5465 57.6211
L21.2132 58.6211
" />
<path d="M21.2132 58.6211
L20.8799 57.6211
" />
<path d="M20.6418 57.6211
L20.0227 57.6211
" />
<path d="M20.0227 57.6211
L20.3560 58.0021
" />
<path d="M20.3560 58.0021
L20.2132 58.0021
" />
<path d="M20.2132 58.0021
L20.1180 58.0497
" />
<path d="M20.1180 58.0497
L20.0703 58.0973
" />
<path d="M20.0703 58.0973
L20.0227 58.1925
" />
<path d="M20.0227 58.1925
L20.0227 58.4306
" />
<path d="M20.0227 58.4306
L20.0703 58.5259
" />
<path d="M20.0703 58.5259
L20.1180 58.5735
" />
<path d="M20.1180 58.5735
L20.2132 58.6211
" />
<path d="M20.2132 58.6211
L20.4989 58.6211
" />
<path d="M20.4989 58.6211
L20.5941 58.5735
" />
<path d="M20.5941 58.5735
L20.6418 58.5259
" />
</g></g>
<g style="fill:none; 
stroke:#E8B2A7; stroke-width:0.2400; stroke-opacity:1; 
stroke-linecap:round; stroke-linejoin:round;">
<text x="52.2500" y="30.2500"
transform="scale(-1 1) translate(-104.500000 0)"
textLength="21.5086" font-size="1.6000" lengthAdjust="spacingAndGlyphs"
text-anchor="middle" opacity="0" stroke-opacity="0">18650 LI-ION BATTERY</text>
<g class="stroked-text"><desc>18650 LI-ION BATTERY</desc>
<path d="M61.8500 30.0907
L62.5357 30.0907
" />
<path d="M62.1929 30.0907
L62.1929 28.8907
" />
<path d="M62.1929 28.8907
L62.3071 29.0621
" />
<path d="M62.3071 29.0621
L62.4214 29.1764
" />
<path d="M62.4214 29.1764
L62.5357 29.2335
" />
<path d="M61.1643 29.4049
L61.2786 29.3478
" />
<path d="M61.2786 29.3478
L61.3357 29.2907
" />
<path d="M61.3357 29.2907
L61.3929 29.1764
" />
<path d="M61.3929 29.1764
L61.3929 29.1192
" />
<path d="M61.3929 29.1192
L61.3357 29.0049
" />
<path d="M61.3357 29.0049
L61.2786 28.9478
" />
<path d="M61.2786 28.9478
L61.1643 28.8907
" />
<path d="M61.1643 28.8907
L60.9357 28.8907
" />
<path d="M60.9357 28.8907
L60.8214 28.9478
" />
<path d="M60.8214 28.9478
L60.7643 29.0049
" />
<path d="M60.7643 29.0049
L60.7071 29.1192
" />
<path d="M60.7071 29.1192
L60.7071 29.1764
" />
<path d="M60.7071 29.1764
L60.7643 29.2907
" />
<path d="M60.7643 29.2907
L60.8214 29.3478
" />
<path d="M60.8214 29.3478
L60.9357 29.4049
" />
<path d="M60.9357 29.4049
L61.1643 29.4049
" />
<path d="M61.1643 29.4049
L61.2786 29.4621
" />
<path d="M61.2786 29.4621
L61.3357 29.5192
" />
<path d="M61.3357 29.5192
L61.3929 29.6335
" />
<path d="M61.3929 29.6335
L61.3929 29.8621
" />
<path d="M61.3929 29.8621
L61.3357 29.9764
" />
<path d="M61.3357 29.9764
L61.2786 30.0335
" />
<path d="M61.2786 30.0335
L61.1643 30.0907
" />
<path d="M61.1643 30.0907
L60.9357 30.0907
" />
<path d="M60.9357 30.0907
L60.8214 30.0335
" />
<path d="M60.8214 30.0335
L60.7643 29.9764
" />
<path d="M60.7643 29.9764
L60.7071 29.8621
" />
<path d="M60.7071 29.8621
L60.7071 29.6335
" />
<path d="M60.7071 29.6335
L60.7643 29.5192
" />
<path d="M60.7643 29.5192
L60.8214 29.4621
" />
<path d="M60.8214 29.4621
L60.9357 29.4049
" />
<path d="M59.6786 28.8907
L59.9071 28.8907
" />
<path d="M59.9071 28.8907
L60.0214 28.9478
" />
<path d="M60.0214 28.9478
L60.0786 29.0049
" />
<path d="M60.0786 29.0049
L60.1929 29.1764
" />
<path d="M60.1929 29.1764
L60.2500 29.4049
" />
<path d="M60.2500 29.4049
L60.2500 29.8621
" />
<path d="M60.2500 29.8621
L60.1929 29.9764
" />
<path d="M60.1929 29.9764
L60.1357 30.0335
" />
<path d="M60.1357 30.0335
L60.0214 30.0907
" />
<path d="M60.0214 30.0907
L59.7929 30.0907
" />
<path d="M59.7929 30.0907
L59.6786 30.0335
" />
<path d="M59.6786 30.0335
L59.6214 29.9764
" />
<path d="M59.6214 29.9764
L59.5643 29.8621
" />
<path d="M59.5643 29.8621
L59.5643 29.5764
" />
<path d="M59.5643 29.5764
L59.6214 29.4621
" />
<path d="M59.6214 29.4621
L59.6786 29.4049
" />
<path d="M59.6786 29.4049
L59.7929 29.3478
" />
<path d="M59.7929 29.3478
L60.0214 29.3478
" />
<path d="M60.0214 29.3478
L60.1357 29.4049
" />
<path d="M60.1357 29.4049
L60.1929 29.4621
" />
<path d="M60.1929 29.4621
L60.2500 29.5764
" />
<path d="M58.4786 28.8907
L59.0500 28.8907
" />
<path d="M59.0500 28.8907
L59.1071 29.4621
" />
<path d="M59.1071 29.4621
L59.0500 29.4049
" />
<path d="M59.0500 29.4049
L58.9357 29.3478
" />
<path d="M58.9357 29.3478
L58.6500 29.3478
" />
<path d="M58.6500 29.3478
L58.5357 29.4049
" />
<path d="M58.5357 29.4049
L58.4786 29.4621
" />
<path d="M58.4786 29.4621
L58.4214 29.5764
" />
<path d="M58.4214 29.5764
L58.4214 29.8621
" />
<path d="M58.4214 29.8621
L58.4786 29.9764
" />
<path d="M58.4786 29.9764
L58.5357 30.0335
" />
<path d="M58.5357 30.0335
L58.6500 30.0907
" />
<path d="M58.6500 30.0907
L58.9357 30.0907
" />
<path d="M58.9357 30.0907
L59.0500 30.0335
" />
<path d="M59.0500 30.0335
L59.1071 29.9764
" />
<path d="M57.6786 28.8907
L57.5643 28.8907
" />
<path d="M57.5643 28.8907
L57.4500 28.9478
" />
<path d="M57.4500 28.9478
L57.3929 29.0049
" />
<path d="M57.3929 29.0049
L57.3357 29.1192
" />
<path d="M57.3357 29.1192
L57.2786 29.3478
" />
<path d="M57.2786 29.3478
L57.2786 29.6335
" />
<path d="M57.2786 29.6335
L57.3357 29.8621
" />
<path d="M57.3357 29.8621
L57.3929 29.9764
" />
<path d="M57.3929 29.9764
L57.4500 30.0335
" />
<path d="M57.4500 30.0335
L57.5643 30.0907
" />
<path d="M57.5643 30.0907
L57.6786 30.0907
" />
<path d="M57.6786 30.0907
L57.7929 30.0335
" />
<path d="M57.7929 30.0335
L57.8500 29.9764
" />
<path d="M57.8500 29.9764
L57.9071 29.8621
" />
<path d="M57.9071 29.8621
L57.9643 29.6335
" />
<path d="M57.9643 29.6335
L57.9643 29.3478
" />
<path d="M57.9643 29.3478
L57.9071 29.1192
" />
<path d="M57.9071 29.1192
L57.8500 29.0049
" />
<path d="M57.8500 29.0049
L57.7929 28.9478
" />
<path d="M57.7929 28.9478
L57.6786 28.8907
" />
<path d="M55.2786 30.0907
L55.8500 30.0907
" />
<path d="M55.8500 30.0907
L55.8500 28.8907
" />
<path d="M54.8786 30.0907
L54.8786 28.8907
" />
<path d="M54.3071 29.6335
L53.3929 29.6335
" />
<path d="M52.8214 30.0907
L52.8214 28.8907
" />
<path d="M52.0214 28.8907
L51.7929 28.8907
" />
<path d="M51.7929 28.8907
L51.6786 28.9478
" />
<path d="M51.6786 28.9478
L51.5643 29.0621
" />
<path d="M51.5643 29.0621
L51.5071 29.2907
" />
<path d="M51.5071 29.2907
L51.5071 29.6907
" />
<path d="M51.5071 29.6907
L51.5643 29.9192
" />
<path d="M51.5643 29.9192
L51.6786 30.0335
" />
<path d="M51.6786 30.0335
L51.7929 30.0907
" />
<path d="M51.7929 30.0907
L52.0214 30.0907
" />
<path d="M52.0214 30.0907
L52.1357 30.0335
" />
<path d="M52.1357 30.0335
L52.2500 29.9192
" />
<path d="M52.2500 29.9192
L52.3071 29.6907
" />
<path d="M52.3071 29.6907
L52.3071 29.2907
" />
<path d="M52.3071 29.2907
L52.2500 29.0621
" />
<path d="M52.2500 29.0621
L52.1357 28.9478
" />
<path d="M52.1357 28.9478
L52.0214 28.8907
" />
<path d="M50.9929 30.0907
L50.9929 28.8907
" />
<path d="M50.9929 28.8907
L50.3071 30.0907
" />
<path d="M50.3071 30.0907
L50.3071 28.8907
" />
<path d="M48.4214 29.4621
L48.2500 29.5192
" />
<path d="M48.2500 29.5192
L48.1929 29.5764
" />
<path d="M48.1929 29.5764
L48.1357 29.6907
" />
<path d="M48.1357 29.6907
L48.1357 29.8621
" />
<path d="M48.1357 29.8621
L48.1929 29.9764
" />
<path d="M48.1929 29.9764
L48.2500 30.0335
" />
<path d="M48.2500 30.0335
L48.3643 30.0907
" />
<path d="M48.3643 30.0907
L48.8214 30.0907
" />
<path d="M48.8214 30.0907
L48.8214 28.8907
" />
<path d="M48.8214 28.8907
L48.4214 28.8907
" />
<path d="M48.4214 28.8907
L48.3071 28.9478
" />
<path d="M48.3071 28.9478
L48.2500 29.0049
" />
<path d="M48.2500 29.0049
L48.1929 29.1192
" />
<path d="M48.1929 29.1192
L48.1929 29.2335
" />
<path d="M48.1929 29.2335
L48.2500 29.3478
" />
<path d="M48.2500 29.3478
L48.3071 29.4049
" />
<path d="M48.3071 29.4049
L48.4214 29.4621
" />
<path d="M48.4214 29.4621
L48.8214 29.4621
" />
<path d="M47.6786 29.7478
L47.1071 29.7478
" />
<path d="M47.7929 30.0907
L47.3929 28.8907
" />
<path d="M47.3929 28.8907
L46.9929 30.0907
" />
<path d="M46.7643 28.8907
L46.0786 28.8907
" />
<path d="M46.4214 30.0907
L46.4214 28.8907
" />
<path d="M45.8500 28.8907
L45.1643 28.8907
" />
<path d="M45.5071 30.0907
L45.5071 28.8907
" />
<path d="M44.7643 29.4621
L44.3643 29.4621
" />
<path d="M44.1929 30.0907
L44.7643 30.0907
" />
<path d="M44.7643 30.0907
L44.7643 28.8907
" />
<path d="M44.7643 28.8907
L44.1929 28.8907
" />
<path d="M42.9929 30.0907
L43.3929 29.5192
" />
<path d="M43.6786 30.0907
L43.6786 28.8907
" />
<path d="M43.6786 28.8907
L43.2214 28.8907
" />
<path d="M43.2214 28.8907
L43.1071 28.9478
" />
<path d="M43.1071 28.9478
L43.0500 29.0049
" />
<path d="M43.0500 29.0049
L42.9929 29.1192
" />
<path d="M42.9929 29.1192
L42.9929 29.2907
" />
<path d="M42.9929 29.2907
L43.0500 29.4049
" />
<path d="M43.0500 29.4049
L43.1071 29.4621
" />
<path d="M43.1071 29.4621
L43.2214 29.5192
" />
<path d="M43.2214 29.5192
L43.6786 29.5192
" />
<path d="M42.2500 29.5192
L42.2500 30.0907
" />
<path d="M42.6500 28.8907
L42.2500 29.5192
" />
<path d="M42.2500 29.5192
L41.8500 28.8907
" />
</g><text x="59.2500" y="56.5000"
transform="scale(-1 1) translate(-118.500000 0)"
textLength="13.3371" font-size="1.6000" lengthAdjust="spacingAndGlyphs"
text-anchor="middle" opacity="0" stroke-opacity="0">L86-M33 GPS</text>
<g class="stroked-text"><desc>L86-M33 GPS</desc>
<path d="M64.8214 56.3407
L65.3929 56.3407
" />
<path d="M65.3929 56.3407
L65.3929 55.1407
" />
<path d="M64.2500 55.6549
L64.3643 55.5978
" />
<path d="M64.3643 55.5978
L64.4214 55.5407
" />
<path d="M64.4214 55.5407
L64.4786 55.4264
" />
<path d="M64.4786 55.4264
L64.4786 55.3692
" />
<path d="M64.4786 55.3692
L64.4214 55.2549
" />
<path d="M64.4214 55.2549
L64.3643 55.1978
" />
<path d="M64.3643 55.1978
L64.2500 55.1407
" />
<path d="M64.2500 55.1407
L64.0214 55.1407
" />
<path d="M64.0214 55.1407
L63.9071 55.1978
" />
<path d="M63.9071 55.1978
L63.8500 55.2549
" />
<path d="M63.8500 55.2549
L63.7929 55.3692
" />
<path d="M63.7929 55.3692
L63.7929 55.4264
" />
<path d="M63.7929 55.4264
L63.8500 55.5407
" />
<path d="M63.8500 55.5407
L63.9071 55.5978
" />
<path d="M63.9071 55.5978
L64.0214 55.6549
" />
<path d="M64.0214 55.6549
L64.2500 55.6549
" />
<path d="M64.2500 55.6549
L64.3643 55.7121
" />
<path d="M64.3643 55.7121
L64.4214 55.7692
" />
<path d="M64.4214 55.7692
L64.4786 55.8835
" />
<path d="M64.4786 55.8835
L64.4786 56.1121
" />
<path d="M64.4786 56.1121
L64.4214 56.2264
" />
<path d="M64.4214 56.2264
L64.3643 56.2835
" />
<path d="M64.3643 56.2835
L64.2500 56.3407
" />
<path d="M64.2500 56.3407
L64.0214 56.3407
" />
<path d="M64.0214 56.3407
L63.9071 56.2835
" />
<path d="M63.9071 56.2835
L63.8500 56.2264
" />
<path d="M63.8500 56.2264
L63.7929 56.1121
" />
<path d="M63.7929 56.1121
L63.7929 55.8835
" />
<path d="M63.7929 55.8835
L63.8500 55.7692
" />
<path d="M63.8500 55.7692
L63.9071 55.7121
" />
<path d="M63.9071 55.7121
L64.0214 55.6549
" />
<path d="M62.7643 55.1407
L62.9929 55.1407
" />
<path d="M62.9929 55.1407
L63.1071 55.1978
" />
<path d="M63.1071 55.1978
L63.1643 55.2549
" />
<path d="M63.1643 55.2549
L63.2786 55.4264
" />
<path d="M63.2786 55.4264
L63.3357 55.6549
" />
<path d="M63.3357 55.6549
L63.3357 56.1121
" />
<path d="M63.3357 56.1121
L63.2786 56.2264
" />
<path d="M63.2786 56.2264
L63.2214 56.2835
" />
<path d="M63.2214 56.2835
L63.1071 56.3407
" />
<path d="M63.1071 56.3407
L62.8786 56.3407
" />
<path d="M62.8786 56.3407
L62.7643 56.2835
" />
<path d="M62.7643 56.2835
L62.7071 56.2264
" />
<path d="M62.7071 56.2264
L62.6500 56.1121
" />
<path d="M62.6500 56.1121
L62.6500 55.8264
" />
<path d="M62.6500 55.8264
L62.7071 55.7121
" />
<path d="M62.7071 55.7121
L62.7643 55.6549
" />
<path d="M62.7643 55.6549
L62.8786 55.5978
" />
<path d="M62.8786 55.5978
L63.1071 55.5978
" />
<path d="M63.1071 55.5978
L63.2214 55.6549
" />
<path d="M63.2214 55.6549
L63.2786 55.7121
" />
<path d="M63.2786 55.7121
L63.3357 55.8264
" />
<path d="M62.1357 55.8835
L61.2214 55.8835
" />
<path d="M60.6500 56.3407
L60.6500 55.1407
" />
<path d="M60.6500 55.1407
L60.2500 55.9978
" />
<path d="M60.2500 55.9978
L59.8500 55.1407
" />
<path d="M59.8500 55.1407
L59.8500 56.3407
" />
<path d="M59.3929 55.1407
L58.6500 55.1407
" />
<path d="M58.6500 55.1407
L59.0500 55.5978
" />
<path d="M59.0500 55.5978
L58.8786 55.5978
" />
<path d="M58.8786 55.5978
L58.7643 55.6549
" />
<path d="M58.7643 55.6549
L58.7071 55.7121
" />
<path d="M58.7071 55.7121
L58.6500 55.8264
" />
<path d="M58.6500 55.8264
L58.6500 56.1121
" />
<path d="M58.6500 56.1121
L58.7071 56.2264
" />
<path d="M58.7071 56.2264
L58.7643 56.2835
" />
<path d="M58.7643 56.2835
L58.8786 56.3407
" />
<path d="M58.8786 56.3407
L59.2214 56.3407
" />
<path d="M59.2214 56.3407
L59.3357 56.2835
" />
<path d="M59.3357 56.2835
L59.3929 56.2264
" />
<path d="M58.2500 55.1407
L57.5071 55.1407
" />
<path d="M57.5071 55.1407
L57.9071 55.5978
" />
<path d="M57.9071 55.5978
L57.7357 55.5978
" />
<path d="M57.7357 55.5978
L57.6214 55.6549
" />
<path d="M57.6214 55.6549
L57.5643 55.7121
" />
<path d="M57.5643 55.7121
L57.5071 55.8264
" />
<path d="M57.5071 55.8264
L57.5071 56.1121
" />
<path d="M57.5071 56.1121
L57.5643 56.2264
" />
<path d="M57.5643 56.2264
L57.6214 56.2835
" />
<path d="M57.6214 56.2835
L57.7357 56.3407
" />
<path d="M57.7357 56.3407
L58.0786 56.3407
" />
<path d="M58.0786 56.3407
L58.1929 56.2835
" />
<path d="M58.1929 56.2835
L58.2500 56.2264
" />
<path d="M55.4500 55.1978
L55.5643 55.1407
" />
<path d="M55.5643 55.1407
L55.7357 55.1407
" />
<path d="M55.7357 55.1407
L55.9071 55.1978
" />
<path d="M55.9071 55.1978
L56.0214 55.3121
" />
<path d="M56.0214 55.3121
L56.0786 55.4264
" />
<path d="M56.0786 55.4264
L56.1357 55.6549
" />
<path d="M56.1357 55.6549
L56.1357 55.8264
" />
<path d="M56.1357 55.8264
L56.0786 56.0549
" />
<path d="M56.0786 56.0549
L56.0214 56.1692
" />
<path d="M56.0214 56.1692
L55.9071 56.2835
" />
<path d="M55.9071 56.2835
L55.7357 56.3407
" />
<path d="M55.7357 56.3407
L55.6214 56.3407
" />
<path d="M55.6214 56.3407
L55.4500 56.2835
" />
<path d="M55.4500 56.2835
L55.3929 56.2264
" />
<path d="M55.3929 56.2264
L55.3929 55.8264
" />
<path d="M55.3929 55.8264
L55.6214 55.8264
" />
<path d="M54.8786 56.3407
L54.8786 55.1407
" />
<path d="M54.8786 55.1407
L54.4214 55.1407
" />
<path d="M54.4214 55.1407
L54.3071 55.1978
" />
<path d="M54.3071 55.1978
L54.2500 55.2549
" />
<path d="M54.2500 55.2549
L54.1929 55.3692
" />
<path d="M54.1929 55.3692
L54.1929 55.5407
" />
<path d="M54.1929 55.5407
L54.2500 55.6549
" />
<path d="M54.2500 55.6549
L54.3071 55.7121
" />
<path d="M54.3071 55.7121
L54.4214 55.7692
" />
<path d="M54.4214 55.7692
L54.8786 55.7692
" />
<path d="M53.7357 56.2835
L53.5643 56.3407
" />
<path d="M53.5643 56.3407
L53.2786 56.3407
" />
<path d="M53.2786 56.3407
L53.1643 56.2835
" />
<path d="M53.1643 56.2835
L53.1071 56.2264
" />
<path d="M53.1071 56.2264
L53.0500 56.1121
" />
<path d="M53.0500 56.1121
L53.0500 55.9978
" />
<path d="M53.0500 55.9978
L53.1071 55.8835
" />
<path d="M53.1071 55.8835
L53.1643 55.8264
" />
<path d="M53.1643 55.8264
L53.2786 55.7692
" />
<path d="M53.2786 55.7692
L53.5071 55.7121
" />
<path d="M53.5071 55.7121
L53.6214 55.6549
" />
<path d="M53.6214 55.6549
L53.6786 55.5978
" />
<path d="M53.6786 55.5978
L53.7357 55.4835
" />
<path d="M53.7357 55.4835
L53.7357 55.3692
" />
<path d="M53.7357 55.3692
L53.6786 55.2549
" />
<path d="M53.6786 55.2549
L53.6214 55.1978
" />
<path d="M53.6214 55.1978
L53.5071 55.1407
" />
<path d="M53.5071 55.1407
L53.2214 55.1407
" />
<path d="M53.2214 55.1407
L53.0500 55.1978
" />
</g></g>
<g style="fill:none; 
stroke:#E8B2A7; stroke-width:0.1000; stroke-opacity:1; 
stroke-linecap:round; stroke-linejoin:round;">
<text x="63.2500" y="68.2500"
transform="scale(-1 1) translate(-126.500000 0)"
textLength="8.5762" font-size="1.3333" lengthAdjust="spacingAndGlyphs"
text-anchor="start" opacity="0" stroke-opacity="0">pernicka.cz</text>
<g class="stroked-text"><desc>pernicka.cz</desc>
<path d="M62.9461 67.6258
L62.9461 68.6258
" />
<path d="M62.9461 67.6734
L62.8509 67.6258
" />
<path d="M62.8509 67.6258
L62.6604 67.6258
" />
<path d="M62.6604 67.6258
L62.5652 67.6734
" />
<path d="M62.5652 67.6734
L62.5175 67.7210
" />
<path d="M62.5175 67.7210
L62.4699 67.8162
" />
<path d="M62.4699 67.8162
L62.4699 68.1019
" />
<path d="M62.4699 68.1019
L62.5175 68.1972
" />
<path d="M62.5175 68.1972
L62.5652 68.2448
" />
<path d="M62.5652 68.2448
L62.6604 68.2924
" />
<path d="M62.6604 68.2924
L62.8509 68.2924
" />
<path d="M62.8509 68.2924
L62.9461 68.2448
" />
<path d="M61.6604 68.2448
L61.7556 68.2924
" />
<path d="M61.7556 68.2924
L61.9461 68.2924
" />
<path d="M61.9461 68.2924
L62.0414 68.2448
" />
<path d="M62.0414 68.2448
L62.0890 68.1496
" />
<path d="M62.0890 68.1496
L62.0890 67.7686
" />
<path d="M62.0890 67.7686
L62.0414 67.6734
" />
<path d="M62.0414 67.6734
L61.9461 67.6258
" />
<path d="M61.9461 67.6258
L61.7556 67.6258
" />
<path d="M61.7556 67.6258
L61.6604 67.6734
" />
<path d="M61.6604 67.6734
L61.6128 67.7686
" />
<path d="M61.6128 67.7686
L61.6128 67.8638
" />
<path d="M61.6128 67.8638
L62.0890 67.9591
" />
<path d="M61.1842 68.2924
L61.1842 67.6258
" />
<path d="M61.1842 67.8162
L61.1366 67.7210
" />
<path d="M61.1366 67.7210
L61.0890 67.6734
" />
<path d="M61.0890 67.6734
L60.9937 67.6258
" />
<path d="M60.9937 67.6258
L60.8985 67.6258
" />
<path d="M60.5652 67.6258
L60.5652 68.2924
" />
<path d="M60.5652 67.7210
L60.5175 67.6734
" />
<path d="M60.5175 67.6734
L60.4223 67.6258
" />
<path d="M60.4223 67.6258
L60.2794 67.6258
" />
<path d="M60.2794 67.6258
L60.1842 67.6734
" />
<path d="M60.1842 67.6734
L60.1366 67.7686
" />
<path d="M60.1366 67.7686
L60.1366 68.2924
" />
<path d="M59.6604 68.2924
L59.6604 67.6258
" />
<path d="M59.6604 67.2924
L59.7080 67.3400
" />
<path d="M59.7080 67.3400
L59.6604 67.3877
" />
<path d="M59.6604 67.3877
L59.6128 67.3400
" />
<path d="M59.6128 67.3400
L59.6604 67.2924
" />
<path d="M59.6604 67.2924
L59.6604 67.3877
" />
<path d="M58.7556 68.2448
L58.8509 68.2924
" />
<path d="M58.8509 68.2924
L59.0414 68.2924
" />
<path d="M59.0414 68.2924
L59.1366 68.2448
" />
<path d="M59.1366 68.2448
L59.1842 68.1972
" />
<path d="M59.1842 68.1972
L59.2318 68.1019
" />
<path d="M59.2318 68.1019
L59.2318 67.8162
" />
<path d="M59.2318 67.8162
L59.1842 67.7210
" />
<path d="M59.1842 67.7210
L59.1366 67.6734
" />
<path d="M59.1366 67.6734
L59.0414 67.6258
" />
<path d="M59.0414 67.6258
L58.8509 67.6258
" />
<path d="M58.8509 67.6258
L58.7556 67.6734
" />
<path d="M58.3271 68.2924
L58.3271 67.2924
" />
<path d="M58.2318 67.9115
L57.9461 68.2924
" />
<path d="M57.9461 67.6258
L58.3271 68.0067
" />
<path d="M57.0890 68.2924
L57.0890 67.7686
" />
<path d="M57.0890 67.7686
L57.1366 67.6734
" />
<path d="M57.1366 67.6734
L57.2318 67.6258
" />
<path d="M57.2318 67.6258
L57.4223 67.6258
" />
<path d="M57.4223 67.6258
L57.5175 67.6734
" />
<path d="M57.0890 68.2448
L57.1842 68.2924
" />
<path d="M57.1842 68.2924
L57.4223 68.2924
" />
<path d="M57.4223 68.2924
L57.5175 68.2448
" />
<path d="M57.5175 68.2448
L57.5652 68.1496
" />
<path d="M57.5652 68.1496
L57.5652 68.0543
" />
<path d="M57.5652 68.0543
L57.5175 67.9591
" />
<path d="M57.5175 67.9591
L57.4223 67.9115
" />
<path d="M57.4223 67.9115
L57.1842 67.9115
" />
<path d="M57.1842 67.9115
L57.0890 67.8638
" />
<path d="M56.6128 68.1972
L56.5652 68.2448
" />
<path d="M56.5652 68.2448
L56.6128 68.2924
" />
<path d="M56.6128 68.2924
L56.6604 68.2448
" />
<path d="M56.6604 68.2448
L56.6128 68.1972
" />
<path d="M56.6128 68.1972
L56.6128 68.2924
" />
<path d="M55.7080 68.2448
L55.8033 68.2924
" />
<path d="M55.8033 68.2924
L55.9937 68.2924
" />
<path d="M55.9937 68.2924
L56.0890 68.2448
" />
<path d="M56.0890 68.2448
L56.1366 68.1972
" />
<path d="M56.1366 68.1972
L56.1842 68.1019
" />
<path d="M56.1842 68.1019
L56.1842 67.8162
" />
<path d="M56.1842 67.8162
L56.1366 67.7210
" />
<path d="M56.1366 67.7210
L56.0890 67.6734
" />
<path d="M56.0890 67.6734
L55.9937 67.6258
" />
<path d="M55.9937 67.6258
L55.8033 67.6258
" />
<path d="M55.8033 67.6258
L55.7080 67.6734
" />
<path d="M55.3747 67.6258
L54.8509 67.6258
" />
<path d="M54.8509 67.6258
L55.3747 68.2924
" />
<path d="M55.3747 68.2924
L54.8509 68.2924
" />
</g><text x="63.2500" y="69.8599"
transform="scale(-1 1) translate(-126.500000 0)"
textLength="10.2905" font-size="1.3333" lengthAdjust="spacingAndGlyphs"
text-anchor="start" opacity="0" stroke-opacity="0">time_terminal</text>
<g class="stroked-text"><desc>time_terminal</desc>
<path d="M63.0890 69.2357
L62.7080 69.2357
" />
<path d="M62.9461 68.9024
L62.9461 69.7595
" />
<path d="M62.9461 69.7595
L62.8985 69.8547
" />
<path d="M62.8985 69.8547
L62.8033 69.9024
" />
<path d="M62.8033 69.9024
L62.7080 69.9024
" />
<path d="M62.3747 69.9024
L62.3747 69.2357
" />
<path d="M62.3747 68.9024
L62.4223 68.9500
" />
<path d="M62.4223 68.9500
L62.3747 68.9976
" />
<path d="M62.3747 68.9976
L62.3271 68.9500
" />
<path d="M62.3271 68.9500
L62.3747 68.9024
" />
<path d="M62.3747 68.9024
L62.3747 68.9976
" />
<path d="M61.8985 69.9024
L61.8985 69.2357
" />
<path d="M61.8985 69.3309
L61.8509 69.2833
" />
<path d="M61.8509 69.2833
L61.7556 69.2357
" />
<path d="M61.7556 69.2357
L61.6128 69.2357
" />
<path d="M61.6128 69.2357
L61.5175 69.2833
" />
<path d="M61.5175 69.2833
L61.4699 69.3786
" />
<path d="M61.4699 69.3786
L61.4699 69.9024
" />
<path d="M61.4699 69.3786
L61.4223 69.2833
" />
<path d="M61.4223 69.2833
L61.3271 69.2357
" />
<path d="M61.3271 69.2357
L61.1842 69.2357
" />
<path d="M61.1842 69.2357
L61.0890 69.2833
" />
<path d="M61.0890 69.2833
L61.0414 69.3786
" />
<path d="M61.0414 69.3786
L61.0414 69.9024
" />
<path d="M60.1842 69.8547
L60.2794 69.9024
" />
<path d="M60.2794 69.9024
L60.4699 69.9024
" />
<path d="M60.4699 69.9024
L60.5652 69.8547
" />
<path d="M60.5652 69.8547
L60.6128 69.7595
" />
<path d="M60.6128 69.7595
L60.6128 69.3786
" />
<path d="M60.6128 69.3786
L60.5652 69.2833
" />
<path d="M60.5652 69.2833
L60.4699 69.2357
" />
<path d="M60.4699 69.2357
L60.2794 69.2357
" />
<path d="M60.2794 69.2357
L60.1842 69.2833
" />
<path d="M60.1842 69.2833
L60.1366 69.3786
" />
<path d="M60.1366 69.3786
L60.1366 69.4738
" />
<path d="M60.1366 69.4738
L60.6128 69.5690
" />
<path d="M59.9461 69.9976
L59.1842 69.9976
" />
<path d="M59.0890 69.2357
L58.7080 69.2357
" />
<path d="M58.9461 68.9024
L58.9461 69.7595
" />
<path d="M58.9461 69.7595
L58.8985 69.8547
" />
<path d="M58.8985 69.8547
L58.8033 69.9024
" />
<path d="M58.8033 69.9024
L58.7080 69.9024
" />
<path d="M57.9937 69.8547
L58.0890 69.9024
" />
<path d="M58.0890 69.9024
L58.2794 69.9024
" />
<path d="M58.2794 69.9024
L58.3747 69.8547
" />
<path d="M58.3747 69.8547
L58.4223 69.7595
" />
<path d="M58.4223 69.7595
L58.4223 69.3786
" />
<path d="M58.4223 69.3786
L58.3747 69.2833
" />
<path d="M58.3747 69.2833
L58.2794 69.2357
" />
<path d="M58.2794 69.2357
L58.0890 69.2357
" />
<path d="M58.0890 69.2357
L57.9937 69.2833
" />
<path d="M57.9937 69.2833
L57.9461 69.3786
" />
<path d="M57.9461 69.3786
L57.9461 69.4738
" />
<path d="M57.9461 69.4738
L58.4223 69.5690
" />
<path d="M57.5175 69.9024
L57.5175 69.2357
" />
<path d="M57.5175 69.4262
L57.4699 69.3309
" />
<path d="M57.4699 69.3309
L57.4223 69.2833
" />
<path d="M57.4223 69.2833
L57.3271 69.2357
" />
<path d="M57.3271 69.2357
L57.2318 69.2357
" />
<path d="M56.8985 69.9024
L56.8985 69.2357
" />
<path d="M56.8985 69.3309
L56.8509 69.2833
" />
<path d="M56.8509 69.2833
L56.7556 69.2357
" />
<path d="M56.7556 69.2357
L56.6128 69.2357
" />
<path d="M56.6128 69.2357
L56.5175 69.2833
" />
<path d="M56.5175 69.2833
L56.4699 69.3786
" />
<path d="M56.4699 69.3786
L56.4699 69.9024
" />
<path d="M56.4699 69.3786
L56.4223 69.2833
" />
<path d="M56.4223 69.2833
L56.3271 69.2357
" />
<path d="M56.3271 69.2357
L56.1842 69.2357
" />
<path d="M56.1842 69.2357
L56.0890 69.2833
" />
<path d="M56.0890 69.2833
L56.0414 69.3786
" />
<path d="M56.0414 69.3786
L56.0414 69.9024
" />
<path d="M55.5652 69.9024
L55.5652 69.2357
" />
<path d="M55.5652 68.9024
L55.6128 68.9500
" />
<path d="M55.6128 68.9500
L55.5652 68.9976
" />
<path d="M55.5652 68.9976
L55.5175 68.9500
" />
<path d="M55.5175 68.9500
L55.5652 68.9024
" />
<path d="M55.5652 68.9024
L55.5652 68.9976
" />
<path d="M55.0890 69.2357
L55.0890 69.9024
" />
<path d="M55.0890 69.3309
L55.0414 69.2833
" />
<path d="M55.0414 69.2833
L54.9461 69.2357
" />
<path d="M54.9461 69.2357
L54.8033 69.2357
" />
<path d="M54.8033 69.2357
L54.7080 69.2833
" />
<path d="M54.7080 69.2833
L54.6604 69.3786
" />
<path d="M54.6604 69.3786
L54.6604 69.9024
" />
<path d="M53.7556 69.9024
L53.7556 69.3786
" />
<path d="M53.7556 69.3786
L53.8033 69.2833
" />
<path d="M53.8033 69.2833
L53.8985 69.2357
" />
<path d="M53.8985 69.2357
L54.0890 69.2357
" />
<path d="M54.0890 69.2357
L54.1842 69.2833
" />
<path d="M53.7556 69.8547
L53.8509 69.9024
" />
<path d="M53.8509 69.9024
L54.0890 69.9024
" />
<path d="M54.0890 69.9024
L54.1842 69.8547
" />
<path d="M54.1842 69.8547
L54.2318 69.7595
" />
<path d="M54.2318 69.7595
L54.2318 69.6643
" />
<path d="M54.2318 69.6643
L54.1842 69.5690
" />
<path d="M54.1842 69.5690
L54.0890 69.5214
" />
<path d="M54.0890 69.5214
L53.8509 69.5214
" />
<path d="M53.8509 69.5214
L53.7556 69.4738
" />
<path d="M53.1366 69.9024
L53.2318 69.8547
" />
<path d="M53.2318 69.8547
L53.2794 69.7595
" />
<path d="M53.2794 69.7595
L53.2794 68.9024
" />
</g><text x="63.2500" y="71.4699"
transform="scale(-1 1) translate(-126.500000 0)"
textLength="14.1000" font-size="1.3333" lengthAdjust="spacingAndGlyphs"
text-anchor="start" opacity="0" stroke-opacity="0">v1.1_2025-03-09</text>
<g class="stroked-text"><desc>v1.1_2025-03-09</desc>
<path d="M63.0414 70.8456
L62.8033 71.5123
" />
<path d="M62.8033 71.5123
L62.5652 70.8456
" />
<path d="M61.6604 71.5123
L62.2318 71.5123
" />
<path d="M61.9461 71.5123
L61.9461 70.5123
" />
<path d="M61.9461 70.5123
L62.0414 70.6552
" />
<path d="M62.0414 70.6552
L62.1366 70.7504
" />
<path d="M62.1366 70.7504
L62.2318 70.7980
" />
<path d="M61.2318 71.4171
L61.1842 71.4647
" />
<path d="M61.1842 71.4647
L61.2318 71.5123
" />
<path d="M61.2318 71.5123
L61.2794 71.4647
" />
<path d="M61.2794 71.4647
L61.2318 71.4171
" />
<path d="M61.2318 71.4171
L61.2318 71.5123
" />
<path d="M60.2318 71.5123
L60.8033 71.5123
" />
<path d="M60.5175 71.5123
L60.5175 70.5123
" />
<path d="M60.5175 70.5123
L60.6128 70.6552
" />
<path d="M60.6128 70.6552
L60.7080 70.7504
" />
<path d="M60.7080 70.7504
L60.8033 70.7980
" />
<path d="M60.0414 71.6075
L59.2794 71.6075
" />
<path d="M59.0890 70.6075
L59.0414 70.5599
" />
<path d="M59.0414 70.5599
L58.9461 70.5123
" />
<path d="M58.9461 70.5123
L58.7080 70.5123
" />
<path d="M58.7080 70.5123
L58.6128 70.5599
" />
<path d="M58.6128 70.5599
L58.5652 70.6075
" />
<path d="M58.5652 70.6075
L58.5175 70.7028
" />
<path d="M58.5175 70.7028
L58.5175 70.7980
" />
<path d="M58.5175 70.7980
L58.5652 70.9409
" />
<path d="M58.5652 70.9409
L59.1366 71.5123
" />
<path d="M59.1366 71.5123
L58.5175 71.5123
" />
<path d="M57.8985 70.5123
L57.8033 70.5123
" />
<path d="M57.8033 70.5123
L57.7080 70.5599
" />
<path d="M57.7080 70.5599
L57.6604 70.6075
" />
<path d="M57.6604 70.6075
L57.6128 70.7028
" />
<path d="M57.6128 70.7028
L57.5652 70.8933
" />
<path d="M57.5652 70.8933
L57.5652 71.1314
" />
<path d="M57.5652 71.1314
L57.6128 71.3218
" />
<path d="M57.6128 71.3218
L57.6604 71.4171
" />
<path d="M57.6604 71.4171
L57.7080 71.4647
" />
<path d="M57.7080 71.4647
L57.8033 71.5123
" />
<path d="M57.8033 71.5123
L57.8985 71.5123
" />
<path d="M57.8985 71.5123
L57.9937 71.4647
" />
<path d="M57.9937 71.4647
L58.0414 71.4171
" />
<path d="M58.0414 71.4171
L58.0890 71.3218
" />
<path d="M58.0890 71.3218
L58.1366 71.1314
" />
<path d="M58.1366 71.1314
L58.1366 70.8933
" />
<path d="M58.1366 70.8933
L58.0890 70.7028
" />
<path d="M58.0890 70.7028
L58.0414 70.6075
" />
<path d="M58.0414 70.6075
L57.9937 70.5599
" />
<path d="M57.9937 70.5599
L57.8985 70.5123
" />
<path d="M57.1842 70.6075
L57.1366 70.5599
" />
<path d="M57.1366 70.5599
L57.0414 70.5123
" />
<path d="M57.0414 70.5123
L56.8033 70.5123
" />
<path d="M56.8033 70.5123
L56.7080 70.5599
" />
<path d="M56.7080 70.5599
L56.6604 70.6075
" />
<path d="M56.6604 70.6075
L56.6128 70.7028
" />
<path d="M56.6128 70.7028
L56.6128 70.7980
" />
<path d="M56.6128 70.7980
L56.6604 70.9409
" />
<path d="M56.6604 70.9409
L57.2318 71.5123
" />
<path d="M57.2318 71.5123
L56.6128 71.5123
" />
<path d="M55.7080 70.5123
L56.1842 70.5123
" />
<path d="M56.1842 70.5123
L56.2318 70.9885
" />
<path d="M56.2318 70.9885
L56.1842 70.9409
" />
<path d="M56.1842 70.9409
L56.0890 70.8933
" />
<path d="M56.0890 70.8933
L55.8509 70.8933
" />
<path d="M55.8509 70.8933
L55.7556 70.9409
" />
<path d="M55.7556 70.9409
L55.7080 70.9885
" />
<path d="M55.7080 70.9885
L55.6604 71.0837
" />
<path d="M55.6604 71.0837
L55.6604 71.3218
" />
<path d="M55.6604 71.3218
L55.7080 71.4171
" />
<path d="M55.7080 71.4171
L55.7556 71.4647
" />
<path d="M55.7556 71.4647
L55.8509 71.5123
" />
<path d="M55.8509 71.5123
L56.0890 71.5123
" />
<path d="M56.0890 71.5123
L56.1842 71.4647
" />
<path d="M56.1842 71.4647
L56.2318 71.4171
" />
<path d="M55.2318 71.1314
L54.4699 71.1314
" />
<path d="M53.8033 70.5123
L53.7080 70.5123
" />
<path d="M53.7080 70.5123
L53.6128 70.5599
" />
<path d="M53.6128 70.5599
L53.5652 70.6075
" />
<path d="M53.5652 70.6075
L53.5175 70.7028
" />
<path d="M53.5175 70.7028
L53.4699 70.8933
" />
<path d="M53.4699 70.8933
L53.4699 71.1314
" />
<path d="M53.4699 71.1314
L53.5175 71.3218
" />
<path d="M53.5175 71.3218
L53.5652 71.4171
" />
<path d="M53.5652 71.4171
L53.6128 71.4647
" />
<path d="M53.6128 71.4647
L53.7080 71.5123
" />
<path d="M53.7080 71.5123
L53.8033 71.5123
" />
<path d="M53.8033 71.5123
L53.8985 71.4647
" />
<path d="M53.8985 71.4647
L53.9461 71.4171
" />
<path d="M53.9461 71.4171
L53.9937 71.3218
" />
<path d="M53.9937 71.3218
L54.0414 71.1314
" />
<path d="M54.0414 71.1314
L54.0414 70.8933
" />
<path d="M54.0414 70.8933
L53.9937 70.7028
" />
<path d="M53.9937 70.7028
L53.9461 70.6075
" />
<path d="M53.9461 70.6075
L53.8985 70.5599
" />
<path d="M53.8985 70.5599
L53.8033 70.5123
" />
<path d="M53.1366 70.5123
L52.5175 70.5123
" />
<path d="M52.5175 70.5123
L52.8509 70.8933
" />
<path d="M52.8509 70.8933
L52.7080 70.8933
" />
<path d="M52.7080 70.8933
L52.6128 70.9409
" />
<path d="M52.6128 70.9409
L52.5652 70.9885
" />
<path d="M52.5652 70.9885
L52.5175 71.0837
" />
<path d="M52.5175 71.0837
L52.5175 71.3218
" />
<path d="M52.5175 71.3218
L52.5652 71.4171
" />
<path d="M52.5652 71.4171
L52.6128 71.4647
" />
<path d="M52.6128 71.4647
L52.7080 71.5123
" />
<path d="M52.7080 71.5123
L52.9937 71.5123
" />
<path d="M52.9937 71.5123
L53.0890 71.4647
" />
<path d="M53.0890 71.4647
L53.1366 71.4171
" />
<path d="M52.0890 71.1314
L51.3271 71.1314
" />
<path d="M50.6604 70.5123
L50.5652 70.5123
" />
<path d="M50.5652 70.5123
L50.4699 70.5599
" />
<path d="M50.4699 70.5599
L50.4223 70.6075
" />
<path d="M50.4223 70.6075
L50.3747 70.7028
" />
<path d="M50.3747 70.7028
L50.3271 70.8933
" />
<path d="M50.3271 70.8933
L50.3271 71.1314
" />
<path d="M50.3271 71.1314
L50.3747 71.3218
" />
<path d="M50.3747 71.3218
L50.4223 71.4171
" />
<path d="M50.4223 71.4171
L50.4699 71.4647
" />
<path d="M50.4699 71.4647
L50.5652 71.5123
" />
<path d="M50.5652 71.5123
L50.6604 71.5123
" />
<path d="M50.6604 71.5123
L50.7556 71.4647
" />
<path d="M50.7556 71.4647
L50.8033 71.4171
" />
<path d="M50.8033 71.4171
L50.8509 71.3218
" />
<path d="M50.8509 71.3218
L50.8985 71.1314
" />
<path d="M50.8985 71.1314
L50.8985 70.8933
" />
<path d="M50.8985 70.8933
L50.8509 70.7028
" />
<path d="M50.8509 70.7028
L50.8033 70.6075
" />
<path d="M50.8033 70.6075
L50.7556 70.5599
" />
<path d="M50.7556 70.5599
L50.6604 70.5123
" />
<path d="M49.8509 71.5123
L49.6604 71.5123
" />
<path d="M49.6604 71.5123
L49.5652 71.4647
" />
<path d="M49.5652 71.4647
L49.5175 71.4171
" />
<path d="M49.5175 71.4171
L49.4223 71.2742
" />
<path d="M49.4223 71.2742
L49.3747 71.0837
" />
<path d="M49.3747 71.0837
L49.3747 70.7028
" />
<path d="M49.3747 70.7028
L49.4223 70.6075
" />
<path d="M49.4223 70.6075
L49.4699 70.5599
" />
<path d="M49.4699 70.5599
L49.5652 70.5123
" />
<path d="M49.5652 70.5123
L49.7556 70.5123
" />
<path d="M49.7556 70.5123
L49.8509 70.5599
" />
<path d="M49.8509 70.5599
L49.8985 70.6075
" />
<path d="M49.8985 70.6075
L49.9461 70.7028
" />
<path d="M49.9461 70.7028
L49.9461 70.9409
" />
<path d="M49.9461 70.9409
L49.8985 71.0361
" />
<path d="M49.8985 71.0361
L49.8509 71.0837
" />
<path d="M49.8509 71.0837
L49.7556 71.1314
" />
<path d="M49.7556 71.1314
L49.5652 71.1314
" />
<path d="M49.5652 71.1314
L49.4699 71.0837
" />
<path d="M49.4699 71.0837
L49.4223 71.0361
" />
<path d="M49.4223 71.0361
L49.3747 70.9409
" />
</g><path style="fill:none; 
stroke:#E8B2A7; stroke-width:0.1000; stroke-opacity:1; 
stroke-linecap:round; stroke-linejoin:round;fill:none"
d="M 48.5000,66.5000
64.0000,66.5000
64.0000,72.7500
48.5000,72.7500
Z" /> 
</g>
<g style="fill:none; 
stroke:#E8B2A7; stroke-width:0.1500; stroke-opacity:1; 
stroke-linecap:round; stroke-linejoin:round;">
<text x="52.2500" y="6.0000"
transform="scale(-1 1) translate(-104.500000 0)"
textLength="1.9643" font-size="1.3333" lengthAdjust="spacingAndGlyphs"
text-anchor="middle" opacity="0" stroke-opacity="0">J4</text>
<g class="stroked-text"><desc>J4</desc>
<path d="M52.5833 4.9548
L52.5833 5.6691
" />
<path d="M52.5833 5.6691
L52.6310 5.8120
" />
<path d="M52.6310 5.8120
L52.7262 5.9072
" />
<path d="M52.7262 5.9072
L52.8690 5.9548
" />
<path d="M52.8690 5.9548
L52.9643 5.9548
" />
<path d="M51.6786 5.2882
L51.6786 5.9548
" />
<path d="M51.9167 4.9072
L52.1548 5.6215
" />
<path d="M52.1548 5.6215
L51.5357 5.6215
" />
</g><text x="47.5000" y="34.0000"
transform="scale(-1 1) translate(-95.000000 0)"
textLength="2.2500" font-size="1.3333" lengthAdjust="spacingAndGlyphs"
text-anchor="middle" opacity="0" stroke-opacity="0">U1</text>
<g class="stroked-text"><desc>U1</desc>
<path d="M48.2619 32.9548
L48.2619 33.7643
" />
<path d="M48.2619 33.7643
L48.2143 33.8596
" />
<path d="M48.2143 33.8596
L48.1667 33.9072
" />
<path d="M48.1667 33.9072
L48.0714 33.9548
" />
<path d="M48.0714 33.9548
L47.8810 33.9548
" />
<path d="M47.8810 33.9548
L47.7857 33.9072
" />
<path d="M47.7857 33.9072
L47.7381 33.8596
" />
<path d="M47.7381 33.8596
L47.6905 33.7643
" />
<path d="M47.6905 33.7643
L47.6905 32.9548
" />
<path d="M46.6905 33.9548
L47.2619 33.9548
" />
<path d="M46.9762 33.9548
L46.9762 32.9548
" />
<path d="M46.9762 32.9548
L47.0714 33.0977
" />
<path d="M47.0714 33.0977
L47.1667 33.1929
" />
<path d="M47.1667 33.1929
L47.2619 33.2405
" />
</g><text x="19.0000" y="45.7500"
transform="scale(-1 1) translate(-38.000000 0)"
textLength="2.2500" font-size="1.3333" lengthAdjust="spacingAndGlyphs"
text-anchor="middle" opacity="0" stroke-opacity="0">U3</text>
<g class="stroked-text"><desc>U3</desc>
<path d="M19.7619 44.7048
L19.7619 45.5143
" />
<path d="M19.7619 45.5143
L19.7143 45.6096
" />
<path d="M19.7143 45.6096
L19.6667 45.6572
" />
<path d="M19.6667 45.6572
L19.5714 45.7048
" />
<path d="M19.5714 45.7048
L19.3810 45.7048
" />
<path d="M19.3810 45.7048
L19.2857 45.6572
" />
<path d="M19.2857 45.6572
L19.2381 45.6096
" />
<path d="M19.2381 45.6096
L19.1905 45.5143
" />
<path d="M19.1905 45.5143
L19.1905 44.7048
" />
<path d="M18.8095 44.7048
L18.1905 44.7048
" />
<path d="M18.1905 44.7048
L18.5238 45.0858
" />
<path d="M18.5238 45.0858
L18.3810 45.0858
" />
<path d="M18.3810 45.0858
L18.2857 45.1334
" />
<path d="M18.2857 45.1334
L18.2381 45.1810
" />
<path d="M18.2381 45.1810
L18.1905 45.2762
" />
<path d="M18.1905 45.2762
L18.1905 45.5143
" />
<path d="M18.1905 45.5143
L18.2381 45.6096
" />
<path d="M18.2381 45.6096
L18.2857 45.6572
" />
<path d="M18.2857 45.6572
L18.3810 45.7048
" />
<path d="M18.3810 45.7048
L18.6667 45.7048
" />
<path d="M18.6667 45.7048
L18.7619 45.6572
" />
<path d="M18.7619 45.6572
L18.8095 45.6096
" />
</g></g>
<g style="fill:none; 
stroke:#E8B2A7; stroke-width:0.1200; stroke-opacity:1; 
stroke-linecap:round; stroke-linejoin:round;">
<path d="M11.0000 11.0000
L8.5000 11.0000
" />
<path d="M13.6100 6.5800
L13.6100 13.5600
" />
<path d="M13.6100 27.4400
L13.6100 20.4400
" />
<path d="M90.8900 6.5600
L13.6100 6.5600
" />
<path d="M90.8900 13.5600
L90.8900 6.5600
" />
<path d="M90.8900 20.4400
L90.8900 27.4400
" />
<path d="M90.8900 27.4400
L13.6100 27.4400
" />
<path d="M93.5000 11.0000
L96.0000 11.0000
" />
<path d="M94.7500 9.7500
L94.7500 12.2500
" />
<path d="M95.2500 13.5600
L90.8900 13.5600
" />
<path style="fill:none; 
stroke:#E8B2A7; stroke-width:0.1200; stroke-opacity:1; 
stroke-linecap:round; stroke-linejoin:round;fill:none"
d="M 46.5000,53.9800
66.0000,53.9800
66.0000,34.4800
46.5000,34.4800
Z" /> 
</g>
<g style="fill:none; 
stroke:#E8B2A7; stroke-width:0.3000; stroke-opacity:1; 
stroke-linecap:round; stroke-linejoin:round;">
<circle cx="45.4600" cy="50.7500" r="0.2059" /> 
</g>
<g style="fill:none; 
stroke:#E8B2A7; stroke-width:0.1200; stroke-opacity:1; 
stroke-linecap:round; stroke-linejoin:round;">
<path d="M6.8200 63.8000
L6.8200 60.2000
" />
<path d="M8.7000 58.3200
L12.3000 58.3200
" />
<path d="M8.7000 65.6800
L12.3000 65.6800
" />
<path d="M14.1800 63.8000
L14.1800 60.2000
" />
</g>
<g style="fill:none; 
stroke:#E8B2A7; stroke-width:0.1500; stroke-opacity:1; 
stroke-linecap:round; stroke-linejoin:round;">
<path d="M18.0000 46.2500
L18.0000 47.0000
" />
<path d="M18.0000 63.7500
L18.0000 63.0000
" />
<path d="M34.5000 46.2500
L18.0000 46.2500
" />
<path d="M34.5000 47.0000
L34.5000 46.2500
" />
<path d="M34.5000 63.0000
L34.5000 63.7500
" />
<path d="M34.5000 63.7500
L18.0000 63.7500
" />
<path style="fill:#E8B2A7; fill-opacity:1.0000; 
stroke:#E8B2A7; stroke-width:0.1200; stroke-opacity:1; 
stroke-linecap:round; stroke-linejoin:round;fill-rule:evenodd;"
d="M 17.7000,63.5000
17.2000,63.0000
17.7000,63.0000
Z" /> 
</g>
<g style="fill:none; 
stroke:#D0D2CD; stroke-width:0.1000; stroke-opacity:1; 
stroke-linecap:round; stroke-linejoin:round;">
<path d="M100.0984 75.5001 A3.7501 3.7501 0.0 0 0 103.8484 71.7500" />
<path d="M4.2500 71.7500
L4.2500 7.2500
" />
<path d="M8.0000 3.5000 A3.7500 3.7500 0.0 0 0 4.2500 7.2500" />
<path d="M4.2500 71.7500 A3.7500 3.7500 0.0 0 0 8.0000 75.5000" />
<path d="M8.0000 3.5000
L100.0983 3.5000
" />
<path d="M103.8483 7.2500 A3.7500 3.7500 0.0 0 0 100.0983 3.5000" />
<path d="M103.8483 7.2500
L103.8484 71.7500
" />
<path d="M8.0000 75.5000
L100.0984 75.5000
" />
</g> 
</svg>
