<?xml version="1.0" standalone="no"?>
 <!DOCTYPE svg PUBLIC "-//W3C//DTD SVG 1.1//EN" 
 "http://www.w3.org/Graphics/SVG/1.1/DTD/svg11.dtd"> 
<svg
  xmlns:svg="http://www.w3.org/2000/svg"
  xmlns="http://www.w3.org/2000/svg"
  xmlns:xlink="http://www.w3.org/1999/xlink"
  version="1.1"
  width="110.9980mm" height="80.7466mm" viewBox="0.0000 0.0000 110.9980 80.7466">
<title>SVG Image created as time_terminal-B_Fab.svg date 2025/07/22 15:40:31 </title>
  <desc>Image generated by PCBNEW </desc>
<g style="fill:#000000; fill-opacity:1.0000;stroke:#000000; stroke-opacity:1.0000;
stroke-linecap:round; stroke-linejoin:round;"
 transform="translate(0 0) scale(1 1)">
</g>
<g style="fill:none; 
stroke:#585D84; stroke-width:0.1500; stroke-opacity:1; 
stroke-linecap:round; stroke-linejoin:round;">
<text x="52.2500" y="28.8000"
transform="scale(-1 1) translate(-104.500000 0)"
textLength="11.0119" font-size="1.3333" lengthAdjust="spacingAndGlyphs"
text-anchor="middle" opacity="0" stroke-opacity="0">Li-Ion battery</text>
<g class="stroked-text"><desc>Li-Ion battery</desc>
<path d="M56.9167 28.7548
L57.3929 28.7548
" />
<path d="M57.3929 28.7548
L57.3929 27.7548
" />
<path d="M56.5833 28.7548
L56.5833 28.0882
" />
<path d="M56.5833 27.7548
L56.6310 27.8024
" />
<path d="M56.6310 27.8024
L56.5833 27.8501
" />
<path d="M56.5833 27.8501
L56.5357 27.8024
" />
<path d="M56.5357 27.8024
L56.5833 27.7548
" />
<path d="M56.5833 27.7548
L56.5833 27.8501
" />
<path d="M56.1071 28.3739
L55.3452 28.3739
" />
<path d="M54.8690 28.7548
L54.8690 27.7548
" />
<path d="M54.2500 28.7548
L54.3452 28.7072
" />
<path d="M54.3452 28.7072
L54.3929 28.6596
" />
<path d="M54.3929 28.6596
L54.4405 28.5643
" />
<path d="M54.4405 28.5643
L54.4405 28.2786
" />
<path d="M54.4405 28.2786
L54.3929 28.1834
" />
<path d="M54.3929 28.1834
L54.3452 28.1358
" />
<path d="M54.3452 28.1358
L54.2500 28.0882
" />
<path d="M54.2500 28.0882
L54.1071 28.0882
" />
<path d="M54.1071 28.0882
L54.0119 28.1358
" />
<path d="M54.0119 28.1358
L53.9643 28.1834
" />
<path d="M53.9643 28.1834
L53.9167 28.2786
" />
<path d="M53.9167 28.2786
L53.9167 28.5643
" />
<path d="M53.9167 28.5643
L53.9643 28.6596
" />
<path d="M53.9643 28.6596
L54.0119 28.7072
" />
<path d="M54.0119 28.7072
L54.1071 28.7548
" />
<path d="M54.1071 28.7548
L54.2500 28.7548
" />
<path d="M53.4881 28.0882
L53.4881 28.7548
" />
<path d="M53.4881 28.1834
L53.4405 28.1358
" />
<path d="M53.4405 28.1358
L53.3452 28.0882
" />
<path d="M53.3452 28.0882
L53.2024 28.0882
" />
<path d="M53.2024 28.0882
L53.1071 28.1358
" />
<path d="M53.1071 28.1358
L53.0595 28.2310
" />
<path d="M53.0595 28.2310
L53.0595 28.7548
" />
<path d="M51.8214 28.7548
L51.8214 27.7548
" />
<path d="M51.8214 28.1358
L51.7262 28.0882
" />
<path d="M51.7262 28.0882
L51.5357 28.0882
" />
<path d="M51.5357 28.0882
L51.4405 28.1358
" />
<path d="M51.4405 28.1358
L51.3929 28.1834
" />
<path d="M51.3929 28.1834
L51.3452 28.2786
" />
<path d="M51.3452 28.2786
L51.3452 28.5643
" />
<path d="M51.3452 28.5643
L51.3929 28.6596
" />
<path d="M51.3929 28.6596
L51.4405 28.7072
" />
<path d="M51.4405 28.7072
L51.5357 28.7548
" />
<path d="M51.5357 28.7548
L51.7262 28.7548
" />
<path d="M51.7262 28.7548
L51.8214 28.7072
" />
<path d="M50.4881 28.7548
L50.4881 28.2310
" />
<path d="M50.4881 28.2310
L50.5357 28.1358
" />
<path d="M50.5357 28.1358
L50.6310 28.0882
" />
<path d="M50.6310 28.0882
L50.8214 28.0882
" />
<path d="M50.8214 28.0882
L50.9167 28.1358
" />
<path d="M50.4881 28.7072
L50.5833 28.7548
" />
<path d="M50.5833 28.7548
L50.8214 28.7548
" />
<path d="M50.8214 28.7548
L50.9167 28.7072
" />
<path d="M50.9167 28.7072
L50.9643 28.6120
" />
<path d="M50.9643 28.6120
L50.9643 28.5167
" />
<path d="M50.9643 28.5167
L50.9167 28.4215
" />
<path d="M50.9167 28.4215
L50.8214 28.3739
" />
<path d="M50.8214 28.3739
L50.5833 28.3739
" />
<path d="M50.5833 28.3739
L50.4881 28.3262
" />
<path d="M50.1548 28.0882
L49.7738 28.0882
" />
<path d="M50.0119 27.7548
L50.0119 28.6120
" />
<path d="M50.0119 28.6120
L49.9643 28.7072
" />
<path d="M49.9643 28.7072
L49.8690 28.7548
" />
<path d="M49.8690 28.7548
L49.7738 28.7548
" />
<path d="M49.5833 28.0882
L49.2024 28.0882
" />
<path d="M49.4405 27.7548
L49.4405 28.6120
" />
<path d="M49.4405 28.6120
L49.3929 28.7072
" />
<path d="M49.3929 28.7072
L49.2976 28.7548
" />
<path d="M49.2976 28.7548
L49.2024 28.7548
" />
<path d="M48.4881 28.7072
L48.5833 28.7548
" />
<path d="M48.5833 28.7548
L48.7738 28.7548
" />
<path d="M48.7738 28.7548
L48.8690 28.7072
" />
<path d="M48.8690 28.7072
L48.9167 28.6120
" />
<path d="M48.9167 28.6120
L48.9167 28.2310
" />
<path d="M48.9167 28.2310
L48.8690 28.1358
" />
<path d="M48.8690 28.1358
L48.7738 28.0882
" />
<path d="M48.7738 28.0882
L48.5833 28.0882
" />
<path d="M48.5833 28.0882
L48.4881 28.1358
" />
<path d="M48.4881 28.1358
L48.4405 28.2310
" />
<path d="M48.4405 28.2310
L48.4405 28.3262
" />
<path d="M48.4405 28.3262
L48.9167 28.4215
" />
<path d="M48.0119 28.7548
L48.0119 28.0882
" />
<path d="M48.0119 28.2786
L47.9643 28.1834
" />
<path d="M47.9643 28.1834
L47.9167 28.1358
" />
<path d="M47.9167 28.1358
L47.8214 28.0882
" />
<path d="M47.8214 28.0882
L47.7262 28.0882
" />
<path d="M47.4881 28.0882
L47.2500 28.7548
" />
<path d="M47.0119 28.0882
L47.2500 28.7548
" />
<path d="M47.2500 28.7548
L47.3452 28.9929
" />
<path d="M47.3452 28.9929
L47.3929 29.0405
" />
<path d="M47.3929 29.0405
L47.4881 29.0882
" />
</g><text x="52.2500" y="17.5000"
transform="scale(-1 1) translate(-104.500000 0)"
textLength="1.9643" font-size="1.3333" lengthAdjust="spacingAndGlyphs"
text-anchor="middle" opacity="0" stroke-opacity="0">J4</text>
<g class="stroked-text"><desc>J4</desc>
<path d="M52.5833 16.4548
L52.5833 17.1691
" />
<path d="M52.5833 17.1691
L52.6310 17.3120
" />
<path d="M52.6310 17.3120
L52.7262 17.4072
" />
<path d="M52.7262 17.4072
L52.8690 17.4548
" />
<path d="M52.8690 17.4548
L52.9643 17.4548
" />
<path d="M51.6786 16.7882
L51.6786 17.4548
" />
<path d="M51.9167 16.4072
L52.1548 17.1215
" />
<path d="M52.1548 17.1215
L51.5357 17.1215
" />
</g><text x="56.2100" y="55.7300"
transform="scale(-1 1) translate(-112.420000 0)"
textLength="7.2500" font-size="1.3333" lengthAdjust="spacingAndGlyphs"
text-anchor="middle" opacity="0" stroke-opacity="0">L86-M33</text>
<g class="stroked-text"><desc>L86-M33</desc>
<path d="M58.9957 55.6848
L59.4719 55.6848
" />
<path d="M59.4719 55.6848
L59.4719 54.6848
" />
<path d="M58.5195 55.1134
L58.6148 55.0658
" />
<path d="M58.6148 55.0658
L58.6624 55.0182
" />
<path d="M58.6624 55.0182
L58.7100 54.9229
" />
<path d="M58.7100 54.9229
L58.7100 54.8753
" />
<path d="M58.7100 54.8753
L58.6624 54.7801
" />
<path d="M58.6624 54.7801
L58.6148 54.7324
" />
<path d="M58.6148 54.7324
L58.5195 54.6848
" />
<path d="M58.5195 54.6848
L58.3290 54.6848
" />
<path d="M58.3290 54.6848
L58.2338 54.7324
" />
<path d="M58.2338 54.7324
L58.1862 54.7801
" />
<path d="M58.1862 54.7801
L58.1386 54.8753
" />
<path d="M58.1386 54.8753
L58.1386 54.9229
" />
<path d="M58.1386 54.9229
L58.1862 55.0182
" />
<path d="M58.1862 55.0182
L58.2338 55.0658
" />
<path d="M58.2338 55.0658
L58.3290 55.1134
" />
<path d="M58.3290 55.1134
L58.5195 55.1134
" />
<path d="M58.5195 55.1134
L58.6148 55.1610
" />
<path d="M58.6148 55.1610
L58.6624 55.2086
" />
<path d="M58.6624 55.2086
L58.7100 55.3039
" />
<path d="M58.7100 55.3039
L58.7100 55.4943
" />
<path d="M58.7100 55.4943
L58.6624 55.5896
" />
<path d="M58.6624 55.5896
L58.6148 55.6372
" />
<path d="M58.6148 55.6372
L58.5195 55.6848
" />
<path d="M58.5195 55.6848
L58.3290 55.6848
" />
<path d="M58.3290 55.6848
L58.2338 55.6372
" />
<path d="M58.2338 55.6372
L58.1862 55.5896
" />
<path d="M58.1862 55.5896
L58.1386 55.4943
" />
<path d="M58.1386 55.4943
L58.1386 55.3039
" />
<path d="M58.1386 55.3039
L58.1862 55.2086
" />
<path d="M58.1862 55.2086
L58.2338 55.1610
" />
<path d="M58.2338 55.1610
L58.3290 55.1134
" />
<path d="M57.2814 54.6848
L57.4719 54.6848
" />
<path d="M57.4719 54.6848
L57.5671 54.7324
" />
<path d="M57.5671 54.7324
L57.6148 54.7801
" />
<path d="M57.6148 54.7801
L57.7100 54.9229
" />
<path d="M57.7100 54.9229
L57.7576 55.1134
" />
<path d="M57.7576 55.1134
L57.7576 55.4943
" />
<path d="M57.7576 55.4943
L57.7100 55.5896
" />
<path d="M57.7100 55.5896
L57.6624 55.6372
" />
<path d="M57.6624 55.6372
L57.5671 55.6848
" />
<path d="M57.5671 55.6848
L57.3767 55.6848
" />
<path d="M57.3767 55.6848
L57.2814 55.6372
" />
<path d="M57.2814 55.6372
L57.2338 55.5896
" />
<path d="M57.2338 55.5896
L57.1862 55.4943
" />
<path d="M57.1862 55.4943
L57.1862 55.2562
" />
<path d="M57.1862 55.2562
L57.2338 55.1610
" />
<path d="M57.2338 55.1610
L57.2814 55.1134
" />
<path d="M57.2814 55.1134
L57.3767 55.0658
" />
<path d="M57.3767 55.0658
L57.5671 55.0658
" />
<path d="M57.5671 55.0658
L57.6624 55.1134
" />
<path d="M57.6624 55.1134
L57.7100 55.1610
" />
<path d="M57.7100 55.1610
L57.7576 55.2562
" />
<path d="M56.7576 55.3039
L55.9957 55.3039
" />
<path d="M55.5195 55.6848
L55.5195 54.6848
" />
<path d="M55.5195 54.6848
L55.1862 55.3991
" />
<path d="M55.1862 55.3991
L54.8529 54.6848
" />
<path d="M54.8529 54.6848
L54.8529 55.6848
" />
<path d="M54.4719 54.6848
L53.8529 54.6848
" />
<path d="M53.8529 54.6848
L54.1862 55.0658
" />
<path d="M54.1862 55.0658
L54.0433 55.0658
" />
<path d="M54.0433 55.0658
L53.9481 55.1134
" />
<path d="M53.9481 55.1134
L53.9005 55.1610
" />
<path d="M53.9005 55.1610
L53.8529 55.2562
" />
<path d="M53.8529 55.2562
L53.8529 55.4943
" />
<path d="M53.8529 55.4943
L53.9005 55.5896
" />
<path d="M53.9005 55.5896
L53.9481 55.6372
" />
<path d="M53.9481 55.6372
L54.0433 55.6848
" />
<path d="M54.0433 55.6848
L54.3290 55.6848
" />
<path d="M54.3290 55.6848
L54.4243 55.6372
" />
<path d="M54.4243 55.6372
L54.4719 55.5896
" />
<path d="M53.5195 54.6848
L52.9005 54.6848
" />
<path d="M52.9005 54.6848
L53.2338 55.0658
" />
<path d="M53.2338 55.0658
L53.0910 55.0658
" />
<path d="M53.0910 55.0658
L52.9957 55.1134
" />
<path d="M52.9957 55.1134
L52.9481 55.1610
" />
<path d="M52.9481 55.1610
L52.9005 55.2562
" />
<path d="M52.9005 55.2562
L52.9005 55.4943
" />
<path d="M52.9005 55.4943
L52.9481 55.5896
" />
<path d="M52.9481 55.5896
L52.9957 55.6372
" />
<path d="M52.9957 55.6372
L53.0910 55.6848
" />
<path d="M53.0910 55.6848
L53.3767 55.6848
" />
<path d="M53.3767 55.6848
L53.4719 55.6372
" />
<path d="M53.4719 55.6372
L53.5195 55.5896
" />
</g><text x="56.2100" y="45.0000"
transform="scale(-1 1) translate(-112.420000 0)"
textLength="2.2500" font-size="1.3333" lengthAdjust="spacingAndGlyphs"
text-anchor="middle" opacity="0" stroke-opacity="0">U1</text>
<g class="stroked-text"><desc>U1</desc>
<path d="M56.9719 43.9548
L56.9719 44.7643
" />
<path d="M56.9719 44.7643
L56.9243 44.8596
" />
<path d="M56.9243 44.8596
L56.8767 44.9072
" />
<path d="M56.8767 44.9072
L56.7814 44.9548
" />
<path d="M56.7814 44.9548
L56.5910 44.9548
" />
<path d="M56.5910 44.9548
L56.4957 44.9072
" />
<path d="M56.4957 44.9072
L56.4481 44.8596
" />
<path d="M56.4481 44.8596
L56.4005 44.7643
" />
<path d="M56.4005 44.7643
L56.4005 43.9548
" />
<path d="M55.4005 44.9548
L55.9719 44.9548
" />
<path d="M55.6862 44.9548
L55.6862 43.9548
" />
<path d="M55.6862 43.9548
L55.7814 44.0977
" />
<path d="M55.7814 44.0977
L55.8767 44.1929
" />
<path d="M55.8767 44.1929
L55.9719 44.2405
" />
</g><text x="10.5000" y="67.5000"
transform="scale(-1 1) translate(-21.000000 0)"
textLength="10.2500" font-size="1.3333" lengthAdjust="spacingAndGlyphs"
text-anchor="middle" opacity="0" stroke-opacity="0">Conn_Coaxial</text>
<g class="stroked-text"><desc>Conn_Coaxial</desc>
<path d="M14.6905 67.3596
L14.7381 67.4072
" />
<path d="M14.7381 67.4072
L14.8810 67.4548
" />
<path d="M14.8810 67.4548
L14.9762 67.4548
" />
<path d="M14.9762 67.4548
L15.1190 67.4072
" />
<path d="M15.1190 67.4072
L15.2143 67.3120
" />
<path d="M15.2143 67.3120
L15.2619 67.2167
" />
<path d="M15.2619 67.2167
L15.3095 67.0262
" />
<path d="M15.3095 67.0262
L15.3095 66.8834
" />
<path d="M15.3095 66.8834
L15.2619 66.6929
" />
<path d="M15.2619 66.6929
L15.2143 66.5977
" />
<path d="M15.2143 66.5977
L15.1190 66.5024
" />
<path d="M15.1190 66.5024
L14.9762 66.4548
" />
<path d="M14.9762 66.4548
L14.8810 66.4548
" />
<path d="M14.8810 66.4548
L14.7381 66.5024
" />
<path d="M14.7381 66.5024
L14.6905 66.5501
" />
<path d="M14.1190 67.4548
L14.2143 67.4072
" />
<path d="M14.2143 67.4072
L14.2619 67.3596
" />
<path d="M14.2619 67.3596
L14.3095 67.2643
" />
<path d="M14.3095 67.2643
L14.3095 66.9786
" />
<path d="M14.3095 66.9786
L14.2619 66.8834
" />
<path d="M14.2619 66.8834
L14.2143 66.8358
" />
<path d="M14.2143 66.8358
L14.1190 66.7882
" />
<path d="M14.1190 66.7882
L13.9762 66.7882
" />
<path d="M13.9762 66.7882
L13.8810 66.8358
" />
<path d="M13.8810 66.8358
L13.8333 66.8834
" />
<path d="M13.8333 66.8834
L13.7857 66.9786
" />
<path d="M13.7857 66.9786
L13.7857 67.2643
" />
<path d="M13.7857 67.2643
L13.8333 67.3596
" />
<path d="M13.8333 67.3596
L13.8810 67.4072
" />
<path d="M13.8810 67.4072
L13.9762 67.4548
" />
<path d="M13.9762 67.4548
L14.1190 67.4548
" />
<path d="M13.3571 66.7882
L13.3571 67.4548
" />
<path d="M13.3571 66.8834
L13.3095 66.8358
" />
<path d="M13.3095 66.8358
L13.2143 66.7882
" />
<path d="M13.2143 66.7882
L13.0714 66.7882
" />
<path d="M13.0714 66.7882
L12.9762 66.8358
" />
<path d="M12.9762 66.8358
L12.9286 66.9310
" />
<path d="M12.9286 66.9310
L12.9286 67.4548
" />
<path d="M12.4524 66.7882
L12.4524 67.4548
" />
<path d="M12.4524 66.8834
L12.4048 66.8358
" />
<path d="M12.4048 66.8358
L12.3095 66.7882
" />
<path d="M12.3095 66.7882
L12.1667 66.7882
" />
<path d="M12.1667 66.7882
L12.0714 66.8358
" />
<path d="M12.0714 66.8358
L12.0238 66.9310
" />
<path d="M12.0238 66.9310
L12.0238 67.4548
" />
<path d="M11.7857 67.5501
L11.0238 67.5501
" />
<path d="M10.2143 67.3596
L10.2619 67.4072
" />
<path d="M10.2619 67.4072
L10.4048 67.4548
" />
<path d="M10.4048 67.4548
L10.5000 67.4548
" />
<path d="M10.5000 67.4548
L10.6429 67.4072
" />
<path d="M10.6429 67.4072
L10.7381 67.3120
" />
<path d="M10.7381 67.3120
L10.7857 67.2167
" />
<path d="M10.7857 67.2167
L10.8333 67.0262
" />
<path d="M10.8333 67.0262
L10.8333 66.8834
" />
<path d="M10.8333 66.8834
L10.7857 66.6929
" />
<path d="M10.7857 66.6929
L10.7381 66.5977
" />
<path d="M10.7381 66.5977
L10.6429 66.5024
" />
<path d="M10.6429 66.5024
L10.5000 66.4548
" />
<path d="M10.5000 66.4548
L10.4048 66.4548
" />
<path d="M10.4048 66.4548
L10.2619 66.5024
" />
<path d="M10.2619 66.5024
L10.2143 66.5501
" />
<path d="M9.6429 67.4548
L9.7381 67.4072
" />
<path d="M9.7381 67.4072
L9.7857 67.3596
" />
<path d="M9.7857 67.3596
L9.8333 67.2643
" />
<path d="M9.8333 67.2643
L9.8333 66.9786
" />
<path d="M9.8333 66.9786
L9.7857 66.8834
" />
<path d="M9.7857 66.8834
L9.7381 66.8358
" />
<path d="M9.7381 66.8358
L9.6429 66.7882
" />
<path d="M9.6429 66.7882
L9.5000 66.7882
" />
<path d="M9.5000 66.7882
L9.4048 66.8358
" />
<path d="M9.4048 66.8358
L9.3571 66.8834
" />
<path d="M9.3571 66.8834
L9.3095 66.9786
" />
<path d="M9.3095 66.9786
L9.3095 67.2643
" />
<path d="M9.3095 67.2643
L9.3571 67.3596
" />
<path d="M9.3571 67.3596
L9.4048 67.4072
" />
<path d="M9.4048 67.4072
L9.5000 67.4548
" />
<path d="M9.5000 67.4548
L9.6429 67.4548
" />
<path d="M8.4524 67.4548
L8.4524 66.9310
" />
<path d="M8.4524 66.9310
L8.5000 66.8358
" />
<path d="M8.5000 66.8358
L8.5952 66.7882
" />
<path d="M8.5952 66.7882
L8.7857 66.7882
" />
<path d="M8.7857 66.7882
L8.8810 66.8358
" />
<path d="M8.4524 67.4072
L8.5476 67.4548
" />
<path d="M8.5476 67.4548
L8.7857 67.4548
" />
<path d="M8.7857 67.4548
L8.8810 67.4072
" />
<path d="M8.8810 67.4072
L8.9286 67.3120
" />
<path d="M8.9286 67.3120
L8.9286 67.2167
" />
<path d="M8.9286 67.2167
L8.8810 67.1215
" />
<path d="M8.8810 67.1215
L8.7857 67.0739
" />
<path d="M8.7857 67.0739
L8.5476 67.0739
" />
<path d="M8.5476 67.0739
L8.4524 67.0262
" />
<path d="M8.0714 67.4548
L7.5476 66.7882
" />
<path d="M8.0714 66.7882
L7.5476 67.4548
" />
<path d="M7.1667 67.4548
L7.1667 66.7882
" />
<path d="M7.1667 66.4548
L7.2143 66.5024
" />
<path d="M7.2143 66.5024
L7.1667 66.5501
" />
<path d="M7.1667 66.5501
L7.1190 66.5024
" />
<path d="M7.1190 66.5024
L7.1667 66.4548
" />
<path d="M7.1667 66.4548
L7.1667 66.5501
" />
<path d="M6.2619 67.4548
L6.2619 66.9310
" />
<path d="M6.2619 66.9310
L6.3095 66.8358
" />
<path d="M6.3095 66.8358
L6.4048 66.7882
" />
<path d="M6.4048 66.7882
L6.5952 66.7882
" />
<path d="M6.5952 66.7882
L6.6905 66.8358
" />
<path d="M6.2619 67.4072
L6.3571 67.4548
" />
<path d="M6.3571 67.4548
L6.5952 67.4548
" />
<path d="M6.5952 67.4548
L6.6905 67.4072
" />
<path d="M6.6905 67.4072
L6.7381 67.3120
" />
<path d="M6.7381 67.3120
L6.7381 67.2167
" />
<path d="M6.7381 67.2167
L6.6905 67.1215
" />
<path d="M6.6905 67.1215
L6.5952 67.0739
" />
<path d="M6.5952 67.0739
L6.3571 67.0739
" />
<path d="M6.3571 67.0739
L6.2619 67.0262
" />
<path d="M5.6429 67.4548
L5.7381 67.4072
" />
<path d="M5.7381 67.4072
L5.7857 67.3120
" />
<path d="M5.7857 67.3120
L5.7857 66.4548
" />
</g><text x="10.5000" y="62.5000"
transform="scale(-1 1) translate(-21.000000 0)"
textLength="1.9643" font-size="1.3333" lengthAdjust="spacingAndGlyphs"
text-anchor="middle" opacity="0" stroke-opacity="0">J3</text>
<g class="stroked-text"><desc>J3</desc>
<path d="M10.8333 61.4548
L10.8333 62.1691
" />
<path d="M10.8333 62.1691
L10.8810 62.3120
" />
<path d="M10.8810 62.3120
L10.9762 62.4072
" />
<path d="M10.9762 62.4072
L11.1190 62.4548
" />
<path d="M11.1190 62.4548
L11.2143 62.4548
" />
<path d="M10.4524 61.4548
L9.8333 61.4548
" />
<path d="M9.8333 61.4548
L10.1667 61.8358
" />
<path d="M10.1667 61.8358
L10.0238 61.8358
" />
<path d="M10.0238 61.8358
L9.9286 61.8834
" />
<path d="M9.9286 61.8834
L9.8810 61.9310
" />
<path d="M9.8810 61.9310
L9.8333 62.0262
" />
<path d="M9.8333 62.0262
L9.8333 62.2643
" />
<path d="M9.8333 62.2643
L9.8810 62.3596
" />
<path d="M9.8810 62.3596
L9.9286 62.4072
" />
<path d="M9.9286 62.4072
L10.0238 62.4548
" />
<path d="M10.0238 62.4548
L10.3095 62.4548
" />
<path d="M10.3095 62.4548
L10.4048 62.4072
" />
<path d="M10.4048 62.4072
L10.4524 62.3596
" />
</g><text x="26.2500" y="45.7500"
transform="scale(-1 1) translate(-52.500000 0)"
textLength="7.2976" font-size="1.3333" lengthAdjust="spacingAndGlyphs"
text-anchor="middle" opacity="0" stroke-opacity="0">Ra-01SH</text>
<g class="stroked-text"><desc>Ra-01SH</desc>
<path d="M28.9643 45.7048
L29.2976 45.2286
" />
<path d="M29.5357 45.7048
L29.5357 44.7048
" />
<path d="M29.5357 44.7048
L29.1548 44.7048
" />
<path d="M29.1548 44.7048
L29.0595 44.7524
" />
<path d="M29.0595 44.7524
L29.0119 44.8001
" />
<path d="M29.0119 44.8001
L28.9643 44.8953
" />
<path d="M28.9643 44.8953
L28.9643 45.0382
" />
<path d="M28.9643 45.0382
L29.0119 45.1334
" />
<path d="M29.0119 45.1334
L29.0595 45.1810
" />
<path d="M29.0595 45.1810
L29.1548 45.2286
" />
<path d="M29.1548 45.2286
L29.5357 45.2286
" />
<path d="M28.1071 45.7048
L28.1071 45.1810
" />
<path d="M28.1071 45.1810
L28.1548 45.0858
" />
<path d="M28.1548 45.0858
L28.2500 45.0382
" />
<path d="M28.2500 45.0382
L28.4405 45.0382
" />
<path d="M28.4405 45.0382
L28.5357 45.0858
" />
<path d="M28.1071 45.6572
L28.2024 45.7048
" />
<path d="M28.2024 45.7048
L28.4405 45.7048
" />
<path d="M28.4405 45.7048
L28.5357 45.6572
" />
<path d="M28.5357 45.6572
L28.5833 45.5620
" />
<path d="M28.5833 45.5620
L28.5833 45.4667
" />
<path d="M28.5833 45.4667
L28.5357 45.3715
" />
<path d="M28.5357 45.3715
L28.4405 45.3239
" />
<path d="M28.4405 45.3239
L28.2024 45.3239
" />
<path d="M28.2024 45.3239
L28.1071 45.2762
" />
<path d="M27.6310 45.3239
L26.8690 45.3239
" />
<path d="M26.2024 44.7048
L26.1071 44.7048
" />
<path d="M26.1071 44.7048
L26.0119 44.7524
" />
<path d="M26.0119 44.7524
L25.9643 44.8001
" />
<path d="M25.9643 44.8001
L25.9167 44.8953
" />
<path d="M25.9167 44.8953
L25.8690 45.0858
" />
<path d="M25.8690 45.0858
L25.8690 45.3239
" />
<path d="M25.8690 45.3239
L25.9167 45.5143
" />
<path d="M25.9167 45.5143
L25.9643 45.6096
" />
<path d="M25.9643 45.6096
L26.0119 45.6572
" />
<path d="M26.0119 45.6572
L26.1071 45.7048
" />
<path d="M26.1071 45.7048
L26.2024 45.7048
" />
<path d="M26.2024 45.7048
L26.2976 45.6572
" />
<path d="M26.2976 45.6572
L26.3452 45.6096
" />
<path d="M26.3452 45.6096
L26.3929 45.5143
" />
<path d="M26.3929 45.5143
L26.4405 45.3239
" />
<path d="M26.4405 45.3239
L26.4405 45.0858
" />
<path d="M26.4405 45.0858
L26.3929 44.8953
" />
<path d="M26.3929 44.8953
L26.3452 44.8001
" />
<path d="M26.3452 44.8001
L26.2976 44.7524
" />
<path d="M26.2976 44.7524
L26.2024 44.7048
" />
<path d="M24.9167 45.7048
L25.4881 45.7048
" />
<path d="M25.2024 45.7048
L25.2024 44.7048
" />
<path d="M25.2024 44.7048
L25.2976 44.8477
" />
<path d="M25.2976 44.8477
L25.3929 44.9429
" />
<path d="M25.3929 44.9429
L25.4881 44.9905
" />
<path d="M24.5357 45.6572
L24.3929 45.7048
" />
<path d="M24.3929 45.7048
L24.1548 45.7048
" />
<path d="M24.1548 45.7048
L24.0595 45.6572
" />
<path d="M24.0595 45.6572
L24.0119 45.6096
" />
<path d="M24.0119 45.6096
L23.9643 45.5143
" />
<path d="M23.9643 45.5143
L23.9643 45.4191
" />
<path d="M23.9643 45.4191
L24.0119 45.3239
" />
<path d="M24.0119 45.3239
L24.0595 45.2762
" />
<path d="M24.0595 45.2762
L24.1548 45.2286
" />
<path d="M24.1548 45.2286
L24.3452 45.1810
" />
<path d="M24.3452 45.1810
L24.4405 45.1334
" />
<path d="M24.4405 45.1334
L24.4881 45.0858
" />
<path d="M24.4881 45.0858
L24.5357 44.9905
" />
<path d="M24.5357 44.9905
L24.5357 44.8953
" />
<path d="M24.5357 44.8953
L24.4881 44.8001
" />
<path d="M24.4881 44.8001
L24.4405 44.7524
" />
<path d="M24.4405 44.7524
L24.3452 44.7048
" />
<path d="M24.3452 44.7048
L24.1071 44.7048
" />
<path d="M24.1071 44.7048
L23.9643 44.7524
" />
<path d="M23.5357 45.7048
L23.5357 44.7048
" />
<path d="M23.5357 45.1810
L22.9643 45.1810
" />
<path d="M22.9643 45.7048
L22.9643 44.7048
" />
</g><text x="26.2500" y="54.5000"
transform="scale(-1 1) translate(-52.500000 0)"
textLength="2.2500" font-size="1.3333" lengthAdjust="spacingAndGlyphs"
text-anchor="middle" opacity="0" stroke-opacity="0">U3</text>
<g class="stroked-text"><desc>U3</desc>
<path d="M27.0119 53.4548
L27.0119 54.2643
" />
<path d="M27.0119 54.2643
L26.9643 54.3596
" />
<path d="M26.9643 54.3596
L26.9167 54.4072
" />
<path d="M26.9167 54.4072
L26.8214 54.4548
" />
<path d="M26.8214 54.4548
L26.6310 54.4548
" />
<path d="M26.6310 54.4548
L26.5357 54.4072
" />
<path d="M26.5357 54.4072
L26.4881 54.3596
" />
<path d="M26.4881 54.3596
L26.4405 54.2643
" />
<path d="M26.4405 54.2643
L26.4405 53.4548
" />
<path d="M26.0595 53.4548
L25.4405 53.4548
" />
<path d="M25.4405 53.4548
L25.7738 53.8358
" />
<path d="M25.7738 53.8358
L25.6310 53.8358
" />
<path d="M25.6310 53.8358
L25.5357 53.8834
" />
<path d="M25.5357 53.8834
L25.4881 53.9310
" />
<path d="M25.4881 53.9310
L25.4405 54.0262
" />
<path d="M25.4405 54.0262
L25.4405 54.2643
" />
<path d="M25.4405 54.2643
L25.4881 54.3596
" />
<path d="M25.4881 54.3596
L25.5357 54.4072
" />
<path d="M25.5357 54.4072
L25.6310 54.4548
" />
<path d="M25.6310 54.4548
L25.9167 54.4548
" />
<path d="M25.9167 54.4548
L26.0119 54.4072
" />
<path d="M26.0119 54.4072
L26.0595 54.3596
" />
</g></g>
<g style="fill:none; 
stroke:#585D84; stroke-width:0.1000; stroke-opacity:1; 
stroke-linecap:round; stroke-linejoin:round;">
<path d="M13.7200 6.6700
L85.6175 6.6700
" />
<path d="M13.7200 27.3300
L13.7200 6.6700
" />
<path d="M13.7200 27.3300
L90.7800 27.3300
" />
<path d="M90.7800 11.8325
L85.6175 6.6700
" />
<path d="M90.7800 27.3300
L90.7800 11.8325
" />
<path style="fill:none; 
stroke:#585D84; stroke-width:0.1200; stroke-opacity:1; 
stroke-linecap:round; stroke-linejoin:round;fill:none"
d="M 46.5000,53.9800
66.0000,53.9800
66.0000,34.4800
46.5000,34.4800
Z" /> 
</g>
<g style="fill:none; 
stroke:#585D84; stroke-width:0.3000; stroke-opacity:1; 
stroke-linecap:round; stroke-linejoin:round;">
<circle cx="45.4600" cy="50.7500" r="0.2059" /> 
</g>
<g style="fill:none; 
stroke:#585D84; stroke-width:0.1000; stroke-opacity:1; 
stroke-linecap:round; stroke-linejoin:round;">
<path d="M7.0000 58.5000
L14.0000 58.5000
" />
<path d="M7.0000 65.5000
L7.0000 58.5000
" />
<path d="M7.0000 65.5000
L14.0000 65.5000
" />
<path d="M14.0000 65.5000
L14.0000 58.5000
" />
<circle cx="10.5000" cy="62.0000" r="3.1750" /> 
</g>
<g style="fill:none; 
stroke:#585D84; stroke-width:0.1500; stroke-opacity:1; 
stroke-linecap:round; stroke-linejoin:round;">
<path d="M18.2500 46.5000
L34.2500 46.5000
" />
<path d="M18.2500 63.5000
L18.2500 46.5000
" />
<path d="M34.2500 46.5000
L34.2500 63.5000
" />
<path d="M34.2500 63.5000
L18.2500 63.5000
" />
</g>
<g style="fill:none; 
stroke:#D0D2CD; stroke-width:0.1000; stroke-opacity:1; 
stroke-linecap:round; stroke-linejoin:round;">
<path d="M100.0984 75.5001 A3.7501 3.7501 0.0 0 0 103.8484 71.7500" />
<path d="M4.2500 71.7500
L4.2500 7.2500
" />
<path d="M8.0000 3.5000 A3.7500 3.7500 0.0 0 0 4.2500 7.2500" />
<path d="M4.2500 71.7500 A3.7500 3.7500 0.0 0 0 8.0000 75.5000" />
<path d="M8.0000 3.5000
L100.0983 3.5000
" />
<path d="M103.8483 7.2500 A3.7500 3.7500 0.0 0 0 100.0983 3.5000" />
<path d="M103.8483 7.2500
L103.8484 71.7500
" />
<path d="M8.0000 75.5000
L100.0984 75.5000
" />
</g> 
</svg>
