<?xml version="1.0" standalone="no"?>
 <!DOCTYPE svg PUBLIC "-//W3C//DTD SVG 1.1//EN" 
 "http://www.w3.org/Graphics/SVG/1.1/DTD/svg11.dtd"> 
<svg
  xmlns:svg="http://www.w3.org/2000/svg"
  xmlns="http://www.w3.org/2000/svg"
  xmlns:xlink="http://www.w3.org/1999/xlink"
  version="1.1"
  width="110.9980mm" height="80.7466mm" viewBox="0.0000 0.0000 110.9980 80.7466">
<title>SVG Image created as time_terminal-Edge_Cuts.svg date 2025/07/22 15:40:31 </title>
  <desc>Image generated by PCBNEW </desc>
<g style="fill:#000000; fill-opacity:1.0000;stroke:#000000; stroke-opacity:1.0000;
stroke-linecap:round; stroke-linejoin:round;"
 transform="translate(0 0) scale(1 1)">
</g>
<g style="fill:none; 
stroke:#D0D2CD; stroke-width:0.1000; stroke-opacity:1; 
stroke-linecap:round; stroke-linejoin:round;">
<path d="M100.0984 75.5001 A3.7501 3.7501 0.0 0 0 103.8484 71.7500" />
<path d="M4.2500 71.7500
L4.2500 7.2500
" />
<path d="M8.0000 3.5000 A3.7500 3.7500 0.0 0 0 4.2500 7.2500" />
<path d="M4.2500 71.7500 A3.7500 3.7500 0.0 0 0 8.0000 75.5000" />
<path d="M8.0000 3.5000
L100.0983 3.5000
" />
<path d="M103.8483 7.2500 A3.7500 3.7500 0.0 0 0 100.0983 3.5000" />
<path d="M103.8483 7.2500
L103.8484 71.7500
" />
<path d="M8.0000 75.5000
L100.0984 75.5000
" />
</g>
<g style="fill:none; 
stroke:#D0D2CD; stroke-width:0.1000; stroke-opacity:1; 
stroke-linecap:round; stroke-linejoin:round;">
<path d="M100.0984 75.5001 A3.7501 3.7501 0.0 0 0 103.8484 71.7500" />
<path d="M4.2500 71.7500
L4.2500 7.2500
" />
<path d="M8.0000 3.5000 A3.7500 3.7500 0.0 0 0 4.2500 7.2500" />
<path d="M4.2500 71.7500 A3.7500 3.7500 0.0 0 0 8.0000 75.5000" />
<path d="M8.0000 3.5000
L100.0983 3.5000
" />
<path d="M103.8483 7.2500 A3.7500 3.7500 0.0 0 0 100.0983 3.5000" />
<path d="M103.8483 7.2500
L103.8484 71.7500
" />
<path d="M8.0000 75.5000
L100.0984 75.5000
" />
</g> 
</svg>
