%TF.GenerationSoftware,KiCad,Pcbnew,8.0.4+dfsg-1*%
%TF.CreationDate,2025-03-09T22:36:11+01:00*%
%TF.ProjectId,time_terminal,74696d65-5f74-4657-926d-696e616c2e6b,rev?*%
%TF.SameCoordinates,Original*%
%TF.FileFunction,Soldermask,Top*%
%TF.FilePolarity,Negative*%
%FSLAX46Y46*%
G04 Gerber Fmt 4.6, Leading zero omitted, Abs format (unit mm)*
G04 Created by KiCad (PCBNEW 8.0.4+dfsg-1) date 2025-03-09 22:36:11*
%MOMM*%
%LPD*%
G01*
G04 APERTURE LIST*
G04 Aperture macros list*
%AMRoundRect*
0 Rectangle with rounded corners*
0 $1 Rounding radius*
0 $2 $3 $4 $5 $6 $7 $8 $9 X,Y pos of 4 corners*
0 Add a 4 corners polygon primitive as box body*
4,1,4,$2,$3,$4,$5,$6,$7,$8,$9,$2,$3,0*
0 Add four circle primitives for the rounded corners*
1,1,$1+$1,$2,$3*
1,1,$1+$1,$4,$5*
1,1,$1+$1,$6,$7*
1,1,$1+$1,$8,$9*
0 Add four rect primitives between the rounded corners*
20,1,$1+$1,$2,$3,$4,$5,0*
20,1,$1+$1,$4,$5,$6,$7,0*
20,1,$1+$1,$6,$7,$8,$9,0*
20,1,$1+$1,$8,$9,$2,$3,0*%
%AMFreePoly0*
4,1,13,0.900000,0.500000,2.600000,0.500000,2.600000,-0.500000,0.900000,-0.500000,0.400000,-1.000000,-0.400000,-1.000000,-0.900000,-0.500000,-2.600000,-0.500000,-2.600000,0.500000,-0.900000,0.500000,-0.400000,1.000000,0.400000,1.000000,0.900000,0.500000,0.900000,0.500000,$1*%
G04 Aperture macros list end*
%ADD10R,1.000000X0.750000*%
%ADD11O,1.700000X1.700000*%
%ADD12R,1.700000X1.700000*%
%ADD13R,0.990600X0.812800*%
%ADD14R,0.711200X1.498600*%
%ADD15C,1.397000*%
%ADD16C,0.700000*%
%ADD17C,4.400000*%
%ADD18R,0.900000X1.500000*%
%ADD19R,1.500000X0.900000*%
%ADD20C,0.600000*%
%ADD21R,4.200000X4.200000*%
%ADD22RoundRect,0.150000X0.825000X0.150000X-0.825000X0.150000X-0.825000X-0.150000X0.825000X-0.150000X0*%
%ADD23RoundRect,0.175000X0.575000X0.175000X-0.575000X0.175000X-0.575000X-0.175000X0.575000X-0.175000X0*%
%ADD24FreePoly0,180.000000*%
%ADD25R,0.711200X0.254000*%
%ADD26R,0.889000X1.295400*%
%ADD27RoundRect,0.150000X-0.512500X-0.150000X0.512500X-0.150000X0.512500X0.150000X-0.512500X0.150000X0*%
%ADD28R,0.750000X1.000000*%
%ADD29C,2.000000*%
%ADD30R,2.000000X3.200000*%
%ADD31R,2.000000X2.000000*%
%ADD32RoundRect,0.237500X0.250000X0.237500X-0.250000X0.237500X-0.250000X-0.237500X0.250000X-0.237500X0*%
%ADD33RoundRect,0.237500X-0.250000X-0.237500X0.250000X-0.237500X0.250000X0.237500X-0.250000X0.237500X0*%
%ADD34RoundRect,0.237500X0.237500X-0.250000X0.237500X0.250000X-0.237500X0.250000X-0.237500X-0.250000X0*%
%ADD35RoundRect,0.237500X-0.237500X0.250000X-0.237500X-0.250000X0.237500X-0.250000X0.237500X0.250000X0*%
%ADD36RoundRect,0.150000X0.512500X0.150000X-0.512500X0.150000X-0.512500X-0.150000X0.512500X-0.150000X0*%
%ADD37RoundRect,0.150000X0.150000X-0.587500X0.150000X0.587500X-0.150000X0.587500X-0.150000X-0.587500X0*%
%ADD38RoundRect,0.100000X0.225000X0.100000X-0.225000X0.100000X-0.225000X-0.100000X0.225000X-0.100000X0*%
%ADD39C,0.650000*%
%ADD40RoundRect,0.150000X0.500000X-0.150000X0.500000X0.150000X-0.500000X0.150000X-0.500000X-0.150000X0*%
%ADD41RoundRect,0.075000X0.575000X-0.075000X0.575000X0.075000X-0.575000X0.075000X-0.575000X-0.075000X0*%
%ADD42O,2.100000X1.000000*%
%ADD43O,1.600000X1.000000*%
%ADD44C,2.050000*%
%ADD45C,2.250000*%
%ADD46O,1.600000X2.000000*%
%ADD47RoundRect,0.218750X-0.218750X-0.256250X0.218750X-0.256250X0.218750X0.256250X-0.218750X0.256250X0*%
%ADD48RoundRect,0.250000X-0.300000X-0.300000X0.300000X-0.300000X0.300000X0.300000X-0.300000X0.300000X0*%
%ADD49RoundRect,0.218750X0.218750X0.256250X-0.218750X0.256250X-0.218750X-0.256250X0.218750X-0.256250X0*%
%ADD50RoundRect,0.218750X-0.256250X0.218750X-0.256250X-0.218750X0.256250X-0.218750X0.256250X0.218750X0*%
%ADD51RoundRect,0.225000X0.250000X-0.225000X0.250000X0.225000X-0.250000X0.225000X-0.250000X-0.225000X0*%
%ADD52RoundRect,0.225000X-0.225000X-0.250000X0.225000X-0.250000X0.225000X0.250000X-0.225000X0.250000X0*%
%ADD53RoundRect,0.225000X-0.250000X0.225000X-0.250000X-0.225000X0.250000X-0.225000X0.250000X0.225000X0*%
%ADD54RoundRect,0.225000X0.225000X0.250000X-0.225000X0.250000X-0.225000X-0.250000X0.225000X-0.250000X0*%
%ADD55C,2.390000*%
%ADD56C,3.450000*%
G04 APERTURE END LIST*
D10*
%TO.C,SW2*%
X69500000Y-56250000D03*
X75500000Y-56250000D03*
X69500000Y-60000000D03*
X75500000Y-60000000D03*
%TD*%
D11*
%TO.C,J1*%
X121030000Y-113000000D03*
X118490000Y-113000000D03*
X115950000Y-113000000D03*
X113410000Y-113000000D03*
X110870000Y-113000000D03*
X108330000Y-113000000D03*
X105790000Y-113000000D03*
D12*
X103250000Y-113000000D03*
%TD*%
D13*
%TO.C,SW6*%
X141406460Y-55000000D03*
D14*
X137014800Y-57809600D03*
D13*
X134106500Y-55000000D03*
X134106500Y-57200000D03*
D14*
X139999300Y-57809600D03*
D13*
X141406460Y-57200000D03*
D15*
X139250000Y-56100000D03*
X136252800Y-56100000D03*
D14*
X135516200Y-57809600D03*
%TD*%
D16*
%TO.C,H4*%
X153698350Y-122250000D03*
X154181624Y-121083274D03*
X154181624Y-123416726D03*
X155348350Y-120600000D03*
D17*
X155348350Y-122250000D03*
D16*
X155348350Y-123900000D03*
X156515076Y-121083274D03*
X156515076Y-123416726D03*
X156998350Y-122250000D03*
%TD*%
%TO.C,H3*%
X61600001Y-122249999D03*
X62083275Y-121083273D03*
X62083275Y-123416725D03*
X63250001Y-120599999D03*
D17*
X63250001Y-122249999D03*
D16*
X63250001Y-123899999D03*
X64416727Y-121083273D03*
X64416727Y-123416725D03*
X64900001Y-122249999D03*
%TD*%
%TO.C,H2*%
X156998350Y-57750000D03*
X156515076Y-58916726D03*
X156515076Y-56583274D03*
X155348350Y-59400000D03*
D17*
X155348350Y-57750000D03*
D16*
X155348350Y-56100000D03*
X154181624Y-58916726D03*
X154181624Y-56583274D03*
X153698350Y-57750000D03*
%TD*%
%TO.C,H1*%
X61600000Y-57750000D03*
X62083274Y-56583274D03*
X62083274Y-58916726D03*
X63250000Y-56100000D03*
D17*
X63250000Y-57750000D03*
D16*
X63250000Y-59400000D03*
X64416726Y-56583274D03*
X64416726Y-58916726D03*
X64900000Y-57750000D03*
%TD*%
D18*
%TO.C,U2*%
X69185000Y-87000000D03*
X70455000Y-87000000D03*
X71725000Y-87000000D03*
X72995000Y-87000000D03*
X74265000Y-87000000D03*
X75535000Y-87000000D03*
X76805000Y-87000000D03*
X78075000Y-87000000D03*
X79345000Y-87000000D03*
X80615000Y-87000000D03*
X81885000Y-87000000D03*
X83155000Y-87000000D03*
X84425000Y-87000000D03*
X85695000Y-87000000D03*
D19*
X86945000Y-83960000D03*
X86945000Y-82690000D03*
X86945000Y-81420000D03*
X86945000Y-80150000D03*
X86945000Y-78880000D03*
X86945000Y-77610000D03*
X86945000Y-76340000D03*
X86945000Y-75070000D03*
X86945000Y-73800000D03*
X86945000Y-72530000D03*
D18*
X85695000Y-69500000D03*
X84425000Y-69500000D03*
X83155000Y-69500000D03*
X81885000Y-69500000D03*
X80615000Y-69500000D03*
X79345000Y-69500000D03*
X78075000Y-69500000D03*
X76805000Y-69500000D03*
X75535000Y-69500000D03*
X74265000Y-69500000D03*
X72995000Y-69500000D03*
X71725000Y-69500000D03*
X70455000Y-69500000D03*
X69185000Y-69500000D03*
D20*
X75762500Y-80455000D03*
X77287500Y-80455000D03*
X75000000Y-79692500D03*
X76525000Y-79692500D03*
X78050000Y-79692500D03*
X75762500Y-78930000D03*
D21*
X76525000Y-78930000D03*
D20*
X77287500Y-78930000D03*
X75000000Y-78167500D03*
X76525000Y-78167500D03*
X78050000Y-78167500D03*
X75762500Y-77405000D03*
X77287500Y-77405000D03*
%TD*%
D22*
%TO.C,U7*%
X144725000Y-83080000D03*
X144725000Y-81810000D03*
X144725000Y-80540000D03*
X144725000Y-79270000D03*
X144725000Y-78000000D03*
X144725000Y-76730000D03*
X144725000Y-75460000D03*
X144725000Y-74190000D03*
X139775000Y-74190000D03*
X139775000Y-75460000D03*
X139775000Y-76730000D03*
X139775000Y-78000000D03*
X139775000Y-79270000D03*
X139775000Y-80540000D03*
X139775000Y-81810000D03*
X139775000Y-83080000D03*
%TD*%
D23*
%TO.C,U6*%
X140900000Y-69000000D03*
X140900000Y-66000000D03*
X144600000Y-66000000D03*
D24*
X142750000Y-67500000D03*
D23*
X144600000Y-69000000D03*
%TD*%
D25*
%TO.C,U5*%
X134000000Y-64250001D03*
X134000000Y-63750000D03*
X134000000Y-63250000D03*
X134000000Y-62749999D03*
X131993400Y-62749999D03*
X131993400Y-63250000D03*
X131993400Y-63750000D03*
X131993400Y-64250001D03*
D26*
X132996700Y-63500000D03*
%TD*%
D27*
%TO.C,U4*%
X152137500Y-65550000D03*
X152137500Y-67450000D03*
X149862500Y-67450000D03*
X149862500Y-66500000D03*
X149862500Y-65550000D03*
%TD*%
D28*
%TO.C,SW5*%
X155375000Y-111750000D03*
X155375000Y-117750000D03*
X151625000Y-111750000D03*
X151625000Y-117750000D03*
%TD*%
D10*
%TO.C,SW4*%
X90000000Y-60000000D03*
X84000000Y-60000000D03*
X90000000Y-56250000D03*
X84000000Y-56250000D03*
%TD*%
D28*
%TO.C,SW3*%
X155375000Y-102250000D03*
X155375000Y-108250000D03*
X151625000Y-102250000D03*
X151625000Y-108250000D03*
%TD*%
D29*
%TO.C,SW1*%
X138250000Y-102750000D03*
X143250000Y-102750000D03*
D30*
X146350000Y-109750000D03*
X135150000Y-109750000D03*
D29*
X140750000Y-117250000D03*
X143250000Y-117250000D03*
D31*
X138250000Y-117250000D03*
%TD*%
D32*
%TO.C,R15*%
X152500000Y-95200000D03*
X150675000Y-95200000D03*
%TD*%
D33*
%TO.C,R14*%
X119175000Y-121250000D03*
X121000000Y-121250000D03*
%TD*%
D32*
%TO.C,R13*%
X149250000Y-77385000D03*
X147425000Y-77385000D03*
%TD*%
%TO.C,R12*%
X149250000Y-79635000D03*
X147425000Y-79635000D03*
%TD*%
%TO.C,R11*%
X149250000Y-75635000D03*
X147425000Y-75635000D03*
%TD*%
D33*
%TO.C,R10*%
X147425000Y-81385000D03*
X149250000Y-81385000D03*
%TD*%
D32*
%TO.C,R9*%
X143087500Y-71250000D03*
X144912500Y-71250000D03*
%TD*%
%TO.C,R7*%
X147425000Y-73750000D03*
X149250000Y-73750000D03*
%TD*%
%TO.C,R6*%
X105000000Y-121250000D03*
X103175000Y-121250000D03*
%TD*%
D33*
%TO.C,R5*%
X133675000Y-83500000D03*
X135500000Y-83500000D03*
%TD*%
D34*
%TO.C,R4*%
X131500000Y-81575000D03*
X131500000Y-79750000D03*
%TD*%
D35*
%TO.C,R3*%
X155500000Y-68825000D03*
X155500000Y-67000000D03*
%TD*%
D32*
%TO.C,R2*%
X150250000Y-63500000D03*
X152075000Y-63500000D03*
%TD*%
D33*
%TO.C,R1*%
X73912500Y-90000000D03*
X72087500Y-90000000D03*
%TD*%
D36*
%TO.C,Q3*%
X150250000Y-91750000D03*
X152525000Y-90800000D03*
X152525000Y-92700000D03*
%TD*%
D37*
%TO.C,Q2*%
X139050000Y-61937500D03*
X140950000Y-61937500D03*
X140000000Y-60062500D03*
%TD*%
D38*
%TO.C,Q1*%
X133600000Y-81250000D03*
X133600000Y-80600000D03*
X133600000Y-79950000D03*
X135500000Y-79950000D03*
X135500000Y-80600000D03*
X135500000Y-81250000D03*
%TD*%
D39*
%TO.C,J5*%
X153895000Y-81525000D03*
X153895000Y-75745000D03*
D40*
X152755000Y-81835000D03*
X152755000Y-81035000D03*
D41*
X152755000Y-79885000D03*
X152755000Y-78885000D03*
X152755000Y-78385000D03*
X152755000Y-77385000D03*
D40*
X152755000Y-76235000D03*
X152755000Y-75435000D03*
X152755000Y-75435000D03*
X152755000Y-76235000D03*
D41*
X152755000Y-76885000D03*
X152755000Y-77885000D03*
X152755000Y-79385000D03*
X152755000Y-80385000D03*
D40*
X152755000Y-81035000D03*
X152755000Y-81835000D03*
D42*
X153395000Y-82955000D03*
D43*
X157575000Y-82955000D03*
D42*
X153395000Y-74315000D03*
D43*
X157575000Y-74315000D03*
%TD*%
D44*
%TO.C,J3*%
X65750000Y-112500000D03*
D45*
X68290000Y-109960000D03*
X68290000Y-115040000D03*
X63210000Y-109960000D03*
X63210000Y-115040000D03*
%TD*%
D46*
%TO.C,J2*%
X78580000Y-93250000D03*
X76040000Y-93250000D03*
X70960000Y-93250000D03*
X73500000Y-93250000D03*
%TD*%
D47*
%TO.C,D4*%
X115425000Y-121250000D03*
X117000000Y-121250000D03*
%TD*%
D48*
%TO.C,D3*%
X150250000Y-71250000D03*
X147450000Y-71250000D03*
%TD*%
D49*
%TO.C,D2*%
X108750000Y-121250000D03*
X107175000Y-121250000D03*
%TD*%
D50*
%TO.C,D1*%
X155500000Y-65075000D03*
X155500000Y-63500000D03*
%TD*%
D51*
%TO.C,C11*%
X136750000Y-65725000D03*
X136750000Y-67275000D03*
%TD*%
%TO.C,C10*%
X138750000Y-65750000D03*
X138750000Y-67300000D03*
%TD*%
D52*
%TO.C,C9*%
X147450000Y-83135000D03*
X149000000Y-83135000D03*
%TD*%
%TO.C,C8*%
X144550000Y-62000000D03*
X143000000Y-62000000D03*
%TD*%
D53*
%TO.C,C6*%
X136750000Y-63550000D03*
X136750000Y-62000000D03*
%TD*%
D54*
%TO.C,C5*%
X133725000Y-60000000D03*
X135275000Y-60000000D03*
%TD*%
D52*
%TO.C,C4*%
X153800000Y-71250000D03*
X152250000Y-71250000D03*
%TD*%
D54*
%TO.C,C3*%
X70250000Y-90000000D03*
X68700000Y-90000000D03*
%TD*%
D52*
%TO.C,C2*%
X123450000Y-121250000D03*
X125000000Y-121250000D03*
%TD*%
%TO.C,C1*%
X123450000Y-118750000D03*
X125000000Y-118750000D03*
%TD*%
D31*
%TO.C,BZ1*%
X137879216Y-91750000D03*
D29*
X142879216Y-91750000D03*
%TD*%
D55*
%TO.C,J4*%
X143430000Y-59500000D03*
D56*
X135100000Y-75500000D03*
X79900000Y-59500000D03*
%TD*%
M02*
