%TF.GenerationSoftware,KiCad,Pcbnew,8.0.4+dfsg-1*%
%TF.CreationDate,2025-03-09T22:36:11+01:00*%
%TF.ProjectId,time_terminal,74696d65-5f74-4657-926d-696e616c2e6b,rev?*%
%TF.SameCoordinates,Original*%
%TF.FileFunction,Copper,L2,Bot*%
%TF.FilePolarity,Positive*%
%FSLAX46Y46*%
G04 Gerber Fmt 4.6, Leading zero omitted, Abs format (unit mm)*
G04 Created by KiCad (PCBNEW 8.0.4+dfsg-1) date 2025-03-09 22:36:11*
%MOMM*%
%LPD*%
G01*
G04 APERTURE LIST*
%TA.AperFunction,ComponentPad*%
%ADD10O,1.700000X1.700000*%
%TD*%
%TA.AperFunction,ComponentPad*%
%ADD11R,1.700000X1.700000*%
%TD*%
%TA.AperFunction,ComponentPad*%
%ADD12C,1.397000*%
%TD*%
%TA.AperFunction,ComponentPad*%
%ADD13C,0.700000*%
%TD*%
%TA.AperFunction,ComponentPad*%
%ADD14C,4.400000*%
%TD*%
%TA.AperFunction,HeatsinkPad*%
%ADD15C,0.600000*%
%TD*%
%TA.AperFunction,SMDPad,CuDef*%
%ADD16R,2.000000X1.500000*%
%TD*%
%TA.AperFunction,SMDPad,CuDef*%
%ADD17R,2.500000X1.000000*%
%TD*%
%TA.AperFunction,ComponentPad*%
%ADD18C,2.000000*%
%TD*%
%TA.AperFunction,ComponentPad*%
%ADD19R,2.000000X3.200000*%
%TD*%
%TA.AperFunction,ComponentPad*%
%ADD20R,2.000000X2.000000*%
%TD*%
%TA.AperFunction,ComponentPad*%
%ADD21O,2.100000X1.000000*%
%TD*%
%TA.AperFunction,ComponentPad*%
%ADD22O,1.600000X1.000000*%
%TD*%
%TA.AperFunction,ComponentPad*%
%ADD23C,2.050000*%
%TD*%
%TA.AperFunction,ComponentPad*%
%ADD24C,2.250000*%
%TD*%
%TA.AperFunction,ComponentPad*%
%ADD25O,1.600000X2.000000*%
%TD*%
%TA.AperFunction,SMDPad,CuDef*%
%ADD26R,7.340000X6.350000*%
%TD*%
%TA.AperFunction,ViaPad*%
%ADD27C,0.600000*%
%TD*%
%TA.AperFunction,Conductor*%
%ADD28C,0.400000*%
%TD*%
%TA.AperFunction,Conductor*%
%ADD29C,0.800000*%
%TD*%
%TA.AperFunction,Conductor*%
%ADD30C,0.200000*%
%TD*%
G04 APERTURE END LIST*
D10*
%TO.P,J1,8,Pin_8*%
%TO.N,+3.3V*%
X121030000Y-113000000D03*
%TO.P,J1,7,Pin_7*%
%TO.N,RFID_RST*%
X118490000Y-113000000D03*
%TO.P,J1,6,Pin_6*%
%TO.N,GND*%
X115950000Y-113000000D03*
%TO.P,J1,5,Pin_5*%
%TO.N,unconnected-(J1-Pin_5-Pad5)*%
X113410000Y-113000000D03*
%TO.P,J1,4,Pin_4*%
%TO.N,SPI_MISO*%
X110870000Y-113000000D03*
%TO.P,J1,3,Pin_3*%
%TO.N,SPI_MOSI*%
X108330000Y-113000000D03*
%TO.P,J1,2,Pin_2*%
%TO.N,SPI_SCK*%
X105790000Y-113000000D03*
D11*
%TO.P,J1,1,Pin_1*%
%TO.N,RFID_CS*%
X103250000Y-113000000D03*
%TD*%
D12*
%TO.P,SW6,5*%
%TO.N,N/C*%
X139250000Y-56100000D03*
%TO.P,SW6,6*%
X136252800Y-56100000D03*
%TD*%
D13*
%TO.P,H4,1,1*%
%TO.N,GND*%
X153698350Y-122250000D03*
X154181624Y-121083274D03*
X154181624Y-123416726D03*
X155348350Y-120600000D03*
D14*
X155348350Y-122250000D03*
D13*
X155348350Y-123900000D03*
X156515076Y-121083274D03*
X156515076Y-123416726D03*
X156998350Y-122250000D03*
%TD*%
%TO.P,H3,1,1*%
%TO.N,GND*%
X61600001Y-122249999D03*
X62083275Y-121083273D03*
X62083275Y-123416725D03*
X63250001Y-120599999D03*
D14*
X63250001Y-122249999D03*
D13*
X63250001Y-123899999D03*
X64416727Y-121083273D03*
X64416727Y-123416725D03*
X64900001Y-122249999D03*
%TD*%
%TO.P,H2,1,1*%
%TO.N,GND*%
X156998350Y-57750000D03*
X156515076Y-58916726D03*
X156515076Y-56583274D03*
X155348350Y-59400000D03*
D14*
X155348350Y-57750000D03*
D13*
X155348350Y-56100000D03*
X154181624Y-58916726D03*
X154181624Y-56583274D03*
X153698350Y-57750000D03*
%TD*%
%TO.P,H1,1,1*%
%TO.N,GND*%
X61600000Y-57750000D03*
X62083274Y-56583274D03*
X62083274Y-58916726D03*
X63250000Y-56100000D03*
D14*
X63250000Y-57750000D03*
D13*
X63250000Y-59400000D03*
X64416726Y-56583274D03*
X64416726Y-58916726D03*
X64900000Y-57750000D03*
%TD*%
D15*
%TO.P,U2,39,GND*%
%TO.N,GND*%
X75762500Y-80455000D03*
X77287500Y-80455000D03*
X75000000Y-79692500D03*
X76525000Y-79692500D03*
X78050000Y-79692500D03*
X75762500Y-78930000D03*
X77287500Y-78930000D03*
X75000000Y-78167500D03*
X76525000Y-78167500D03*
X78050000Y-78167500D03*
X75762500Y-77405000D03*
X77287500Y-77405000D03*
%TD*%
D16*
%TO.P,U3,1,ANT*%
%TO.N,Net-(J3-In)*%
X73500000Y-112500000D03*
%TO.P,U3,2,GND*%
%TO.N,GND*%
X73500000Y-110500000D03*
%TO.P,U3,3,VDD*%
%TO.N,+3.3V*%
X73500000Y-108500000D03*
%TO.P,U3,4,~{RESET}*%
%TO.N,LORA_RST*%
X73500000Y-106500000D03*
%TO.P,U3,5,DIO0*%
%TO.N,LORA_DIO0*%
X73500000Y-104500000D03*
%TO.P,U3,6,DIO1*%
%TO.N,unconnected-(U3-DIO1-Pad6)*%
X73500000Y-102500000D03*
%TO.P,U3,7,DIO2*%
%TO.N,unconnected-(U3-DIO2-Pad7)*%
X73500000Y-100500000D03*
%TO.P,U3,8,DIO3*%
%TO.N,unconnected-(U3-DIO3-Pad8)*%
X73500000Y-98500000D03*
%TO.P,U3,9,GND*%
%TO.N,GND*%
X89500000Y-98500000D03*
%TO.P,U3,10,DIO4*%
%TO.N,unconnected-(U3-DIO4-Pad10)*%
X89500000Y-100500000D03*
%TO.P,U3,11,DIO5*%
%TO.N,unconnected-(U3-DIO5-Pad11)*%
X89500000Y-102500000D03*
%TO.P,U3,12,SCK*%
%TO.N,SPI_SCK*%
X89500000Y-104500000D03*
%TO.P,U3,13,MISO*%
%TO.N,SPI_MISO*%
X89500000Y-106500000D03*
%TO.P,U3,14,MOSI*%
%TO.N,SPI_MOSI*%
X89500000Y-108500000D03*
%TO.P,U3,15,~{NSS}*%
%TO.N,LORA_CS*%
X89500000Y-110500000D03*
%TO.P,U3,16,GND*%
%TO.N,GND*%
X89500000Y-112500000D03*
%TD*%
D17*
%TO.P,U1,1,RXD*%
%TO.N,GPS_RX*%
X103750000Y-101080000D03*
%TO.P,U1,2,TXD1*%
%TO.N,GPS_TX*%
X103750000Y-98540000D03*
%TO.P,U1,3,GND*%
%TO.N,GND*%
X103750000Y-96000000D03*
%TO.P,U1,4,VCC*%
%TO.N,+3.3V*%
X103750000Y-93460000D03*
%TO.P,U1,5,V_BCKP*%
X103750000Y-90920000D03*
%TO.P,U1,6,1PPS*%
%TO.N,unconnected-(U1-1PPS-Pad6)*%
X103750000Y-88380000D03*
%TO.P,U1,7,FORCE_ON*%
%TO.N,unconnected-(U1-FORCE_ON-Pad7)*%
X119250000Y-88380000D03*
%TO.P,U1,8,AADET_N*%
%TO.N,unconnected-(U1-AADET_N-Pad8)*%
X119250000Y-90920000D03*
%TO.P,U1,9,NC*%
%TO.N,unconnected-(U1-NC-Pad9)*%
X119250000Y-93460000D03*
%TO.P,U1,10,RESET*%
%TO.N,unconnected-(U1-RESET-Pad10)*%
X119250000Y-96000000D03*
%TO.P,U1,11,EX_ANT*%
%TO.N,unconnected-(U1-EX_ANT-Pad11)*%
X119250000Y-98540000D03*
%TO.P,U1,12,GND*%
%TO.N,GND*%
X119250000Y-101080000D03*
%TD*%
D18*
%TO.P,SW1,S2,S2*%
%TO.N,ROT_S*%
X138250000Y-102750000D03*
%TO.P,SW1,S1,S1*%
%TO.N,GND*%
X143250000Y-102750000D03*
D19*
%TO.P,SW1,MP*%
%TO.N,N/C*%
X146350000Y-109750000D03*
X135150000Y-109750000D03*
D18*
%TO.P,SW1,C,C*%
%TO.N,GND*%
X140750000Y-117250000D03*
%TO.P,SW1,B,B*%
%TO.N,ROT_B*%
X143250000Y-117250000D03*
D20*
%TO.P,SW1,A,A*%
%TO.N,ROT_A*%
X138250000Y-117250000D03*
%TD*%
D21*
%TO.P,J5,S1,SHIELD*%
%TO.N,GND*%
X153395000Y-82955000D03*
D22*
X157575000Y-82955000D03*
D21*
X153395000Y-74315000D03*
D22*
X157575000Y-74315000D03*
%TD*%
D23*
%TO.P,J3,1,In*%
%TO.N,Net-(J3-In)*%
X65750000Y-112500000D03*
D24*
%TO.P,J3,2,Ext*%
%TO.N,GND*%
X68290000Y-109960000D03*
X68290000Y-115040000D03*
X63210000Y-109960000D03*
X63210000Y-115040000D03*
%TD*%
D25*
%TO.P,J2,4,Pin_4*%
%TO.N,SDA*%
X78580000Y-93250000D03*
%TO.P,J2,3,Pin_3*%
%TO.N,SCL*%
X76040000Y-93250000D03*
%TO.P,J2,1,Pin_1*%
%TO.N,+3.3V*%
X70960000Y-93250000D03*
%TO.P,J2,2,Pin_2*%
%TO.N,GND*%
X73500000Y-93250000D03*
%TD*%
D20*
%TO.P,BZ1,1,+*%
%TO.N,+3.3V*%
X137879216Y-91750000D03*
D18*
%TO.P,BZ1,2,-*%
%TO.N,Net-(BZ1--)*%
X142879216Y-91750000D03*
%TD*%
D26*
%TO.P,J4,1,Pin_1*%
%TO.N,Net-(J4-Pin_1)*%
X146830000Y-67500000D03*
%TO.P,J4,2,Pin_2*%
%TO.N,GND*%
X68170000Y-67500000D03*
%TD*%
D27*
%TO.N,GND*%
X151250000Y-69250000D03*
X140250000Y-63500000D03*
X142250000Y-70000000D03*
X142250000Y-64500000D03*
X148750000Y-72500000D03*
X153750000Y-65500000D03*
X153750000Y-63750000D03*
X151250000Y-66500000D03*
X151250000Y-64500000D03*
X69000000Y-106750000D03*
X81000000Y-114250000D03*
X81000000Y-102500000D03*
X144000000Y-123500000D03*
X127750000Y-123500000D03*
X112000000Y-123500000D03*
X90150156Y-123145180D03*
X80900156Y-123145180D03*
X71500000Y-123500000D03*
X61500000Y-118250000D03*
X61500000Y-100750000D03*
X61500000Y-87750000D03*
X61500000Y-74750000D03*
X61500000Y-63000000D03*
X112750000Y-55500000D03*
X101500000Y-55500000D03*
X123250000Y-55500000D03*
X149750000Y-55500000D03*
X151000000Y-84500000D03*
X155500000Y-85000000D03*
X155500000Y-90500000D03*
X150250000Y-93500000D03*
X140250000Y-93750000D03*
X112750000Y-68500000D03*
X112750000Y-65500000D03*
X109750000Y-76750000D03*
X122750000Y-80500000D03*
X126500000Y-76500000D03*
X126500000Y-76500000D03*
X125000000Y-83250000D03*
X128500000Y-79500000D03*
X130000000Y-88500000D03*
X143250000Y-120000000D03*
X134750000Y-120000000D03*
X122500000Y-109250000D03*
X122500000Y-107500000D03*
X105000000Y-85500000D03*
X117250000Y-86000000D03*
X94750000Y-89250000D03*
X93000000Y-87750000D03*
X93000000Y-85750000D03*
X89750000Y-75750000D03*
X93000000Y-80000000D03*
X93000000Y-77750000D03*
X95250000Y-76250000D03*
X75750000Y-61500000D03*
X70500000Y-61500000D03*
X69500000Y-63250000D03*
X73000000Y-66000000D03*
X67000000Y-79750000D03*
X67250000Y-71750000D03*
X74000000Y-75250000D03*
X81750000Y-78500000D03*
X80000000Y-72750000D03*
X74000000Y-72500000D03*
X85250000Y-73000000D03*
X85250000Y-74500000D03*
X76250000Y-83750000D03*
X74000000Y-83750000D03*
X69250000Y-71750000D03*
X70750000Y-71750000D03*
X69500000Y-81000000D03*
X70500000Y-82000000D03*
X68000000Y-83000000D03*
X70250000Y-85250000D03*
X68750000Y-91750000D03*
X157500000Y-109750000D03*
X137500000Y-114500000D03*
X136000000Y-101500000D03*
X124250000Y-90000000D03*
X124250000Y-101000000D03*
X118250000Y-118000000D03*
X93750000Y-107750000D03*
X99500000Y-113500000D03*
X91500000Y-113750000D03*
X70250000Y-114250000D03*
X71500000Y-114250000D03*
X71500000Y-110750000D03*
X70250000Y-110750000D03*
X112000000Y-121250000D03*
X112250000Y-115000000D03*
X121000000Y-115000000D03*
X91500000Y-103000000D03*
X91500000Y-109750000D03*
X75500000Y-105750000D03*
X77250000Y-98000000D03*
X85000000Y-97750000D03*
X82750000Y-95500000D03*
X72250000Y-95250000D03*
X131000000Y-63000000D03*
X132000000Y-65500000D03*
X134500000Y-68500000D03*
X134500000Y-66750000D03*
X91750000Y-68500000D03*
X89500000Y-65500000D03*
X87000000Y-55000000D03*
X72750000Y-55000000D03*
X65000000Y-70000000D03*
X65000000Y-65000000D03*
X71250000Y-65000000D03*
X149250000Y-112250000D03*
X149250000Y-117250000D03*
X140750000Y-114500000D03*
X153500000Y-109750000D03*
X155500000Y-97250000D03*
X147500000Y-97250000D03*
X139750000Y-97250000D03*
X140500000Y-84750000D03*
X155500000Y-72500000D03*
X134000000Y-58500000D03*
X135500000Y-64500000D03*
X132000000Y-61250000D03*
X134250000Y-61500000D03*
X145500000Y-60250000D03*
X141500000Y-59750000D03*
X141500000Y-58250000D03*
X147250000Y-63250000D03*
X155250000Y-70250000D03*
X152250000Y-72750000D03*
X142500000Y-75250000D03*
X142750000Y-72750000D03*
X145500000Y-72750000D03*
%TO.N,DEF_LED*%
X89000000Y-82750000D03*
X104000000Y-119250000D03*
%TO.N,BTN_1*%
X93500000Y-76500000D03*
%TO.N,BTN_2*%
X94250000Y-79500000D03*
%TO.N,BTN_1*%
X150250000Y-99750000D03*
%TO.N,BTN_2*%
X149500000Y-109750000D03*
%TO.N,RESET*%
X73750000Y-85000000D03*
X132750000Y-80750000D03*
%TO.N,ROT_B*%
X89170038Y-81420000D03*
%TO.N,ROT_S*%
X89380005Y-78880005D03*
%TO.N,ROT_A*%
X89349997Y-80150003D03*
%TO.N,GPS_RX*%
X91750000Y-89500000D03*
%TO.N,GPS_TX*%
X90750000Y-88750000D03*
%TO.N,+3.3V*%
X100700000Y-90900000D03*
X101670000Y-90920000D03*
%TO.N,RFID_RST*%
X83250000Y-85250000D03*
X84500000Y-92250000D03*
%TO.N,SPI_MOSI*%
X92750000Y-108500000D03*
%TO.N,RFID_CS*%
X78075003Y-85325003D03*
X82499976Y-92250000D03*
%TO.N,SPI_SCK*%
X89250000Y-77750000D03*
%TO.N,SPI_MISO*%
X89000000Y-76500000D03*
%TO.N,SPI_MOSI*%
X88361284Y-75580331D03*
%TO.N,LORA_CS*%
X75500000Y-88750000D03*
%TO.N,LORA_DIO0*%
X77844669Y-89905331D03*
%TO.N,LORA_RST*%
X76625000Y-89250000D03*
%TO.N,SDA*%
X75500000Y-67750000D03*
%TO.N,SCL*%
X71750000Y-72750000D03*
%TO.N,BUZZER*%
X88750000Y-73750000D03*
X134061752Y-73311752D03*
%TO.N,ESP_0*%
X87000000Y-60000000D03*
X85446865Y-68303111D03*
X137000000Y-80250000D03*
%TO.N,CH340_RX*%
X142000000Y-80585411D03*
%TO.N,CH340_TX*%
X141969669Y-81669669D03*
X75405325Y-71749988D03*
%TO.N,CH340_RX*%
X73499988Y-70999988D03*
%TO.N,Net-(Q1B-B2)*%
X134500000Y-80250000D03*
X134750000Y-82000000D03*
%TO.N,V_USB*%
X139000000Y-63500000D03*
X150750000Y-72750000D03*
%TO.N,Net-(J4-Pin_1)*%
X136500000Y-59500000D03*
%TO.N,USB_D-*%
X146250000Y-76635000D03*
X146500000Y-79135000D03*
%TO.N,GND*%
X138000000Y-64500000D03*
X145750000Y-63250000D03*
%TO.N,Net-(J4-Pin_1)*%
X148750000Y-68750000D03*
X148750000Y-69500000D03*
%TD*%
D28*
%TO.N,Net-(J4-Pin_1)*%
X146580000Y-67250000D02*
X146830000Y-67500000D01*
X146250000Y-67250000D02*
X146580000Y-67250000D01*
X146250000Y-66920000D02*
X146250000Y-67250000D01*
%TO.N,DEF_LED*%
X104000000Y-119250000D02*
X119000000Y-119250000D01*
X119000000Y-119250000D02*
X123250000Y-115000000D01*
X123250000Y-115000000D02*
X123250000Y-112000000D01*
X123250000Y-112000000D02*
X121500000Y-110250000D01*
X121500000Y-110250000D02*
X110250000Y-110250000D01*
X110250000Y-110250000D02*
X89000000Y-89000000D01*
X89000000Y-89000000D02*
X89000000Y-82750000D01*
%TO.N,ROT_B*%
X143250000Y-117250000D02*
X143250000Y-118000000D01*
X143250000Y-118000000D02*
X142000000Y-119250000D01*
X142000000Y-119250000D02*
X136250000Y-119250000D01*
X136250000Y-119250000D02*
X121950000Y-104950000D01*
X121950000Y-104950000D02*
X121950000Y-88700000D01*
X121950000Y-88700000D02*
X117647792Y-84397792D01*
X117647792Y-84397792D02*
X92147830Y-84397792D01*
X92147830Y-84397792D02*
X89170038Y-81420000D01*
%TO.N,BTN_2*%
X149500000Y-105000000D02*
X149500000Y-109750000D01*
X138750000Y-100750000D02*
X145250000Y-100750000D01*
X118000000Y-80000000D02*
X138750000Y-100750000D01*
X94250000Y-79500000D02*
X94750000Y-80000000D01*
X145250000Y-100750000D02*
X149500000Y-105000000D01*
X94750000Y-80000000D02*
X118000000Y-80000000D01*
%TO.N,BTN_1*%
X150250000Y-99750000D02*
X139500000Y-99750000D01*
X139500000Y-99750000D02*
X118750000Y-79000000D01*
X118750000Y-79000000D02*
X96000000Y-79000000D01*
X96000000Y-79000000D02*
X93500000Y-76500000D01*
%TO.N,ROT_S*%
X138250000Y-102750000D02*
X138250000Y-101598528D01*
X138250000Y-101598528D02*
X118151472Y-81500000D01*
X118151472Y-81500000D02*
X92000000Y-81500000D01*
X92000000Y-81500000D02*
X89380005Y-78880005D01*
%TO.N,ESP_0*%
X85749976Y-68000000D02*
X85446865Y-68303111D01*
X85750000Y-68000000D02*
X85749976Y-68000000D01*
%TO.N,SPI_MOSI*%
X86900000Y-107300000D02*
X86900000Y-77041615D01*
%TO.N,ROT_A*%
X138250000Y-117250000D02*
X122550000Y-101550000D01*
%TO.N,RESET*%
X126830331Y-74830331D02*
X86919669Y-74830331D01*
%TO.N,ROT_A*%
X122550000Y-101550000D02*
X122550000Y-87550000D01*
%TO.N,SPI_MOSI*%
X86900000Y-77041615D02*
X88361284Y-75580331D01*
X89500000Y-108500000D02*
X88100000Y-108500000D01*
%TO.N,RESET*%
X79250000Y-82500000D02*
X76750000Y-85000000D01*
X76750000Y-85000000D02*
X73750000Y-85000000D01*
X86919669Y-74830331D02*
X79250000Y-82500000D01*
%TO.N,ROT_A*%
X122550000Y-87550000D02*
X118098528Y-83098528D01*
%TO.N,SPI_MOSI*%
X88100000Y-108500000D02*
X86900000Y-107300000D01*
%TO.N,ROT_A*%
X118098528Y-83098528D02*
X92298522Y-83098528D01*
X92298522Y-83098528D02*
X89349997Y-80150003D01*
%TO.N,RESET*%
X132750000Y-80750000D02*
X126830331Y-74830331D01*
%TO.N,ESP_0*%
X86625000Y-67125000D02*
X85750000Y-68000000D01*
%TO.N,SPI_MISO*%
X88100000Y-106500000D02*
X87500000Y-105900000D01*
%TO.N,SPI_SCK*%
X89500000Y-104500000D02*
X88950000Y-104500000D01*
X88950000Y-104500000D02*
X88100000Y-103650000D01*
%TO.N,SPI_MISO*%
X87500000Y-78000000D02*
X89000000Y-76500000D01*
%TO.N,SPI_SCK*%
X88100000Y-78900000D02*
X89250000Y-77750000D01*
X88100000Y-103650000D02*
X88100000Y-78900000D01*
%TO.N,SPI_MISO*%
X87500000Y-105900000D02*
X87500000Y-78000000D01*
X89500000Y-106500000D02*
X88100000Y-106500000D01*
%TO.N,GPS_TX*%
X103750000Y-98540000D02*
X102040000Y-98540000D01*
X102040000Y-98540000D02*
X92250000Y-88750000D01*
X92250000Y-88750000D02*
X90750000Y-88750000D01*
%TO.N,BUZZER*%
X133750000Y-73000000D02*
X134061752Y-73311752D01*
X88750000Y-73750000D02*
X89500000Y-73000000D01*
X89500000Y-73000000D02*
X133750000Y-73000000D01*
D29*
%TO.N,+3.3V*%
X101650000Y-90900000D02*
X101670000Y-90920000D01*
X100700000Y-90900000D02*
X101650000Y-90900000D01*
X103750000Y-90920000D02*
X101670000Y-90920000D01*
D28*
%TO.N,RFID_RST*%
X83250000Y-91000000D02*
X83250000Y-85250000D01*
X84500000Y-92250000D02*
X83250000Y-91000000D01*
%TO.N,SPI_MOSI*%
X89500000Y-108500000D02*
X92750000Y-108500000D01*
%TO.N,RFID_CS*%
X78075003Y-87825027D02*
X78075003Y-85325003D01*
X82499976Y-92250000D02*
X78075003Y-87825027D01*
%TO.N,LORA_CS*%
X86300000Y-97300000D02*
X77500000Y-88500000D01*
X75750000Y-88500000D02*
X75500000Y-88750000D01*
X88100000Y-110500000D02*
X86300000Y-108700000D01*
X77500000Y-88500000D02*
X75750000Y-88500000D01*
X86300000Y-108700000D02*
X86300000Y-97300000D01*
X89500000Y-110500000D02*
X88100000Y-110500000D01*
%TO.N,LORA_RST*%
X77534008Y-90655331D02*
X76625000Y-89746323D01*
X72100000Y-106500000D02*
X71750000Y-106150000D01*
X73500000Y-106500000D02*
X72100000Y-106500000D01*
X71750000Y-106150000D02*
X71750000Y-97700000D01*
X79835736Y-95565736D02*
X79835736Y-92532792D01*
X79835736Y-92532792D02*
X77958275Y-90655331D01*
X77958275Y-90655331D02*
X77534008Y-90655331D01*
X73884264Y-95565736D02*
X79835736Y-95565736D01*
X71750000Y-97700000D02*
X73884264Y-95565736D01*
X76625000Y-89746323D02*
X76625000Y-89250000D01*
%TO.N,LORA_DIO0*%
X76500000Y-96750000D02*
X80000000Y-96750000D01*
X75150000Y-104500000D02*
X76000000Y-103650000D01*
X76000000Y-97250000D02*
X76500000Y-96750000D01*
X76000000Y-103650000D02*
X76000000Y-97250000D01*
X81750000Y-93598528D02*
X78056803Y-89905331D01*
X81750000Y-95000000D02*
X81750000Y-93598528D01*
X80000000Y-96750000D02*
X81750000Y-95000000D01*
X78056803Y-89905331D02*
X77844669Y-89905331D01*
X73500000Y-104500000D02*
X75150000Y-104500000D01*
%TO.N,SPI_MISO*%
X89500000Y-106500000D02*
X94250000Y-106500000D01*
X110500000Y-115500000D02*
X110870000Y-115130000D01*
X94250000Y-106500000D02*
X103250000Y-115500000D01*
X103250000Y-115500000D02*
X110500000Y-115500000D01*
X110870000Y-115130000D02*
X110870000Y-113000000D01*
%TO.N,SPI_SCK*%
X89500000Y-104500000D02*
X99000000Y-104500000D01*
X99000000Y-104500000D02*
X105790000Y-111290000D01*
X105790000Y-111290000D02*
X105790000Y-113000000D01*
%TO.N,SDA*%
X75000000Y-67750000D02*
X75500000Y-67750000D01*
X72750000Y-70000000D02*
X75000000Y-67750000D01*
X72750000Y-87420000D02*
X72750000Y-70000000D01*
X78580000Y-93250000D02*
X72750000Y-87420000D01*
%TO.N,SCL*%
X71750000Y-88960000D02*
X71750000Y-72750000D01*
X76040000Y-93250000D02*
X71750000Y-88960000D01*
%TO.N,CH340_RX*%
X73499988Y-70999988D02*
X134749988Y-70999988D01*
X134749988Y-70999988D02*
X142000000Y-78250000D01*
X142000000Y-78250000D02*
X142000000Y-80585411D01*
%TO.N,ESP_0*%
X142330331Y-82419669D02*
X139169669Y-82419669D01*
X85750000Y-68000000D02*
X85750000Y-70000000D01*
X143250000Y-81500000D02*
X142330331Y-82419669D01*
X85750000Y-70000000D02*
X135000000Y-70000000D01*
X135000000Y-70000000D02*
X143250000Y-78250000D01*
X143250000Y-78250000D02*
X143250000Y-81500000D01*
X139169669Y-82419669D02*
X137000000Y-80250000D01*
%TO.N,CH340_TX*%
X75405325Y-71749988D02*
X134425902Y-71749988D01*
X134425902Y-71749988D02*
X141250000Y-78574086D01*
X141250000Y-80950000D02*
X141969669Y-81669669D01*
X141250000Y-78574086D02*
X141250000Y-80950000D01*
%TO.N,ESP_0*%
X87000000Y-66750000D02*
X86625000Y-67125000D01*
X87000000Y-60000000D02*
X87000000Y-66750000D01*
%TO.N,Net-(J4-Pin_1)*%
X136500000Y-59500000D02*
X138830000Y-59500000D01*
X138830000Y-59500000D02*
X146250000Y-66920000D01*
%TO.N,+3.3V*%
X73500000Y-108500000D02*
X72100000Y-108500000D01*
X72100000Y-108500000D02*
X70960000Y-107360000D01*
X70960000Y-107360000D02*
X70960000Y-93250000D01*
D29*
X101750000Y-91250000D02*
X101750000Y-92250000D01*
X101750000Y-92250000D02*
X101750000Y-92500000D01*
X103750000Y-90920000D02*
X102080000Y-90920000D01*
X101750000Y-92500000D02*
X102710000Y-93460000D01*
X102710000Y-93460000D02*
X103750000Y-93460000D01*
D30*
%TO.N,Net-(Q1B-B2)*%
X134750000Y-82000000D02*
X134750000Y-80500000D01*
X134750000Y-80500000D02*
X134500000Y-80250000D01*
D28*
%TO.N,Net-(J3-In)*%
X73500000Y-112500000D02*
X65750000Y-112500000D01*
%TO.N,V_USB*%
X139000000Y-69750000D02*
X139000000Y-63500000D01*
X140500000Y-71250000D02*
X139000000Y-69750000D01*
X149250000Y-71250000D02*
X150750000Y-72750000D01*
X140500000Y-71250000D02*
X149250000Y-71250000D01*
D30*
%TO.N,USB_D-*%
X146500000Y-76885000D02*
X146250000Y-76635000D01*
X146500000Y-79135000D02*
X146500000Y-76885000D01*
D28*
%TO.N,GPS_RX*%
X103330000Y-101080000D02*
X103750000Y-101080000D01*
X91750000Y-89500000D02*
X103330000Y-101080000D01*
%TD*%
%TA.AperFunction,Conductor*%
%TO.N,GND*%
G36*
X141973434Y-118119881D02*
G01*
X141997475Y-118083084D01*
X142044240Y-118051133D01*
X142099900Y-118061607D01*
X142121376Y-118083084D01*
X142141022Y-118113155D01*
X142141024Y-118113158D01*
X142163195Y-118137242D01*
X142182688Y-118190419D01*
X142161077Y-118239686D01*
X141772939Y-118627826D01*
X141720613Y-118649500D01*
X141607779Y-118649500D01*
X141555453Y-118627826D01*
X141533779Y-118575500D01*
X141555453Y-118523174D01*
X141570718Y-118511792D01*
X141570675Y-118511726D01*
X141571738Y-118511031D01*
X141572561Y-118510418D01*
X141573236Y-118510052D01*
X141620056Y-118473610D01*
X141620057Y-118473610D01*
X140879409Y-117732962D01*
X140942993Y-117715925D01*
X141057007Y-117650099D01*
X141150099Y-117557007D01*
X141215925Y-117442993D01*
X141232962Y-117379409D01*
X141973434Y-118119881D01*
G37*
%TD.AperFunction*%
%TA.AperFunction,Conductor*%
G36*
X77369867Y-93535221D02*
G01*
X77383089Y-93567141D01*
X77409059Y-93731115D01*
X77409062Y-93731128D01*
X77467449Y-93910824D01*
X77553239Y-94079198D01*
X77639803Y-94198343D01*
X77664310Y-94232073D01*
X77797927Y-94365690D01*
X77950801Y-94476760D01*
X78119168Y-94562547D01*
X78119171Y-94562547D01*
X78119175Y-94562550D01*
X78298871Y-94620937D01*
X78298877Y-94620938D01*
X78298882Y-94620940D01*
X78423306Y-94640646D01*
X78485518Y-94650500D01*
X78485519Y-94650500D01*
X78674482Y-94650500D01*
X78721140Y-94643110D01*
X78861118Y-94620940D01*
X78861125Y-94620937D01*
X78861128Y-94620937D01*
X79040826Y-94562549D01*
X79040826Y-94562548D01*
X79040832Y-94562547D01*
X79127642Y-94518314D01*
X79184103Y-94513871D01*
X79227170Y-94550653D01*
X79235236Y-94584249D01*
X79235236Y-94891236D01*
X79213562Y-94943562D01*
X79161236Y-94965236D01*
X73963321Y-94965236D01*
X73805207Y-94965236D01*
X73652479Y-95006159D01*
X73652478Y-95006159D01*
X73652476Y-95006160D01*
X73602359Y-95035096D01*
X73515547Y-95085216D01*
X71686826Y-96913938D01*
X71634500Y-96935612D01*
X71582174Y-96913938D01*
X71560500Y-96861612D01*
X71560500Y-94535315D01*
X71582174Y-94482989D01*
X71590999Y-94475451D01*
X71742073Y-94365690D01*
X71875690Y-94232073D01*
X71986760Y-94079199D01*
X72072547Y-93910832D01*
X72083243Y-93877915D01*
X72107311Y-93803839D01*
X72144093Y-93760772D01*
X72200556Y-93756328D01*
X72243623Y-93793110D01*
X72248067Y-93803838D01*
X72295241Y-93949022D01*
X72388139Y-94131349D01*
X72508411Y-94296888D01*
X72508420Y-94296898D01*
X72653102Y-94441580D01*
X72653111Y-94441588D01*
X72818650Y-94561860D01*
X73000978Y-94654759D01*
X73195578Y-94717989D01*
X73250000Y-94726607D01*
X73250000Y-93683012D01*
X73307007Y-93715925D01*
X73434174Y-93750000D01*
X73565826Y-93750000D01*
X73692993Y-93715925D01*
X73750000Y-93683012D01*
X73750000Y-94726606D01*
X73804421Y-94717989D01*
X73999021Y-94654759D01*
X74181349Y-94561860D01*
X74346888Y-94441588D01*
X74346898Y-94441580D01*
X74491580Y-94296898D01*
X74491588Y-94296888D01*
X74611860Y-94131349D01*
X74704759Y-93949021D01*
X74751932Y-93803839D01*
X74788715Y-93760771D01*
X74845177Y-93756328D01*
X74888245Y-93793111D01*
X74892688Y-93803839D01*
X74927449Y-93910824D01*
X75013239Y-94079198D01*
X75099803Y-94198343D01*
X75124310Y-94232073D01*
X75257927Y-94365690D01*
X75410801Y-94476760D01*
X75579168Y-94562547D01*
X75579171Y-94562547D01*
X75579175Y-94562550D01*
X75758871Y-94620937D01*
X75758877Y-94620938D01*
X75758882Y-94620940D01*
X75883306Y-94640646D01*
X75945518Y-94650500D01*
X75945519Y-94650500D01*
X76134482Y-94650500D01*
X76181140Y-94643110D01*
X76321118Y-94620940D01*
X76321125Y-94620937D01*
X76321128Y-94620937D01*
X76500824Y-94562550D01*
X76500826Y-94562548D01*
X76500832Y-94562547D01*
X76669199Y-94476760D01*
X76822073Y-94365690D01*
X76955690Y-94232073D01*
X77066760Y-94079199D01*
X77152547Y-93910832D01*
X77163243Y-93877915D01*
X77210937Y-93731128D01*
X77210937Y-93731125D01*
X77210940Y-93731118D01*
X77236911Y-93567140D01*
X77266504Y-93518850D01*
X77321576Y-93505628D01*
X77369867Y-93535221D01*
G37*
%TD.AperFunction*%
%TA.AperFunction,Conductor*%
G36*
X74686630Y-71622162D02*
G01*
X74708304Y-71674488D01*
X74707764Y-71683408D01*
X74699680Y-71749984D01*
X74699680Y-71749991D01*
X74720184Y-71918859D01*
X74780506Y-72077917D01*
X74809654Y-72120144D01*
X74877142Y-72217917D01*
X75004473Y-72330722D01*
X75155100Y-72409778D01*
X75320269Y-72450488D01*
X75320273Y-72450488D01*
X75490377Y-72450488D01*
X75490381Y-72450488D01*
X75655550Y-72409778D01*
X75752367Y-72358963D01*
X75786756Y-72350488D01*
X89147815Y-72350488D01*
X89200141Y-72372162D01*
X89221815Y-72424488D01*
X89200141Y-72476814D01*
X89184815Y-72488574D01*
X89131283Y-72519480D01*
X89019478Y-72631286D01*
X88595021Y-73055742D01*
X88560405Y-73075265D01*
X88499777Y-73090209D01*
X88349146Y-73169267D01*
X88349143Y-73169269D01*
X88221816Y-73282071D01*
X88125181Y-73422070D01*
X88064859Y-73581128D01*
X88044355Y-73749996D01*
X88044355Y-73750003D01*
X88064859Y-73918871D01*
X88125181Y-74077929D01*
X88149937Y-74113794D01*
X88161824Y-74169170D01*
X88131073Y-74216732D01*
X88089036Y-74229831D01*
X87003272Y-74229831D01*
X87003256Y-74229830D01*
X86998726Y-74229830D01*
X86840612Y-74229830D01*
X86840610Y-74229830D01*
X86687887Y-74270752D01*
X86687886Y-74270753D01*
X86687884Y-74270753D01*
X86687884Y-74270754D01*
X86660906Y-74286330D01*
X86550952Y-74349811D01*
X86439147Y-74461617D01*
X78881284Y-82019481D01*
X76522939Y-84377826D01*
X76470613Y-84399500D01*
X74131431Y-84399500D01*
X74097042Y-84391024D01*
X74000225Y-84340210D01*
X73875767Y-84309534D01*
X73835057Y-84299500D01*
X73835056Y-84299500D01*
X73664944Y-84299500D01*
X73664941Y-84299500D01*
X73499775Y-84340209D01*
X73458889Y-84361668D01*
X73402484Y-84366793D01*
X73358976Y-84330533D01*
X73350500Y-84296144D01*
X73350500Y-81171661D01*
X75399391Y-81171661D01*
X75413194Y-81180334D01*
X75413202Y-81180339D01*
X75583345Y-81239873D01*
X75583356Y-81239876D01*
X75762500Y-81260061D01*
X75941643Y-81239876D01*
X75941651Y-81239874D01*
X76111803Y-81180335D01*
X76125604Y-81171661D01*
X76924391Y-81171661D01*
X76938194Y-81180334D01*
X76938202Y-81180339D01*
X77108345Y-81239873D01*
X77108356Y-81239876D01*
X77287500Y-81260061D01*
X77466643Y-81239876D01*
X77466651Y-81239874D01*
X77636803Y-81180335D01*
X77650606Y-81171660D01*
X77287500Y-80808553D01*
X76924391Y-81171661D01*
X76125604Y-81171661D01*
X76125606Y-81171660D01*
X75762500Y-80808553D01*
X75399391Y-81171661D01*
X73350500Y-81171661D01*
X73350500Y-80409161D01*
X74636891Y-80409161D01*
X74650694Y-80417834D01*
X74650702Y-80417839D01*
X74820845Y-80477373D01*
X74820857Y-80477376D01*
X74903105Y-80486643D01*
X74952675Y-80514039D01*
X74968355Y-80551892D01*
X74977623Y-80634143D01*
X74977626Y-80634154D01*
X75037161Y-80804297D01*
X75037163Y-80804301D01*
X75045837Y-80818106D01*
X75408945Y-80454999D01*
X75389055Y-80435109D01*
X75662500Y-80435109D01*
X75662500Y-80474891D01*
X75677724Y-80511645D01*
X75705855Y-80539776D01*
X75742609Y-80555000D01*
X75782391Y-80555000D01*
X75819145Y-80539776D01*
X75847276Y-80511645D01*
X75862500Y-80474891D01*
X75862500Y-80455000D01*
X76116053Y-80455000D01*
X76479160Y-80818106D01*
X76504002Y-80815308D01*
X76508527Y-80812098D01*
X76535143Y-80816618D01*
X76535425Y-80814117D01*
X76570837Y-80818106D01*
X76933945Y-80454999D01*
X76914055Y-80435109D01*
X77187500Y-80435109D01*
X77187500Y-80474891D01*
X77202724Y-80511645D01*
X77230855Y-80539776D01*
X77267609Y-80555000D01*
X77307391Y-80555000D01*
X77344145Y-80539776D01*
X77372276Y-80511645D01*
X77387500Y-80474891D01*
X77387500Y-80455000D01*
X77641054Y-80455000D01*
X78004160Y-80818106D01*
X78012835Y-80804303D01*
X78072374Y-80634151D01*
X78072376Y-80634142D01*
X78081643Y-80551893D01*
X78109039Y-80502323D01*
X78146893Y-80486643D01*
X78229142Y-80477376D01*
X78229151Y-80477374D01*
X78399303Y-80417835D01*
X78413106Y-80409160D01*
X78050000Y-80046053D01*
X78015321Y-80080733D01*
X77641054Y-80455000D01*
X77387500Y-80455000D01*
X77387500Y-80435109D01*
X77372276Y-80398355D01*
X77344145Y-80370224D01*
X77307391Y-80355000D01*
X77267609Y-80355000D01*
X77230855Y-80370224D01*
X77202724Y-80398355D01*
X77187500Y-80435109D01*
X76914055Y-80435109D01*
X76559680Y-80080734D01*
X76559680Y-80080733D01*
X76525001Y-80046053D01*
X76524999Y-80046053D01*
X76490320Y-80080733D01*
X76490320Y-80080734D01*
X76116053Y-80455000D01*
X75862500Y-80455000D01*
X75862500Y-80435109D01*
X75847276Y-80398355D01*
X75819145Y-80370224D01*
X75782391Y-80355000D01*
X75742609Y-80355000D01*
X75705855Y-80370224D01*
X75677724Y-80398355D01*
X75662500Y-80435109D01*
X75389055Y-80435109D01*
X74999999Y-80046053D01*
X74636891Y-80409161D01*
X73350500Y-80409161D01*
X73350500Y-79692500D01*
X74194938Y-79692500D01*
X74215123Y-79871643D01*
X74215126Y-79871654D01*
X74274661Y-80041797D01*
X74274663Y-80041801D01*
X74283337Y-80055606D01*
X74646445Y-79692499D01*
X74626555Y-79672609D01*
X74900000Y-79672609D01*
X74900000Y-79712391D01*
X74915224Y-79749145D01*
X74943355Y-79777276D01*
X74980109Y-79792500D01*
X75019891Y-79792500D01*
X75056645Y-79777276D01*
X75084776Y-79749145D01*
X75100000Y-79712391D01*
X75100000Y-79692499D01*
X75353553Y-79692499D01*
X75762500Y-80101446D01*
X76171446Y-79692500D01*
X76151555Y-79672609D01*
X76425000Y-79672609D01*
X76425000Y-79712391D01*
X76440224Y-79749145D01*
X76468355Y-79777276D01*
X76505109Y-79792500D01*
X76544891Y-79792500D01*
X76581645Y-79777276D01*
X76609776Y-79749145D01*
X76625000Y-79712391D01*
X76625000Y-79692499D01*
X76878553Y-79692499D01*
X77287500Y-80101446D01*
X77696446Y-79692500D01*
X77676555Y-79672609D01*
X77950000Y-79672609D01*
X77950000Y-79712391D01*
X77965224Y-79749145D01*
X77993355Y-79777276D01*
X78030109Y-79792500D01*
X78069891Y-79792500D01*
X78106645Y-79777276D01*
X78134776Y-79749145D01*
X78150000Y-79712391D01*
X78150000Y-79692499D01*
X78403553Y-79692499D01*
X78766660Y-80055606D01*
X78775335Y-80041803D01*
X78834874Y-79871651D01*
X78834876Y-79871643D01*
X78855061Y-79692500D01*
X78834876Y-79513356D01*
X78834873Y-79513345D01*
X78775339Y-79343202D01*
X78775334Y-79343194D01*
X78766661Y-79329391D01*
X78403553Y-79692499D01*
X78150000Y-79692499D01*
X78150000Y-79672609D01*
X78134776Y-79635855D01*
X78106645Y-79607724D01*
X78069891Y-79592500D01*
X78030109Y-79592500D01*
X77993355Y-79607724D01*
X77965224Y-79635855D01*
X77950000Y-79672609D01*
X77676555Y-79672609D01*
X77335074Y-79331128D01*
X77335073Y-79331128D01*
X77335072Y-79331127D01*
X77287499Y-79283553D01*
X77239926Y-79331128D01*
X76878553Y-79692499D01*
X76625000Y-79692499D01*
X76625000Y-79672609D01*
X76609776Y-79635855D01*
X76581645Y-79607724D01*
X76544891Y-79592500D01*
X76505109Y-79592500D01*
X76468355Y-79607724D01*
X76440224Y-79635855D01*
X76425000Y-79672609D01*
X76151555Y-79672609D01*
X75810074Y-79331128D01*
X75810073Y-79331128D01*
X75810072Y-79331127D01*
X75762499Y-79283553D01*
X75714926Y-79331128D01*
X75353553Y-79692499D01*
X75100000Y-79692499D01*
X75100000Y-79672609D01*
X75084776Y-79635855D01*
X75056645Y-79607724D01*
X75019891Y-79592500D01*
X74980109Y-79592500D01*
X74943355Y-79607724D01*
X74915224Y-79635855D01*
X74900000Y-79672609D01*
X74626555Y-79672609D01*
X74283338Y-79329392D01*
X74283337Y-79329392D01*
X74274665Y-79343193D01*
X74274661Y-79343202D01*
X74215126Y-79513345D01*
X74215123Y-79513356D01*
X74194938Y-79692500D01*
X73350500Y-79692500D01*
X73350500Y-78884161D01*
X74636891Y-78884161D01*
X74639690Y-78909007D01*
X74642897Y-78913526D01*
X74638377Y-78940142D01*
X74640883Y-78940425D01*
X74636892Y-78975838D01*
X74999999Y-79338946D01*
X75372818Y-78966128D01*
X75408946Y-78930000D01*
X75389055Y-78910109D01*
X75662500Y-78910109D01*
X75662500Y-78949891D01*
X75677724Y-78986645D01*
X75705855Y-79014776D01*
X75742609Y-79030000D01*
X75782391Y-79030000D01*
X75819145Y-79014776D01*
X75847276Y-78986645D01*
X75862500Y-78949891D01*
X75862500Y-78930000D01*
X76116053Y-78930000D01*
X76152182Y-78966128D01*
X76525000Y-79338946D01*
X76933946Y-78930000D01*
X76914055Y-78910109D01*
X77187500Y-78910109D01*
X77187500Y-78949891D01*
X77202724Y-78986645D01*
X77230855Y-79014776D01*
X77267609Y-79030000D01*
X77307391Y-79030000D01*
X77344145Y-79014776D01*
X77372276Y-78986645D01*
X77387500Y-78949891D01*
X77387500Y-78930000D01*
X77641053Y-78930000D01*
X77677182Y-78966128D01*
X78049999Y-79338945D01*
X78413106Y-78975837D01*
X78410306Y-78950984D01*
X78407096Y-78946459D01*
X78411618Y-78919852D01*
X78409118Y-78919571D01*
X78413106Y-78884160D01*
X78050000Y-78521053D01*
X77994607Y-78576447D01*
X77641053Y-78930000D01*
X77387500Y-78930000D01*
X77387500Y-78910109D01*
X77372276Y-78873355D01*
X77344145Y-78845224D01*
X77307391Y-78830000D01*
X77267609Y-78830000D01*
X77230855Y-78845224D01*
X77202724Y-78873355D01*
X77187500Y-78910109D01*
X76914055Y-78910109D01*
X76580393Y-78576447D01*
X76580392Y-78576447D01*
X76580391Y-78576446D01*
X76524999Y-78521053D01*
X76469607Y-78576447D01*
X76116053Y-78930000D01*
X75862500Y-78930000D01*
X75862500Y-78910109D01*
X75847276Y-78873355D01*
X75819145Y-78845224D01*
X75782391Y-78830000D01*
X75742609Y-78830000D01*
X75705855Y-78845224D01*
X75677724Y-78873355D01*
X75662500Y-78910109D01*
X75389055Y-78910109D01*
X74999999Y-78521053D01*
X74636891Y-78884161D01*
X73350500Y-78884161D01*
X73350500Y-78167500D01*
X74194938Y-78167500D01*
X74215123Y-78346643D01*
X74215126Y-78346654D01*
X74274661Y-78516797D01*
X74274663Y-78516801D01*
X74283337Y-78530606D01*
X74646445Y-78167499D01*
X74626555Y-78147609D01*
X74900000Y-78147609D01*
X74900000Y-78187391D01*
X74915224Y-78224145D01*
X74943355Y-78252276D01*
X74980109Y-78267500D01*
X75019891Y-78267500D01*
X75056645Y-78252276D01*
X75084776Y-78224145D01*
X75100000Y-78187391D01*
X75100000Y-78167499D01*
X75353553Y-78167499D01*
X75403982Y-78217927D01*
X75403983Y-78217929D01*
X75762500Y-78576446D01*
X76171446Y-78167500D01*
X76151555Y-78147609D01*
X76425000Y-78147609D01*
X76425000Y-78187391D01*
X76440224Y-78224145D01*
X76468355Y-78252276D01*
X76505109Y-78267500D01*
X76544891Y-78267500D01*
X76581645Y-78252276D01*
X76609776Y-78224145D01*
X76625000Y-78187391D01*
X76625000Y-78167499D01*
X76878553Y-78167499D01*
X76928982Y-78217927D01*
X76928983Y-78217929D01*
X77287500Y-78576446D01*
X77696446Y-78167500D01*
X77676555Y-78147609D01*
X77950000Y-78147609D01*
X77950000Y-78187391D01*
X77965224Y-78224145D01*
X77993355Y-78252276D01*
X78030109Y-78267500D01*
X78069891Y-78267500D01*
X78106645Y-78252276D01*
X78134776Y-78224145D01*
X78150000Y-78187391D01*
X78150000Y-78167499D01*
X78403553Y-78167499D01*
X78766660Y-78530606D01*
X78775335Y-78516803D01*
X78834874Y-78346651D01*
X78834876Y-78346643D01*
X78855061Y-78167500D01*
X78834876Y-77988356D01*
X78834873Y-77988345D01*
X78775339Y-77818202D01*
X78775334Y-77818194D01*
X78766661Y-77804391D01*
X78403553Y-78167499D01*
X78150000Y-78167499D01*
X78150000Y-78147609D01*
X78134776Y-78110855D01*
X78106645Y-78082724D01*
X78069891Y-78067500D01*
X78030109Y-78067500D01*
X77993355Y-78082724D01*
X77965224Y-78110855D01*
X77950000Y-78147609D01*
X77676555Y-78147609D01*
X77342893Y-77813947D01*
X77342892Y-77813947D01*
X77342891Y-77813946D01*
X77287499Y-77758553D01*
X77232107Y-77813947D01*
X76878553Y-78167499D01*
X76625000Y-78167499D01*
X76625000Y-78147609D01*
X76609776Y-78110855D01*
X76581645Y-78082724D01*
X76544891Y-78067500D01*
X76505109Y-78067500D01*
X76468355Y-78082724D01*
X76440224Y-78110855D01*
X76425000Y-78147609D01*
X76151555Y-78147609D01*
X75817893Y-77813947D01*
X75817892Y-77813947D01*
X75817891Y-77813946D01*
X75762499Y-77758553D01*
X75707107Y-77813947D01*
X75353553Y-78167499D01*
X75100000Y-78167499D01*
X75100000Y-78147609D01*
X75084776Y-78110855D01*
X75056645Y-78082724D01*
X75019891Y-78067500D01*
X74980109Y-78067500D01*
X74943355Y-78082724D01*
X74915224Y-78110855D01*
X74900000Y-78147609D01*
X74626555Y-78147609D01*
X74283338Y-77804392D01*
X74283337Y-77804392D01*
X74274665Y-77818193D01*
X74274661Y-77818202D01*
X74215126Y-77988345D01*
X74215123Y-77988356D01*
X74194938Y-78167500D01*
X73350500Y-78167500D01*
X73350500Y-77450837D01*
X74636892Y-77450837D01*
X74636892Y-77450838D01*
X74999999Y-77813946D01*
X75372247Y-77441699D01*
X75408945Y-77404998D01*
X75389056Y-77385109D01*
X75662500Y-77385109D01*
X75662500Y-77424891D01*
X75677724Y-77461645D01*
X75705855Y-77489776D01*
X75742609Y-77505000D01*
X75782391Y-77505000D01*
X75819145Y-77489776D01*
X75847276Y-77461645D01*
X75862500Y-77424891D01*
X75862500Y-77404999D01*
X76116053Y-77404999D01*
X76525000Y-77813946D01*
X76897247Y-77441699D01*
X76933945Y-77404998D01*
X76914056Y-77385109D01*
X77187500Y-77385109D01*
X77187500Y-77424891D01*
X77202724Y-77461645D01*
X77230855Y-77489776D01*
X77267609Y-77505000D01*
X77307391Y-77505000D01*
X77344145Y-77489776D01*
X77372276Y-77461645D01*
X77387500Y-77424891D01*
X77387500Y-77404999D01*
X77641053Y-77404999D01*
X78049999Y-77813945D01*
X78413106Y-77450837D01*
X78399301Y-77442163D01*
X78399297Y-77442161D01*
X78229154Y-77382626D01*
X78229143Y-77382623D01*
X78146892Y-77373355D01*
X78097322Y-77345957D01*
X78081643Y-77308105D01*
X78072376Y-77225857D01*
X78072373Y-77225845D01*
X78012839Y-77055702D01*
X78012834Y-77055694D01*
X78004161Y-77041891D01*
X77641053Y-77404999D01*
X77387500Y-77404999D01*
X77387500Y-77385109D01*
X77372276Y-77348355D01*
X77344145Y-77320224D01*
X77307391Y-77305000D01*
X77267609Y-77305000D01*
X77230855Y-77320224D01*
X77202724Y-77348355D01*
X77187500Y-77385109D01*
X76914056Y-77385109D01*
X76570838Y-77041892D01*
X76545973Y-77044694D01*
X76541451Y-77047902D01*
X76514855Y-77043377D01*
X76514574Y-77045881D01*
X76479161Y-77041891D01*
X76116053Y-77404999D01*
X75862500Y-77404999D01*
X75862500Y-77385109D01*
X75847276Y-77348355D01*
X75819145Y-77320224D01*
X75782391Y-77305000D01*
X75742609Y-77305000D01*
X75705855Y-77320224D01*
X75677724Y-77348355D01*
X75662500Y-77385109D01*
X75389056Y-77385109D01*
X75045838Y-77041892D01*
X75045837Y-77041892D01*
X75037165Y-77055693D01*
X75037161Y-77055702D01*
X74977626Y-77225845D01*
X74977623Y-77225856D01*
X74968355Y-77308107D01*
X74940957Y-77357676D01*
X74903107Y-77373355D01*
X74820856Y-77382623D01*
X74820845Y-77382626D01*
X74650702Y-77442161D01*
X74650693Y-77442165D01*
X74636892Y-77450837D01*
X73350500Y-77450837D01*
X73350500Y-76688337D01*
X75399392Y-76688337D01*
X75399392Y-76688338D01*
X75762499Y-77051445D01*
X76125606Y-76688337D01*
X76924392Y-76688337D01*
X76924392Y-76688338D01*
X77287499Y-77051445D01*
X77650606Y-76688337D01*
X77636801Y-76679663D01*
X77636797Y-76679661D01*
X77466654Y-76620126D01*
X77466643Y-76620123D01*
X77287500Y-76599938D01*
X77108356Y-76620123D01*
X77108345Y-76620126D01*
X76938202Y-76679661D01*
X76938193Y-76679665D01*
X76924392Y-76688337D01*
X76125606Y-76688337D01*
X76111801Y-76679663D01*
X76111797Y-76679661D01*
X75941654Y-76620126D01*
X75941643Y-76620123D01*
X75762500Y-76599938D01*
X75583356Y-76620123D01*
X75583345Y-76620126D01*
X75413202Y-76679661D01*
X75413193Y-76679665D01*
X75399392Y-76688337D01*
X73350500Y-76688337D01*
X73350500Y-71774488D01*
X73372174Y-71722162D01*
X73424500Y-71700488D01*
X73585040Y-71700488D01*
X73585044Y-71700488D01*
X73750213Y-71659778D01*
X73847030Y-71608963D01*
X73881419Y-71600488D01*
X74634304Y-71600488D01*
X74686630Y-71622162D01*
G37*
%TD.AperFunction*%
%TA.AperFunction,Conductor*%
G36*
X155350250Y-54500599D02*
G01*
X155684137Y-54518102D01*
X155691835Y-54518911D01*
X156020130Y-54570912D01*
X156027684Y-54572518D01*
X156348736Y-54658548D01*
X156356098Y-54660940D01*
X156666411Y-54780061D01*
X156673471Y-54783205D01*
X156969584Y-54934086D01*
X156969619Y-54934104D01*
X156976328Y-54937977D01*
X157255079Y-55119004D01*
X157261333Y-55123547D01*
X157519624Y-55332710D01*
X157519644Y-55332726D01*
X157525400Y-55337909D01*
X157760423Y-55572935D01*
X157765606Y-55578692D01*
X157974767Y-55836988D01*
X157979320Y-55843254D01*
X158101446Y-56031314D01*
X158160344Y-56122009D01*
X158164213Y-56128710D01*
X158315102Y-56424849D01*
X158315112Y-56424867D01*
X158318262Y-56431943D01*
X158437369Y-56742234D01*
X158439763Y-56749600D01*
X158483001Y-56910967D01*
X158515806Y-57033398D01*
X158525789Y-57070653D01*
X158527399Y-57078230D01*
X158579391Y-57406504D01*
X158580201Y-57414207D01*
X158585982Y-57524500D01*
X158597749Y-57749043D01*
X158597850Y-57752883D01*
X158597850Y-73456858D01*
X158576176Y-73509184D01*
X158523850Y-73530858D01*
X158482738Y-73518387D01*
X158348675Y-73428809D01*
X158166693Y-73353430D01*
X158166682Y-73353427D01*
X157973490Y-73315000D01*
X157825000Y-73315000D01*
X157825000Y-74015000D01*
X157325000Y-74015000D01*
X157325000Y-73315000D01*
X157176510Y-73315000D01*
X156983317Y-73353427D01*
X156983306Y-73353430D01*
X156801324Y-73428809D01*
X156637540Y-73538246D01*
X156498246Y-73677540D01*
X156388809Y-73841324D01*
X156313430Y-74023306D01*
X156313427Y-74023317D01*
X156305136Y-74064999D01*
X156305137Y-74065000D01*
X157108012Y-74065000D01*
X157090795Y-74074940D01*
X157034940Y-74130795D01*
X156995444Y-74199204D01*
X156975000Y-74275504D01*
X156975000Y-74354496D01*
X156995444Y-74430796D01*
X157034940Y-74499205D01*
X157090795Y-74555060D01*
X157108012Y-74565000D01*
X156305137Y-74565000D01*
X156313427Y-74606682D01*
X156313430Y-74606693D01*
X156388809Y-74788675D01*
X156498246Y-74952459D01*
X156637540Y-75091753D01*
X156801324Y-75201190D01*
X156983306Y-75276569D01*
X156983317Y-75276572D01*
X157176510Y-75315000D01*
X157325000Y-75315000D01*
X157325000Y-74615000D01*
X157825000Y-74615000D01*
X157825000Y-75315000D01*
X157973490Y-75315000D01*
X158166682Y-75276572D01*
X158166693Y-75276569D01*
X158348675Y-75201190D01*
X158482738Y-75111612D01*
X158538286Y-75100563D01*
X158585379Y-75132029D01*
X158597850Y-75173141D01*
X158597850Y-82096858D01*
X158576176Y-82149184D01*
X158523850Y-82170858D01*
X158482738Y-82158387D01*
X158348675Y-82068809D01*
X158166693Y-81993430D01*
X158166682Y-81993427D01*
X157973490Y-81955000D01*
X157825000Y-81955000D01*
X157825000Y-82655000D01*
X157325000Y-82655000D01*
X157325000Y-81955000D01*
X157176510Y-81955000D01*
X156983317Y-81993427D01*
X156983306Y-81993430D01*
X156801324Y-82068809D01*
X156637540Y-82178246D01*
X156498246Y-82317540D01*
X156388809Y-82481324D01*
X156313430Y-82663306D01*
X156313427Y-82663317D01*
X156305136Y-82704999D01*
X156305137Y-82705000D01*
X157108012Y-82705000D01*
X157090795Y-82714940D01*
X157034940Y-82770795D01*
X156995444Y-82839204D01*
X156975000Y-82915504D01*
X156975000Y-82994496D01*
X156995444Y-83070796D01*
X157034940Y-83139205D01*
X157090795Y-83195060D01*
X157108012Y-83205000D01*
X156305137Y-83205000D01*
X156313427Y-83246682D01*
X156313430Y-83246693D01*
X156388809Y-83428675D01*
X156498246Y-83592459D01*
X156637540Y-83731753D01*
X156801324Y-83841190D01*
X156983306Y-83916569D01*
X156983317Y-83916572D01*
X157176510Y-83955000D01*
X157325000Y-83955000D01*
X157325000Y-83255000D01*
X157825000Y-83255000D01*
X157825000Y-83955000D01*
X157973490Y-83955000D01*
X158166682Y-83916572D01*
X158166693Y-83916569D01*
X158348675Y-83841190D01*
X158482738Y-83751612D01*
X158538286Y-83740563D01*
X158585379Y-83772029D01*
X158597850Y-83813141D01*
X158597851Y-122184108D01*
X158597851Y-122248055D01*
X158597750Y-122251928D01*
X158580252Y-122585798D01*
X158579442Y-122593501D01*
X158527449Y-122921779D01*
X158525839Y-122929356D01*
X158439811Y-123250418D01*
X158437417Y-123257784D01*
X158318308Y-123568077D01*
X158315158Y-123575153D01*
X158164261Y-123871308D01*
X158160388Y-123878016D01*
X157979361Y-124156775D01*
X157974808Y-124163041D01*
X157765644Y-124421341D01*
X157760461Y-124427098D01*
X157525429Y-124662133D01*
X157519673Y-124667315D01*
X157261375Y-124876484D01*
X157255109Y-124881037D01*
X156976353Y-125062066D01*
X156969645Y-125065939D01*
X156673500Y-125216836D01*
X156666424Y-125219987D01*
X156356114Y-125339108D01*
X156348747Y-125341501D01*
X156027708Y-125427527D01*
X156020132Y-125429138D01*
X155691845Y-125481137D01*
X155684142Y-125481947D01*
X155351224Y-125499399D01*
X155347350Y-125499500D01*
X63251946Y-125499500D01*
X63248073Y-125499399D01*
X62914204Y-125481901D01*
X62906501Y-125481091D01*
X62578217Y-125429097D01*
X62570640Y-125427486D01*
X62249597Y-125341462D01*
X62242231Y-125339069D01*
X62115226Y-125290316D01*
X61931927Y-125219955D01*
X61924856Y-125216806D01*
X61628704Y-125065909D01*
X61621996Y-125062037D01*
X61343246Y-124881014D01*
X61336979Y-124876461D01*
X61078672Y-124667288D01*
X61072916Y-124662105D01*
X60837894Y-124427083D01*
X60832711Y-124421327D01*
X60623538Y-124163020D01*
X60618985Y-124156753D01*
X60500932Y-123974968D01*
X60437957Y-123877995D01*
X60434090Y-123871295D01*
X60283193Y-123575143D01*
X60280048Y-123568081D01*
X60160927Y-123257760D01*
X60158537Y-123250402D01*
X60151515Y-123224194D01*
X60072509Y-122929344D01*
X60070905Y-122921797D01*
X60018907Y-122593496D01*
X60018098Y-122585795D01*
X60000601Y-122251927D01*
X60000551Y-122249999D01*
X60545066Y-122249999D01*
X60564787Y-122576041D01*
X60623667Y-122897340D01*
X60720840Y-123209174D01*
X60854897Y-123507039D01*
X60854902Y-123507048D01*
X61023883Y-123786577D01*
X61171477Y-123974967D01*
X62313709Y-122832734D01*
X62410968Y-122966601D01*
X62533399Y-123089032D01*
X62667263Y-123186289D01*
X61525031Y-124328521D01*
X61713422Y-124476116D01*
X61992951Y-124645097D01*
X61992960Y-124645102D01*
X62290825Y-124779159D01*
X62602659Y-124876332D01*
X62923958Y-124935212D01*
X63250001Y-124954933D01*
X63576043Y-124935212D01*
X63897342Y-124876332D01*
X64209176Y-124779159D01*
X64507041Y-124645102D01*
X64507050Y-124645097D01*
X64786579Y-124476116D01*
X64974970Y-124328521D01*
X63832738Y-123186289D01*
X63966603Y-123089032D01*
X64089034Y-122966601D01*
X64186291Y-122832735D01*
X65328523Y-123974967D01*
X65476118Y-123786577D01*
X65645099Y-123507048D01*
X65645104Y-123507039D01*
X65779161Y-123209174D01*
X65876334Y-122897340D01*
X65935214Y-122576041D01*
X65954935Y-122250000D01*
X152643415Y-122250000D01*
X152663136Y-122576042D01*
X152722016Y-122897341D01*
X152819189Y-123209175D01*
X152953246Y-123507040D01*
X152953251Y-123507049D01*
X153122232Y-123786578D01*
X153269826Y-123974968D01*
X154412058Y-122832735D01*
X154509317Y-122966602D01*
X154631748Y-123089033D01*
X154765612Y-123186290D01*
X153623380Y-124328522D01*
X153811771Y-124476117D01*
X154091300Y-124645098D01*
X154091309Y-124645103D01*
X154389174Y-124779160D01*
X154701008Y-124876333D01*
X155022307Y-124935213D01*
X155348350Y-124954934D01*
X155674392Y-124935213D01*
X155995691Y-124876333D01*
X156307525Y-124779160D01*
X156605390Y-124645103D01*
X156605399Y-124645098D01*
X156884928Y-124476117D01*
X157073319Y-124328522D01*
X155931087Y-123186290D01*
X156064952Y-123089033D01*
X156187383Y-122966602D01*
X156284640Y-122832736D01*
X157426872Y-123974968D01*
X157574467Y-123786578D01*
X157743448Y-123507049D01*
X157743453Y-123507040D01*
X157877510Y-123209175D01*
X157974683Y-122897341D01*
X158033563Y-122576042D01*
X158053284Y-122250000D01*
X158033563Y-121923957D01*
X157974683Y-121602658D01*
X157877510Y-121290824D01*
X157743453Y-120992959D01*
X157743448Y-120992950D01*
X157574467Y-120713421D01*
X157426872Y-120525030D01*
X156284640Y-121667261D01*
X156187383Y-121533398D01*
X156064952Y-121410967D01*
X155931085Y-121313708D01*
X157073319Y-120171476D01*
X156884928Y-120023882D01*
X156605399Y-119854901D01*
X156605390Y-119854896D01*
X156307525Y-119720839D01*
X155995691Y-119623666D01*
X155674392Y-119564786D01*
X155348350Y-119545065D01*
X155022307Y-119564786D01*
X154701008Y-119623666D01*
X154389174Y-119720839D01*
X154091309Y-119854896D01*
X154091300Y-119854900D01*
X153811768Y-120023884D01*
X153623380Y-120171476D01*
X154765613Y-121313709D01*
X154631748Y-121410967D01*
X154509317Y-121533398D01*
X154412059Y-121667263D01*
X153269826Y-120525030D01*
X153122234Y-120713418D01*
X152953250Y-120992950D01*
X152953246Y-120992959D01*
X152819189Y-121290824D01*
X152722016Y-121602658D01*
X152663136Y-121923957D01*
X152643415Y-122250000D01*
X65954935Y-122250000D01*
X65954935Y-122249999D01*
X65935214Y-121923956D01*
X65876334Y-121602657D01*
X65779161Y-121290823D01*
X65645104Y-120992958D01*
X65645099Y-120992949D01*
X65476118Y-120713420D01*
X65328523Y-120525029D01*
X64186291Y-121667260D01*
X64089034Y-121533397D01*
X63966603Y-121410966D01*
X63832736Y-121313707D01*
X64974970Y-120171475D01*
X64786579Y-120023881D01*
X64507050Y-119854900D01*
X64507041Y-119854895D01*
X64209176Y-119720838D01*
X63897342Y-119623665D01*
X63576043Y-119564785D01*
X63250001Y-119545064D01*
X62923958Y-119564785D01*
X62602659Y-119623665D01*
X62290825Y-119720838D01*
X61992960Y-119854895D01*
X61992951Y-119854899D01*
X61713419Y-120023883D01*
X61525031Y-120171475D01*
X62667264Y-121313708D01*
X62533399Y-121410966D01*
X62410968Y-121533397D01*
X62313710Y-121667262D01*
X61171477Y-120525029D01*
X61023885Y-120713417D01*
X60854901Y-120992949D01*
X60854897Y-120992958D01*
X60720840Y-121290823D01*
X60623667Y-121602657D01*
X60564787Y-121923956D01*
X60545066Y-122249999D01*
X60000551Y-122249999D01*
X60000500Y-122248054D01*
X60000500Y-122169391D01*
X60000499Y-122169385D01*
X60000499Y-109960000D01*
X61579975Y-109960000D01*
X61600043Y-110214993D01*
X61659752Y-110463701D01*
X61757638Y-110700018D01*
X61757642Y-110700026D01*
X61891279Y-110918101D01*
X61894533Y-110921911D01*
X62455884Y-110360559D01*
X62456740Y-110362626D01*
X62549762Y-110501844D01*
X62668156Y-110620238D01*
X62807374Y-110713260D01*
X62809437Y-110714114D01*
X62248087Y-111275465D01*
X62251894Y-111278717D01*
X62251902Y-111278723D01*
X62469973Y-111412357D01*
X62469981Y-111412361D01*
X62706298Y-111510247D01*
X62955006Y-111569956D01*
X63181806Y-111587805D01*
X63232270Y-111613517D01*
X63250000Y-111661577D01*
X63250000Y-113338422D01*
X63228326Y-113390748D01*
X63181806Y-113412194D01*
X62955006Y-113430043D01*
X62706298Y-113489752D01*
X62469981Y-113587638D01*
X62469974Y-113587642D01*
X62251901Y-113721277D01*
X62251898Y-113721279D01*
X62248087Y-113724533D01*
X62809438Y-114285884D01*
X62807374Y-114286740D01*
X62668156Y-114379762D01*
X62549762Y-114498156D01*
X62456740Y-114637374D01*
X62455884Y-114639438D01*
X61894533Y-114078087D01*
X61891279Y-114081898D01*
X61891277Y-114081901D01*
X61757642Y-114299974D01*
X61757638Y-114299981D01*
X61659752Y-114536298D01*
X61600043Y-114785006D01*
X61579975Y-115040000D01*
X61600043Y-115294993D01*
X61659752Y-115543701D01*
X61757638Y-115780018D01*
X61757642Y-115780026D01*
X61891279Y-115998101D01*
X61894533Y-116001911D01*
X62455884Y-115440559D01*
X62456740Y-115442626D01*
X62549762Y-115581844D01*
X62668156Y-115700238D01*
X62807374Y-115793260D01*
X62809437Y-115794114D01*
X62248087Y-116355465D01*
X62251894Y-116358717D01*
X62251902Y-116358723D01*
X62469973Y-116492357D01*
X62469981Y-116492361D01*
X62706298Y-116590247D01*
X62955006Y-116649956D01*
X63210000Y-116670024D01*
X63464993Y-116649956D01*
X63713701Y-116590247D01*
X63950018Y-116492361D01*
X63950025Y-116492357D01*
X64168107Y-116358715D01*
X64171912Y-116355466D01*
X63610561Y-115794115D01*
X63612626Y-115793260D01*
X63751844Y-115700238D01*
X63870238Y-115581844D01*
X63963260Y-115442626D01*
X63964115Y-115440561D01*
X64525466Y-116001912D01*
X64528715Y-115998107D01*
X64662357Y-115780025D01*
X64662361Y-115780018D01*
X64760247Y-115543701D01*
X64819956Y-115294993D01*
X64840024Y-115040000D01*
X64819956Y-114785006D01*
X64760247Y-114536299D01*
X64684040Y-114352319D01*
X64684040Y-114295682D01*
X64724088Y-114255633D01*
X64752407Y-114250000D01*
X66747593Y-114250000D01*
X66799919Y-114271674D01*
X66821593Y-114324000D01*
X66815960Y-114352319D01*
X66739752Y-114536299D01*
X66680043Y-114785006D01*
X66659975Y-115040000D01*
X66680043Y-115294993D01*
X66739752Y-115543701D01*
X66837638Y-115780018D01*
X66837642Y-115780026D01*
X66971279Y-115998101D01*
X66974533Y-116001911D01*
X67535884Y-115440560D01*
X67536740Y-115442626D01*
X67629762Y-115581844D01*
X67748156Y-115700238D01*
X67887374Y-115793260D01*
X67889437Y-115794114D01*
X67328087Y-116355465D01*
X67331894Y-116358717D01*
X67331902Y-116358723D01*
X67549973Y-116492357D01*
X67549981Y-116492361D01*
X67786298Y-116590247D01*
X68035006Y-116649956D01*
X68290000Y-116670024D01*
X68544993Y-116649956D01*
X68793701Y-116590247D01*
X69030018Y-116492361D01*
X69030025Y-116492357D01*
X69248107Y-116358715D01*
X69251912Y-116355466D01*
X68690561Y-115794115D01*
X68692626Y-115793260D01*
X68831844Y-115700238D01*
X68950238Y-115581844D01*
X69043260Y-115442626D01*
X69044115Y-115440561D01*
X69605466Y-116001912D01*
X69608715Y-115998107D01*
X69742357Y-115780025D01*
X69742361Y-115780018D01*
X69840247Y-115543701D01*
X69899956Y-115294993D01*
X69920024Y-115040000D01*
X69899956Y-114785006D01*
X69840247Y-114536298D01*
X69742361Y-114299981D01*
X69742357Y-114299973D01*
X69608723Y-114081902D01*
X69608717Y-114081894D01*
X69605465Y-114078087D01*
X69044114Y-114639437D01*
X69043260Y-114637374D01*
X68950238Y-114498156D01*
X68831844Y-114379762D01*
X68692626Y-114286740D01*
X68690561Y-114285884D01*
X69204772Y-113771674D01*
X69257098Y-113750000D01*
X72500000Y-113750000D01*
X72500000Y-113724499D01*
X72521674Y-113672173D01*
X72574000Y-113650499D01*
X74531519Y-113650499D01*
X74625304Y-113635646D01*
X74625306Y-113635645D01*
X74627419Y-113634568D01*
X74738342Y-113578050D01*
X74828050Y-113488342D01*
X74885646Y-113375304D01*
X74897917Y-113297828D01*
X88000000Y-113297828D01*
X88006402Y-113357375D01*
X88006403Y-113357380D01*
X88056645Y-113492087D01*
X88056646Y-113492088D01*
X88142811Y-113607188D01*
X88257911Y-113693353D01*
X88257912Y-113693354D01*
X88392619Y-113743596D01*
X88392624Y-113743597D01*
X88452171Y-113750000D01*
X89250000Y-113750000D01*
X89750000Y-113750000D01*
X90547829Y-113750000D01*
X90607375Y-113743597D01*
X90607380Y-113743596D01*
X90742087Y-113693354D01*
X90742088Y-113693353D01*
X90857188Y-113607188D01*
X90943353Y-113492088D01*
X90943354Y-113492087D01*
X90993596Y-113357380D01*
X90993597Y-113357375D01*
X91000000Y-113297828D01*
X91000000Y-112750000D01*
X89750000Y-112750000D01*
X89750000Y-113750000D01*
X89250000Y-113750000D01*
X89250000Y-112750000D01*
X88000000Y-112750000D01*
X88000000Y-113297828D01*
X74897917Y-113297828D01*
X74900500Y-113281519D01*
X74900499Y-111718482D01*
X74894095Y-111678048D01*
X74885647Y-111624702D01*
X74885646Y-111624701D01*
X74885646Y-111624696D01*
X74885643Y-111624690D01*
X74884925Y-111622481D01*
X74885047Y-111620918D01*
X74884735Y-111618943D01*
X74885208Y-111618867D01*
X74889363Y-111566018D01*
X74896062Y-111555258D01*
X74943354Y-111492085D01*
X74993596Y-111357380D01*
X74993597Y-111357375D01*
X75000000Y-111297828D01*
X75000000Y-110750000D01*
X72000000Y-110750000D01*
X72000000Y-111176000D01*
X71978326Y-111228326D01*
X71926000Y-111250000D01*
X69257098Y-111250000D01*
X69204772Y-111228326D01*
X68690561Y-110714115D01*
X68692626Y-110713260D01*
X68831844Y-110620238D01*
X68950238Y-110501844D01*
X69043260Y-110362626D01*
X69044115Y-110360561D01*
X69605466Y-110921912D01*
X69608715Y-110918107D01*
X69742357Y-110700025D01*
X69742361Y-110700018D01*
X69840247Y-110463701D01*
X69899956Y-110214993D01*
X69920024Y-109960000D01*
X69899956Y-109705006D01*
X69840247Y-109456298D01*
X69742361Y-109219981D01*
X69742357Y-109219973D01*
X69608723Y-109001902D01*
X69608717Y-109001894D01*
X69605465Y-108998087D01*
X69044114Y-109559437D01*
X69043260Y-109557374D01*
X68950238Y-109418156D01*
X68831844Y-109299762D01*
X68692626Y-109206740D01*
X68690560Y-109205884D01*
X69251912Y-108644533D01*
X69248101Y-108641279D01*
X69030026Y-108507642D01*
X69030018Y-108507638D01*
X68793701Y-108409752D01*
X68544993Y-108350043D01*
X68290000Y-108329975D01*
X68035006Y-108350043D01*
X67786298Y-108409752D01*
X67549981Y-108507638D01*
X67549974Y-108507642D01*
X67331901Y-108641277D01*
X67331898Y-108641279D01*
X67328087Y-108644533D01*
X67889438Y-109205884D01*
X67887374Y-109206740D01*
X67748156Y-109299762D01*
X67629762Y-109418156D01*
X67536740Y-109557374D01*
X67535884Y-109559438D01*
X66974533Y-108998087D01*
X66971279Y-109001898D01*
X66971277Y-109001901D01*
X66837642Y-109219974D01*
X66837638Y-109219981D01*
X66739752Y-109456298D01*
X66680043Y-109705006D01*
X66659975Y-109960000D01*
X66680043Y-110214993D01*
X66739752Y-110463700D01*
X66815960Y-110647681D01*
X66815960Y-110704318D01*
X66775912Y-110744367D01*
X66747593Y-110750000D01*
X64752407Y-110750000D01*
X64700081Y-110728326D01*
X64678407Y-110676000D01*
X64684040Y-110647681D01*
X64760247Y-110463700D01*
X64819956Y-110214993D01*
X64840024Y-109960000D01*
X64819956Y-109705006D01*
X64760247Y-109456298D01*
X64662361Y-109219981D01*
X64662357Y-109219973D01*
X64528723Y-109001902D01*
X64528717Y-109001894D01*
X64525465Y-108998087D01*
X63964114Y-109559437D01*
X63963260Y-109557374D01*
X63870238Y-109418156D01*
X63751844Y-109299762D01*
X63612626Y-109206740D01*
X63610560Y-109205884D01*
X64171912Y-108644533D01*
X64168101Y-108641279D01*
X63950026Y-108507642D01*
X63950018Y-108507638D01*
X63713701Y-108409752D01*
X63464993Y-108350043D01*
X63210000Y-108329975D01*
X62955006Y-108350043D01*
X62706298Y-108409752D01*
X62469981Y-108507638D01*
X62469974Y-108507642D01*
X62251901Y-108641277D01*
X62251898Y-108641279D01*
X62248087Y-108644533D01*
X62809438Y-109205884D01*
X62807374Y-109206740D01*
X62668156Y-109299762D01*
X62549762Y-109418156D01*
X62456740Y-109557374D01*
X62455884Y-109559438D01*
X61894533Y-108998087D01*
X61891279Y-109001898D01*
X61891277Y-109001901D01*
X61757642Y-109219974D01*
X61757638Y-109219981D01*
X61659752Y-109456298D01*
X61600043Y-109705006D01*
X61579975Y-109960000D01*
X60000499Y-109960000D01*
X60000499Y-70722828D01*
X64000000Y-70722828D01*
X64006402Y-70782375D01*
X64006403Y-70782380D01*
X64056645Y-70917087D01*
X64056646Y-70917088D01*
X64142811Y-71032188D01*
X64257911Y-71118353D01*
X64257912Y-71118354D01*
X64392619Y-71168596D01*
X64392624Y-71168597D01*
X64452171Y-71175000D01*
X67920000Y-71175000D01*
X67920000Y-67750000D01*
X68420000Y-67750000D01*
X68420000Y-71175000D01*
X71887829Y-71175000D01*
X71947375Y-71168597D01*
X71947380Y-71168596D01*
X72049640Y-71130456D01*
X72106241Y-71132477D01*
X72144834Y-71173930D01*
X72149500Y-71199790D01*
X72149500Y-72046144D01*
X72127826Y-72098470D01*
X72075500Y-72120144D01*
X72041111Y-72111668D01*
X72000224Y-72090209D01*
X71835058Y-72049500D01*
X71835056Y-72049500D01*
X71664944Y-72049500D01*
X71664941Y-72049500D01*
X71499777Y-72090209D01*
X71349146Y-72169267D01*
X71349143Y-72169269D01*
X71221816Y-72282071D01*
X71125181Y-72422070D01*
X71064859Y-72581128D01*
X71044355Y-72749996D01*
X71044355Y-72750003D01*
X71064859Y-72918871D01*
X71125179Y-73077924D01*
X71125180Y-73077926D01*
X71125182Y-73077930D01*
X71136401Y-73094184D01*
X71149500Y-73136218D01*
X71149500Y-88876396D01*
X71149499Y-88876414D01*
X71149499Y-89039059D01*
X71190421Y-89191781D01*
X71190423Y-89191786D01*
X71212786Y-89230519D01*
X71269480Y-89328716D01*
X71385499Y-89444735D01*
X71385505Y-89444740D01*
X73728326Y-91787561D01*
X73750000Y-91839887D01*
X73750000Y-92816988D01*
X73692993Y-92784075D01*
X73565826Y-92750000D01*
X73434174Y-92750000D01*
X73307007Y-92784075D01*
X73250000Y-92816988D01*
X73250000Y-91773391D01*
X73195583Y-91782010D01*
X73195572Y-91782012D01*
X73000978Y-91845240D01*
X72818650Y-91938139D01*
X72653111Y-92058411D01*
X72508411Y-92203111D01*
X72388139Y-92368650D01*
X72295241Y-92550977D01*
X72248067Y-92696161D01*
X72211284Y-92739228D01*
X72154821Y-92743671D01*
X72111754Y-92706888D01*
X72107311Y-92696160D01*
X72072550Y-92589175D01*
X72072547Y-92589171D01*
X72072547Y-92589168D01*
X71986760Y-92420801D01*
X71875690Y-92267927D01*
X71742073Y-92134310D01*
X71742070Y-92134307D01*
X71742068Y-92134306D01*
X71589198Y-92023239D01*
X71420824Y-91937449D01*
X71241128Y-91879062D01*
X71241115Y-91879059D01*
X71054482Y-91849500D01*
X71054481Y-91849500D01*
X70865519Y-91849500D01*
X70865518Y-91849500D01*
X70678884Y-91879059D01*
X70678871Y-91879062D01*
X70499175Y-91937449D01*
X70330801Y-92023239D01*
X70177931Y-92134306D01*
X70044306Y-92267931D01*
X69933239Y-92420801D01*
X69847449Y-92589175D01*
X69789062Y-92768871D01*
X69789059Y-92768884D01*
X69759500Y-92955518D01*
X69759500Y-93544481D01*
X69789059Y-93731115D01*
X69789062Y-93731128D01*
X69847449Y-93910824D01*
X69933239Y-94079198D01*
X70019803Y-94198343D01*
X70044310Y-94232073D01*
X70177927Y-94365690D01*
X70328996Y-94475449D01*
X70358589Y-94523739D01*
X70359500Y-94535315D01*
X70359500Y-107276396D01*
X70359499Y-107276414D01*
X70359499Y-107439059D01*
X70400421Y-107591781D01*
X70400424Y-107591788D01*
X70429360Y-107641904D01*
X70429361Y-107641906D01*
X70479479Y-107728715D01*
X70595499Y-107844735D01*
X70595505Y-107844740D01*
X71616891Y-108866126D01*
X71616896Y-108866132D01*
X71619480Y-108868716D01*
X71731284Y-108980520D01*
X71868216Y-109059577D01*
X71868220Y-109059578D01*
X71980010Y-109089532D01*
X71980014Y-109089532D01*
X71980019Y-109089534D01*
X72010711Y-109097758D01*
X72020941Y-109100500D01*
X72020942Y-109100500D01*
X72020943Y-109100500D01*
X72025501Y-109100500D01*
X72077827Y-109122174D01*
X72099501Y-109174500D01*
X72099501Y-109281519D01*
X72114354Y-109375306D01*
X72115076Y-109377528D01*
X72114953Y-109379087D01*
X72115265Y-109381057D01*
X72114792Y-109381131D01*
X72110630Y-109433990D01*
X72103937Y-109444739D01*
X72056646Y-109507911D01*
X72056645Y-109507912D01*
X72006403Y-109642619D01*
X72006402Y-109642624D01*
X72000000Y-109702171D01*
X72000000Y-110250000D01*
X75000000Y-110250000D01*
X75000000Y-109702171D01*
X74993597Y-109642624D01*
X74993596Y-109642619D01*
X74943354Y-109507912D01*
X74943353Y-109507911D01*
X74896062Y-109444739D01*
X74882055Y-109389862D01*
X74884926Y-109377517D01*
X74885640Y-109375314D01*
X74885646Y-109375304D01*
X74900500Y-109281519D01*
X74900499Y-107718482D01*
X74885646Y-107624696D01*
X74885646Y-107624695D01*
X74885645Y-107624694D01*
X74871792Y-107597507D01*
X74839226Y-107533593D01*
X74834783Y-107477132D01*
X74839220Y-107466419D01*
X74885646Y-107375304D01*
X74900500Y-107281519D01*
X74900499Y-105718482D01*
X74885646Y-105624696D01*
X74885646Y-105624695D01*
X74885645Y-105624694D01*
X74883975Y-105621416D01*
X74839226Y-105533593D01*
X74834783Y-105477132D01*
X74839220Y-105466419D01*
X74885646Y-105375304D01*
X74900500Y-105281519D01*
X74900500Y-105174500D01*
X74922174Y-105122174D01*
X74974500Y-105100500D01*
X75066397Y-105100500D01*
X75066413Y-105100501D01*
X75070943Y-105100501D01*
X75229059Y-105100501D01*
X75229059Y-105100500D01*
X75381785Y-105059577D01*
X75434647Y-105029057D01*
X75518716Y-104980520D01*
X75630520Y-104868716D01*
X75630521Y-104868713D01*
X76480520Y-104018716D01*
X76559577Y-103881784D01*
X76600500Y-103729059D01*
X76600501Y-103729059D01*
X76600501Y-103566413D01*
X76600500Y-103566395D01*
X76600500Y-97529387D01*
X76622174Y-97477061D01*
X76727062Y-97372174D01*
X76779388Y-97350500D01*
X79916397Y-97350500D01*
X79916413Y-97350501D01*
X79920943Y-97350501D01*
X80079059Y-97350501D01*
X80079059Y-97350500D01*
X80231785Y-97309577D01*
X80281904Y-97280639D01*
X80368716Y-97230520D01*
X80480520Y-97118716D01*
X80480521Y-97118713D01*
X82230520Y-95368716D01*
X82309577Y-95231784D01*
X82350500Y-95079059D01*
X82350501Y-95079059D01*
X82350501Y-94916413D01*
X82350500Y-94916395D01*
X82350500Y-94378387D01*
X82372174Y-94326061D01*
X82424500Y-94304387D01*
X82476826Y-94326061D01*
X85677826Y-97527061D01*
X85699500Y-97579387D01*
X85699500Y-108616396D01*
X85699499Y-108616414D01*
X85699499Y-108779059D01*
X85740421Y-108931781D01*
X85740423Y-108931786D01*
X85761291Y-108967929D01*
X85819480Y-109068716D01*
X85935499Y-109184735D01*
X85935505Y-109184740D01*
X87616891Y-110866126D01*
X87616896Y-110866132D01*
X87619480Y-110868716D01*
X87731284Y-110980520D01*
X87868216Y-111059577D01*
X87868220Y-111059578D01*
X87980010Y-111089532D01*
X87980014Y-111089532D01*
X87980019Y-111089534D01*
X88010711Y-111097758D01*
X88020941Y-111100500D01*
X88020942Y-111100500D01*
X88020943Y-111100500D01*
X88025501Y-111100500D01*
X88077827Y-111122174D01*
X88099501Y-111174500D01*
X88099501Y-111281519D01*
X88114354Y-111375306D01*
X88115076Y-111377528D01*
X88114953Y-111379087D01*
X88115265Y-111381057D01*
X88114792Y-111381131D01*
X88110630Y-111433990D01*
X88103937Y-111444739D01*
X88056646Y-111507911D01*
X88056645Y-111507912D01*
X88006403Y-111642619D01*
X88006402Y-111642624D01*
X88000000Y-111702171D01*
X88000000Y-112250000D01*
X91000000Y-112250000D01*
X91000000Y-111702171D01*
X90993597Y-111642624D01*
X90993596Y-111642619D01*
X90943354Y-111507912D01*
X90943353Y-111507911D01*
X90896062Y-111444739D01*
X90882055Y-111389862D01*
X90884926Y-111377517D01*
X90885640Y-111375314D01*
X90885646Y-111375304D01*
X90900500Y-111281519D01*
X90900499Y-109718482D01*
X90896055Y-109690423D01*
X90885646Y-109624695D01*
X90885645Y-109624694D01*
X90871792Y-109597507D01*
X90839226Y-109533593D01*
X90834783Y-109477132D01*
X90839220Y-109466419D01*
X90885646Y-109375304D01*
X90900500Y-109281519D01*
X90900500Y-109174500D01*
X90922174Y-109122174D01*
X90974500Y-109100500D01*
X92368569Y-109100500D01*
X92402957Y-109108975D01*
X92499775Y-109159790D01*
X92664944Y-109200500D01*
X92664948Y-109200500D01*
X92835052Y-109200500D01*
X92835056Y-109200500D01*
X93000225Y-109159790D01*
X93150852Y-109080734D01*
X93278183Y-108967929D01*
X93374818Y-108827930D01*
X93435140Y-108668872D01*
X93455645Y-108500000D01*
X93452359Y-108472939D01*
X93435140Y-108331128D01*
X93374818Y-108172070D01*
X93278183Y-108032071D01*
X93150856Y-107919269D01*
X93150853Y-107919267D01*
X93150852Y-107919266D01*
X93000225Y-107840210D01*
X93000222Y-107840209D01*
X92835058Y-107799500D01*
X92835056Y-107799500D01*
X92664944Y-107799500D01*
X92664942Y-107799500D01*
X92583522Y-107819568D01*
X92499775Y-107840210D01*
X92402957Y-107891024D01*
X92368569Y-107899500D01*
X90974499Y-107899500D01*
X90922173Y-107877826D01*
X90900499Y-107825500D01*
X90900499Y-107718480D01*
X90885646Y-107624695D01*
X90885645Y-107624694D01*
X90871792Y-107597507D01*
X90839226Y-107533593D01*
X90834783Y-107477132D01*
X90839220Y-107466419D01*
X90885646Y-107375304D01*
X90900500Y-107281519D01*
X90900500Y-107174500D01*
X90922174Y-107122174D01*
X90974500Y-107100500D01*
X93970613Y-107100500D01*
X94022939Y-107122174D01*
X102766891Y-115866126D01*
X102766896Y-115866132D01*
X102769480Y-115868716D01*
X102881284Y-115980520D01*
X102968095Y-116030639D01*
X103018215Y-116059577D01*
X103170943Y-116100500D01*
X110416397Y-116100500D01*
X110416413Y-116100501D01*
X110420943Y-116100501D01*
X110579059Y-116100501D01*
X110579059Y-116100500D01*
X110731785Y-116059577D01*
X110781904Y-116030639D01*
X110868716Y-115980520D01*
X110980520Y-115868716D01*
X110980521Y-115868713D01*
X111238713Y-115610521D01*
X111238716Y-115610520D01*
X111350520Y-115498716D01*
X111425575Y-115368716D01*
X111425576Y-115368717D01*
X111425578Y-115368710D01*
X111429577Y-115361785D01*
X111470500Y-115209059D01*
X111470501Y-115209059D01*
X111470501Y-115046414D01*
X111470500Y-115046396D01*
X111470500Y-114144626D01*
X111492174Y-114092300D01*
X111502048Y-114084014D01*
X111676877Y-113961598D01*
X111831598Y-113806877D01*
X111957102Y-113627639D01*
X112049575Y-113429330D01*
X112068522Y-113358616D01*
X112103000Y-113313686D01*
X112159153Y-113306293D01*
X112204086Y-113340772D01*
X112211476Y-113358612D01*
X112230425Y-113429330D01*
X112322898Y-113627639D01*
X112448402Y-113806877D01*
X112603123Y-113961598D01*
X112782361Y-114087102D01*
X112980670Y-114179575D01*
X112980676Y-114179576D01*
X112980677Y-114179577D01*
X113189929Y-114235646D01*
X113192023Y-114236207D01*
X113254302Y-114241655D01*
X113409995Y-114255277D01*
X113410000Y-114255277D01*
X113410005Y-114255277D01*
X113546235Y-114243358D01*
X113627977Y-114236207D01*
X113839330Y-114179575D01*
X114037639Y-114087102D01*
X114216877Y-113961598D01*
X114371598Y-113806877D01*
X114497102Y-113627639D01*
X114558041Y-113496953D01*
X114599797Y-113458692D01*
X114656381Y-113461162D01*
X114692174Y-113496955D01*
X114776401Y-113677579D01*
X114911888Y-113871075D01*
X115078924Y-114038111D01*
X115272420Y-114173598D01*
X115486505Y-114273428D01*
X115486508Y-114273430D01*
X115700000Y-114330634D01*
X115700000Y-113433012D01*
X115757007Y-113465925D01*
X115884174Y-113500000D01*
X116015826Y-113500000D01*
X116142993Y-113465925D01*
X116200000Y-113433012D01*
X116200000Y-114330634D01*
X116413491Y-114273430D01*
X116413494Y-114273428D01*
X116627579Y-114173598D01*
X116821075Y-114038111D01*
X116988111Y-113871075D01*
X117123598Y-113677579D01*
X117207825Y-113496955D01*
X117249582Y-113458692D01*
X117306166Y-113461162D01*
X117341959Y-113496955D01*
X117402898Y-113627639D01*
X117528402Y-113806877D01*
X117683123Y-113961598D01*
X117862361Y-114087102D01*
X118060670Y-114179575D01*
X118060676Y-114179576D01*
X118060677Y-114179577D01*
X118269929Y-114235646D01*
X118272023Y-114236207D01*
X118334302Y-114241655D01*
X118489995Y-114255277D01*
X118490000Y-114255277D01*
X118490005Y-114255277D01*
X118626235Y-114243358D01*
X118707977Y-114236207D01*
X118919330Y-114179575D01*
X119117639Y-114087102D01*
X119296877Y-113961598D01*
X119451598Y-113806877D01*
X119577102Y-113627639D01*
X119669575Y-113429330D01*
X119688522Y-113358616D01*
X119723000Y-113313686D01*
X119779153Y-113306293D01*
X119824086Y-113340772D01*
X119831476Y-113358612D01*
X119850425Y-113429330D01*
X119942898Y-113627639D01*
X120068402Y-113806877D01*
X120223123Y-113961598D01*
X120402361Y-114087102D01*
X120600670Y-114179575D01*
X120600676Y-114179576D01*
X120600677Y-114179577D01*
X120809929Y-114235646D01*
X120812023Y-114236207D01*
X120874302Y-114241655D01*
X121029995Y-114255277D01*
X121030000Y-114255277D01*
X121030005Y-114255277D01*
X121166235Y-114243358D01*
X121247977Y-114236207D01*
X121459330Y-114179575D01*
X121657639Y-114087102D01*
X121836877Y-113961598D01*
X121991598Y-113806877D01*
X122117102Y-113627639D01*
X122209575Y-113429330D01*
X122266207Y-113217977D01*
X122285277Y-113000000D01*
X122285277Y-112999994D01*
X122266207Y-112782025D01*
X122266206Y-112782019D01*
X122209577Y-112570677D01*
X122209576Y-112570676D01*
X122209575Y-112570670D01*
X122117102Y-112372362D01*
X121991598Y-112193123D01*
X121836877Y-112038402D01*
X121836874Y-112038400D01*
X121836875Y-112038400D01*
X121769690Y-111991357D01*
X121657639Y-111912898D01*
X121459330Y-111820425D01*
X121459326Y-111820424D01*
X121459322Y-111820422D01*
X121247980Y-111763793D01*
X121247974Y-111763792D01*
X121030005Y-111744723D01*
X121029995Y-111744723D01*
X120812025Y-111763792D01*
X120812019Y-111763793D01*
X120600677Y-111820422D01*
X120600670Y-111820424D01*
X120600670Y-111820425D01*
X120402362Y-111912898D01*
X120390873Y-111920943D01*
X120223122Y-112038402D01*
X120068402Y-112193122D01*
X119980524Y-112318626D01*
X119942898Y-112372362D01*
X119864117Y-112541307D01*
X119850427Y-112570666D01*
X119850422Y-112570677D01*
X119831478Y-112641380D01*
X119797000Y-112686313D01*
X119740847Y-112693705D01*
X119695914Y-112659227D01*
X119688522Y-112641380D01*
X119669577Y-112570677D01*
X119669576Y-112570676D01*
X119669575Y-112570670D01*
X119577102Y-112372362D01*
X119451598Y-112193123D01*
X119296877Y-112038402D01*
X119296874Y-112038400D01*
X119296875Y-112038400D01*
X119229690Y-111991357D01*
X119117639Y-111912898D01*
X118919330Y-111820425D01*
X118919326Y-111820424D01*
X118919322Y-111820422D01*
X118707980Y-111763793D01*
X118707974Y-111763792D01*
X118490005Y-111744723D01*
X118489995Y-111744723D01*
X118272025Y-111763792D01*
X118272019Y-111763793D01*
X118060677Y-111820422D01*
X118060670Y-111820424D01*
X118060670Y-111820425D01*
X117862362Y-111912898D01*
X117850873Y-111920943D01*
X117683122Y-112038402D01*
X117528402Y-112193122D01*
X117402896Y-112372364D01*
X117402895Y-112372366D01*
X117341958Y-112503044D01*
X117300201Y-112541308D01*
X117243618Y-112538836D01*
X117207825Y-112503044D01*
X117123598Y-112322421D01*
X116988109Y-112128921D01*
X116821075Y-111961888D01*
X116821076Y-111961888D01*
X116627579Y-111826401D01*
X116413494Y-111726571D01*
X116413483Y-111726566D01*
X116200000Y-111669363D01*
X116200000Y-112566988D01*
X116142993Y-112534075D01*
X116015826Y-112500000D01*
X115884174Y-112500000D01*
X115757007Y-112534075D01*
X115700000Y-112566988D01*
X115700000Y-111669363D01*
X115699999Y-111669363D01*
X115486512Y-111726567D01*
X115272421Y-111826401D01*
X115078921Y-111961890D01*
X114911890Y-112128921D01*
X114776401Y-112322421D01*
X114692174Y-112503044D01*
X114650416Y-112541307D01*
X114593833Y-112538837D01*
X114558040Y-112503044D01*
X114555652Y-112497923D01*
X114497102Y-112372362D01*
X114371598Y-112193123D01*
X114216877Y-112038402D01*
X114216874Y-112038400D01*
X114216875Y-112038400D01*
X114149690Y-111991357D01*
X114037639Y-111912898D01*
X113839330Y-111820425D01*
X113839326Y-111820424D01*
X113839322Y-111820422D01*
X113627980Y-111763793D01*
X113627974Y-111763792D01*
X113410005Y-111744723D01*
X113409995Y-111744723D01*
X113192025Y-111763792D01*
X113192019Y-111763793D01*
X112980677Y-111820422D01*
X112980670Y-111820424D01*
X112980670Y-111820425D01*
X112782362Y-111912898D01*
X112770873Y-111920943D01*
X112603122Y-112038402D01*
X112448402Y-112193122D01*
X112360524Y-112318626D01*
X112322898Y-112372362D01*
X112244117Y-112541307D01*
X112230427Y-112570666D01*
X112230422Y-112570677D01*
X112211478Y-112641380D01*
X112177000Y-112686313D01*
X112120847Y-112693705D01*
X112075914Y-112659227D01*
X112068522Y-112641380D01*
X112049577Y-112570677D01*
X112049576Y-112570676D01*
X112049575Y-112570670D01*
X111957102Y-112372362D01*
X111831598Y-112193123D01*
X111676877Y-112038402D01*
X111676874Y-112038400D01*
X111676875Y-112038400D01*
X111609690Y-111991357D01*
X111497639Y-111912898D01*
X111299330Y-111820425D01*
X111299326Y-111820424D01*
X111299322Y-111820422D01*
X111087980Y-111763793D01*
X111087974Y-111763792D01*
X110870005Y-111744723D01*
X110869995Y-111744723D01*
X110652025Y-111763792D01*
X110652019Y-111763793D01*
X110440677Y-111820422D01*
X110440670Y-111820424D01*
X110440670Y-111820425D01*
X110242362Y-111912898D01*
X110230873Y-111920943D01*
X110063122Y-112038402D01*
X109908402Y-112193122D01*
X109820524Y-112318626D01*
X109782898Y-112372362D01*
X109704117Y-112541307D01*
X109690427Y-112570666D01*
X109690422Y-112570677D01*
X109671478Y-112641380D01*
X109637000Y-112686313D01*
X109580847Y-112693705D01*
X109535914Y-112659227D01*
X109528522Y-112641380D01*
X109509577Y-112570677D01*
X109509576Y-112570676D01*
X109509575Y-112570670D01*
X109417102Y-112372362D01*
X109291598Y-112193123D01*
X109136877Y-112038402D01*
X109136874Y-112038400D01*
X109136875Y-112038400D01*
X109069690Y-111991357D01*
X108957639Y-111912898D01*
X108759330Y-111820425D01*
X108759326Y-111820424D01*
X108759322Y-111820422D01*
X108547980Y-111763793D01*
X108547974Y-111763792D01*
X108330005Y-111744723D01*
X108329995Y-111744723D01*
X108112025Y-111763792D01*
X108112019Y-111763793D01*
X107900677Y-111820422D01*
X107900670Y-111820424D01*
X107900670Y-111820425D01*
X107702362Y-111912898D01*
X107690873Y-111920943D01*
X107523122Y-112038402D01*
X107368402Y-112193122D01*
X107280524Y-112318626D01*
X107242898Y-112372362D01*
X107164117Y-112541307D01*
X107150427Y-112570666D01*
X107150422Y-112570677D01*
X107131478Y-112641380D01*
X107097000Y-112686313D01*
X107040847Y-112693705D01*
X106995914Y-112659227D01*
X106988522Y-112641380D01*
X106969577Y-112570677D01*
X106969576Y-112570676D01*
X106969575Y-112570670D01*
X106877102Y-112372362D01*
X106751598Y-112193123D01*
X106596877Y-112038402D01*
X106596874Y-112038400D01*
X106596875Y-112038400D01*
X106422055Y-111915990D01*
X106391624Y-111868223D01*
X106390500Y-111855373D01*
X106390500Y-111210943D01*
X106360907Y-111100499D01*
X106360907Y-111100498D01*
X106349942Y-111059578D01*
X106349577Y-111058215D01*
X106317695Y-111002994D01*
X106270520Y-110921284D01*
X106158716Y-110809480D01*
X106156137Y-110806901D01*
X106156126Y-110806891D01*
X99484740Y-104135505D01*
X99484738Y-104135502D01*
X99368715Y-104019479D01*
X99281904Y-103969360D01*
X99281902Y-103969359D01*
X99231788Y-103940424D01*
X99231781Y-103940421D01*
X99079059Y-103899499D01*
X99079057Y-103899499D01*
X98920943Y-103899499D01*
X98916413Y-103899499D01*
X98916397Y-103899500D01*
X90974499Y-103899500D01*
X90922173Y-103877826D01*
X90900499Y-103825500D01*
X90900499Y-103718480D01*
X90885646Y-103624695D01*
X90885645Y-103624694D01*
X90883193Y-103619882D01*
X90839226Y-103533593D01*
X90834783Y-103477132D01*
X90839220Y-103466419D01*
X90885646Y-103375304D01*
X90900500Y-103281519D01*
X90900499Y-101718482D01*
X90900119Y-101716085D01*
X90885646Y-101624695D01*
X90885645Y-101624694D01*
X90878932Y-101611519D01*
X90839226Y-101533593D01*
X90834783Y-101477132D01*
X90839220Y-101466419D01*
X90885646Y-101375304D01*
X90900500Y-101281519D01*
X90900499Y-99718482D01*
X90885646Y-99624696D01*
X90885643Y-99624690D01*
X90884925Y-99622481D01*
X90885047Y-99620918D01*
X90884735Y-99618943D01*
X90885208Y-99618867D01*
X90889363Y-99566018D01*
X90896062Y-99555258D01*
X90943354Y-99492085D01*
X90993596Y-99357380D01*
X90993597Y-99357375D01*
X91000000Y-99297828D01*
X91000000Y-98750000D01*
X89324000Y-98750000D01*
X89271674Y-98728326D01*
X89250000Y-98676000D01*
X89250000Y-98250000D01*
X89750000Y-98250000D01*
X91000000Y-98250000D01*
X91000000Y-97702171D01*
X90993597Y-97642624D01*
X90993596Y-97642619D01*
X90943354Y-97507912D01*
X90943353Y-97507911D01*
X90857188Y-97392811D01*
X90742088Y-97306646D01*
X90742087Y-97306645D01*
X90607380Y-97256403D01*
X90607375Y-97256402D01*
X90547829Y-97250000D01*
X89750000Y-97250000D01*
X89750000Y-98250000D01*
X89250000Y-98250000D01*
X89250000Y-97250000D01*
X88774500Y-97250000D01*
X88722174Y-97228326D01*
X88700500Y-97176000D01*
X88700500Y-89728387D01*
X88722174Y-89676061D01*
X88774500Y-89654387D01*
X88826826Y-89676061D01*
X109766891Y-110616126D01*
X109766896Y-110616132D01*
X109769480Y-110618716D01*
X109881284Y-110730520D01*
X109968095Y-110780639D01*
X110018215Y-110809577D01*
X110018217Y-110809577D01*
X110018218Y-110809578D01*
X110094578Y-110830038D01*
X110170939Y-110850499D01*
X110170940Y-110850500D01*
X110170942Y-110850500D01*
X110170943Y-110850500D01*
X121220613Y-110850500D01*
X121272939Y-110872174D01*
X122627826Y-112227061D01*
X122649500Y-112279387D01*
X122649500Y-114720612D01*
X122627826Y-114772938D01*
X118772939Y-118627826D01*
X118720613Y-118649500D01*
X104381431Y-118649500D01*
X104347042Y-118641024D01*
X104250225Y-118590210D01*
X104125767Y-118559534D01*
X104085057Y-118549500D01*
X104085056Y-118549500D01*
X103914944Y-118549500D01*
X103914941Y-118549500D01*
X103749777Y-118590209D01*
X103599146Y-118669267D01*
X103599143Y-118669269D01*
X103471816Y-118782071D01*
X103375181Y-118922070D01*
X103314859Y-119081128D01*
X103294355Y-119249996D01*
X103294355Y-119250003D01*
X103314859Y-119418871D01*
X103375181Y-119577929D01*
X103471816Y-119717928D01*
X103575267Y-119809578D01*
X103599148Y-119830734D01*
X103749775Y-119909790D01*
X103914944Y-119950500D01*
X103914948Y-119950500D01*
X104085052Y-119950500D01*
X104085056Y-119950500D01*
X104250225Y-119909790D01*
X104347042Y-119858975D01*
X104381431Y-119850500D01*
X118916397Y-119850500D01*
X118916413Y-119850501D01*
X118920943Y-119850501D01*
X119079059Y-119850501D01*
X119079059Y-119850500D01*
X119231785Y-119809577D01*
X119281904Y-119780639D01*
X119368716Y-119730520D01*
X119480520Y-119618716D01*
X119480521Y-119618713D01*
X123730520Y-115368716D01*
X123809577Y-115231784D01*
X123850500Y-115079059D01*
X123850501Y-115079059D01*
X123850501Y-114916413D01*
X123850500Y-114916395D01*
X123850500Y-112085029D01*
X123850501Y-112085016D01*
X123850501Y-111920941D01*
X123850500Y-111920940D01*
X123848345Y-111912899D01*
X123836374Y-111868223D01*
X123809578Y-111768218D01*
X123785531Y-111726567D01*
X123730520Y-111631284D01*
X121984739Y-109885504D01*
X121984738Y-109885502D01*
X121868716Y-109769480D01*
X121780382Y-109718481D01*
X121780381Y-109718479D01*
X121731786Y-109690423D01*
X121731781Y-109690421D01*
X121579059Y-109649499D01*
X121579057Y-109649499D01*
X121420943Y-109649499D01*
X121416413Y-109649499D01*
X121416397Y-109649500D01*
X110529387Y-109649500D01*
X110477061Y-109627826D01*
X102956060Y-102106825D01*
X102934386Y-102054499D01*
X102956060Y-102002173D01*
X103008386Y-101980499D01*
X105031519Y-101980499D01*
X105125304Y-101965646D01*
X105125306Y-101965645D01*
X105127419Y-101964568D01*
X105238342Y-101908050D01*
X105328050Y-101818342D01*
X105385646Y-101705304D01*
X105397917Y-101627828D01*
X117500000Y-101627828D01*
X117506402Y-101687375D01*
X117506403Y-101687380D01*
X117556645Y-101822087D01*
X117556646Y-101822088D01*
X117642811Y-101937188D01*
X117757911Y-102023353D01*
X117757912Y-102023354D01*
X117892619Y-102073596D01*
X117892624Y-102073597D01*
X117952171Y-102080000D01*
X119000000Y-102080000D01*
X119500000Y-102080000D01*
X120547829Y-102080000D01*
X120607375Y-102073597D01*
X120607380Y-102073596D01*
X120742087Y-102023354D01*
X120742088Y-102023353D01*
X120857188Y-101937188D01*
X120943353Y-101822088D01*
X120943354Y-101822087D01*
X120993596Y-101687380D01*
X120993597Y-101687375D01*
X121000000Y-101627828D01*
X121000000Y-101330000D01*
X119500000Y-101330000D01*
X119500000Y-102080000D01*
X119000000Y-102080000D01*
X119000000Y-101330000D01*
X117500000Y-101330000D01*
X117500000Y-101627828D01*
X105397917Y-101627828D01*
X105400500Y-101611519D01*
X105400499Y-100548482D01*
X105397916Y-100532171D01*
X117500000Y-100532171D01*
X117500000Y-100830000D01*
X119000000Y-100830000D01*
X119500000Y-100830000D01*
X121000000Y-100830000D01*
X121000000Y-100532171D01*
X120993597Y-100472624D01*
X120993596Y-100472619D01*
X120943354Y-100337912D01*
X120943353Y-100337911D01*
X120857188Y-100222811D01*
X120742088Y-100136646D01*
X120742087Y-100136645D01*
X120607380Y-100086403D01*
X120607375Y-100086402D01*
X120547829Y-100080000D01*
X119500000Y-100080000D01*
X119500000Y-100830000D01*
X119000000Y-100830000D01*
X119000000Y-100080000D01*
X117952171Y-100080000D01*
X117892624Y-100086402D01*
X117892619Y-100086403D01*
X117757912Y-100136645D01*
X117757911Y-100136646D01*
X117642811Y-100222811D01*
X117556646Y-100337911D01*
X117556645Y-100337912D01*
X117506403Y-100472619D01*
X117506402Y-100472624D01*
X117500000Y-100532171D01*
X105397916Y-100532171D01*
X105388484Y-100472619D01*
X105385646Y-100454695D01*
X105385645Y-100454693D01*
X105355770Y-100396061D01*
X105328050Y-100341658D01*
X105238342Y-100251950D01*
X105125304Y-100194354D01*
X105125302Y-100194353D01*
X105125301Y-100194353D01*
X105031520Y-100179500D01*
X105031519Y-100179500D01*
X103309387Y-100179500D01*
X103257061Y-100157826D01*
X102666060Y-99566825D01*
X102644386Y-99514499D01*
X102666060Y-99462173D01*
X102718386Y-99440499D01*
X105031519Y-99440499D01*
X105125304Y-99425646D01*
X105125306Y-99425645D01*
X105132558Y-99421950D01*
X105238342Y-99368050D01*
X105328050Y-99278342D01*
X105385646Y-99165304D01*
X105400500Y-99071519D01*
X105400499Y-98008482D01*
X105400499Y-98008480D01*
X117599500Y-98008480D01*
X117599500Y-99071519D01*
X117614353Y-99165304D01*
X117614354Y-99165306D01*
X117671950Y-99278342D01*
X117761658Y-99368050D01*
X117874696Y-99425646D01*
X117968481Y-99440500D01*
X120531518Y-99440499D01*
X120531519Y-99440499D01*
X120625304Y-99425646D01*
X120625306Y-99425645D01*
X120632558Y-99421950D01*
X120738342Y-99368050D01*
X120828050Y-99278342D01*
X120885646Y-99165304D01*
X120900500Y-99071519D01*
X120900499Y-98008482D01*
X120885646Y-97914696D01*
X120885646Y-97914695D01*
X120885645Y-97914693D01*
X120828049Y-97801657D01*
X120738343Y-97711951D01*
X120738342Y-97711950D01*
X120625304Y-97654354D01*
X120625302Y-97654353D01*
X120625301Y-97654353D01*
X120531519Y-97639500D01*
X117968480Y-97639500D01*
X117874695Y-97654353D01*
X117874693Y-97654354D01*
X117761657Y-97711950D01*
X117671951Y-97801656D01*
X117614353Y-97914698D01*
X117599500Y-98008480D01*
X105400499Y-98008480D01*
X105385646Y-97914696D01*
X105385646Y-97914695D01*
X105385645Y-97914693D01*
X105328049Y-97801657D01*
X105238343Y-97711951D01*
X105238342Y-97711950D01*
X105125304Y-97654354D01*
X105125302Y-97654353D01*
X105125301Y-97654353D01*
X105031519Y-97639500D01*
X102468480Y-97639500D01*
X102374695Y-97654353D01*
X102374693Y-97654354D01*
X102261657Y-97711950D01*
X102261654Y-97711952D01*
X102213746Y-97759860D01*
X102161420Y-97781534D01*
X102109096Y-97759860D01*
X100897064Y-96547828D01*
X102000000Y-96547828D01*
X102006402Y-96607375D01*
X102006403Y-96607380D01*
X102056645Y-96742087D01*
X102056646Y-96742088D01*
X102142811Y-96857188D01*
X102257911Y-96943353D01*
X102257912Y-96943354D01*
X102392619Y-96993596D01*
X102392624Y-96993597D01*
X102452171Y-97000000D01*
X103500000Y-97000000D01*
X104000000Y-97000000D01*
X105047829Y-97000000D01*
X105107375Y-96993597D01*
X105107380Y-96993596D01*
X105242087Y-96943354D01*
X105242088Y-96943353D01*
X105357188Y-96857188D01*
X105443353Y-96742088D01*
X105443354Y-96742087D01*
X105493596Y-96607380D01*
X105493597Y-96607375D01*
X105500000Y-96547828D01*
X105500000Y-96250000D01*
X104000000Y-96250000D01*
X104000000Y-97000000D01*
X103500000Y-97000000D01*
X103500000Y-96250000D01*
X102000000Y-96250000D01*
X102000000Y-96547828D01*
X100897064Y-96547828D01*
X99801407Y-95452171D01*
X102000000Y-95452171D01*
X102000000Y-95750000D01*
X103500000Y-95750000D01*
X104000000Y-95750000D01*
X105500000Y-95750000D01*
X105500000Y-95468480D01*
X117599500Y-95468480D01*
X117599500Y-96531519D01*
X117614353Y-96625304D01*
X117614354Y-96625306D01*
X117671950Y-96738342D01*
X117761658Y-96828050D01*
X117874696Y-96885646D01*
X117968481Y-96900500D01*
X120531518Y-96900499D01*
X120531519Y-96900499D01*
X120625304Y-96885646D01*
X120625306Y-96885645D01*
X120633867Y-96881283D01*
X120738342Y-96828050D01*
X120828050Y-96738342D01*
X120885646Y-96625304D01*
X120900500Y-96531519D01*
X120900499Y-95468482D01*
X120888484Y-95392619D01*
X120885646Y-95374695D01*
X120885645Y-95374693D01*
X120855770Y-95316061D01*
X120828050Y-95261658D01*
X120738342Y-95171950D01*
X120625304Y-95114354D01*
X120625302Y-95114353D01*
X120625301Y-95114353D01*
X120531519Y-95099500D01*
X117968480Y-95099500D01*
X117874695Y-95114353D01*
X117874693Y-95114354D01*
X117761657Y-95171950D01*
X117671951Y-95261656D01*
X117614353Y-95374698D01*
X117599500Y-95468480D01*
X105500000Y-95468480D01*
X105500000Y-95452171D01*
X105493597Y-95392624D01*
X105493596Y-95392619D01*
X105443354Y-95257912D01*
X105443353Y-95257911D01*
X105357188Y-95142811D01*
X105242088Y-95056646D01*
X105242087Y-95056645D01*
X105107380Y-95006403D01*
X105107375Y-95006402D01*
X105047829Y-95000000D01*
X104000000Y-95000000D01*
X104000000Y-95750000D01*
X103500000Y-95750000D01*
X103500000Y-95000000D01*
X102452171Y-95000000D01*
X102392624Y-95006402D01*
X102392619Y-95006403D01*
X102257912Y-95056645D01*
X102257911Y-95056646D01*
X102142811Y-95142811D01*
X102056646Y-95257911D01*
X102056645Y-95257912D01*
X102006403Y-95392619D01*
X102006402Y-95392624D01*
X102000000Y-95452171D01*
X99801407Y-95452171D01*
X95170394Y-90821159D01*
X99899500Y-90821159D01*
X99899500Y-90978840D01*
X99930261Y-91133491D01*
X99930264Y-91133501D01*
X99990603Y-91279174D01*
X99990605Y-91279177D01*
X99990606Y-91279179D01*
X100078211Y-91410289D01*
X100189711Y-91521789D01*
X100320821Y-91609394D01*
X100320826Y-91609396D01*
X100320825Y-91609396D01*
X100391529Y-91638682D01*
X100466503Y-91669737D01*
X100621158Y-91700500D01*
X100875500Y-91700500D01*
X100927826Y-91722174D01*
X100949500Y-91774500D01*
X100949500Y-92171158D01*
X100949500Y-92421158D01*
X100949500Y-92578842D01*
X100956325Y-92613153D01*
X100980261Y-92733491D01*
X100980264Y-92733501D01*
X101040603Y-92879174D01*
X101128210Y-93010288D01*
X102080628Y-93962706D01*
X102101391Y-94003456D01*
X102114354Y-94085304D01*
X102114354Y-94085306D01*
X102137815Y-94131349D01*
X102171950Y-94198342D01*
X102261658Y-94288050D01*
X102374696Y-94345646D01*
X102468481Y-94360500D01*
X105031518Y-94360499D01*
X105031519Y-94360499D01*
X105125304Y-94345646D01*
X105125306Y-94345645D01*
X105127419Y-94344568D01*
X105238342Y-94288050D01*
X105328050Y-94198342D01*
X105385646Y-94085304D01*
X105400500Y-93991519D01*
X105400499Y-92928482D01*
X105400499Y-92928480D01*
X117599500Y-92928480D01*
X117599500Y-93991519D01*
X117614353Y-94085304D01*
X117614354Y-94085306D01*
X117637815Y-94131349D01*
X117671950Y-94198342D01*
X117761658Y-94288050D01*
X117874696Y-94345646D01*
X117968481Y-94360500D01*
X120531518Y-94360499D01*
X120531519Y-94360499D01*
X120625304Y-94345646D01*
X120625306Y-94345645D01*
X120627419Y-94344568D01*
X120738342Y-94288050D01*
X120828050Y-94198342D01*
X120885646Y-94085304D01*
X120900500Y-93991519D01*
X120900499Y-92928482D01*
X120900180Y-92926470D01*
X120885646Y-92834695D01*
X120885645Y-92834693D01*
X120828049Y-92721657D01*
X120738343Y-92631951D01*
X120738342Y-92631950D01*
X120625304Y-92574354D01*
X120625302Y-92574353D01*
X120625301Y-92574353D01*
X120531519Y-92559500D01*
X117968480Y-92559500D01*
X117874695Y-92574353D01*
X117874693Y-92574354D01*
X117761657Y-92631950D01*
X117671951Y-92721656D01*
X117614353Y-92834698D01*
X117599500Y-92928480D01*
X105400499Y-92928480D01*
X105400180Y-92926470D01*
X105385646Y-92834695D01*
X105385645Y-92834693D01*
X105328049Y-92721657D01*
X105238343Y-92631951D01*
X105238342Y-92631950D01*
X105125304Y-92574354D01*
X105125302Y-92574353D01*
X105125301Y-92574353D01*
X105031520Y-92559500D01*
X105031519Y-92559500D01*
X102972230Y-92559500D01*
X102919904Y-92537826D01*
X102572174Y-92190096D01*
X102550500Y-92137770D01*
X102550500Y-91894499D01*
X102572174Y-91842173D01*
X102624500Y-91820499D01*
X105031519Y-91820499D01*
X105125304Y-91805646D01*
X105125306Y-91805645D01*
X105127419Y-91804568D01*
X105238342Y-91748050D01*
X105328050Y-91658342D01*
X105385646Y-91545304D01*
X105400500Y-91451519D01*
X105400499Y-90388482D01*
X105400499Y-90388480D01*
X117599500Y-90388480D01*
X117599500Y-91451519D01*
X117614353Y-91545304D01*
X117614354Y-91545306D01*
X117650889Y-91617008D01*
X117671950Y-91658342D01*
X117761658Y-91748050D01*
X117874696Y-91805646D01*
X117968481Y-91820500D01*
X120531518Y-91820499D01*
X120531519Y-91820499D01*
X120625304Y-91805646D01*
X120625306Y-91805645D01*
X120627419Y-91804568D01*
X120738342Y-91748050D01*
X120828050Y-91658342D01*
X120885646Y-91545304D01*
X120900500Y-91451519D01*
X120900499Y-90388482D01*
X120900375Y-90387702D01*
X120885646Y-90294695D01*
X120885645Y-90294693D01*
X120855770Y-90236061D01*
X120828050Y-90181658D01*
X120738342Y-90091950D01*
X120625304Y-90034354D01*
X120625302Y-90034353D01*
X120625301Y-90034353D01*
X120531519Y-90019500D01*
X117968480Y-90019500D01*
X117874695Y-90034353D01*
X117874693Y-90034354D01*
X117761657Y-90091950D01*
X117671951Y-90181656D01*
X117614353Y-90294698D01*
X117599500Y-90388480D01*
X105400499Y-90388480D01*
X105400375Y-90387702D01*
X105385646Y-90294695D01*
X105385645Y-90294693D01*
X105355770Y-90236061D01*
X105328050Y-90181658D01*
X105238342Y-90091950D01*
X105125304Y-90034354D01*
X105125302Y-90034353D01*
X105125301Y-90034353D01*
X105031519Y-90019500D01*
X102468480Y-90019500D01*
X102374695Y-90034353D01*
X102374693Y-90034354D01*
X102261657Y-90091950D01*
X102255782Y-90097826D01*
X102203456Y-90119500D01*
X101836676Y-90119500D01*
X101822239Y-90118078D01*
X101728842Y-90099500D01*
X100621158Y-90099500D01*
X100577315Y-90108220D01*
X100466508Y-90130261D01*
X100466498Y-90130264D01*
X100320825Y-90190603D01*
X100189711Y-90278210D01*
X100189710Y-90278212D01*
X100078212Y-90389710D01*
X100078210Y-90389711D01*
X99990603Y-90520825D01*
X99930264Y-90666498D01*
X99930261Y-90666508D01*
X99899500Y-90821159D01*
X95170394Y-90821159D01*
X92734739Y-88385504D01*
X92734738Y-88385502D01*
X92618715Y-88269479D01*
X92531904Y-88219360D01*
X92531902Y-88219359D01*
X92481788Y-88190424D01*
X92481781Y-88190421D01*
X92329059Y-88149499D01*
X92329057Y-88149499D01*
X92170943Y-88149499D01*
X92166413Y-88149499D01*
X92166397Y-88149500D01*
X91131431Y-88149500D01*
X91097042Y-88141024D01*
X91000225Y-88090210D01*
X90860381Y-88055742D01*
X90835057Y-88049500D01*
X90835056Y-88049500D01*
X90664944Y-88049500D01*
X90664941Y-88049500D01*
X90499777Y-88090209D01*
X90349146Y-88169267D01*
X90349143Y-88169269D01*
X90221816Y-88282071D01*
X90125181Y-88422070D01*
X90064859Y-88581128D01*
X90044355Y-88749996D01*
X90044355Y-88750003D01*
X90064859Y-88918873D01*
X90123918Y-89074600D01*
X90122207Y-89131211D01*
X90080967Y-89170031D01*
X90024356Y-89168320D01*
X90002401Y-89153166D01*
X89622174Y-88772939D01*
X89600500Y-88720613D01*
X89600500Y-87848480D01*
X102099500Y-87848480D01*
X102099500Y-88911519D01*
X102114353Y-89005304D01*
X102114354Y-89005306D01*
X102149662Y-89074600D01*
X102171950Y-89118342D01*
X102261658Y-89208050D01*
X102374696Y-89265646D01*
X102468481Y-89280500D01*
X105031518Y-89280499D01*
X105031519Y-89280499D01*
X105125304Y-89265646D01*
X105125306Y-89265645D01*
X105127419Y-89264568D01*
X105238342Y-89208050D01*
X105328050Y-89118342D01*
X105385646Y-89005304D01*
X105400500Y-88911519D01*
X105400499Y-87848482D01*
X105396859Y-87825500D01*
X105385646Y-87754695D01*
X105385645Y-87754693D01*
X105328049Y-87641657D01*
X105238343Y-87551951D01*
X105238342Y-87551950D01*
X105125304Y-87494354D01*
X105125302Y-87494353D01*
X105125301Y-87494353D01*
X105031519Y-87479500D01*
X102468480Y-87479500D01*
X102374695Y-87494353D01*
X102374693Y-87494354D01*
X102261657Y-87551950D01*
X102171951Y-87641656D01*
X102114353Y-87754698D01*
X102099500Y-87848480D01*
X89600500Y-87848480D01*
X89600500Y-83136218D01*
X89613598Y-83094184D01*
X89624818Y-83077930D01*
X89681547Y-82928347D01*
X89720367Y-82887107D01*
X89776978Y-82885396D01*
X89803064Y-82902261D01*
X91664721Y-84763918D01*
X91664726Y-84763924D01*
X91667310Y-84766508D01*
X91779114Y-84878312D01*
X91852954Y-84920943D01*
X91916045Y-84957369D01*
X91916046Y-84957369D01*
X91916048Y-84957370D01*
X91992409Y-84977831D01*
X92068770Y-84998292D01*
X92068771Y-84998293D01*
X92068773Y-84998293D01*
X92231417Y-84998293D01*
X92231433Y-84998292D01*
X117368405Y-84998292D01*
X117420731Y-85019966D01*
X119753939Y-87353174D01*
X119775613Y-87405500D01*
X119753939Y-87457826D01*
X119701613Y-87479500D01*
X117968480Y-87479500D01*
X117874695Y-87494353D01*
X117874693Y-87494354D01*
X117761657Y-87551950D01*
X117671951Y-87641656D01*
X117614353Y-87754698D01*
X117599500Y-87848480D01*
X117599500Y-88911519D01*
X117614353Y-89005304D01*
X117614354Y-89005306D01*
X117649662Y-89074600D01*
X117671950Y-89118342D01*
X117761658Y-89208050D01*
X117874696Y-89265646D01*
X117968481Y-89280500D01*
X120531518Y-89280499D01*
X120531519Y-89280499D01*
X120625304Y-89265646D01*
X120625306Y-89265645D01*
X120627419Y-89264568D01*
X120738342Y-89208050D01*
X120828050Y-89118342D01*
X120885646Y-89005304D01*
X120900500Y-88911519D01*
X120900499Y-88678384D01*
X120922173Y-88626060D01*
X120974499Y-88604386D01*
X121026825Y-88626060D01*
X121327826Y-88927061D01*
X121349500Y-88979387D01*
X121349500Y-104866396D01*
X121349499Y-104866414D01*
X121349499Y-105029059D01*
X121390421Y-105181781D01*
X121390422Y-105181783D01*
X121390423Y-105181785D01*
X121419291Y-105231785D01*
X121469480Y-105318716D01*
X121585499Y-105434735D01*
X121585505Y-105434740D01*
X135766891Y-119616126D01*
X135766896Y-119616132D01*
X135769480Y-119618716D01*
X135881284Y-119730520D01*
X135968095Y-119780639D01*
X136000722Y-119799477D01*
X136018211Y-119809575D01*
X136018213Y-119809575D01*
X136018215Y-119809577D01*
X136018216Y-119809577D01*
X136018218Y-119809578D01*
X136094579Y-119830039D01*
X136170940Y-119850500D01*
X136170941Y-119850501D01*
X136170943Y-119850501D01*
X136333587Y-119850501D01*
X136333603Y-119850500D01*
X141916397Y-119850500D01*
X141916413Y-119850501D01*
X141920943Y-119850501D01*
X142079059Y-119850501D01*
X142079059Y-119850500D01*
X142231785Y-119809577D01*
X142281904Y-119780639D01*
X142368716Y-119730520D01*
X142480520Y-119618716D01*
X142480521Y-119618713D01*
X143448534Y-118650699D01*
X143488677Y-118630036D01*
X143594981Y-118612298D01*
X143814503Y-118536936D01*
X144018626Y-118426470D01*
X144201784Y-118283913D01*
X144358979Y-118113153D01*
X144485924Y-117918849D01*
X144579157Y-117706300D01*
X144636134Y-117481305D01*
X144655300Y-117250000D01*
X144655300Y-117249996D01*
X144636135Y-117018701D01*
X144636134Y-117018698D01*
X144636134Y-117018695D01*
X144579157Y-116793700D01*
X144485924Y-116581151D01*
X144358979Y-116386847D01*
X144201784Y-116216087D01*
X144201783Y-116216086D01*
X144201782Y-116216085D01*
X144053277Y-116100500D01*
X144018626Y-116073530D01*
X143939378Y-116030643D01*
X143814504Y-115963064D01*
X143694742Y-115921950D01*
X143594981Y-115887702D01*
X143594978Y-115887701D01*
X143594977Y-115887701D01*
X143366051Y-115849500D01*
X143366049Y-115849500D01*
X143133951Y-115849500D01*
X143133948Y-115849500D01*
X142905022Y-115887701D01*
X142685495Y-115963064D01*
X142481381Y-116073526D01*
X142481371Y-116073532D01*
X142298217Y-116216085D01*
X142141021Y-116386846D01*
X142121376Y-116416915D01*
X142074611Y-116448865D01*
X142018951Y-116438390D01*
X141997476Y-116416914D01*
X141973434Y-116380116D01*
X141232962Y-117120589D01*
X141215925Y-117057007D01*
X141150099Y-116942993D01*
X141057007Y-116849901D01*
X140942993Y-116784075D01*
X140879409Y-116767037D01*
X141620056Y-116026389D01*
X141620056Y-116026388D01*
X141573237Y-115989947D01*
X141354609Y-115871632D01*
X141119486Y-115790915D01*
X140874296Y-115750000D01*
X140625703Y-115750000D01*
X140380513Y-115790915D01*
X140145390Y-115871632D01*
X139926763Y-115989947D01*
X139739860Y-116135421D01*
X139685255Y-116150457D01*
X139636012Y-116122477D01*
X139628477Y-116110627D01*
X139578050Y-116011658D01*
X139488342Y-115921950D01*
X139375304Y-115864354D01*
X139375302Y-115864353D01*
X139375301Y-115864353D01*
X139281520Y-115849500D01*
X139281519Y-115849500D01*
X137729387Y-115849500D01*
X137677061Y-115827826D01*
X129967715Y-108118480D01*
X133749500Y-108118480D01*
X133749500Y-111381519D01*
X133764353Y-111475304D01*
X133764354Y-111475306D01*
X133810575Y-111566018D01*
X133821950Y-111588342D01*
X133911658Y-111678050D01*
X134024696Y-111735646D01*
X134118481Y-111750500D01*
X136181518Y-111750499D01*
X136181519Y-111750499D01*
X136275304Y-111735646D01*
X136275306Y-111735645D01*
X136277419Y-111734568D01*
X136388342Y-111678050D01*
X136478050Y-111588342D01*
X136535646Y-111475304D01*
X136550500Y-111381519D01*
X136550499Y-108118482D01*
X136550499Y-108118480D01*
X144949500Y-108118480D01*
X144949500Y-111381519D01*
X144964353Y-111475304D01*
X144964354Y-111475306D01*
X145010575Y-111566018D01*
X145021950Y-111588342D01*
X145111658Y-111678050D01*
X145224696Y-111735646D01*
X145318481Y-111750500D01*
X147381518Y-111750499D01*
X147381519Y-111750499D01*
X147475304Y-111735646D01*
X147475306Y-111735645D01*
X147477419Y-111734568D01*
X147588342Y-111678050D01*
X147678050Y-111588342D01*
X147735646Y-111475304D01*
X147750500Y-111381519D01*
X147750499Y-108118482D01*
X147735646Y-108024696D01*
X147735646Y-108024695D01*
X147735645Y-108024693D01*
X147678049Y-107911657D01*
X147588343Y-107821951D01*
X147588342Y-107821950D01*
X147475304Y-107764354D01*
X147475302Y-107764353D01*
X147475301Y-107764353D01*
X147381519Y-107749500D01*
X145318480Y-107749500D01*
X145224695Y-107764353D01*
X145224693Y-107764354D01*
X145111657Y-107821950D01*
X145021951Y-107911656D01*
X144964353Y-108024698D01*
X144949500Y-108118480D01*
X136550499Y-108118480D01*
X136535646Y-108024696D01*
X136535646Y-108024695D01*
X136535645Y-108024693D01*
X136478049Y-107911657D01*
X136388343Y-107821951D01*
X136388342Y-107821950D01*
X136275304Y-107764354D01*
X136275302Y-107764353D01*
X136275301Y-107764353D01*
X136181519Y-107749500D01*
X134118480Y-107749500D01*
X134024695Y-107764353D01*
X134024693Y-107764354D01*
X133911657Y-107821950D01*
X133821951Y-107911656D01*
X133764353Y-108024698D01*
X133749500Y-108118480D01*
X129967715Y-108118480D01*
X123172174Y-101322939D01*
X123150500Y-101270613D01*
X123150500Y-87526915D01*
X123172174Y-87474589D01*
X123224500Y-87452915D01*
X123276826Y-87474589D01*
X137362735Y-101560498D01*
X137384409Y-101612824D01*
X137362735Y-101665150D01*
X137355861Y-101671220D01*
X137298214Y-101716088D01*
X137141021Y-101886846D01*
X137014076Y-102081150D01*
X136920845Y-102293693D01*
X136863864Y-102518701D01*
X136844700Y-102749996D01*
X136844700Y-102750003D01*
X136863864Y-102981298D01*
X136920845Y-103206306D01*
X136953837Y-103281519D01*
X137014076Y-103418849D01*
X137141021Y-103613153D01*
X137298216Y-103783913D01*
X137481374Y-103926470D01*
X137685497Y-104036936D01*
X137905019Y-104112298D01*
X138133951Y-104150500D01*
X138366049Y-104150500D01*
X138594981Y-104112298D01*
X138814503Y-104036936D01*
X139018626Y-103926470D01*
X139201784Y-103783913D01*
X139358979Y-103613153D01*
X139485924Y-103418849D01*
X139579157Y-103206300D01*
X139636134Y-102981305D01*
X139655300Y-102750000D01*
X139649846Y-102684174D01*
X139636135Y-102518701D01*
X139636134Y-102518698D01*
X139636134Y-102518695D01*
X139579157Y-102293700D01*
X139485924Y-102081151D01*
X139358979Y-101886847D01*
X139201784Y-101716087D01*
X139201783Y-101716086D01*
X139201782Y-101716085D01*
X139067434Y-101611519D01*
X139018626Y-101573530D01*
X138866940Y-101491441D01*
X138831237Y-101447476D01*
X138830700Y-101445577D01*
X138830178Y-101443627D01*
X138837589Y-101387479D01*
X138882534Y-101353015D01*
X138901663Y-101350500D01*
X142392220Y-101350500D01*
X142444546Y-101372174D01*
X142466220Y-101424500D01*
X142444546Y-101476826D01*
X142429287Y-101488202D01*
X142429332Y-101488270D01*
X142428242Y-101488981D01*
X142427439Y-101489581D01*
X142426778Y-101489938D01*
X142426757Y-101489952D01*
X142379942Y-101526388D01*
X142379942Y-101526389D01*
X143120590Y-102267037D01*
X143057007Y-102284075D01*
X142942993Y-102349901D01*
X142849901Y-102442993D01*
X142784075Y-102557007D01*
X142767037Y-102620590D01*
X142026563Y-101880116D01*
X141926266Y-102033633D01*
X141826414Y-102261273D01*
X141765385Y-102502268D01*
X141744859Y-102749996D01*
X141744859Y-102750003D01*
X141765385Y-102997731D01*
X141826414Y-103238726D01*
X141926266Y-103466366D01*
X142026563Y-103619882D01*
X142767037Y-102879407D01*
X142784075Y-102942993D01*
X142849901Y-103057007D01*
X142942993Y-103150099D01*
X143057007Y-103215925D01*
X143120590Y-103232962D01*
X142379941Y-103973610D01*
X142426763Y-104010052D01*
X142645390Y-104128367D01*
X142880513Y-104209084D01*
X143125703Y-104249999D01*
X143125706Y-104250000D01*
X143374294Y-104250000D01*
X143374296Y-104249999D01*
X143619486Y-104209084D01*
X143854609Y-104128367D01*
X144073236Y-104010052D01*
X144120056Y-103973610D01*
X144120057Y-103973610D01*
X143379409Y-103232962D01*
X143442993Y-103215925D01*
X143557007Y-103150099D01*
X143650099Y-103057007D01*
X143715925Y-102942993D01*
X143732962Y-102879409D01*
X144473435Y-103619882D01*
X144573733Y-103466366D01*
X144673585Y-103238726D01*
X144734614Y-102997731D01*
X144755141Y-102750003D01*
X144755141Y-102749996D01*
X144734614Y-102502268D01*
X144673585Y-102261273D01*
X144573733Y-102033633D01*
X144473435Y-101880116D01*
X143732962Y-102620589D01*
X143715925Y-102557007D01*
X143650099Y-102442993D01*
X143557007Y-102349901D01*
X143442993Y-102284075D01*
X143379407Y-102267037D01*
X144120056Y-101526389D01*
X144120056Y-101526388D01*
X144073237Y-101489947D01*
X144072561Y-101489582D01*
X144072429Y-101489420D01*
X144070678Y-101488276D01*
X144071044Y-101487714D01*
X144036856Y-101445617D01*
X144042697Y-101389282D01*
X144086662Y-101353577D01*
X144107779Y-101350500D01*
X144970613Y-101350500D01*
X145022939Y-101372174D01*
X148877826Y-105227061D01*
X148899500Y-105279387D01*
X148899500Y-109363779D01*
X148886401Y-109405815D01*
X148875183Y-109422066D01*
X148875182Y-109422068D01*
X148814859Y-109581128D01*
X148794355Y-109749996D01*
X148794355Y-109750003D01*
X148814859Y-109918871D01*
X148875181Y-110077929D01*
X148971816Y-110217928D01*
X149079754Y-110313553D01*
X149099148Y-110330734D01*
X149249775Y-110409790D01*
X149414944Y-110450500D01*
X149414948Y-110450500D01*
X149585052Y-110450500D01*
X149585056Y-110450500D01*
X149750225Y-110409790D01*
X149900852Y-110330734D01*
X150028183Y-110217929D01*
X150124818Y-110077930D01*
X150185140Y-109918872D01*
X150205645Y-109750000D01*
X150199837Y-109702171D01*
X150185140Y-109581128D01*
X150157373Y-109507911D01*
X150124818Y-109422070D01*
X150124817Y-109422068D01*
X150124816Y-109422066D01*
X150113599Y-109405815D01*
X150100500Y-109363779D01*
X150100500Y-105085029D01*
X150100501Y-105085016D01*
X150100501Y-104920941D01*
X150100500Y-104920940D01*
X150059578Y-104768218D01*
X150059577Y-104768216D01*
X149980520Y-104631284D01*
X145826060Y-100476825D01*
X145804387Y-100424500D01*
X145826061Y-100372174D01*
X145878387Y-100350500D01*
X149868569Y-100350500D01*
X149902957Y-100358975D01*
X149999775Y-100409790D01*
X150164944Y-100450500D01*
X150164948Y-100450500D01*
X150335052Y-100450500D01*
X150335056Y-100450500D01*
X150500225Y-100409790D01*
X150650852Y-100330734D01*
X150778183Y-100217929D01*
X150874818Y-100077930D01*
X150935140Y-99918872D01*
X150955645Y-99750000D01*
X150939971Y-99620918D01*
X150935140Y-99581128D01*
X150874818Y-99422070D01*
X150778183Y-99282071D01*
X150650856Y-99169269D01*
X150650853Y-99169267D01*
X150650852Y-99169266D01*
X150500225Y-99090210D01*
X150500222Y-99090209D01*
X150335058Y-99049500D01*
X150335056Y-99049500D01*
X150164944Y-99049500D01*
X150164942Y-99049500D01*
X150083522Y-99069568D01*
X149999775Y-99090210D01*
X149902957Y-99141024D01*
X149868569Y-99149500D01*
X139779387Y-99149500D01*
X139727061Y-99127826D01*
X131317715Y-90718480D01*
X136478716Y-90718480D01*
X136478716Y-92781519D01*
X136493569Y-92875304D01*
X136493570Y-92875306D01*
X136545828Y-92977865D01*
X136551166Y-92988342D01*
X136640874Y-93078050D01*
X136753912Y-93135646D01*
X136847697Y-93150500D01*
X138910734Y-93150499D01*
X138910735Y-93150499D01*
X139004520Y-93135646D01*
X139004522Y-93135645D01*
X139007752Y-93133999D01*
X139117558Y-93078050D01*
X139207266Y-92988342D01*
X139264862Y-92875304D01*
X139279716Y-92781519D01*
X139279715Y-91749996D01*
X141473916Y-91749996D01*
X141473916Y-91750003D01*
X141493080Y-91981298D01*
X141493082Y-91981305D01*
X141549251Y-92203111D01*
X141550061Y-92206306D01*
X141634999Y-92399944D01*
X141643292Y-92418849D01*
X141770237Y-92613153D01*
X141927432Y-92783913D01*
X142110590Y-92926470D01*
X142314713Y-93036936D01*
X142534235Y-93112298D01*
X142763167Y-93150500D01*
X142995265Y-93150500D01*
X143224197Y-93112298D01*
X143443719Y-93036936D01*
X143647842Y-92926470D01*
X143831000Y-92783913D01*
X143988195Y-92613153D01*
X144115140Y-92418849D01*
X144208373Y-92206300D01*
X144265350Y-91981305D01*
X144268915Y-91938290D01*
X144284516Y-91750003D01*
X144284516Y-91749996D01*
X144265351Y-91518701D01*
X144265350Y-91518698D01*
X144265350Y-91518695D01*
X144208373Y-91293700D01*
X144202003Y-91279179D01*
X144138101Y-91133497D01*
X144115140Y-91081151D01*
X143988195Y-90886847D01*
X143831000Y-90716087D01*
X143830999Y-90716086D01*
X143830998Y-90716085D01*
X143713576Y-90624693D01*
X143647842Y-90573530D01*
X143550452Y-90520825D01*
X143443720Y-90463064D01*
X143323958Y-90421950D01*
X143224197Y-90387702D01*
X143224194Y-90387701D01*
X143224193Y-90387701D01*
X142995267Y-90349500D01*
X142995265Y-90349500D01*
X142763167Y-90349500D01*
X142763164Y-90349500D01*
X142534238Y-90387701D01*
X142314711Y-90463064D01*
X142110597Y-90573526D01*
X142110587Y-90573532D01*
X141927433Y-90716085D01*
X141770237Y-90886846D01*
X141643292Y-91081150D01*
X141550061Y-91293693D01*
X141493080Y-91518701D01*
X141473916Y-91749996D01*
X139279715Y-91749996D01*
X139279715Y-90718482D01*
X139279335Y-90716085D01*
X139264862Y-90624695D01*
X139264861Y-90624693D01*
X139234986Y-90566061D01*
X139207266Y-90511658D01*
X139117558Y-90421950D01*
X139004520Y-90364354D01*
X139004518Y-90364353D01*
X139004517Y-90364353D01*
X138910735Y-90349500D01*
X136847696Y-90349500D01*
X136753911Y-90364353D01*
X136753909Y-90364354D01*
X136640873Y-90421950D01*
X136551167Y-90511656D01*
X136493569Y-90624698D01*
X136478716Y-90718480D01*
X131317715Y-90718480D01*
X119234740Y-78635505D01*
X119234738Y-78635502D01*
X119118715Y-78519479D01*
X119031904Y-78469360D01*
X119031902Y-78469359D01*
X118981788Y-78440424D01*
X118981781Y-78440421D01*
X118829059Y-78399499D01*
X118829057Y-78399499D01*
X118670943Y-78399499D01*
X118666413Y-78399499D01*
X118666397Y-78399500D01*
X96279387Y-78399500D01*
X96227061Y-78377826D01*
X94199291Y-76350056D01*
X94182426Y-76323971D01*
X94124818Y-76172070D01*
X94028183Y-76032071D01*
X93900856Y-75919269D01*
X93900853Y-75919267D01*
X93900852Y-75919266D01*
X93750225Y-75840210D01*
X93750222Y-75840209D01*
X93585058Y-75799500D01*
X93585056Y-75799500D01*
X93414944Y-75799500D01*
X93414941Y-75799500D01*
X93249777Y-75840209D01*
X93099146Y-75919267D01*
X93099143Y-75919269D01*
X92971816Y-76032071D01*
X92875181Y-76172070D01*
X92814859Y-76331128D01*
X92794355Y-76499996D01*
X92794355Y-76500003D01*
X92814859Y-76668871D01*
X92875181Y-76827929D01*
X92971816Y-76967928D01*
X93076021Y-77060246D01*
X93099148Y-77080734D01*
X93249775Y-77159790D01*
X93249777Y-77159790D01*
X93249778Y-77159791D01*
X93310404Y-77174733D01*
X93345022Y-77194257D01*
X95423939Y-79273174D01*
X95445613Y-79325500D01*
X95423939Y-79377826D01*
X95371613Y-79399500D01*
X95029388Y-79399500D01*
X94977062Y-79377826D01*
X94949290Y-79350054D01*
X94932425Y-79323968D01*
X94874819Y-79172071D01*
X94778183Y-79032071D01*
X94650856Y-78919269D01*
X94650853Y-78919267D01*
X94650852Y-78919266D01*
X94500225Y-78840210D01*
X94500222Y-78840209D01*
X94335058Y-78799500D01*
X94335056Y-78799500D01*
X94164944Y-78799500D01*
X94164941Y-78799500D01*
X93999777Y-78840209D01*
X93849146Y-78919267D01*
X93849143Y-78919269D01*
X93721816Y-79032071D01*
X93625181Y-79172070D01*
X93564860Y-79331127D01*
X93544355Y-79499996D01*
X93544355Y-79500003D01*
X93564859Y-79668871D01*
X93625181Y-79827929D01*
X93721816Y-79967928D01*
X93842975Y-80075266D01*
X93849148Y-80080734D01*
X93999775Y-80159790D01*
X93999777Y-80159790D01*
X93999778Y-80159791D01*
X94060404Y-80174733D01*
X94095021Y-80194256D01*
X94381284Y-80480520D01*
X94518216Y-80559577D01*
X94518218Y-80559578D01*
X94625570Y-80588343D01*
X94670940Y-80600500D01*
X94670941Y-80600501D01*
X94670943Y-80600501D01*
X94833588Y-80600501D01*
X94833604Y-80600500D01*
X117720613Y-80600500D01*
X117772939Y-80622174D01*
X117923939Y-80773174D01*
X117945613Y-80825500D01*
X117923939Y-80877826D01*
X117871613Y-80899500D01*
X92279387Y-80899500D01*
X92227061Y-80877826D01*
X90079296Y-78730061D01*
X90062431Y-78703976D01*
X90004823Y-78552075D01*
X89908188Y-78412076D01*
X89869528Y-78377826D01*
X89793427Y-78310407D01*
X89768634Y-78259486D01*
X89781598Y-78212981D01*
X89810615Y-78170943D01*
X89874818Y-78077930D01*
X89935140Y-77918872D01*
X89947365Y-77818193D01*
X89955645Y-77750003D01*
X89955645Y-77749996D01*
X89935140Y-77581128D01*
X89874818Y-77422070D01*
X89778183Y-77282071D01*
X89650856Y-77169269D01*
X89650853Y-77169267D01*
X89650852Y-77169266D01*
X89526029Y-77103753D01*
X89489772Y-77060246D01*
X89494897Y-77003841D01*
X89511349Y-76982842D01*
X89528183Y-76967929D01*
X89624818Y-76827930D01*
X89685140Y-76668872D01*
X89705645Y-76500000D01*
X89701532Y-76466128D01*
X89685140Y-76331128D01*
X89624818Y-76172070D01*
X89528183Y-76032071D01*
X89400856Y-75919269D01*
X89400853Y-75919267D01*
X89400852Y-75919266D01*
X89250225Y-75840210D01*
X89250222Y-75840209D01*
X89105270Y-75804482D01*
X89059651Y-75770915D01*
X89049519Y-75723712D01*
X89066929Y-75580334D01*
X89066929Y-75580327D01*
X89058845Y-75513751D01*
X89074053Y-75459194D01*
X89123385Y-75431371D01*
X89132305Y-75430831D01*
X126550944Y-75430831D01*
X126603270Y-75452505D01*
X132050709Y-80899944D01*
X132067574Y-80926029D01*
X132125181Y-81077929D01*
X132221816Y-81217928D01*
X132337888Y-81320759D01*
X132349148Y-81330734D01*
X132499775Y-81409790D01*
X132664944Y-81450500D01*
X132664948Y-81450500D01*
X132835052Y-81450500D01*
X132835056Y-81450500D01*
X133000225Y-81409790D01*
X133150852Y-81330734D01*
X133278183Y-81217929D01*
X133374818Y-81077930D01*
X133435140Y-80918872D01*
X133445842Y-80830732D01*
X133455645Y-80750003D01*
X133455645Y-80749996D01*
X133435140Y-80581128D01*
X133374818Y-80422070D01*
X133278183Y-80282071D01*
X133241978Y-80249996D01*
X133794355Y-80249996D01*
X133794355Y-80250003D01*
X133814859Y-80418871D01*
X133875181Y-80577929D01*
X133913983Y-80634142D01*
X133971817Y-80717929D01*
X134099148Y-80830734D01*
X134175752Y-80870939D01*
X134209890Y-80888856D01*
X134246149Y-80932365D01*
X134249500Y-80954380D01*
X134249500Y-81474241D01*
X134227826Y-81526567D01*
X134224573Y-81529629D01*
X134221817Y-81532070D01*
X134125181Y-81672070D01*
X134064859Y-81831128D01*
X134044355Y-81999996D01*
X134044355Y-82000003D01*
X134064859Y-82168871D01*
X134125181Y-82327929D01*
X134221816Y-82467928D01*
X134301984Y-82538951D01*
X134349148Y-82580734D01*
X134499775Y-82659790D01*
X134664944Y-82700500D01*
X134664948Y-82700500D01*
X134835052Y-82700500D01*
X134835056Y-82700500D01*
X135000225Y-82659790D01*
X135150852Y-82580734D01*
X135278183Y-82467929D01*
X135374818Y-82327930D01*
X135435140Y-82168872D01*
X135443884Y-82096858D01*
X135455645Y-82000003D01*
X135455645Y-81999996D01*
X135435140Y-81831128D01*
X135374818Y-81672070D01*
X135325600Y-81600766D01*
X135278183Y-81532071D01*
X135275427Y-81529629D01*
X135250635Y-81478707D01*
X135250500Y-81474241D01*
X135250500Y-80434108D01*
X135247274Y-80422071D01*
X135247273Y-80422067D01*
X135243815Y-80409160D01*
X135216392Y-80306814D01*
X135214167Y-80302960D01*
X135204791Y-80257028D01*
X135205645Y-80250001D01*
X135205645Y-80249996D01*
X135185140Y-80081128D01*
X135124818Y-79922070D01*
X135028183Y-79782071D01*
X134900856Y-79669269D01*
X134900853Y-79669267D01*
X134900852Y-79669266D01*
X134750225Y-79590210D01*
X134750222Y-79590209D01*
X134585058Y-79549500D01*
X134585056Y-79549500D01*
X134414944Y-79549500D01*
X134414941Y-79549500D01*
X134249777Y-79590209D01*
X134099146Y-79669267D01*
X134099143Y-79669269D01*
X133971816Y-79782071D01*
X133875181Y-79922070D01*
X133814859Y-80081128D01*
X133794355Y-80249996D01*
X133241978Y-80249996D01*
X133150856Y-80169269D01*
X133150853Y-80169267D01*
X133150852Y-80169266D01*
X133000225Y-80090210D01*
X132939591Y-80075265D01*
X132904977Y-80055742D01*
X127315071Y-74465836D01*
X127315069Y-74465833D01*
X127199047Y-74349811D01*
X127089094Y-74286330D01*
X127062116Y-74270754D01*
X127062113Y-74270753D01*
X127062112Y-74270752D01*
X126909390Y-74229830D01*
X126909388Y-74229830D01*
X126751274Y-74229830D01*
X126746744Y-74229830D01*
X126746728Y-74229831D01*
X89410964Y-74229831D01*
X89358638Y-74208157D01*
X89336964Y-74155831D01*
X89350063Y-74113794D01*
X89354516Y-74107341D01*
X89374818Y-74077930D01*
X89385175Y-74050622D01*
X89432426Y-73926028D01*
X89449289Y-73899944D01*
X89727061Y-73622174D01*
X89779387Y-73600500D01*
X133371635Y-73600500D01*
X133423961Y-73622174D01*
X133434221Y-73636115D01*
X133434392Y-73635998D01*
X133436932Y-73639679D01*
X133436934Y-73639682D01*
X133533569Y-73779681D01*
X133660900Y-73892486D01*
X133737661Y-73932774D01*
X133773920Y-73976281D01*
X133768795Y-74032685D01*
X133755597Y-74050622D01*
X133611553Y-74194666D01*
X133453908Y-74400113D01*
X133453904Y-74400119D01*
X133324425Y-74624384D01*
X133324424Y-74624387D01*
X133225324Y-74863634D01*
X133158300Y-75113773D01*
X133124500Y-75370520D01*
X133124500Y-75629479D01*
X133158300Y-75886226D01*
X133225324Y-76136365D01*
X133324424Y-76375612D01*
X133324425Y-76375615D01*
X133453904Y-76599880D01*
X133453908Y-76599886D01*
X133611553Y-76805333D01*
X133794666Y-76988446D01*
X134000113Y-77146091D01*
X134000119Y-77146095D01*
X134221408Y-77273856D01*
X134224384Y-77275574D01*
X134463634Y-77374675D01*
X134713772Y-77441699D01*
X134970519Y-77475500D01*
X134970521Y-77475500D01*
X135229479Y-77475500D01*
X135229481Y-77475500D01*
X135486228Y-77441699D01*
X135736366Y-77374675D01*
X135975616Y-77275574D01*
X136199884Y-77146093D01*
X136405333Y-76988447D01*
X136588447Y-76805333D01*
X136746093Y-76599884D01*
X136875574Y-76375616D01*
X136974675Y-76136366D01*
X137041699Y-75886228D01*
X137075500Y-75629481D01*
X137075500Y-75427473D01*
X137097174Y-75375147D01*
X137149500Y-75353473D01*
X137201826Y-75375147D01*
X140627826Y-78801147D01*
X140649500Y-78853473D01*
X140649500Y-80866396D01*
X140649499Y-80866414D01*
X140649499Y-81029059D01*
X140690421Y-81181781D01*
X140690424Y-81181787D01*
X140694478Y-81188810D01*
X140694479Y-81188810D01*
X140769480Y-81318716D01*
X140885499Y-81434735D01*
X140885505Y-81434740D01*
X141143607Y-81692843D01*
X141165281Y-81745169D01*
X141143607Y-81797495D01*
X141091281Y-81819169D01*
X139449056Y-81819169D01*
X139396730Y-81797495D01*
X137699291Y-80100056D01*
X137682426Y-80073971D01*
X137624818Y-79922070D01*
X137528183Y-79782071D01*
X137400856Y-79669269D01*
X137400853Y-79669267D01*
X137400852Y-79669266D01*
X137250225Y-79590210D01*
X137250222Y-79590209D01*
X137085058Y-79549500D01*
X137085056Y-79549500D01*
X136914944Y-79549500D01*
X136914941Y-79549500D01*
X136749777Y-79590209D01*
X136599146Y-79669267D01*
X136599143Y-79669269D01*
X136471816Y-79782071D01*
X136375181Y-79922070D01*
X136314859Y-80081128D01*
X136294355Y-80249996D01*
X136294355Y-80250003D01*
X136314859Y-80418871D01*
X136375181Y-80577929D01*
X136471816Y-80717928D01*
X136584893Y-80818106D01*
X136599148Y-80830734D01*
X136749775Y-80909790D01*
X136749777Y-80909790D01*
X136749778Y-80909791D01*
X136810404Y-80924733D01*
X136845022Y-80944257D01*
X138686560Y-82785795D01*
X138686565Y-82785801D01*
X138689149Y-82788385D01*
X138800953Y-82900189D01*
X138937885Y-82979246D01*
X138937889Y-82979247D01*
X139049679Y-83009201D01*
X139049683Y-83009201D01*
X139049688Y-83009203D01*
X139080380Y-83017427D01*
X139090610Y-83020169D01*
X139090611Y-83020169D01*
X139090612Y-83020169D01*
X142246728Y-83020169D01*
X142246744Y-83020170D01*
X142251274Y-83020170D01*
X142409390Y-83020170D01*
X142409390Y-83020169D01*
X142562116Y-82979246D01*
X142612235Y-82950308D01*
X142699047Y-82900189D01*
X142810851Y-82788385D01*
X142810852Y-82788382D01*
X142894235Y-82704999D01*
X151875136Y-82704999D01*
X151875137Y-82705000D01*
X152678012Y-82705000D01*
X152660795Y-82714940D01*
X152604940Y-82770795D01*
X152565444Y-82839204D01*
X152545000Y-82915504D01*
X152545000Y-82994496D01*
X152565444Y-83070796D01*
X152604940Y-83139205D01*
X152660795Y-83195060D01*
X152678012Y-83205000D01*
X151875137Y-83205000D01*
X151883427Y-83246682D01*
X151883430Y-83246693D01*
X151958809Y-83428675D01*
X152068246Y-83592459D01*
X152207540Y-83731753D01*
X152371324Y-83841190D01*
X152553306Y-83916569D01*
X152553317Y-83916572D01*
X152746510Y-83955000D01*
X153145000Y-83955000D01*
X153145000Y-83255000D01*
X153645000Y-83255000D01*
X153645000Y-83955000D01*
X154043490Y-83955000D01*
X154236682Y-83916572D01*
X154236693Y-83916569D01*
X154418675Y-83841190D01*
X154582459Y-83731753D01*
X154721753Y-83592459D01*
X154831190Y-83428675D01*
X154906569Y-83246693D01*
X154906572Y-83246682D01*
X154914863Y-83205000D01*
X154111988Y-83205000D01*
X154129205Y-83195060D01*
X154185060Y-83139205D01*
X154224556Y-83070796D01*
X154245000Y-82994496D01*
X154245000Y-82915504D01*
X154224556Y-82839204D01*
X154185060Y-82770795D01*
X154129205Y-82714940D01*
X154111988Y-82705000D01*
X154914863Y-82705000D01*
X154914863Y-82704999D01*
X154906572Y-82663317D01*
X154906569Y-82663306D01*
X154831190Y-82481324D01*
X154721753Y-82317540D01*
X154582459Y-82178246D01*
X154418677Y-82068810D01*
X154341667Y-82036912D01*
X154301619Y-81996864D01*
X154301619Y-81940226D01*
X154317657Y-81916222D01*
X154355515Y-81878365D01*
X154431281Y-81747135D01*
X154470499Y-81600768D01*
X154470500Y-81600768D01*
X154470500Y-81449232D01*
X154470499Y-81449231D01*
X154465485Y-81430520D01*
X154431281Y-81302865D01*
X154355515Y-81171635D01*
X154248365Y-81064485D01*
X154248362Y-81064483D01*
X154117139Y-80988721D01*
X154117130Y-80988717D01*
X153970768Y-80949500D01*
X153970766Y-80949500D01*
X153819234Y-80949500D01*
X153819232Y-80949500D01*
X153672869Y-80988717D01*
X153672860Y-80988721D01*
X153541637Y-81064483D01*
X153434483Y-81171637D01*
X153358721Y-81302860D01*
X153358717Y-81302869D01*
X153319500Y-81449231D01*
X153319500Y-81600768D01*
X153358717Y-81747130D01*
X153358721Y-81747139D01*
X153428914Y-81868716D01*
X153434485Y-81878365D01*
X153541635Y-81985515D01*
X153608001Y-82023831D01*
X153642478Y-82068763D01*
X153645000Y-82087916D01*
X153645000Y-82655000D01*
X153145000Y-82655000D01*
X153145000Y-81955000D01*
X152746510Y-81955000D01*
X152553317Y-81993427D01*
X152553306Y-81993430D01*
X152371324Y-82068809D01*
X152207540Y-82178246D01*
X152068246Y-82317540D01*
X151958809Y-82481324D01*
X151883430Y-82663306D01*
X151883427Y-82663317D01*
X151875136Y-82704999D01*
X142894235Y-82704999D01*
X143618713Y-81980521D01*
X143618716Y-81980520D01*
X143730520Y-81868716D01*
X143809577Y-81731784D01*
X143850499Y-81579059D01*
X143850500Y-81579059D01*
X143850500Y-78335028D01*
X143850501Y-78335015D01*
X143850501Y-78170941D01*
X143850500Y-78170940D01*
X143844248Y-78147609D01*
X143809577Y-78018215D01*
X143780639Y-77968095D01*
X143730520Y-77881284D01*
X143618716Y-77769480D01*
X143616137Y-77766901D01*
X143616126Y-77766891D01*
X142484231Y-76634996D01*
X145544355Y-76634996D01*
X145544355Y-76635003D01*
X145564859Y-76803871D01*
X145625181Y-76962929D01*
X145713038Y-77090210D01*
X145721817Y-77102929D01*
X145849148Y-77215734D01*
X145868436Y-77225857D01*
X145959890Y-77273856D01*
X145996149Y-77317365D01*
X145999500Y-77339380D01*
X145999500Y-78609241D01*
X145977826Y-78661567D01*
X145974573Y-78664629D01*
X145971817Y-78667070D01*
X145875181Y-78807070D01*
X145814859Y-78966128D01*
X145794355Y-79134996D01*
X145794355Y-79135003D01*
X145814859Y-79303871D01*
X145875181Y-79462929D01*
X145963038Y-79590210D01*
X145971817Y-79602929D01*
X145996873Y-79625127D01*
X146095374Y-79712391D01*
X146099148Y-79715734D01*
X146249775Y-79794790D01*
X146414944Y-79835500D01*
X146414948Y-79835500D01*
X146585052Y-79835500D01*
X146585056Y-79835500D01*
X146750225Y-79794790D01*
X146900852Y-79715734D01*
X147028183Y-79602929D01*
X147124818Y-79462930D01*
X147185140Y-79303872D01*
X147201144Y-79172070D01*
X147205645Y-79135003D01*
X147205645Y-79134996D01*
X147185140Y-78966128D01*
X147124818Y-78807070D01*
X147028182Y-78667070D01*
X147025427Y-78664629D01*
X147000635Y-78613707D01*
X147000500Y-78609241D01*
X147000500Y-76819105D01*
X146998015Y-76809834D01*
X146998014Y-76809831D01*
X146966392Y-76691814D01*
X146964168Y-76687963D01*
X146954790Y-76642033D01*
X146955645Y-76635000D01*
X146935140Y-76466128D01*
X146874818Y-76307070D01*
X146778183Y-76167071D01*
X146700630Y-76098365D01*
X146650856Y-76054269D01*
X146650853Y-76054267D01*
X146650852Y-76054266D01*
X146500225Y-75975210D01*
X146500222Y-75975209D01*
X146335058Y-75934500D01*
X146335056Y-75934500D01*
X146164944Y-75934500D01*
X146164941Y-75934500D01*
X145999777Y-75975209D01*
X145849146Y-76054267D01*
X145849143Y-76054269D01*
X145721816Y-76167071D01*
X145625181Y-76307070D01*
X145564859Y-76466128D01*
X145544355Y-76634996D01*
X142484231Y-76634996D01*
X139914234Y-74064999D01*
X151875136Y-74064999D01*
X151875137Y-74065000D01*
X152678012Y-74065000D01*
X152660795Y-74074940D01*
X152604940Y-74130795D01*
X152565444Y-74199204D01*
X152545000Y-74275504D01*
X152545000Y-74354496D01*
X152565444Y-74430796D01*
X152604940Y-74499205D01*
X152660795Y-74555060D01*
X152678012Y-74565000D01*
X151875137Y-74565000D01*
X151883427Y-74606682D01*
X151883430Y-74606693D01*
X151958809Y-74788675D01*
X152068246Y-74952459D01*
X152207540Y-75091753D01*
X152371324Y-75201190D01*
X152553306Y-75276569D01*
X152553317Y-75276572D01*
X152746510Y-75315000D01*
X153145000Y-75315000D01*
X153145000Y-74615000D01*
X153645000Y-74615000D01*
X153645000Y-75182082D01*
X153623326Y-75234408D01*
X153608001Y-75246167D01*
X153541638Y-75284483D01*
X153541636Y-75284484D01*
X153434483Y-75391637D01*
X153358721Y-75522860D01*
X153358717Y-75522869D01*
X153319500Y-75669231D01*
X153319500Y-75820768D01*
X153358717Y-75967130D01*
X153358721Y-75967139D01*
X153363381Y-75975210D01*
X153434485Y-76098365D01*
X153541635Y-76205515D01*
X153672865Y-76281281D01*
X153819231Y-76320499D01*
X153819232Y-76320500D01*
X153819234Y-76320500D01*
X153970768Y-76320500D01*
X153970768Y-76320499D01*
X154117135Y-76281281D01*
X154248365Y-76205515D01*
X154355515Y-76098365D01*
X154431281Y-75967135D01*
X154470499Y-75820768D01*
X154470500Y-75820768D01*
X154470500Y-75669232D01*
X154470499Y-75669231D01*
X154446679Y-75580334D01*
X154431281Y-75522865D01*
X154355515Y-75391635D01*
X154317659Y-75353779D01*
X154295986Y-75301453D01*
X154317661Y-75249127D01*
X154341668Y-75233087D01*
X154418675Y-75201190D01*
X154582459Y-75091753D01*
X154721753Y-74952459D01*
X154831190Y-74788675D01*
X154906569Y-74606693D01*
X154906572Y-74606682D01*
X154914863Y-74565000D01*
X154111988Y-74565000D01*
X154129205Y-74555060D01*
X154185060Y-74499205D01*
X154224556Y-74430796D01*
X154245000Y-74354496D01*
X154245000Y-74275504D01*
X154224556Y-74199204D01*
X154185060Y-74130795D01*
X154129205Y-74074940D01*
X154111988Y-74065000D01*
X154914863Y-74065000D01*
X154914863Y-74064999D01*
X154906572Y-74023317D01*
X154906569Y-74023306D01*
X154831190Y-73841324D01*
X154721753Y-73677540D01*
X154582459Y-73538246D01*
X154418675Y-73428809D01*
X154236693Y-73353430D01*
X154236682Y-73353427D01*
X154043490Y-73315000D01*
X153645000Y-73315000D01*
X153645000Y-74015000D01*
X153145000Y-74015000D01*
X153145000Y-73315000D01*
X152746510Y-73315000D01*
X152553317Y-73353427D01*
X152553306Y-73353430D01*
X152371324Y-73428809D01*
X152207540Y-73538246D01*
X152068246Y-73677540D01*
X151958809Y-73841324D01*
X151883430Y-74023306D01*
X151883427Y-74023317D01*
X151875136Y-74064999D01*
X139914234Y-74064999D01*
X135484740Y-69635505D01*
X135484738Y-69635502D01*
X135368715Y-69519479D01*
X135281904Y-69469360D01*
X135281902Y-69469359D01*
X135231788Y-69440424D01*
X135231781Y-69440421D01*
X135079059Y-69399499D01*
X135079057Y-69399499D01*
X134920943Y-69399499D01*
X134916413Y-69399499D01*
X134916397Y-69399500D01*
X86424500Y-69399500D01*
X86372174Y-69377826D01*
X86350500Y-69325500D01*
X86350500Y-68279387D01*
X86372174Y-68227061D01*
X87105519Y-67493716D01*
X87368713Y-67230521D01*
X87368716Y-67230520D01*
X87480520Y-67118716D01*
X87549604Y-66999058D01*
X87559577Y-66981785D01*
X87600500Y-66829057D01*
X87600500Y-66670943D01*
X87600500Y-60386218D01*
X87613598Y-60344184D01*
X87624818Y-60327930D01*
X87685140Y-60168872D01*
X87695842Y-60080732D01*
X87705645Y-60000003D01*
X87705645Y-59999996D01*
X87685140Y-59831128D01*
X87624818Y-59672070D01*
X87528183Y-59532071D01*
X87491978Y-59499996D01*
X135794355Y-59499996D01*
X135794355Y-59500003D01*
X135814859Y-59668871D01*
X135875181Y-59827929D01*
X135971816Y-59967928D01*
X136069963Y-60054879D01*
X136099148Y-60080734D01*
X136249775Y-60159790D01*
X136414944Y-60200500D01*
X136414948Y-60200500D01*
X136585052Y-60200500D01*
X136585056Y-60200500D01*
X136750225Y-60159790D01*
X136847042Y-60108975D01*
X136881431Y-60100500D01*
X138550613Y-60100500D01*
X138602939Y-60122174D01*
X142737826Y-64257061D01*
X142759500Y-64309387D01*
X142759501Y-70575500D01*
X142737827Y-70627826D01*
X142685501Y-70649500D01*
X140779387Y-70649500D01*
X140727061Y-70627826D01*
X139622174Y-69522939D01*
X139600500Y-69470613D01*
X139600500Y-63886218D01*
X139613598Y-63844184D01*
X139624818Y-63827930D01*
X139685140Y-63668872D01*
X139705645Y-63500000D01*
X139685140Y-63331128D01*
X139624818Y-63172070D01*
X139528183Y-63032071D01*
X139400856Y-62919269D01*
X139400853Y-62919267D01*
X139400852Y-62919266D01*
X139250225Y-62840210D01*
X139250222Y-62840209D01*
X139085058Y-62799500D01*
X139085056Y-62799500D01*
X138914944Y-62799500D01*
X138914941Y-62799500D01*
X138749777Y-62840209D01*
X138599146Y-62919267D01*
X138599143Y-62919269D01*
X138471816Y-63032071D01*
X138375181Y-63172070D01*
X138314859Y-63331128D01*
X138294355Y-63499996D01*
X138294355Y-63500003D01*
X138314859Y-63668871D01*
X138375179Y-63827924D01*
X138375180Y-63827926D01*
X138375182Y-63827930D01*
X138386401Y-63844184D01*
X138399500Y-63886218D01*
X138399500Y-69666396D01*
X138399499Y-69666414D01*
X138399499Y-69829059D01*
X138440421Y-69981781D01*
X138440424Y-69981788D01*
X138469360Y-70031904D01*
X138469361Y-70031906D01*
X138519479Y-70118715D01*
X138635499Y-70234735D01*
X138635505Y-70234740D01*
X140016891Y-71616126D01*
X140016896Y-71616132D01*
X140019480Y-71618716D01*
X140131284Y-71730520D01*
X140268216Y-71809577D01*
X140268220Y-71809578D01*
X140380010Y-71839532D01*
X140380014Y-71839532D01*
X140380019Y-71839534D01*
X140410711Y-71847758D01*
X140420941Y-71850500D01*
X140420942Y-71850500D01*
X140420943Y-71850500D01*
X148970613Y-71850500D01*
X149022939Y-71872174D01*
X150050709Y-72899944D01*
X150067574Y-72926029D01*
X150125181Y-73077929D01*
X150221816Y-73217928D01*
X150327721Y-73311752D01*
X150349148Y-73330734D01*
X150499775Y-73409790D01*
X150664944Y-73450500D01*
X150664948Y-73450500D01*
X150835052Y-73450500D01*
X150835056Y-73450500D01*
X151000225Y-73409790D01*
X151150852Y-73330734D01*
X151278183Y-73217929D01*
X151374818Y-73077930D01*
X151435140Y-72918872D01*
X151455645Y-72750000D01*
X151453340Y-72731018D01*
X151435140Y-72581128D01*
X151374818Y-72422070D01*
X151278183Y-72282071D01*
X151150856Y-72169269D01*
X151150853Y-72169267D01*
X151150852Y-72169266D01*
X151000225Y-72090210D01*
X150939591Y-72075265D01*
X150904977Y-72055742D01*
X150051060Y-71201825D01*
X150029386Y-71149499D01*
X150051060Y-71097173D01*
X150103386Y-71075499D01*
X150531519Y-71075499D01*
X150625304Y-71060646D01*
X150625306Y-71060645D01*
X150627419Y-71059568D01*
X150738342Y-71003050D01*
X150828050Y-70913342D01*
X150885646Y-70800304D01*
X150900500Y-70706519D01*
X150900499Y-64293482D01*
X150888484Y-64217619D01*
X150885646Y-64199695D01*
X150885645Y-64199693D01*
X150828049Y-64086657D01*
X150738343Y-63996951D01*
X150738342Y-63996950D01*
X150625304Y-63939354D01*
X150625302Y-63939353D01*
X150625301Y-63939353D01*
X150531520Y-63924500D01*
X150531519Y-63924500D01*
X144134388Y-63924500D01*
X144082062Y-63902826D01*
X139565471Y-59386236D01*
X141984500Y-59386236D01*
X141984500Y-59613763D01*
X142020092Y-59838486D01*
X142020095Y-59838499D01*
X142090399Y-60054873D01*
X142193696Y-60257606D01*
X142279956Y-60376333D01*
X142327434Y-60441680D01*
X142488320Y-60602566D01*
X142672393Y-60736303D01*
X142875121Y-60839598D01*
X142875123Y-60839598D01*
X142875126Y-60839600D01*
X143091500Y-60909904D01*
X143091506Y-60909905D01*
X143091511Y-60909907D01*
X143241328Y-60933635D01*
X143316236Y-60945500D01*
X143316237Y-60945500D01*
X143543764Y-60945500D01*
X143599944Y-60936601D01*
X143768489Y-60909907D01*
X143768496Y-60909904D01*
X143768499Y-60909904D01*
X143984873Y-60839600D01*
X143984873Y-60839599D01*
X143984879Y-60839598D01*
X144187607Y-60736303D01*
X144371680Y-60602566D01*
X144532566Y-60441680D01*
X144666303Y-60257607D01*
X144769598Y-60054879D01*
X144787429Y-60000000D01*
X144839904Y-59838499D01*
X144839904Y-59838496D01*
X144839907Y-59838489D01*
X144875500Y-59613763D01*
X144875500Y-59386237D01*
X144839907Y-59161511D01*
X144839905Y-59161506D01*
X144839904Y-59161500D01*
X144769600Y-58945126D01*
X144769598Y-58945123D01*
X144769598Y-58945121D01*
X144666303Y-58742393D01*
X144532566Y-58558320D01*
X144371680Y-58397434D01*
X144371677Y-58397431D01*
X144371675Y-58397430D01*
X144187606Y-58263696D01*
X143984873Y-58160399D01*
X143768499Y-58090095D01*
X143768486Y-58090092D01*
X143543764Y-58054500D01*
X143543763Y-58054500D01*
X143316237Y-58054500D01*
X143316236Y-58054500D01*
X143091513Y-58090092D01*
X143091500Y-58090095D01*
X142875126Y-58160399D01*
X142672393Y-58263696D01*
X142488324Y-58397430D01*
X142327430Y-58558324D01*
X142193696Y-58742393D01*
X142090399Y-58945126D01*
X142020095Y-59161500D01*
X142020092Y-59161513D01*
X141984500Y-59386236D01*
X139565471Y-59386236D01*
X139314740Y-59135505D01*
X139314738Y-59135502D01*
X139198715Y-59019479D01*
X139111904Y-58969360D01*
X139111902Y-58969359D01*
X139061788Y-58940424D01*
X139061781Y-58940421D01*
X138909059Y-58899499D01*
X138909057Y-58899499D01*
X138750943Y-58899499D01*
X138746413Y-58899499D01*
X138746397Y-58899500D01*
X136881431Y-58899500D01*
X136847042Y-58891024D01*
X136750225Y-58840210D01*
X136625767Y-58809534D01*
X136585057Y-58799500D01*
X136585056Y-58799500D01*
X136414944Y-58799500D01*
X136414941Y-58799500D01*
X136249777Y-58840209D01*
X136099146Y-58919267D01*
X136099143Y-58919269D01*
X135971816Y-59032071D01*
X135875181Y-59172070D01*
X135814859Y-59331128D01*
X135794355Y-59499996D01*
X87491978Y-59499996D01*
X87400856Y-59419269D01*
X87400853Y-59419267D01*
X87400852Y-59419266D01*
X87250225Y-59340210D01*
X87250222Y-59340209D01*
X87085058Y-59299500D01*
X87085056Y-59299500D01*
X86914944Y-59299500D01*
X86914941Y-59299500D01*
X86749777Y-59340209D01*
X86599146Y-59419267D01*
X86599143Y-59419269D01*
X86471816Y-59532071D01*
X86375181Y-59672070D01*
X86314859Y-59831128D01*
X86294355Y-59999996D01*
X86294355Y-60000003D01*
X86314859Y-60168871D01*
X86375179Y-60327924D01*
X86375180Y-60327926D01*
X86375182Y-60327930D01*
X86386401Y-60344184D01*
X86399500Y-60386218D01*
X86399500Y-66470613D01*
X86377826Y-66522939D01*
X86256284Y-66644481D01*
X85384638Y-67516125D01*
X85384442Y-67516298D01*
X85291885Y-67608853D01*
X85257271Y-67628375D01*
X85196642Y-67643320D01*
X85046011Y-67722378D01*
X85046008Y-67722380D01*
X84918681Y-67835182D01*
X84822046Y-67975181D01*
X84761724Y-68134239D01*
X84741220Y-68303107D01*
X84741220Y-68303114D01*
X84761724Y-68471982D01*
X84822046Y-68631040D01*
X84822047Y-68631041D01*
X84918682Y-68771040D01*
X85046013Y-68883845D01*
X85109889Y-68917370D01*
X85146149Y-68960877D01*
X85149500Y-68982893D01*
X85149500Y-70079059D01*
X85190421Y-70231779D01*
X85190422Y-70231781D01*
X85190423Y-70231784D01*
X85190424Y-70231785D01*
X85223161Y-70288488D01*
X85230553Y-70344641D01*
X85196075Y-70389574D01*
X85159075Y-70399488D01*
X73881419Y-70399488D01*
X73847030Y-70391012D01*
X73750213Y-70340198D01*
X73625755Y-70309522D01*
X73585045Y-70299488D01*
X73585044Y-70299488D01*
X73478399Y-70299488D01*
X73426073Y-70277814D01*
X73404399Y-70225488D01*
X73426073Y-70173162D01*
X73831020Y-69768215D01*
X75172202Y-68427031D01*
X75224527Y-68405358D01*
X75245317Y-68409166D01*
X75245428Y-68408718D01*
X75249772Y-68409788D01*
X75249775Y-68409790D01*
X75414944Y-68450500D01*
X75414948Y-68450500D01*
X75585052Y-68450500D01*
X75585056Y-68450500D01*
X75750225Y-68409790D01*
X75900852Y-68330734D01*
X76028183Y-68217929D01*
X76124818Y-68077930D01*
X76185140Y-67918872D01*
X76205645Y-67750000D01*
X76202291Y-67722380D01*
X76185140Y-67581128D01*
X76124818Y-67422070D01*
X76028183Y-67282071D01*
X75900856Y-67169269D01*
X75900853Y-67169267D01*
X75900852Y-67169266D01*
X75750225Y-67090210D01*
X75750222Y-67090209D01*
X75585058Y-67049500D01*
X75585056Y-67049500D01*
X75414944Y-67049500D01*
X75414942Y-67049500D01*
X75333522Y-67069568D01*
X75249775Y-67090210D01*
X75152957Y-67141024D01*
X75118569Y-67149500D01*
X75083604Y-67149500D01*
X75083588Y-67149499D01*
X75079058Y-67149499D01*
X74920943Y-67149499D01*
X74920941Y-67149499D01*
X74768218Y-67190421D01*
X74631283Y-67269480D01*
X72466326Y-69434438D01*
X72414000Y-69456112D01*
X72361674Y-69434438D01*
X72340000Y-69382112D01*
X72340000Y-67750000D01*
X68420000Y-67750000D01*
X67920000Y-67750000D01*
X64000000Y-67750000D01*
X64000000Y-70722828D01*
X60000499Y-70722828D01*
X60000499Y-64277171D01*
X64000000Y-64277171D01*
X64000000Y-67250000D01*
X67920000Y-67250000D01*
X68420000Y-67250000D01*
X72340000Y-67250000D01*
X72340000Y-64277171D01*
X72333597Y-64217624D01*
X72333596Y-64217619D01*
X72283354Y-64082912D01*
X72283353Y-64082911D01*
X72197188Y-63967811D01*
X72082088Y-63881646D01*
X72082087Y-63881645D01*
X71947380Y-63831403D01*
X71947375Y-63831402D01*
X71887829Y-63825000D01*
X68420000Y-63825000D01*
X68420000Y-67250000D01*
X67920000Y-67250000D01*
X67920000Y-63825000D01*
X64452171Y-63825000D01*
X64392624Y-63831402D01*
X64392619Y-63831403D01*
X64257912Y-63881645D01*
X64257911Y-63881646D01*
X64142811Y-63967811D01*
X64056646Y-64082911D01*
X64056645Y-64082912D01*
X64006403Y-64217619D01*
X64006402Y-64217624D01*
X64000000Y-64277171D01*
X60000499Y-64277171D01*
X60000499Y-57751943D01*
X60000550Y-57750000D01*
X60545065Y-57750000D01*
X60564786Y-58076042D01*
X60623666Y-58397341D01*
X60720839Y-58709175D01*
X60854896Y-59007040D01*
X60854901Y-59007049D01*
X61023882Y-59286578D01*
X61171476Y-59474968D01*
X62313708Y-58332735D01*
X62410967Y-58466602D01*
X62533398Y-58589033D01*
X62667262Y-58686290D01*
X61525030Y-59828522D01*
X61713421Y-59976117D01*
X61992950Y-60145098D01*
X61992959Y-60145103D01*
X62290824Y-60279160D01*
X62602658Y-60376333D01*
X62923957Y-60435213D01*
X63250000Y-60454934D01*
X63576042Y-60435213D01*
X63897341Y-60376333D01*
X64209175Y-60279160D01*
X64507040Y-60145103D01*
X64507049Y-60145098D01*
X64786578Y-59976117D01*
X64974968Y-59828522D01*
X63832737Y-58686290D01*
X63966602Y-58589033D01*
X64089033Y-58466602D01*
X64186290Y-58332736D01*
X65328522Y-59474968D01*
X65410352Y-59370520D01*
X77924500Y-59370520D01*
X77924500Y-59629479D01*
X77958300Y-59886226D01*
X78025324Y-60136365D01*
X78124424Y-60375612D01*
X78124425Y-60375615D01*
X78253904Y-60599880D01*
X78253908Y-60599886D01*
X78411553Y-60805333D01*
X78594667Y-60988447D01*
X78800116Y-61146093D01*
X79024384Y-61275574D01*
X79263634Y-61374675D01*
X79513772Y-61441699D01*
X79770519Y-61475500D01*
X79770521Y-61475500D01*
X80029479Y-61475500D01*
X80029481Y-61475500D01*
X80286228Y-61441699D01*
X80536366Y-61374675D01*
X80775616Y-61275574D01*
X80999884Y-61146093D01*
X81205333Y-60988447D01*
X81388447Y-60805333D01*
X81546093Y-60599884D01*
X81675574Y-60375616D01*
X81774675Y-60136366D01*
X81841699Y-59886228D01*
X81875500Y-59629481D01*
X81875500Y-59370519D01*
X81841699Y-59113772D01*
X81774675Y-58863634D01*
X81675574Y-58624384D01*
X81546093Y-58400116D01*
X81388447Y-58194667D01*
X81205333Y-58011553D01*
X81200160Y-58007584D01*
X80999886Y-57853908D01*
X80999880Y-57853904D01*
X80819912Y-57750000D01*
X152643415Y-57750000D01*
X152663136Y-58076042D01*
X152722016Y-58397341D01*
X152819189Y-58709175D01*
X152953246Y-59007040D01*
X152953251Y-59007049D01*
X153122232Y-59286578D01*
X153269826Y-59474968D01*
X154412058Y-58332735D01*
X154509317Y-58466602D01*
X154631748Y-58589033D01*
X154765612Y-58686290D01*
X153623380Y-59828522D01*
X153811771Y-59976117D01*
X154091300Y-60145098D01*
X154091309Y-60145103D01*
X154389174Y-60279160D01*
X154701008Y-60376333D01*
X155022307Y-60435213D01*
X155348350Y-60454934D01*
X155674392Y-60435213D01*
X155995691Y-60376333D01*
X156307525Y-60279160D01*
X156605390Y-60145103D01*
X156605399Y-60145098D01*
X156884928Y-59976117D01*
X157073318Y-59828522D01*
X155931087Y-58686290D01*
X156064952Y-58589033D01*
X156187383Y-58466602D01*
X156284640Y-58332736D01*
X157426872Y-59474968D01*
X157574467Y-59286578D01*
X157743448Y-59007049D01*
X157743453Y-59007040D01*
X157877510Y-58709175D01*
X157974683Y-58397341D01*
X158033563Y-58076042D01*
X158053284Y-57750000D01*
X158033563Y-57423957D01*
X157974683Y-57102658D01*
X157877510Y-56790824D01*
X157743453Y-56492959D01*
X157743448Y-56492950D01*
X157574467Y-56213421D01*
X157426872Y-56025030D01*
X156284640Y-57167261D01*
X156187383Y-57033398D01*
X156064952Y-56910967D01*
X155931085Y-56813708D01*
X157073319Y-55671476D01*
X156884928Y-55523882D01*
X156605399Y-55354901D01*
X156605390Y-55354896D01*
X156307525Y-55220839D01*
X155995691Y-55123666D01*
X155674392Y-55064786D01*
X155348350Y-55045065D01*
X155022307Y-55064786D01*
X154701008Y-55123666D01*
X154389174Y-55220839D01*
X154091309Y-55354896D01*
X154091300Y-55354900D01*
X153811768Y-55523884D01*
X153623380Y-55671476D01*
X154765613Y-56813709D01*
X154631748Y-56910967D01*
X154509317Y-57033398D01*
X154412059Y-57167263D01*
X153269826Y-56025030D01*
X153122234Y-56213418D01*
X152953250Y-56492950D01*
X152953246Y-56492959D01*
X152819189Y-56790824D01*
X152722016Y-57102658D01*
X152663136Y-57423957D01*
X152643415Y-57750000D01*
X80819912Y-57750000D01*
X80775615Y-57724425D01*
X80775612Y-57724424D01*
X80536365Y-57625324D01*
X80286226Y-57558300D01*
X80097081Y-57533399D01*
X80029481Y-57524500D01*
X79770519Y-57524500D01*
X79710783Y-57532364D01*
X79513773Y-57558300D01*
X79263634Y-57625324D01*
X79024387Y-57724424D01*
X79024384Y-57724425D01*
X78800119Y-57853904D01*
X78800113Y-57853908D01*
X78594666Y-58011553D01*
X78411553Y-58194666D01*
X78253908Y-58400113D01*
X78253904Y-58400119D01*
X78124425Y-58624384D01*
X78124424Y-58624387D01*
X78025324Y-58863634D01*
X77958300Y-59113773D01*
X77924500Y-59370520D01*
X65410352Y-59370520D01*
X65476117Y-59286578D01*
X65645098Y-59007049D01*
X65645103Y-59007040D01*
X65779160Y-58709175D01*
X65876333Y-58397341D01*
X65935213Y-58076042D01*
X65954934Y-57750000D01*
X65935213Y-57423957D01*
X65876333Y-57102658D01*
X65779160Y-56790824D01*
X65645103Y-56492959D01*
X65645098Y-56492950D01*
X65476117Y-56213421D01*
X65387254Y-56099996D01*
X135149092Y-56099996D01*
X135149092Y-56100003D01*
X135167883Y-56302800D01*
X135223621Y-56498699D01*
X135223623Y-56498704D01*
X135314409Y-56681028D01*
X135314411Y-56681031D01*
X135437148Y-56843562D01*
X135437149Y-56843563D01*
X135511088Y-56910967D01*
X135587667Y-56980778D01*
X135760835Y-57087999D01*
X135950756Y-57161575D01*
X136150963Y-57199000D01*
X136150965Y-57199000D01*
X136354635Y-57199000D01*
X136354637Y-57199000D01*
X136554844Y-57161575D01*
X136744765Y-57087999D01*
X136917933Y-56980778D01*
X137068450Y-56843563D01*
X137108277Y-56790824D01*
X137191188Y-56681031D01*
X137191190Y-56681028D01*
X137191189Y-56681028D01*
X137191191Y-56681027D01*
X137281977Y-56498705D01*
X137337715Y-56302806D01*
X137345999Y-56213418D01*
X137356508Y-56100003D01*
X137356508Y-56099996D01*
X138146292Y-56099996D01*
X138146292Y-56100003D01*
X138165083Y-56302800D01*
X138220821Y-56498699D01*
X138220823Y-56498704D01*
X138311609Y-56681028D01*
X138311611Y-56681031D01*
X138434348Y-56843562D01*
X138434349Y-56843563D01*
X138508288Y-56910967D01*
X138584867Y-56980778D01*
X138758035Y-57087999D01*
X138947956Y-57161575D01*
X139148163Y-57199000D01*
X139148165Y-57199000D01*
X139351835Y-57199000D01*
X139351837Y-57199000D01*
X139552044Y-57161575D01*
X139741965Y-57087999D01*
X139915133Y-56980778D01*
X140065650Y-56843563D01*
X140105477Y-56790824D01*
X140188388Y-56681031D01*
X140188390Y-56681028D01*
X140188389Y-56681028D01*
X140188391Y-56681027D01*
X140279177Y-56498705D01*
X140334915Y-56302806D01*
X140343199Y-56213418D01*
X140353708Y-56100003D01*
X140353708Y-56099996D01*
X140334916Y-55897199D01*
X140319568Y-55843254D01*
X140279177Y-55701295D01*
X140188391Y-55518973D01*
X140188390Y-55518972D01*
X140188390Y-55518971D01*
X140188388Y-55518968D01*
X140065651Y-55356437D01*
X140065650Y-55356436D01*
X139978888Y-55277343D01*
X139915133Y-55219222D01*
X139741965Y-55112001D01*
X139552044Y-55038425D01*
X139464115Y-55021988D01*
X139351840Y-55001000D01*
X139351837Y-55001000D01*
X139148163Y-55001000D01*
X139148159Y-55001000D01*
X138998459Y-55028984D01*
X138947956Y-55038425D01*
X138947954Y-55038425D01*
X138947952Y-55038426D01*
X138758040Y-55111999D01*
X138758035Y-55112001D01*
X138758030Y-55112003D01*
X138758030Y-55112004D01*
X138584869Y-55219220D01*
X138434349Y-55356436D01*
X138434348Y-55356437D01*
X138311611Y-55518968D01*
X138311609Y-55518971D01*
X138220823Y-55701295D01*
X138220821Y-55701300D01*
X138165083Y-55897199D01*
X138146292Y-56099996D01*
X137356508Y-56099996D01*
X137337716Y-55897199D01*
X137322368Y-55843254D01*
X137281977Y-55701295D01*
X137191191Y-55518973D01*
X137191190Y-55518972D01*
X137191190Y-55518971D01*
X137191188Y-55518968D01*
X137068451Y-55356437D01*
X137068450Y-55356436D01*
X136981688Y-55277343D01*
X136917933Y-55219222D01*
X136744765Y-55112001D01*
X136554844Y-55038425D01*
X136466915Y-55021988D01*
X136354640Y-55001000D01*
X136354637Y-55001000D01*
X136150963Y-55001000D01*
X136150959Y-55001000D01*
X136001259Y-55028984D01*
X135950756Y-55038425D01*
X135950754Y-55038425D01*
X135950752Y-55038426D01*
X135760840Y-55111999D01*
X135760835Y-55112001D01*
X135760830Y-55112003D01*
X135760830Y-55112004D01*
X135587669Y-55219220D01*
X135437149Y-55356436D01*
X135437148Y-55356437D01*
X135314411Y-55518968D01*
X135314409Y-55518971D01*
X135223623Y-55701295D01*
X135223621Y-55701300D01*
X135167883Y-55897199D01*
X135149092Y-56099996D01*
X65387254Y-56099996D01*
X65328522Y-56025030D01*
X64186290Y-57167261D01*
X64089033Y-57033398D01*
X63966602Y-56910967D01*
X63832735Y-56813708D01*
X64974969Y-55671476D01*
X64786578Y-55523882D01*
X64507049Y-55354901D01*
X64507040Y-55354896D01*
X64209175Y-55220839D01*
X63897341Y-55123666D01*
X63576042Y-55064786D01*
X63250000Y-55045065D01*
X62923957Y-55064786D01*
X62602658Y-55123666D01*
X62290824Y-55220839D01*
X61992959Y-55354896D01*
X61992950Y-55354900D01*
X61713418Y-55523884D01*
X61525030Y-55671476D01*
X62667263Y-56813709D01*
X62533398Y-56910967D01*
X62410967Y-57033398D01*
X62313709Y-57167263D01*
X61171476Y-56025030D01*
X61023884Y-56213418D01*
X60854900Y-56492950D01*
X60854896Y-56492959D01*
X60720839Y-56790824D01*
X60623666Y-57102658D01*
X60564786Y-57423957D01*
X60545065Y-57750000D01*
X60000550Y-57750000D01*
X60000600Y-57748070D01*
X60010545Y-57558300D01*
X60018097Y-57414198D01*
X60018907Y-57406500D01*
X60020500Y-57396445D01*
X60070904Y-57078206D01*
X60072510Y-57070653D01*
X60158543Y-56749572D01*
X60160928Y-56742234D01*
X60280050Y-56431909D01*
X60283188Y-56424863D01*
X60434090Y-56128702D01*
X60437954Y-56122009D01*
X60618992Y-55843234D01*
X60623530Y-55836988D01*
X60832719Y-55578660D01*
X60837883Y-55572925D01*
X61072925Y-55337883D01*
X61078660Y-55332719D01*
X61336988Y-55123530D01*
X61343234Y-55118992D01*
X61622010Y-54937952D01*
X61628702Y-54934090D01*
X61924863Y-54783188D01*
X61931909Y-54780050D01*
X62242243Y-54660924D01*
X62249572Y-54658543D01*
X62570663Y-54572507D01*
X62578206Y-54570904D01*
X62906504Y-54518906D01*
X62914198Y-54518097D01*
X63248071Y-54500600D01*
X63251944Y-54500499D01*
X155346377Y-54500499D01*
X155350250Y-54500599D01*
G37*
%TD.AperFunction*%
%TD*%
M02*
