%TF.GenerationSoftware,KiCad,Pcbnew,8.0.4+dfsg-1*%
%TF.CreationDate,2025-03-09T22:36:16+01:00*%
%TF.ProjectId,time_terminal,74696d65-5f74-4657-926d-696e616c2e6b,rev?*%
%TF.SameCoordinates,Original*%
%TF.FileFunction,Drillmap*%
%TF.FilePolarity,Positive*%
%FSLAX45Y45*%
G04 Gerber Fmt 4.5, Leading zero omitted, Abs format (unit mm)*
G04 Created by KiCad (PCBNEW 8.0.4+dfsg-1) date 2025-03-09 22:36:16*
%MOMM*%
%LPD*%
G01*
G04 APERTURE LIST*
%ADD10C,0.100000*%
%ADD11C,0.200000*%
%ADD12C,0.239000*%
%ADD13C,0.345000*%
G04 APERTURE END LIST*
D10*
X6325000Y-12600000D02*
X15534835Y-12600000D01*
X5950000Y-12225000D02*
X5950000Y-5775000D01*
X6325000Y-12600000D02*
G75*
G02*
X5950000Y-12225000I0J375000D01*
G01*
X15909835Y-5775000D02*
X15909835Y-12225000D01*
X15909835Y-12225000D02*
G75*
G02*
X15534835Y-12600000I-375000J0D01*
G01*
X6325000Y-5400000D02*
X15534835Y-5400000D01*
X5950000Y-5775000D02*
G75*
G02*
X6325000Y-5400000I375000J0D01*
G01*
X15534835Y-5400000D02*
G75*
G02*
X15909835Y-5775000I0J-375000D01*
G01*
D11*
D10*
X15357000Y-7542000D02*
X15422000Y-7607000D01*
X15422000Y-7542000D02*
X15357000Y-7607000D01*
X15357000Y-8120000D02*
X15422000Y-8185000D01*
X15422000Y-8120000D02*
X15357000Y-8185000D01*
D12*
X14462500Y-5950000D02*
G75*
G02*
X14223500Y-5950000I-119500J0D01*
G01*
X14223500Y-5950000D02*
G75*
G02*
X14462500Y-5950000I119500J0D01*
G01*
D13*
X7990000Y-5777500D02*
X7990000Y-6122500D01*
X7817500Y-5950000D02*
X8162500Y-5950000D01*
X13510000Y-7377500D02*
X13510000Y-7722500D01*
X13337500Y-7550000D02*
X13682500Y-7550000D01*
D11*
X6205777Y-12916484D02*
X6205777Y-12716484D01*
X6205777Y-12716484D02*
X6253396Y-12716484D01*
X6253396Y-12716484D02*
X6281967Y-12726008D01*
X6281967Y-12726008D02*
X6301015Y-12745055D01*
X6301015Y-12745055D02*
X6310539Y-12764103D01*
X6310539Y-12764103D02*
X6320062Y-12802198D01*
X6320062Y-12802198D02*
X6320062Y-12830770D01*
X6320062Y-12830770D02*
X6310539Y-12868865D01*
X6310539Y-12868865D02*
X6301015Y-12887912D01*
X6301015Y-12887912D02*
X6281967Y-12906960D01*
X6281967Y-12906960D02*
X6253396Y-12916484D01*
X6253396Y-12916484D02*
X6205777Y-12916484D01*
X6405777Y-12916484D02*
X6405777Y-12783150D01*
X6405777Y-12821246D02*
X6415300Y-12802198D01*
X6415300Y-12802198D02*
X6424824Y-12792674D01*
X6424824Y-12792674D02*
X6443872Y-12783150D01*
X6443872Y-12783150D02*
X6462920Y-12783150D01*
X6529586Y-12916484D02*
X6529586Y-12783150D01*
X6529586Y-12716484D02*
X6520062Y-12726008D01*
X6520062Y-12726008D02*
X6529586Y-12735531D01*
X6529586Y-12735531D02*
X6539110Y-12726008D01*
X6539110Y-12726008D02*
X6529586Y-12716484D01*
X6529586Y-12716484D02*
X6529586Y-12735531D01*
X6653396Y-12916484D02*
X6634348Y-12906960D01*
X6634348Y-12906960D02*
X6624824Y-12887912D01*
X6624824Y-12887912D02*
X6624824Y-12716484D01*
X6758158Y-12916484D02*
X6739110Y-12906960D01*
X6739110Y-12906960D02*
X6729586Y-12887912D01*
X6729586Y-12887912D02*
X6729586Y-12716484D01*
X6986729Y-12916484D02*
X6986729Y-12716484D01*
X6986729Y-12716484D02*
X7053396Y-12859341D01*
X7053396Y-12859341D02*
X7120062Y-12716484D01*
X7120062Y-12716484D02*
X7120062Y-12916484D01*
X7301015Y-12916484D02*
X7301015Y-12811722D01*
X7301015Y-12811722D02*
X7291491Y-12792674D01*
X7291491Y-12792674D02*
X7272443Y-12783150D01*
X7272443Y-12783150D02*
X7234348Y-12783150D01*
X7234348Y-12783150D02*
X7215300Y-12792674D01*
X7301015Y-12906960D02*
X7281967Y-12916484D01*
X7281967Y-12916484D02*
X7234348Y-12916484D01*
X7234348Y-12916484D02*
X7215300Y-12906960D01*
X7215300Y-12906960D02*
X7205777Y-12887912D01*
X7205777Y-12887912D02*
X7205777Y-12868865D01*
X7205777Y-12868865D02*
X7215300Y-12849817D01*
X7215300Y-12849817D02*
X7234348Y-12840293D01*
X7234348Y-12840293D02*
X7281967Y-12840293D01*
X7281967Y-12840293D02*
X7301015Y-12830770D01*
X7396253Y-12783150D02*
X7396253Y-12983150D01*
X7396253Y-12792674D02*
X7415300Y-12783150D01*
X7415300Y-12783150D02*
X7453396Y-12783150D01*
X7453396Y-12783150D02*
X7472443Y-12792674D01*
X7472443Y-12792674D02*
X7481967Y-12802198D01*
X7481967Y-12802198D02*
X7491491Y-12821246D01*
X7491491Y-12821246D02*
X7491491Y-12878389D01*
X7491491Y-12878389D02*
X7481967Y-12897436D01*
X7481967Y-12897436D02*
X7472443Y-12906960D01*
X7472443Y-12906960D02*
X7453396Y-12916484D01*
X7453396Y-12916484D02*
X7415300Y-12916484D01*
X7415300Y-12916484D02*
X7396253Y-12906960D01*
X7577205Y-12897436D02*
X7586729Y-12906960D01*
X7586729Y-12906960D02*
X7577205Y-12916484D01*
X7577205Y-12916484D02*
X7567681Y-12906960D01*
X7567681Y-12906960D02*
X7577205Y-12897436D01*
X7577205Y-12897436D02*
X7577205Y-12916484D01*
X7577205Y-12792674D02*
X7586729Y-12802198D01*
X7586729Y-12802198D02*
X7577205Y-12811722D01*
X7577205Y-12811722D02*
X7567681Y-12802198D01*
X7567681Y-12802198D02*
X7577205Y-12792674D01*
X7577205Y-12792674D02*
X7577205Y-12811722D01*
D10*
X5880000Y-13212500D02*
X5945000Y-13277500D01*
X5945000Y-13212500D02*
X5880000Y-13277500D01*
D11*
X6243872Y-13136484D02*
X6262920Y-13136484D01*
X6262920Y-13136484D02*
X6281967Y-13146008D01*
X6281967Y-13146008D02*
X6291491Y-13155531D01*
X6291491Y-13155531D02*
X6301015Y-13174579D01*
X6301015Y-13174579D02*
X6310539Y-13212674D01*
X6310539Y-13212674D02*
X6310539Y-13260293D01*
X6310539Y-13260293D02*
X6301015Y-13298389D01*
X6301015Y-13298389D02*
X6291491Y-13317436D01*
X6291491Y-13317436D02*
X6281967Y-13326960D01*
X6281967Y-13326960D02*
X6262920Y-13336484D01*
X6262920Y-13336484D02*
X6243872Y-13336484D01*
X6243872Y-13336484D02*
X6224824Y-13326960D01*
X6224824Y-13326960D02*
X6215300Y-13317436D01*
X6215300Y-13317436D02*
X6205777Y-13298389D01*
X6205777Y-13298389D02*
X6196253Y-13260293D01*
X6196253Y-13260293D02*
X6196253Y-13212674D01*
X6196253Y-13212674D02*
X6205777Y-13174579D01*
X6205777Y-13174579D02*
X6215300Y-13155531D01*
X6215300Y-13155531D02*
X6224824Y-13146008D01*
X6224824Y-13146008D02*
X6243872Y-13136484D01*
X6396253Y-13317436D02*
X6405777Y-13326960D01*
X6405777Y-13326960D02*
X6396253Y-13336484D01*
X6396253Y-13336484D02*
X6386729Y-13326960D01*
X6386729Y-13326960D02*
X6396253Y-13317436D01*
X6396253Y-13317436D02*
X6396253Y-13336484D01*
X6577205Y-13136484D02*
X6539110Y-13136484D01*
X6539110Y-13136484D02*
X6520062Y-13146008D01*
X6520062Y-13146008D02*
X6510539Y-13155531D01*
X6510539Y-13155531D02*
X6491491Y-13184103D01*
X6491491Y-13184103D02*
X6481967Y-13222198D01*
X6481967Y-13222198D02*
X6481967Y-13298389D01*
X6481967Y-13298389D02*
X6491491Y-13317436D01*
X6491491Y-13317436D02*
X6501015Y-13326960D01*
X6501015Y-13326960D02*
X6520062Y-13336484D01*
X6520062Y-13336484D02*
X6558158Y-13336484D01*
X6558158Y-13336484D02*
X6577205Y-13326960D01*
X6577205Y-13326960D02*
X6586729Y-13317436D01*
X6586729Y-13317436D02*
X6596253Y-13298389D01*
X6596253Y-13298389D02*
X6596253Y-13250770D01*
X6596253Y-13250770D02*
X6586729Y-13231722D01*
X6586729Y-13231722D02*
X6577205Y-13222198D01*
X6577205Y-13222198D02*
X6558158Y-13212674D01*
X6558158Y-13212674D02*
X6520062Y-13212674D01*
X6520062Y-13212674D02*
X6501015Y-13222198D01*
X6501015Y-13222198D02*
X6491491Y-13231722D01*
X6491491Y-13231722D02*
X6481967Y-13250770D01*
X6777205Y-13136484D02*
X6681967Y-13136484D01*
X6681967Y-13136484D02*
X6672443Y-13231722D01*
X6672443Y-13231722D02*
X6681967Y-13222198D01*
X6681967Y-13222198D02*
X6701015Y-13212674D01*
X6701015Y-13212674D02*
X6748634Y-13212674D01*
X6748634Y-13212674D02*
X6767681Y-13222198D01*
X6767681Y-13222198D02*
X6777205Y-13231722D01*
X6777205Y-13231722D02*
X6786729Y-13250770D01*
X6786729Y-13250770D02*
X6786729Y-13298389D01*
X6786729Y-13298389D02*
X6777205Y-13317436D01*
X6777205Y-13317436D02*
X6767681Y-13326960D01*
X6767681Y-13326960D02*
X6748634Y-13336484D01*
X6748634Y-13336484D02*
X6701015Y-13336484D01*
X6701015Y-13336484D02*
X6681967Y-13326960D01*
X6681967Y-13326960D02*
X6672443Y-13317436D01*
X6910539Y-13136484D02*
X6929586Y-13136484D01*
X6929586Y-13136484D02*
X6948634Y-13146008D01*
X6948634Y-13146008D02*
X6958158Y-13155531D01*
X6958158Y-13155531D02*
X6967681Y-13174579D01*
X6967681Y-13174579D02*
X6977205Y-13212674D01*
X6977205Y-13212674D02*
X6977205Y-13260293D01*
X6977205Y-13260293D02*
X6967681Y-13298389D01*
X6967681Y-13298389D02*
X6958158Y-13317436D01*
X6958158Y-13317436D02*
X6948634Y-13326960D01*
X6948634Y-13326960D02*
X6929586Y-13336484D01*
X6929586Y-13336484D02*
X6910539Y-13336484D01*
X6910539Y-13336484D02*
X6891491Y-13326960D01*
X6891491Y-13326960D02*
X6881967Y-13317436D01*
X6881967Y-13317436D02*
X6872443Y-13298389D01*
X6872443Y-13298389D02*
X6862920Y-13260293D01*
X6862920Y-13260293D02*
X6862920Y-13212674D01*
X6862920Y-13212674D02*
X6872443Y-13174579D01*
X6872443Y-13174579D02*
X6881967Y-13155531D01*
X6881967Y-13155531D02*
X6891491Y-13146008D01*
X6891491Y-13146008D02*
X6910539Y-13136484D01*
X7062920Y-13336484D02*
X7062920Y-13203150D01*
X7062920Y-13222198D02*
X7072443Y-13212674D01*
X7072443Y-13212674D02*
X7091491Y-13203150D01*
X7091491Y-13203150D02*
X7120062Y-13203150D01*
X7120062Y-13203150D02*
X7139110Y-13212674D01*
X7139110Y-13212674D02*
X7148634Y-13231722D01*
X7148634Y-13231722D02*
X7148634Y-13336484D01*
X7148634Y-13231722D02*
X7158158Y-13212674D01*
X7158158Y-13212674D02*
X7177205Y-13203150D01*
X7177205Y-13203150D02*
X7205777Y-13203150D01*
X7205777Y-13203150D02*
X7224824Y-13212674D01*
X7224824Y-13212674D02*
X7234348Y-13231722D01*
X7234348Y-13231722D02*
X7234348Y-13336484D01*
X7329586Y-13336484D02*
X7329586Y-13203150D01*
X7329586Y-13222198D02*
X7339110Y-13212674D01*
X7339110Y-13212674D02*
X7358158Y-13203150D01*
X7358158Y-13203150D02*
X7386729Y-13203150D01*
X7386729Y-13203150D02*
X7405777Y-13212674D01*
X7405777Y-13212674D02*
X7415301Y-13231722D01*
X7415301Y-13231722D02*
X7415301Y-13336484D01*
X7415301Y-13231722D02*
X7424824Y-13212674D01*
X7424824Y-13212674D02*
X7443872Y-13203150D01*
X7443872Y-13203150D02*
X7472443Y-13203150D01*
X7472443Y-13203150D02*
X7491491Y-13212674D01*
X7491491Y-13212674D02*
X7501015Y-13231722D01*
X7501015Y-13231722D02*
X7501015Y-13336484D01*
X7891491Y-13126960D02*
X7720063Y-13384103D01*
X8148634Y-13136484D02*
X8167682Y-13136484D01*
X8167682Y-13136484D02*
X8186729Y-13146008D01*
X8186729Y-13146008D02*
X8196253Y-13155531D01*
X8196253Y-13155531D02*
X8205777Y-13174579D01*
X8205777Y-13174579D02*
X8215301Y-13212674D01*
X8215301Y-13212674D02*
X8215301Y-13260293D01*
X8215301Y-13260293D02*
X8205777Y-13298389D01*
X8205777Y-13298389D02*
X8196253Y-13317436D01*
X8196253Y-13317436D02*
X8186729Y-13326960D01*
X8186729Y-13326960D02*
X8167682Y-13336484D01*
X8167682Y-13336484D02*
X8148634Y-13336484D01*
X8148634Y-13336484D02*
X8129586Y-13326960D01*
X8129586Y-13326960D02*
X8120063Y-13317436D01*
X8120063Y-13317436D02*
X8110539Y-13298389D01*
X8110539Y-13298389D02*
X8101015Y-13260293D01*
X8101015Y-13260293D02*
X8101015Y-13212674D01*
X8101015Y-13212674D02*
X8110539Y-13174579D01*
X8110539Y-13174579D02*
X8120063Y-13155531D01*
X8120063Y-13155531D02*
X8129586Y-13146008D01*
X8129586Y-13146008D02*
X8148634Y-13136484D01*
X8301015Y-13317436D02*
X8310539Y-13326960D01*
X8310539Y-13326960D02*
X8301015Y-13336484D01*
X8301015Y-13336484D02*
X8291491Y-13326960D01*
X8291491Y-13326960D02*
X8301015Y-13317436D01*
X8301015Y-13317436D02*
X8301015Y-13336484D01*
X8434348Y-13136484D02*
X8453396Y-13136484D01*
X8453396Y-13136484D02*
X8472444Y-13146008D01*
X8472444Y-13146008D02*
X8481967Y-13155531D01*
X8481967Y-13155531D02*
X8491491Y-13174579D01*
X8491491Y-13174579D02*
X8501015Y-13212674D01*
X8501015Y-13212674D02*
X8501015Y-13260293D01*
X8501015Y-13260293D02*
X8491491Y-13298389D01*
X8491491Y-13298389D02*
X8481967Y-13317436D01*
X8481967Y-13317436D02*
X8472444Y-13326960D01*
X8472444Y-13326960D02*
X8453396Y-13336484D01*
X8453396Y-13336484D02*
X8434348Y-13336484D01*
X8434348Y-13336484D02*
X8415301Y-13326960D01*
X8415301Y-13326960D02*
X8405777Y-13317436D01*
X8405777Y-13317436D02*
X8396253Y-13298389D01*
X8396253Y-13298389D02*
X8386729Y-13260293D01*
X8386729Y-13260293D02*
X8386729Y-13212674D01*
X8386729Y-13212674D02*
X8396253Y-13174579D01*
X8396253Y-13174579D02*
X8405777Y-13155531D01*
X8405777Y-13155531D02*
X8415301Y-13146008D01*
X8415301Y-13146008D02*
X8434348Y-13136484D01*
X8577206Y-13155531D02*
X8586729Y-13146008D01*
X8586729Y-13146008D02*
X8605777Y-13136484D01*
X8605777Y-13136484D02*
X8653396Y-13136484D01*
X8653396Y-13136484D02*
X8672444Y-13146008D01*
X8672444Y-13146008D02*
X8681967Y-13155531D01*
X8681967Y-13155531D02*
X8691491Y-13174579D01*
X8691491Y-13174579D02*
X8691491Y-13193627D01*
X8691491Y-13193627D02*
X8681967Y-13222198D01*
X8681967Y-13222198D02*
X8567682Y-13336484D01*
X8567682Y-13336484D02*
X8691491Y-13336484D01*
X8872444Y-13136484D02*
X8777206Y-13136484D01*
X8777206Y-13136484D02*
X8767682Y-13231722D01*
X8767682Y-13231722D02*
X8777206Y-13222198D01*
X8777206Y-13222198D02*
X8796253Y-13212674D01*
X8796253Y-13212674D02*
X8843872Y-13212674D01*
X8843872Y-13212674D02*
X8862920Y-13222198D01*
X8862920Y-13222198D02*
X8872444Y-13231722D01*
X8872444Y-13231722D02*
X8881967Y-13250770D01*
X8881967Y-13250770D02*
X8881967Y-13298389D01*
X8881967Y-13298389D02*
X8872444Y-13317436D01*
X8872444Y-13317436D02*
X8862920Y-13326960D01*
X8862920Y-13326960D02*
X8843872Y-13336484D01*
X8843872Y-13336484D02*
X8796253Y-13336484D01*
X8796253Y-13336484D02*
X8777206Y-13326960D01*
X8777206Y-13326960D02*
X8767682Y-13317436D01*
X9053396Y-13136484D02*
X9015301Y-13136484D01*
X9015301Y-13136484D02*
X8996253Y-13146008D01*
X8996253Y-13146008D02*
X8986729Y-13155531D01*
X8986729Y-13155531D02*
X8967682Y-13184103D01*
X8967682Y-13184103D02*
X8958158Y-13222198D01*
X8958158Y-13222198D02*
X8958158Y-13298389D01*
X8958158Y-13298389D02*
X8967682Y-13317436D01*
X8967682Y-13317436D02*
X8977206Y-13326960D01*
X8977206Y-13326960D02*
X8996253Y-13336484D01*
X8996253Y-13336484D02*
X9034348Y-13336484D01*
X9034348Y-13336484D02*
X9053396Y-13326960D01*
X9053396Y-13326960D02*
X9062920Y-13317436D01*
X9062920Y-13317436D02*
X9072444Y-13298389D01*
X9072444Y-13298389D02*
X9072444Y-13250770D01*
X9072444Y-13250770D02*
X9062920Y-13231722D01*
X9062920Y-13231722D02*
X9053396Y-13222198D01*
X9053396Y-13222198D02*
X9034348Y-13212674D01*
X9034348Y-13212674D02*
X8996253Y-13212674D01*
X8996253Y-13212674D02*
X8977206Y-13222198D01*
X8977206Y-13222198D02*
X8967682Y-13231722D01*
X8967682Y-13231722D02*
X8958158Y-13250770D01*
X9148634Y-13136484D02*
X9148634Y-13174579D01*
X9224825Y-13136484D02*
X9224825Y-13174579D01*
X9520063Y-13412674D02*
X9510539Y-13403150D01*
X9510539Y-13403150D02*
X9491491Y-13374579D01*
X9491491Y-13374579D02*
X9481968Y-13355531D01*
X9481968Y-13355531D02*
X9472444Y-13326960D01*
X9472444Y-13326960D02*
X9462920Y-13279341D01*
X9462920Y-13279341D02*
X9462920Y-13241246D01*
X9462920Y-13241246D02*
X9472444Y-13193627D01*
X9472444Y-13193627D02*
X9481968Y-13165055D01*
X9481968Y-13165055D02*
X9491491Y-13146008D01*
X9491491Y-13146008D02*
X9510539Y-13117436D01*
X9510539Y-13117436D02*
X9520063Y-13107912D01*
X9586729Y-13155531D02*
X9596253Y-13146008D01*
X9596253Y-13146008D02*
X9615301Y-13136484D01*
X9615301Y-13136484D02*
X9662920Y-13136484D01*
X9662920Y-13136484D02*
X9681968Y-13146008D01*
X9681968Y-13146008D02*
X9691491Y-13155531D01*
X9691491Y-13155531D02*
X9701015Y-13174579D01*
X9701015Y-13174579D02*
X9701015Y-13193627D01*
X9701015Y-13193627D02*
X9691491Y-13222198D01*
X9691491Y-13222198D02*
X9577206Y-13336484D01*
X9577206Y-13336484D02*
X9701015Y-13336484D01*
X9939110Y-13336484D02*
X9939110Y-13136484D01*
X10024825Y-13336484D02*
X10024825Y-13231722D01*
X10024825Y-13231722D02*
X10015301Y-13212674D01*
X10015301Y-13212674D02*
X9996253Y-13203150D01*
X9996253Y-13203150D02*
X9967682Y-13203150D01*
X9967682Y-13203150D02*
X9948634Y-13212674D01*
X9948634Y-13212674D02*
X9939110Y-13222198D01*
X10148634Y-13336484D02*
X10129587Y-13326960D01*
X10129587Y-13326960D02*
X10120063Y-13317436D01*
X10120063Y-13317436D02*
X10110539Y-13298389D01*
X10110539Y-13298389D02*
X10110539Y-13241246D01*
X10110539Y-13241246D02*
X10120063Y-13222198D01*
X10120063Y-13222198D02*
X10129587Y-13212674D01*
X10129587Y-13212674D02*
X10148634Y-13203150D01*
X10148634Y-13203150D02*
X10177206Y-13203150D01*
X10177206Y-13203150D02*
X10196253Y-13212674D01*
X10196253Y-13212674D02*
X10205777Y-13222198D01*
X10205777Y-13222198D02*
X10215301Y-13241246D01*
X10215301Y-13241246D02*
X10215301Y-13298389D01*
X10215301Y-13298389D02*
X10205777Y-13317436D01*
X10205777Y-13317436D02*
X10196253Y-13326960D01*
X10196253Y-13326960D02*
X10177206Y-13336484D01*
X10177206Y-13336484D02*
X10148634Y-13336484D01*
X10329587Y-13336484D02*
X10310539Y-13326960D01*
X10310539Y-13326960D02*
X10301015Y-13307912D01*
X10301015Y-13307912D02*
X10301015Y-13136484D01*
X10481968Y-13326960D02*
X10462920Y-13336484D01*
X10462920Y-13336484D02*
X10424825Y-13336484D01*
X10424825Y-13336484D02*
X10405777Y-13326960D01*
X10405777Y-13326960D02*
X10396253Y-13307912D01*
X10396253Y-13307912D02*
X10396253Y-13231722D01*
X10396253Y-13231722D02*
X10405777Y-13212674D01*
X10405777Y-13212674D02*
X10424825Y-13203150D01*
X10424825Y-13203150D02*
X10462920Y-13203150D01*
X10462920Y-13203150D02*
X10481968Y-13212674D01*
X10481968Y-13212674D02*
X10491491Y-13231722D01*
X10491491Y-13231722D02*
X10491491Y-13250770D01*
X10491491Y-13250770D02*
X10396253Y-13269817D01*
X10567682Y-13326960D02*
X10586730Y-13336484D01*
X10586730Y-13336484D02*
X10624825Y-13336484D01*
X10624825Y-13336484D02*
X10643872Y-13326960D01*
X10643872Y-13326960D02*
X10653396Y-13307912D01*
X10653396Y-13307912D02*
X10653396Y-13298389D01*
X10653396Y-13298389D02*
X10643872Y-13279341D01*
X10643872Y-13279341D02*
X10624825Y-13269817D01*
X10624825Y-13269817D02*
X10596253Y-13269817D01*
X10596253Y-13269817D02*
X10577206Y-13260293D01*
X10577206Y-13260293D02*
X10567682Y-13241246D01*
X10567682Y-13241246D02*
X10567682Y-13231722D01*
X10567682Y-13231722D02*
X10577206Y-13212674D01*
X10577206Y-13212674D02*
X10596253Y-13203150D01*
X10596253Y-13203150D02*
X10624825Y-13203150D01*
X10624825Y-13203150D02*
X10643872Y-13212674D01*
X10720063Y-13412674D02*
X10729587Y-13403150D01*
X10729587Y-13403150D02*
X10748634Y-13374579D01*
X10748634Y-13374579D02*
X10758158Y-13355531D01*
X10758158Y-13355531D02*
X10767682Y-13326960D01*
X10767682Y-13326960D02*
X10777206Y-13279341D01*
X10777206Y-13279341D02*
X10777206Y-13241246D01*
X10777206Y-13241246D02*
X10767682Y-13193627D01*
X10767682Y-13193627D02*
X10758158Y-13165055D01*
X10758158Y-13165055D02*
X10748634Y-13146008D01*
X10748634Y-13146008D02*
X10729587Y-13117436D01*
X10729587Y-13117436D02*
X10720063Y-13107912D01*
X11081968Y-13412674D02*
X11072444Y-13403150D01*
X11072444Y-13403150D02*
X11053396Y-13374579D01*
X11053396Y-13374579D02*
X11043872Y-13355531D01*
X11043872Y-13355531D02*
X11034349Y-13326960D01*
X11034349Y-13326960D02*
X11024825Y-13279341D01*
X11024825Y-13279341D02*
X11024825Y-13241246D01*
X11024825Y-13241246D02*
X11034349Y-13193627D01*
X11034349Y-13193627D02*
X11043872Y-13165055D01*
X11043872Y-13165055D02*
X11053396Y-13146008D01*
X11053396Y-13146008D02*
X11072444Y-13117436D01*
X11072444Y-13117436D02*
X11081968Y-13107912D01*
X11158158Y-13203150D02*
X11158158Y-13336484D01*
X11158158Y-13222198D02*
X11167682Y-13212674D01*
X11167682Y-13212674D02*
X11186729Y-13203150D01*
X11186729Y-13203150D02*
X11215301Y-13203150D01*
X11215301Y-13203150D02*
X11234349Y-13212674D01*
X11234349Y-13212674D02*
X11243872Y-13231722D01*
X11243872Y-13231722D02*
X11243872Y-13336484D01*
X11367682Y-13336484D02*
X11348634Y-13326960D01*
X11348634Y-13326960D02*
X11339110Y-13317436D01*
X11339110Y-13317436D02*
X11329587Y-13298389D01*
X11329587Y-13298389D02*
X11329587Y-13241246D01*
X11329587Y-13241246D02*
X11339110Y-13222198D01*
X11339110Y-13222198D02*
X11348634Y-13212674D01*
X11348634Y-13212674D02*
X11367682Y-13203150D01*
X11367682Y-13203150D02*
X11396253Y-13203150D01*
X11396253Y-13203150D02*
X11415301Y-13212674D01*
X11415301Y-13212674D02*
X11424825Y-13222198D01*
X11424825Y-13222198D02*
X11434349Y-13241246D01*
X11434349Y-13241246D02*
X11434349Y-13298389D01*
X11434349Y-13298389D02*
X11424825Y-13317436D01*
X11424825Y-13317436D02*
X11415301Y-13326960D01*
X11415301Y-13326960D02*
X11396253Y-13336484D01*
X11396253Y-13336484D02*
X11367682Y-13336484D01*
X11491491Y-13203150D02*
X11567682Y-13203150D01*
X11520063Y-13136484D02*
X11520063Y-13307912D01*
X11520063Y-13307912D02*
X11529587Y-13326960D01*
X11529587Y-13326960D02*
X11548634Y-13336484D01*
X11548634Y-13336484D02*
X11567682Y-13336484D01*
X11786730Y-13203150D02*
X11786730Y-13403150D01*
X11786730Y-13212674D02*
X11805777Y-13203150D01*
X11805777Y-13203150D02*
X11843872Y-13203150D01*
X11843872Y-13203150D02*
X11862920Y-13212674D01*
X11862920Y-13212674D02*
X11872444Y-13222198D01*
X11872444Y-13222198D02*
X11881968Y-13241246D01*
X11881968Y-13241246D02*
X11881968Y-13298389D01*
X11881968Y-13298389D02*
X11872444Y-13317436D01*
X11872444Y-13317436D02*
X11862920Y-13326960D01*
X11862920Y-13326960D02*
X11843872Y-13336484D01*
X11843872Y-13336484D02*
X11805777Y-13336484D01*
X11805777Y-13336484D02*
X11786730Y-13326960D01*
X11996253Y-13336484D02*
X11977206Y-13326960D01*
X11977206Y-13326960D02*
X11967682Y-13307912D01*
X11967682Y-13307912D02*
X11967682Y-13136484D01*
X12158158Y-13336484D02*
X12158158Y-13231722D01*
X12158158Y-13231722D02*
X12148634Y-13212674D01*
X12148634Y-13212674D02*
X12129587Y-13203150D01*
X12129587Y-13203150D02*
X12091491Y-13203150D01*
X12091491Y-13203150D02*
X12072444Y-13212674D01*
X12158158Y-13326960D02*
X12139111Y-13336484D01*
X12139111Y-13336484D02*
X12091491Y-13336484D01*
X12091491Y-13336484D02*
X12072444Y-13326960D01*
X12072444Y-13326960D02*
X12062920Y-13307912D01*
X12062920Y-13307912D02*
X12062920Y-13288865D01*
X12062920Y-13288865D02*
X12072444Y-13269817D01*
X12072444Y-13269817D02*
X12091491Y-13260293D01*
X12091491Y-13260293D02*
X12139111Y-13260293D01*
X12139111Y-13260293D02*
X12158158Y-13250770D01*
X12224825Y-13203150D02*
X12301015Y-13203150D01*
X12253396Y-13136484D02*
X12253396Y-13307912D01*
X12253396Y-13307912D02*
X12262920Y-13326960D01*
X12262920Y-13326960D02*
X12281968Y-13336484D01*
X12281968Y-13336484D02*
X12301015Y-13336484D01*
X12443872Y-13326960D02*
X12424825Y-13336484D01*
X12424825Y-13336484D02*
X12386730Y-13336484D01*
X12386730Y-13336484D02*
X12367682Y-13326960D01*
X12367682Y-13326960D02*
X12358158Y-13307912D01*
X12358158Y-13307912D02*
X12358158Y-13231722D01*
X12358158Y-13231722D02*
X12367682Y-13212674D01*
X12367682Y-13212674D02*
X12386730Y-13203150D01*
X12386730Y-13203150D02*
X12424825Y-13203150D01*
X12424825Y-13203150D02*
X12443872Y-13212674D01*
X12443872Y-13212674D02*
X12453396Y-13231722D01*
X12453396Y-13231722D02*
X12453396Y-13250770D01*
X12453396Y-13250770D02*
X12358158Y-13269817D01*
X12624825Y-13336484D02*
X12624825Y-13136484D01*
X12624825Y-13326960D02*
X12605777Y-13336484D01*
X12605777Y-13336484D02*
X12567682Y-13336484D01*
X12567682Y-13336484D02*
X12548634Y-13326960D01*
X12548634Y-13326960D02*
X12539111Y-13317436D01*
X12539111Y-13317436D02*
X12529587Y-13298389D01*
X12529587Y-13298389D02*
X12529587Y-13241246D01*
X12529587Y-13241246D02*
X12539111Y-13222198D01*
X12539111Y-13222198D02*
X12548634Y-13212674D01*
X12548634Y-13212674D02*
X12567682Y-13203150D01*
X12567682Y-13203150D02*
X12605777Y-13203150D01*
X12605777Y-13203150D02*
X12624825Y-13212674D01*
X12701015Y-13412674D02*
X12710539Y-13403150D01*
X12710539Y-13403150D02*
X12729587Y-13374579D01*
X12729587Y-13374579D02*
X12739111Y-13355531D01*
X12739111Y-13355531D02*
X12748634Y-13326960D01*
X12748634Y-13326960D02*
X12758158Y-13279341D01*
X12758158Y-13279341D02*
X12758158Y-13241246D01*
X12758158Y-13241246D02*
X12748634Y-13193627D01*
X12748634Y-13193627D02*
X12739111Y-13165055D01*
X12739111Y-13165055D02*
X12729587Y-13146008D01*
X12729587Y-13146008D02*
X12710539Y-13117436D01*
X12710539Y-13117436D02*
X12701015Y-13107912D01*
X5945000Y-13509000D02*
G75*
G02*
X5745000Y-13509000I-100000J0D01*
G01*
X5745000Y-13509000D02*
G75*
G02*
X5945000Y-13509000I100000J0D01*
G01*
X6196253Y-13419531D02*
X6205777Y-13410008D01*
X6205777Y-13410008D02*
X6224824Y-13400484D01*
X6224824Y-13400484D02*
X6272443Y-13400484D01*
X6272443Y-13400484D02*
X6291491Y-13410008D01*
X6291491Y-13410008D02*
X6301015Y-13419531D01*
X6301015Y-13419531D02*
X6310539Y-13438579D01*
X6310539Y-13438579D02*
X6310539Y-13457627D01*
X6310539Y-13457627D02*
X6301015Y-13486198D01*
X6301015Y-13486198D02*
X6186729Y-13600484D01*
X6186729Y-13600484D02*
X6310539Y-13600484D01*
X6396253Y-13581436D02*
X6405777Y-13590960D01*
X6405777Y-13590960D02*
X6396253Y-13600484D01*
X6396253Y-13600484D02*
X6386729Y-13590960D01*
X6386729Y-13590960D02*
X6396253Y-13581436D01*
X6396253Y-13581436D02*
X6396253Y-13600484D01*
X6472443Y-13400484D02*
X6596253Y-13400484D01*
X6596253Y-13400484D02*
X6529586Y-13476674D01*
X6529586Y-13476674D02*
X6558158Y-13476674D01*
X6558158Y-13476674D02*
X6577205Y-13486198D01*
X6577205Y-13486198D02*
X6586729Y-13495722D01*
X6586729Y-13495722D02*
X6596253Y-13514770D01*
X6596253Y-13514770D02*
X6596253Y-13562389D01*
X6596253Y-13562389D02*
X6586729Y-13581436D01*
X6586729Y-13581436D02*
X6577205Y-13590960D01*
X6577205Y-13590960D02*
X6558158Y-13600484D01*
X6558158Y-13600484D02*
X6501015Y-13600484D01*
X6501015Y-13600484D02*
X6481967Y-13590960D01*
X6481967Y-13590960D02*
X6472443Y-13581436D01*
X6691491Y-13600484D02*
X6729586Y-13600484D01*
X6729586Y-13600484D02*
X6748634Y-13590960D01*
X6748634Y-13590960D02*
X6758158Y-13581436D01*
X6758158Y-13581436D02*
X6777205Y-13552865D01*
X6777205Y-13552865D02*
X6786729Y-13514770D01*
X6786729Y-13514770D02*
X6786729Y-13438579D01*
X6786729Y-13438579D02*
X6777205Y-13419531D01*
X6777205Y-13419531D02*
X6767681Y-13410008D01*
X6767681Y-13410008D02*
X6748634Y-13400484D01*
X6748634Y-13400484D02*
X6710539Y-13400484D01*
X6710539Y-13400484D02*
X6691491Y-13410008D01*
X6691491Y-13410008D02*
X6681967Y-13419531D01*
X6681967Y-13419531D02*
X6672443Y-13438579D01*
X6672443Y-13438579D02*
X6672443Y-13486198D01*
X6672443Y-13486198D02*
X6681967Y-13505246D01*
X6681967Y-13505246D02*
X6691491Y-13514770D01*
X6691491Y-13514770D02*
X6710539Y-13524293D01*
X6710539Y-13524293D02*
X6748634Y-13524293D01*
X6748634Y-13524293D02*
X6767681Y-13514770D01*
X6767681Y-13514770D02*
X6777205Y-13505246D01*
X6777205Y-13505246D02*
X6786729Y-13486198D01*
X6910539Y-13400484D02*
X6929586Y-13400484D01*
X6929586Y-13400484D02*
X6948634Y-13410008D01*
X6948634Y-13410008D02*
X6958158Y-13419531D01*
X6958158Y-13419531D02*
X6967681Y-13438579D01*
X6967681Y-13438579D02*
X6977205Y-13476674D01*
X6977205Y-13476674D02*
X6977205Y-13524293D01*
X6977205Y-13524293D02*
X6967681Y-13562389D01*
X6967681Y-13562389D02*
X6958158Y-13581436D01*
X6958158Y-13581436D02*
X6948634Y-13590960D01*
X6948634Y-13590960D02*
X6929586Y-13600484D01*
X6929586Y-13600484D02*
X6910539Y-13600484D01*
X6910539Y-13600484D02*
X6891491Y-13590960D01*
X6891491Y-13590960D02*
X6881967Y-13581436D01*
X6881967Y-13581436D02*
X6872443Y-13562389D01*
X6872443Y-13562389D02*
X6862920Y-13524293D01*
X6862920Y-13524293D02*
X6862920Y-13476674D01*
X6862920Y-13476674D02*
X6872443Y-13438579D01*
X6872443Y-13438579D02*
X6881967Y-13419531D01*
X6881967Y-13419531D02*
X6891491Y-13410008D01*
X6891491Y-13410008D02*
X6910539Y-13400484D01*
X7062920Y-13600484D02*
X7062920Y-13467150D01*
X7062920Y-13486198D02*
X7072443Y-13476674D01*
X7072443Y-13476674D02*
X7091491Y-13467150D01*
X7091491Y-13467150D02*
X7120062Y-13467150D01*
X7120062Y-13467150D02*
X7139110Y-13476674D01*
X7139110Y-13476674D02*
X7148634Y-13495722D01*
X7148634Y-13495722D02*
X7148634Y-13600484D01*
X7148634Y-13495722D02*
X7158158Y-13476674D01*
X7158158Y-13476674D02*
X7177205Y-13467150D01*
X7177205Y-13467150D02*
X7205777Y-13467150D01*
X7205777Y-13467150D02*
X7224824Y-13476674D01*
X7224824Y-13476674D02*
X7234348Y-13495722D01*
X7234348Y-13495722D02*
X7234348Y-13600484D01*
X7329586Y-13600484D02*
X7329586Y-13467150D01*
X7329586Y-13486198D02*
X7339110Y-13476674D01*
X7339110Y-13476674D02*
X7358158Y-13467150D01*
X7358158Y-13467150D02*
X7386729Y-13467150D01*
X7386729Y-13467150D02*
X7405777Y-13476674D01*
X7405777Y-13476674D02*
X7415301Y-13495722D01*
X7415301Y-13495722D02*
X7415301Y-13600484D01*
X7415301Y-13495722D02*
X7424824Y-13476674D01*
X7424824Y-13476674D02*
X7443872Y-13467150D01*
X7443872Y-13467150D02*
X7472443Y-13467150D01*
X7472443Y-13467150D02*
X7491491Y-13476674D01*
X7491491Y-13476674D02*
X7501015Y-13495722D01*
X7501015Y-13495722D02*
X7501015Y-13600484D01*
X7891491Y-13390960D02*
X7720063Y-13648103D01*
X8148634Y-13400484D02*
X8167682Y-13400484D01*
X8167682Y-13400484D02*
X8186729Y-13410008D01*
X8186729Y-13410008D02*
X8196253Y-13419531D01*
X8196253Y-13419531D02*
X8205777Y-13438579D01*
X8205777Y-13438579D02*
X8215301Y-13476674D01*
X8215301Y-13476674D02*
X8215301Y-13524293D01*
X8215301Y-13524293D02*
X8205777Y-13562389D01*
X8205777Y-13562389D02*
X8196253Y-13581436D01*
X8196253Y-13581436D02*
X8186729Y-13590960D01*
X8186729Y-13590960D02*
X8167682Y-13600484D01*
X8167682Y-13600484D02*
X8148634Y-13600484D01*
X8148634Y-13600484D02*
X8129586Y-13590960D01*
X8129586Y-13590960D02*
X8120063Y-13581436D01*
X8120063Y-13581436D02*
X8110539Y-13562389D01*
X8110539Y-13562389D02*
X8101015Y-13524293D01*
X8101015Y-13524293D02*
X8101015Y-13476674D01*
X8101015Y-13476674D02*
X8110539Y-13438579D01*
X8110539Y-13438579D02*
X8120063Y-13419531D01*
X8120063Y-13419531D02*
X8129586Y-13410008D01*
X8129586Y-13410008D02*
X8148634Y-13400484D01*
X8301015Y-13581436D02*
X8310539Y-13590960D01*
X8310539Y-13590960D02*
X8301015Y-13600484D01*
X8301015Y-13600484D02*
X8291491Y-13590960D01*
X8291491Y-13590960D02*
X8301015Y-13581436D01*
X8301015Y-13581436D02*
X8301015Y-13600484D01*
X8434348Y-13400484D02*
X8453396Y-13400484D01*
X8453396Y-13400484D02*
X8472444Y-13410008D01*
X8472444Y-13410008D02*
X8481967Y-13419531D01*
X8481967Y-13419531D02*
X8491491Y-13438579D01*
X8491491Y-13438579D02*
X8501015Y-13476674D01*
X8501015Y-13476674D02*
X8501015Y-13524293D01*
X8501015Y-13524293D02*
X8491491Y-13562389D01*
X8491491Y-13562389D02*
X8481967Y-13581436D01*
X8481967Y-13581436D02*
X8472444Y-13590960D01*
X8472444Y-13590960D02*
X8453396Y-13600484D01*
X8453396Y-13600484D02*
X8434348Y-13600484D01*
X8434348Y-13600484D02*
X8415301Y-13590960D01*
X8415301Y-13590960D02*
X8405777Y-13581436D01*
X8405777Y-13581436D02*
X8396253Y-13562389D01*
X8396253Y-13562389D02*
X8386729Y-13524293D01*
X8386729Y-13524293D02*
X8386729Y-13476674D01*
X8386729Y-13476674D02*
X8396253Y-13438579D01*
X8396253Y-13438579D02*
X8405777Y-13419531D01*
X8405777Y-13419531D02*
X8415301Y-13410008D01*
X8415301Y-13410008D02*
X8434348Y-13400484D01*
X8596253Y-13600484D02*
X8634348Y-13600484D01*
X8634348Y-13600484D02*
X8653396Y-13590960D01*
X8653396Y-13590960D02*
X8662920Y-13581436D01*
X8662920Y-13581436D02*
X8681967Y-13552865D01*
X8681967Y-13552865D02*
X8691491Y-13514770D01*
X8691491Y-13514770D02*
X8691491Y-13438579D01*
X8691491Y-13438579D02*
X8681967Y-13419531D01*
X8681967Y-13419531D02*
X8672444Y-13410008D01*
X8672444Y-13410008D02*
X8653396Y-13400484D01*
X8653396Y-13400484D02*
X8615301Y-13400484D01*
X8615301Y-13400484D02*
X8596253Y-13410008D01*
X8596253Y-13410008D02*
X8586729Y-13419531D01*
X8586729Y-13419531D02*
X8577206Y-13438579D01*
X8577206Y-13438579D02*
X8577206Y-13486198D01*
X8577206Y-13486198D02*
X8586729Y-13505246D01*
X8586729Y-13505246D02*
X8596253Y-13514770D01*
X8596253Y-13514770D02*
X8615301Y-13524293D01*
X8615301Y-13524293D02*
X8653396Y-13524293D01*
X8653396Y-13524293D02*
X8672444Y-13514770D01*
X8672444Y-13514770D02*
X8681967Y-13505246D01*
X8681967Y-13505246D02*
X8691491Y-13486198D01*
X8862920Y-13467150D02*
X8862920Y-13600484D01*
X8815301Y-13390960D02*
X8767682Y-13533817D01*
X8767682Y-13533817D02*
X8891491Y-13533817D01*
X9072444Y-13600484D02*
X8958158Y-13600484D01*
X9015301Y-13600484D02*
X9015301Y-13400484D01*
X9015301Y-13400484D02*
X8996253Y-13429055D01*
X8996253Y-13429055D02*
X8977206Y-13448103D01*
X8977206Y-13448103D02*
X8958158Y-13457627D01*
X9148634Y-13400484D02*
X9148634Y-13438579D01*
X9224825Y-13400484D02*
X9224825Y-13438579D01*
X9520063Y-13676674D02*
X9510539Y-13667150D01*
X9510539Y-13667150D02*
X9491491Y-13638579D01*
X9491491Y-13638579D02*
X9481968Y-13619531D01*
X9481968Y-13619531D02*
X9472444Y-13590960D01*
X9472444Y-13590960D02*
X9462920Y-13543341D01*
X9462920Y-13543341D02*
X9462920Y-13505246D01*
X9462920Y-13505246D02*
X9472444Y-13457627D01*
X9472444Y-13457627D02*
X9481968Y-13429055D01*
X9481968Y-13429055D02*
X9491491Y-13410008D01*
X9491491Y-13410008D02*
X9510539Y-13381436D01*
X9510539Y-13381436D02*
X9520063Y-13371912D01*
X9701015Y-13600484D02*
X9586729Y-13600484D01*
X9643872Y-13600484D02*
X9643872Y-13400484D01*
X9643872Y-13400484D02*
X9624825Y-13429055D01*
X9624825Y-13429055D02*
X9605777Y-13448103D01*
X9605777Y-13448103D02*
X9586729Y-13457627D01*
X9939110Y-13600484D02*
X9939110Y-13400484D01*
X10024825Y-13600484D02*
X10024825Y-13495722D01*
X10024825Y-13495722D02*
X10015301Y-13476674D01*
X10015301Y-13476674D02*
X9996253Y-13467150D01*
X9996253Y-13467150D02*
X9967682Y-13467150D01*
X9967682Y-13467150D02*
X9948634Y-13476674D01*
X9948634Y-13476674D02*
X9939110Y-13486198D01*
X10148634Y-13600484D02*
X10129587Y-13590960D01*
X10129587Y-13590960D02*
X10120063Y-13581436D01*
X10120063Y-13581436D02*
X10110539Y-13562389D01*
X10110539Y-13562389D02*
X10110539Y-13505246D01*
X10110539Y-13505246D02*
X10120063Y-13486198D01*
X10120063Y-13486198D02*
X10129587Y-13476674D01*
X10129587Y-13476674D02*
X10148634Y-13467150D01*
X10148634Y-13467150D02*
X10177206Y-13467150D01*
X10177206Y-13467150D02*
X10196253Y-13476674D01*
X10196253Y-13476674D02*
X10205777Y-13486198D01*
X10205777Y-13486198D02*
X10215301Y-13505246D01*
X10215301Y-13505246D02*
X10215301Y-13562389D01*
X10215301Y-13562389D02*
X10205777Y-13581436D01*
X10205777Y-13581436D02*
X10196253Y-13590960D01*
X10196253Y-13590960D02*
X10177206Y-13600484D01*
X10177206Y-13600484D02*
X10148634Y-13600484D01*
X10329587Y-13600484D02*
X10310539Y-13590960D01*
X10310539Y-13590960D02*
X10301015Y-13571912D01*
X10301015Y-13571912D02*
X10301015Y-13400484D01*
X10481968Y-13590960D02*
X10462920Y-13600484D01*
X10462920Y-13600484D02*
X10424825Y-13600484D01*
X10424825Y-13600484D02*
X10405777Y-13590960D01*
X10405777Y-13590960D02*
X10396253Y-13571912D01*
X10396253Y-13571912D02*
X10396253Y-13495722D01*
X10396253Y-13495722D02*
X10405777Y-13476674D01*
X10405777Y-13476674D02*
X10424825Y-13467150D01*
X10424825Y-13467150D02*
X10462920Y-13467150D01*
X10462920Y-13467150D02*
X10481968Y-13476674D01*
X10481968Y-13476674D02*
X10491491Y-13495722D01*
X10491491Y-13495722D02*
X10491491Y-13514770D01*
X10491491Y-13514770D02*
X10396253Y-13533817D01*
X10558158Y-13676674D02*
X10567682Y-13667150D01*
X10567682Y-13667150D02*
X10586730Y-13638579D01*
X10586730Y-13638579D02*
X10596253Y-13619531D01*
X10596253Y-13619531D02*
X10605777Y-13590960D01*
X10605777Y-13590960D02*
X10615301Y-13543341D01*
X10615301Y-13543341D02*
X10615301Y-13505246D01*
X10615301Y-13505246D02*
X10605777Y-13457627D01*
X10605777Y-13457627D02*
X10596253Y-13429055D01*
X10596253Y-13429055D02*
X10586730Y-13410008D01*
X10586730Y-13410008D02*
X10567682Y-13381436D01*
X10567682Y-13381436D02*
X10558158Y-13371912D01*
X10920063Y-13676674D02*
X10910539Y-13667150D01*
X10910539Y-13667150D02*
X10891491Y-13638579D01*
X10891491Y-13638579D02*
X10881968Y-13619531D01*
X10881968Y-13619531D02*
X10872444Y-13590960D01*
X10872444Y-13590960D02*
X10862920Y-13543341D01*
X10862920Y-13543341D02*
X10862920Y-13505246D01*
X10862920Y-13505246D02*
X10872444Y-13457627D01*
X10872444Y-13457627D02*
X10881968Y-13429055D01*
X10881968Y-13429055D02*
X10891491Y-13410008D01*
X10891491Y-13410008D02*
X10910539Y-13381436D01*
X10910539Y-13381436D02*
X10920063Y-13371912D01*
X10996253Y-13467150D02*
X10996253Y-13600484D01*
X10996253Y-13486198D02*
X11005777Y-13476674D01*
X11005777Y-13476674D02*
X11024825Y-13467150D01*
X11024825Y-13467150D02*
X11053396Y-13467150D01*
X11053396Y-13467150D02*
X11072444Y-13476674D01*
X11072444Y-13476674D02*
X11081968Y-13495722D01*
X11081968Y-13495722D02*
X11081968Y-13600484D01*
X11205777Y-13600484D02*
X11186729Y-13590960D01*
X11186729Y-13590960D02*
X11177206Y-13581436D01*
X11177206Y-13581436D02*
X11167682Y-13562389D01*
X11167682Y-13562389D02*
X11167682Y-13505246D01*
X11167682Y-13505246D02*
X11177206Y-13486198D01*
X11177206Y-13486198D02*
X11186729Y-13476674D01*
X11186729Y-13476674D02*
X11205777Y-13467150D01*
X11205777Y-13467150D02*
X11234349Y-13467150D01*
X11234349Y-13467150D02*
X11253396Y-13476674D01*
X11253396Y-13476674D02*
X11262920Y-13486198D01*
X11262920Y-13486198D02*
X11272444Y-13505246D01*
X11272444Y-13505246D02*
X11272444Y-13562389D01*
X11272444Y-13562389D02*
X11262920Y-13581436D01*
X11262920Y-13581436D02*
X11253396Y-13590960D01*
X11253396Y-13590960D02*
X11234349Y-13600484D01*
X11234349Y-13600484D02*
X11205777Y-13600484D01*
X11329587Y-13467150D02*
X11405777Y-13467150D01*
X11358158Y-13400484D02*
X11358158Y-13571912D01*
X11358158Y-13571912D02*
X11367682Y-13590960D01*
X11367682Y-13590960D02*
X11386729Y-13600484D01*
X11386729Y-13600484D02*
X11405777Y-13600484D01*
X11624825Y-13467150D02*
X11624825Y-13667150D01*
X11624825Y-13476674D02*
X11643872Y-13467150D01*
X11643872Y-13467150D02*
X11681968Y-13467150D01*
X11681968Y-13467150D02*
X11701015Y-13476674D01*
X11701015Y-13476674D02*
X11710539Y-13486198D01*
X11710539Y-13486198D02*
X11720063Y-13505246D01*
X11720063Y-13505246D02*
X11720063Y-13562389D01*
X11720063Y-13562389D02*
X11710539Y-13581436D01*
X11710539Y-13581436D02*
X11701015Y-13590960D01*
X11701015Y-13590960D02*
X11681968Y-13600484D01*
X11681968Y-13600484D02*
X11643872Y-13600484D01*
X11643872Y-13600484D02*
X11624825Y-13590960D01*
X11834349Y-13600484D02*
X11815301Y-13590960D01*
X11815301Y-13590960D02*
X11805777Y-13571912D01*
X11805777Y-13571912D02*
X11805777Y-13400484D01*
X11996253Y-13600484D02*
X11996253Y-13495722D01*
X11996253Y-13495722D02*
X11986730Y-13476674D01*
X11986730Y-13476674D02*
X11967682Y-13467150D01*
X11967682Y-13467150D02*
X11929587Y-13467150D01*
X11929587Y-13467150D02*
X11910539Y-13476674D01*
X11996253Y-13590960D02*
X11977206Y-13600484D01*
X11977206Y-13600484D02*
X11929587Y-13600484D01*
X11929587Y-13600484D02*
X11910539Y-13590960D01*
X11910539Y-13590960D02*
X11901015Y-13571912D01*
X11901015Y-13571912D02*
X11901015Y-13552865D01*
X11901015Y-13552865D02*
X11910539Y-13533817D01*
X11910539Y-13533817D02*
X11929587Y-13524293D01*
X11929587Y-13524293D02*
X11977206Y-13524293D01*
X11977206Y-13524293D02*
X11996253Y-13514770D01*
X12062920Y-13467150D02*
X12139110Y-13467150D01*
X12091491Y-13400484D02*
X12091491Y-13571912D01*
X12091491Y-13571912D02*
X12101015Y-13590960D01*
X12101015Y-13590960D02*
X12120063Y-13600484D01*
X12120063Y-13600484D02*
X12139110Y-13600484D01*
X12281968Y-13590960D02*
X12262920Y-13600484D01*
X12262920Y-13600484D02*
X12224825Y-13600484D01*
X12224825Y-13600484D02*
X12205777Y-13590960D01*
X12205777Y-13590960D02*
X12196253Y-13571912D01*
X12196253Y-13571912D02*
X12196253Y-13495722D01*
X12196253Y-13495722D02*
X12205777Y-13476674D01*
X12205777Y-13476674D02*
X12224825Y-13467150D01*
X12224825Y-13467150D02*
X12262920Y-13467150D01*
X12262920Y-13467150D02*
X12281968Y-13476674D01*
X12281968Y-13476674D02*
X12291491Y-13495722D01*
X12291491Y-13495722D02*
X12291491Y-13514770D01*
X12291491Y-13514770D02*
X12196253Y-13533817D01*
X12462920Y-13600484D02*
X12462920Y-13400484D01*
X12462920Y-13590960D02*
X12443872Y-13600484D01*
X12443872Y-13600484D02*
X12405777Y-13600484D01*
X12405777Y-13600484D02*
X12386730Y-13590960D01*
X12386730Y-13590960D02*
X12377206Y-13581436D01*
X12377206Y-13581436D02*
X12367682Y-13562389D01*
X12367682Y-13562389D02*
X12367682Y-13505246D01*
X12367682Y-13505246D02*
X12377206Y-13486198D01*
X12377206Y-13486198D02*
X12386730Y-13476674D01*
X12386730Y-13476674D02*
X12405777Y-13467150D01*
X12405777Y-13467150D02*
X12443872Y-13467150D01*
X12443872Y-13467150D02*
X12462920Y-13476674D01*
X12539111Y-13676674D02*
X12548634Y-13667150D01*
X12548634Y-13667150D02*
X12567682Y-13638579D01*
X12567682Y-13638579D02*
X12577206Y-13619531D01*
X12577206Y-13619531D02*
X12586730Y-13590960D01*
X12586730Y-13590960D02*
X12596253Y-13543341D01*
X12596253Y-13543341D02*
X12596253Y-13505246D01*
X12596253Y-13505246D02*
X12586730Y-13457627D01*
X12586730Y-13457627D02*
X12577206Y-13429055D01*
X12577206Y-13429055D02*
X12567682Y-13410008D01*
X12567682Y-13410008D02*
X12548634Y-13381436D01*
X12548634Y-13381436D02*
X12539111Y-13371912D01*
X5845000Y-13729000D02*
X5845000Y-13929000D01*
X5745000Y-13829000D02*
X5945000Y-13829000D01*
X6186729Y-13720484D02*
X6310539Y-13720484D01*
X6310539Y-13720484D02*
X6243872Y-13796674D01*
X6243872Y-13796674D02*
X6272443Y-13796674D01*
X6272443Y-13796674D02*
X6291491Y-13806198D01*
X6291491Y-13806198D02*
X6301015Y-13815722D01*
X6301015Y-13815722D02*
X6310539Y-13834770D01*
X6310539Y-13834770D02*
X6310539Y-13882389D01*
X6310539Y-13882389D02*
X6301015Y-13901436D01*
X6301015Y-13901436D02*
X6291491Y-13910960D01*
X6291491Y-13910960D02*
X6272443Y-13920484D01*
X6272443Y-13920484D02*
X6215300Y-13920484D01*
X6215300Y-13920484D02*
X6196253Y-13910960D01*
X6196253Y-13910960D02*
X6186729Y-13901436D01*
X6396253Y-13901436D02*
X6405777Y-13910960D01*
X6405777Y-13910960D02*
X6396253Y-13920484D01*
X6396253Y-13920484D02*
X6386729Y-13910960D01*
X6386729Y-13910960D02*
X6396253Y-13901436D01*
X6396253Y-13901436D02*
X6396253Y-13920484D01*
X6577205Y-13787150D02*
X6577205Y-13920484D01*
X6529586Y-13710960D02*
X6481967Y-13853817D01*
X6481967Y-13853817D02*
X6605777Y-13853817D01*
X6777205Y-13720484D02*
X6681967Y-13720484D01*
X6681967Y-13720484D02*
X6672443Y-13815722D01*
X6672443Y-13815722D02*
X6681967Y-13806198D01*
X6681967Y-13806198D02*
X6701015Y-13796674D01*
X6701015Y-13796674D02*
X6748634Y-13796674D01*
X6748634Y-13796674D02*
X6767681Y-13806198D01*
X6767681Y-13806198D02*
X6777205Y-13815722D01*
X6777205Y-13815722D02*
X6786729Y-13834770D01*
X6786729Y-13834770D02*
X6786729Y-13882389D01*
X6786729Y-13882389D02*
X6777205Y-13901436D01*
X6777205Y-13901436D02*
X6767681Y-13910960D01*
X6767681Y-13910960D02*
X6748634Y-13920484D01*
X6748634Y-13920484D02*
X6701015Y-13920484D01*
X6701015Y-13920484D02*
X6681967Y-13910960D01*
X6681967Y-13910960D02*
X6672443Y-13901436D01*
X6910539Y-13720484D02*
X6929586Y-13720484D01*
X6929586Y-13720484D02*
X6948634Y-13730008D01*
X6948634Y-13730008D02*
X6958158Y-13739531D01*
X6958158Y-13739531D02*
X6967681Y-13758579D01*
X6967681Y-13758579D02*
X6977205Y-13796674D01*
X6977205Y-13796674D02*
X6977205Y-13844293D01*
X6977205Y-13844293D02*
X6967681Y-13882389D01*
X6967681Y-13882389D02*
X6958158Y-13901436D01*
X6958158Y-13901436D02*
X6948634Y-13910960D01*
X6948634Y-13910960D02*
X6929586Y-13920484D01*
X6929586Y-13920484D02*
X6910539Y-13920484D01*
X6910539Y-13920484D02*
X6891491Y-13910960D01*
X6891491Y-13910960D02*
X6881967Y-13901436D01*
X6881967Y-13901436D02*
X6872443Y-13882389D01*
X6872443Y-13882389D02*
X6862920Y-13844293D01*
X6862920Y-13844293D02*
X6862920Y-13796674D01*
X6862920Y-13796674D02*
X6872443Y-13758579D01*
X6872443Y-13758579D02*
X6881967Y-13739531D01*
X6881967Y-13739531D02*
X6891491Y-13730008D01*
X6891491Y-13730008D02*
X6910539Y-13720484D01*
X7062920Y-13920484D02*
X7062920Y-13787150D01*
X7062920Y-13806198D02*
X7072443Y-13796674D01*
X7072443Y-13796674D02*
X7091491Y-13787150D01*
X7091491Y-13787150D02*
X7120062Y-13787150D01*
X7120062Y-13787150D02*
X7139110Y-13796674D01*
X7139110Y-13796674D02*
X7148634Y-13815722D01*
X7148634Y-13815722D02*
X7148634Y-13920484D01*
X7148634Y-13815722D02*
X7158158Y-13796674D01*
X7158158Y-13796674D02*
X7177205Y-13787150D01*
X7177205Y-13787150D02*
X7205777Y-13787150D01*
X7205777Y-13787150D02*
X7224824Y-13796674D01*
X7224824Y-13796674D02*
X7234348Y-13815722D01*
X7234348Y-13815722D02*
X7234348Y-13920484D01*
X7329586Y-13920484D02*
X7329586Y-13787150D01*
X7329586Y-13806198D02*
X7339110Y-13796674D01*
X7339110Y-13796674D02*
X7358158Y-13787150D01*
X7358158Y-13787150D02*
X7386729Y-13787150D01*
X7386729Y-13787150D02*
X7405777Y-13796674D01*
X7405777Y-13796674D02*
X7415301Y-13815722D01*
X7415301Y-13815722D02*
X7415301Y-13920484D01*
X7415301Y-13815722D02*
X7424824Y-13796674D01*
X7424824Y-13796674D02*
X7443872Y-13787150D01*
X7443872Y-13787150D02*
X7472443Y-13787150D01*
X7472443Y-13787150D02*
X7491491Y-13796674D01*
X7491491Y-13796674D02*
X7501015Y-13815722D01*
X7501015Y-13815722D02*
X7501015Y-13920484D01*
X7891491Y-13710960D02*
X7720063Y-13968103D01*
X8148634Y-13720484D02*
X8167682Y-13720484D01*
X8167682Y-13720484D02*
X8186729Y-13730008D01*
X8186729Y-13730008D02*
X8196253Y-13739531D01*
X8196253Y-13739531D02*
X8205777Y-13758579D01*
X8205777Y-13758579D02*
X8215301Y-13796674D01*
X8215301Y-13796674D02*
X8215301Y-13844293D01*
X8215301Y-13844293D02*
X8205777Y-13882389D01*
X8205777Y-13882389D02*
X8196253Y-13901436D01*
X8196253Y-13901436D02*
X8186729Y-13910960D01*
X8186729Y-13910960D02*
X8167682Y-13920484D01*
X8167682Y-13920484D02*
X8148634Y-13920484D01*
X8148634Y-13920484D02*
X8129586Y-13910960D01*
X8129586Y-13910960D02*
X8120063Y-13901436D01*
X8120063Y-13901436D02*
X8110539Y-13882389D01*
X8110539Y-13882389D02*
X8101015Y-13844293D01*
X8101015Y-13844293D02*
X8101015Y-13796674D01*
X8101015Y-13796674D02*
X8110539Y-13758579D01*
X8110539Y-13758579D02*
X8120063Y-13739531D01*
X8120063Y-13739531D02*
X8129586Y-13730008D01*
X8129586Y-13730008D02*
X8148634Y-13720484D01*
X8301015Y-13901436D02*
X8310539Y-13910960D01*
X8310539Y-13910960D02*
X8301015Y-13920484D01*
X8301015Y-13920484D02*
X8291491Y-13910960D01*
X8291491Y-13910960D02*
X8301015Y-13901436D01*
X8301015Y-13901436D02*
X8301015Y-13920484D01*
X8501015Y-13920484D02*
X8386729Y-13920484D01*
X8443872Y-13920484D02*
X8443872Y-13720484D01*
X8443872Y-13720484D02*
X8424825Y-13749055D01*
X8424825Y-13749055D02*
X8405777Y-13768103D01*
X8405777Y-13768103D02*
X8386729Y-13777627D01*
X8567682Y-13720484D02*
X8691491Y-13720484D01*
X8691491Y-13720484D02*
X8624825Y-13796674D01*
X8624825Y-13796674D02*
X8653396Y-13796674D01*
X8653396Y-13796674D02*
X8672444Y-13806198D01*
X8672444Y-13806198D02*
X8681967Y-13815722D01*
X8681967Y-13815722D02*
X8691491Y-13834770D01*
X8691491Y-13834770D02*
X8691491Y-13882389D01*
X8691491Y-13882389D02*
X8681967Y-13901436D01*
X8681967Y-13901436D02*
X8672444Y-13910960D01*
X8672444Y-13910960D02*
X8653396Y-13920484D01*
X8653396Y-13920484D02*
X8596253Y-13920484D01*
X8596253Y-13920484D02*
X8577206Y-13910960D01*
X8577206Y-13910960D02*
X8567682Y-13901436D01*
X8872444Y-13720484D02*
X8777206Y-13720484D01*
X8777206Y-13720484D02*
X8767682Y-13815722D01*
X8767682Y-13815722D02*
X8777206Y-13806198D01*
X8777206Y-13806198D02*
X8796253Y-13796674D01*
X8796253Y-13796674D02*
X8843872Y-13796674D01*
X8843872Y-13796674D02*
X8862920Y-13806198D01*
X8862920Y-13806198D02*
X8872444Y-13815722D01*
X8872444Y-13815722D02*
X8881967Y-13834770D01*
X8881967Y-13834770D02*
X8881967Y-13882389D01*
X8881967Y-13882389D02*
X8872444Y-13901436D01*
X8872444Y-13901436D02*
X8862920Y-13910960D01*
X8862920Y-13910960D02*
X8843872Y-13920484D01*
X8843872Y-13920484D02*
X8796253Y-13920484D01*
X8796253Y-13920484D02*
X8777206Y-13910960D01*
X8777206Y-13910960D02*
X8767682Y-13901436D01*
X8996253Y-13806198D02*
X8977206Y-13796674D01*
X8977206Y-13796674D02*
X8967682Y-13787150D01*
X8967682Y-13787150D02*
X8958158Y-13768103D01*
X8958158Y-13768103D02*
X8958158Y-13758579D01*
X8958158Y-13758579D02*
X8967682Y-13739531D01*
X8967682Y-13739531D02*
X8977206Y-13730008D01*
X8977206Y-13730008D02*
X8996253Y-13720484D01*
X8996253Y-13720484D02*
X9034348Y-13720484D01*
X9034348Y-13720484D02*
X9053396Y-13730008D01*
X9053396Y-13730008D02*
X9062920Y-13739531D01*
X9062920Y-13739531D02*
X9072444Y-13758579D01*
X9072444Y-13758579D02*
X9072444Y-13768103D01*
X9072444Y-13768103D02*
X9062920Y-13787150D01*
X9062920Y-13787150D02*
X9053396Y-13796674D01*
X9053396Y-13796674D02*
X9034348Y-13806198D01*
X9034348Y-13806198D02*
X8996253Y-13806198D01*
X8996253Y-13806198D02*
X8977206Y-13815722D01*
X8977206Y-13815722D02*
X8967682Y-13825246D01*
X8967682Y-13825246D02*
X8958158Y-13844293D01*
X8958158Y-13844293D02*
X8958158Y-13882389D01*
X8958158Y-13882389D02*
X8967682Y-13901436D01*
X8967682Y-13901436D02*
X8977206Y-13910960D01*
X8977206Y-13910960D02*
X8996253Y-13920484D01*
X8996253Y-13920484D02*
X9034348Y-13920484D01*
X9034348Y-13920484D02*
X9053396Y-13910960D01*
X9053396Y-13910960D02*
X9062920Y-13901436D01*
X9062920Y-13901436D02*
X9072444Y-13882389D01*
X9072444Y-13882389D02*
X9072444Y-13844293D01*
X9072444Y-13844293D02*
X9062920Y-13825246D01*
X9062920Y-13825246D02*
X9053396Y-13815722D01*
X9053396Y-13815722D02*
X9034348Y-13806198D01*
X9148634Y-13720484D02*
X9148634Y-13758579D01*
X9224825Y-13720484D02*
X9224825Y-13758579D01*
X9520063Y-13996674D02*
X9510539Y-13987150D01*
X9510539Y-13987150D02*
X9491491Y-13958579D01*
X9491491Y-13958579D02*
X9481968Y-13939531D01*
X9481968Y-13939531D02*
X9472444Y-13910960D01*
X9472444Y-13910960D02*
X9462920Y-13863341D01*
X9462920Y-13863341D02*
X9462920Y-13825246D01*
X9462920Y-13825246D02*
X9472444Y-13777627D01*
X9472444Y-13777627D02*
X9481968Y-13749055D01*
X9481968Y-13749055D02*
X9491491Y-13730008D01*
X9491491Y-13730008D02*
X9510539Y-13701436D01*
X9510539Y-13701436D02*
X9520063Y-13691912D01*
X9586729Y-13739531D02*
X9596253Y-13730008D01*
X9596253Y-13730008D02*
X9615301Y-13720484D01*
X9615301Y-13720484D02*
X9662920Y-13720484D01*
X9662920Y-13720484D02*
X9681968Y-13730008D01*
X9681968Y-13730008D02*
X9691491Y-13739531D01*
X9691491Y-13739531D02*
X9701015Y-13758579D01*
X9701015Y-13758579D02*
X9701015Y-13777627D01*
X9701015Y-13777627D02*
X9691491Y-13806198D01*
X9691491Y-13806198D02*
X9577206Y-13920484D01*
X9577206Y-13920484D02*
X9701015Y-13920484D01*
X9939110Y-13920484D02*
X9939110Y-13720484D01*
X10024825Y-13920484D02*
X10024825Y-13815722D01*
X10024825Y-13815722D02*
X10015301Y-13796674D01*
X10015301Y-13796674D02*
X9996253Y-13787150D01*
X9996253Y-13787150D02*
X9967682Y-13787150D01*
X9967682Y-13787150D02*
X9948634Y-13796674D01*
X9948634Y-13796674D02*
X9939110Y-13806198D01*
X10148634Y-13920484D02*
X10129587Y-13910960D01*
X10129587Y-13910960D02*
X10120063Y-13901436D01*
X10120063Y-13901436D02*
X10110539Y-13882389D01*
X10110539Y-13882389D02*
X10110539Y-13825246D01*
X10110539Y-13825246D02*
X10120063Y-13806198D01*
X10120063Y-13806198D02*
X10129587Y-13796674D01*
X10129587Y-13796674D02*
X10148634Y-13787150D01*
X10148634Y-13787150D02*
X10177206Y-13787150D01*
X10177206Y-13787150D02*
X10196253Y-13796674D01*
X10196253Y-13796674D02*
X10205777Y-13806198D01*
X10205777Y-13806198D02*
X10215301Y-13825246D01*
X10215301Y-13825246D02*
X10215301Y-13882389D01*
X10215301Y-13882389D02*
X10205777Y-13901436D01*
X10205777Y-13901436D02*
X10196253Y-13910960D01*
X10196253Y-13910960D02*
X10177206Y-13920484D01*
X10177206Y-13920484D02*
X10148634Y-13920484D01*
X10329587Y-13920484D02*
X10310539Y-13910960D01*
X10310539Y-13910960D02*
X10301015Y-13891912D01*
X10301015Y-13891912D02*
X10301015Y-13720484D01*
X10481968Y-13910960D02*
X10462920Y-13920484D01*
X10462920Y-13920484D02*
X10424825Y-13920484D01*
X10424825Y-13920484D02*
X10405777Y-13910960D01*
X10405777Y-13910960D02*
X10396253Y-13891912D01*
X10396253Y-13891912D02*
X10396253Y-13815722D01*
X10396253Y-13815722D02*
X10405777Y-13796674D01*
X10405777Y-13796674D02*
X10424825Y-13787150D01*
X10424825Y-13787150D02*
X10462920Y-13787150D01*
X10462920Y-13787150D02*
X10481968Y-13796674D01*
X10481968Y-13796674D02*
X10491491Y-13815722D01*
X10491491Y-13815722D02*
X10491491Y-13834770D01*
X10491491Y-13834770D02*
X10396253Y-13853817D01*
X10567682Y-13910960D02*
X10586730Y-13920484D01*
X10586730Y-13920484D02*
X10624825Y-13920484D01*
X10624825Y-13920484D02*
X10643872Y-13910960D01*
X10643872Y-13910960D02*
X10653396Y-13891912D01*
X10653396Y-13891912D02*
X10653396Y-13882389D01*
X10653396Y-13882389D02*
X10643872Y-13863341D01*
X10643872Y-13863341D02*
X10624825Y-13853817D01*
X10624825Y-13853817D02*
X10596253Y-13853817D01*
X10596253Y-13853817D02*
X10577206Y-13844293D01*
X10577206Y-13844293D02*
X10567682Y-13825246D01*
X10567682Y-13825246D02*
X10567682Y-13815722D01*
X10567682Y-13815722D02*
X10577206Y-13796674D01*
X10577206Y-13796674D02*
X10596253Y-13787150D01*
X10596253Y-13787150D02*
X10624825Y-13787150D01*
X10624825Y-13787150D02*
X10643872Y-13796674D01*
X10720063Y-13996674D02*
X10729587Y-13987150D01*
X10729587Y-13987150D02*
X10748634Y-13958579D01*
X10748634Y-13958579D02*
X10758158Y-13939531D01*
X10758158Y-13939531D02*
X10767682Y-13910960D01*
X10767682Y-13910960D02*
X10777206Y-13863341D01*
X10777206Y-13863341D02*
X10777206Y-13825246D01*
X10777206Y-13825246D02*
X10767682Y-13777627D01*
X10767682Y-13777627D02*
X10758158Y-13749055D01*
X10758158Y-13749055D02*
X10748634Y-13730008D01*
X10748634Y-13730008D02*
X10729587Y-13701436D01*
X10729587Y-13701436D02*
X10720063Y-13691912D01*
X11081968Y-13996674D02*
X11072444Y-13987150D01*
X11072444Y-13987150D02*
X11053396Y-13958579D01*
X11053396Y-13958579D02*
X11043872Y-13939531D01*
X11043872Y-13939531D02*
X11034349Y-13910960D01*
X11034349Y-13910960D02*
X11024825Y-13863341D01*
X11024825Y-13863341D02*
X11024825Y-13825246D01*
X11024825Y-13825246D02*
X11034349Y-13777627D01*
X11034349Y-13777627D02*
X11043872Y-13749055D01*
X11043872Y-13749055D02*
X11053396Y-13730008D01*
X11053396Y-13730008D02*
X11072444Y-13701436D01*
X11072444Y-13701436D02*
X11081968Y-13691912D01*
X11158158Y-13787150D02*
X11158158Y-13920484D01*
X11158158Y-13806198D02*
X11167682Y-13796674D01*
X11167682Y-13796674D02*
X11186729Y-13787150D01*
X11186729Y-13787150D02*
X11215301Y-13787150D01*
X11215301Y-13787150D02*
X11234349Y-13796674D01*
X11234349Y-13796674D02*
X11243872Y-13815722D01*
X11243872Y-13815722D02*
X11243872Y-13920484D01*
X11367682Y-13920484D02*
X11348634Y-13910960D01*
X11348634Y-13910960D02*
X11339110Y-13901436D01*
X11339110Y-13901436D02*
X11329587Y-13882389D01*
X11329587Y-13882389D02*
X11329587Y-13825246D01*
X11329587Y-13825246D02*
X11339110Y-13806198D01*
X11339110Y-13806198D02*
X11348634Y-13796674D01*
X11348634Y-13796674D02*
X11367682Y-13787150D01*
X11367682Y-13787150D02*
X11396253Y-13787150D01*
X11396253Y-13787150D02*
X11415301Y-13796674D01*
X11415301Y-13796674D02*
X11424825Y-13806198D01*
X11424825Y-13806198D02*
X11434349Y-13825246D01*
X11434349Y-13825246D02*
X11434349Y-13882389D01*
X11434349Y-13882389D02*
X11424825Y-13901436D01*
X11424825Y-13901436D02*
X11415301Y-13910960D01*
X11415301Y-13910960D02*
X11396253Y-13920484D01*
X11396253Y-13920484D02*
X11367682Y-13920484D01*
X11491491Y-13787150D02*
X11567682Y-13787150D01*
X11520063Y-13720484D02*
X11520063Y-13891912D01*
X11520063Y-13891912D02*
X11529587Y-13910960D01*
X11529587Y-13910960D02*
X11548634Y-13920484D01*
X11548634Y-13920484D02*
X11567682Y-13920484D01*
X11786730Y-13787150D02*
X11786730Y-13987150D01*
X11786730Y-13796674D02*
X11805777Y-13787150D01*
X11805777Y-13787150D02*
X11843872Y-13787150D01*
X11843872Y-13787150D02*
X11862920Y-13796674D01*
X11862920Y-13796674D02*
X11872444Y-13806198D01*
X11872444Y-13806198D02*
X11881968Y-13825246D01*
X11881968Y-13825246D02*
X11881968Y-13882389D01*
X11881968Y-13882389D02*
X11872444Y-13901436D01*
X11872444Y-13901436D02*
X11862920Y-13910960D01*
X11862920Y-13910960D02*
X11843872Y-13920484D01*
X11843872Y-13920484D02*
X11805777Y-13920484D01*
X11805777Y-13920484D02*
X11786730Y-13910960D01*
X11996253Y-13920484D02*
X11977206Y-13910960D01*
X11977206Y-13910960D02*
X11967682Y-13891912D01*
X11967682Y-13891912D02*
X11967682Y-13720484D01*
X12158158Y-13920484D02*
X12158158Y-13815722D01*
X12158158Y-13815722D02*
X12148634Y-13796674D01*
X12148634Y-13796674D02*
X12129587Y-13787150D01*
X12129587Y-13787150D02*
X12091491Y-13787150D01*
X12091491Y-13787150D02*
X12072444Y-13796674D01*
X12158158Y-13910960D02*
X12139111Y-13920484D01*
X12139111Y-13920484D02*
X12091491Y-13920484D01*
X12091491Y-13920484D02*
X12072444Y-13910960D01*
X12072444Y-13910960D02*
X12062920Y-13891912D01*
X12062920Y-13891912D02*
X12062920Y-13872865D01*
X12062920Y-13872865D02*
X12072444Y-13853817D01*
X12072444Y-13853817D02*
X12091491Y-13844293D01*
X12091491Y-13844293D02*
X12139111Y-13844293D01*
X12139111Y-13844293D02*
X12158158Y-13834770D01*
X12224825Y-13787150D02*
X12301015Y-13787150D01*
X12253396Y-13720484D02*
X12253396Y-13891912D01*
X12253396Y-13891912D02*
X12262920Y-13910960D01*
X12262920Y-13910960D02*
X12281968Y-13920484D01*
X12281968Y-13920484D02*
X12301015Y-13920484D01*
X12443872Y-13910960D02*
X12424825Y-13920484D01*
X12424825Y-13920484D02*
X12386730Y-13920484D01*
X12386730Y-13920484D02*
X12367682Y-13910960D01*
X12367682Y-13910960D02*
X12358158Y-13891912D01*
X12358158Y-13891912D02*
X12358158Y-13815722D01*
X12358158Y-13815722D02*
X12367682Y-13796674D01*
X12367682Y-13796674D02*
X12386730Y-13787150D01*
X12386730Y-13787150D02*
X12424825Y-13787150D01*
X12424825Y-13787150D02*
X12443872Y-13796674D01*
X12443872Y-13796674D02*
X12453396Y-13815722D01*
X12453396Y-13815722D02*
X12453396Y-13834770D01*
X12453396Y-13834770D02*
X12358158Y-13853817D01*
X12624825Y-13920484D02*
X12624825Y-13720484D01*
X12624825Y-13910960D02*
X12605777Y-13920484D01*
X12605777Y-13920484D02*
X12567682Y-13920484D01*
X12567682Y-13920484D02*
X12548634Y-13910960D01*
X12548634Y-13910960D02*
X12539111Y-13901436D01*
X12539111Y-13901436D02*
X12529587Y-13882389D01*
X12529587Y-13882389D02*
X12529587Y-13825246D01*
X12529587Y-13825246D02*
X12539111Y-13806198D01*
X12539111Y-13806198D02*
X12548634Y-13796674D01*
X12548634Y-13796674D02*
X12567682Y-13787150D01*
X12567682Y-13787150D02*
X12605777Y-13787150D01*
X12605777Y-13787150D02*
X12624825Y-13796674D01*
X12701015Y-13996674D02*
X12710539Y-13987150D01*
X12710539Y-13987150D02*
X12729587Y-13958579D01*
X12729587Y-13958579D02*
X12739111Y-13939531D01*
X12739111Y-13939531D02*
X12748634Y-13910960D01*
X12748634Y-13910960D02*
X12758158Y-13863341D01*
X12758158Y-13863341D02*
X12758158Y-13825246D01*
X12758158Y-13825246D02*
X12748634Y-13777627D01*
X12748634Y-13777627D02*
X12739111Y-13749055D01*
X12739111Y-13749055D02*
X12729587Y-13730008D01*
X12729587Y-13730008D02*
X12710539Y-13701436D01*
X12710539Y-13701436D02*
X12701015Y-13691912D01*
M02*
