%TF.GenerationSoftware,KiCad,Pcbnew,8.0.4+dfsg-1*%
%TF.CreationDate,2025-03-09T22:36:11+01:00*%
%TF.ProjectId,time_terminal,74696d65-5f74-4657-926d-696e616c2e6b,rev?*%
%TF.SameCoordinates,Original*%
%TF.FileFunction,Legend,Top*%
%TF.FilePolarity,Positive*%
%FSLAX46Y46*%
G04 Gerber Fmt 4.6, Leading zero omitted, Abs format (unit mm)*
G04 Created by KiCad (PCBNEW 8.0.4+dfsg-1) date 2025-03-09 22:36:11*
%MOMM*%
%LPD*%
G01*
G04 APERTURE LIST*
%ADD10C,0.400000*%
%ADD11C,0.300000*%
%ADD12C,0.100000*%
%ADD13C,0.240000*%
%ADD14C,0.150000*%
%ADD15C,0.120000*%
%ADD16C,0.152400*%
G04 APERTURE END LIST*
D10*
X76178727Y-119559730D02*
X77321584Y-119559730D01*
X76750155Y-121559730D02*
X76750155Y-119559730D01*
X77988251Y-121559730D02*
X77988251Y-119559730D01*
X77988251Y-120512111D02*
X79131108Y-120512111D01*
X79131108Y-121559730D02*
X79131108Y-119559730D01*
X80083489Y-120512111D02*
X80750156Y-120512111D01*
X81035870Y-121559730D02*
X80083489Y-121559730D01*
X80083489Y-121559730D02*
X80083489Y-119559730D01*
X80083489Y-119559730D02*
X81035870Y-119559730D01*
X83131109Y-119559730D02*
X84273966Y-119559730D01*
X83702537Y-121559730D02*
X83702537Y-119559730D01*
X84940633Y-121559730D02*
X84940633Y-119559730D01*
X85893014Y-121559730D02*
X85893014Y-119559730D01*
X85893014Y-119559730D02*
X86559681Y-120988301D01*
X86559681Y-120988301D02*
X87226347Y-119559730D01*
X87226347Y-119559730D02*
X87226347Y-121559730D01*
X88178728Y-120512111D02*
X88845395Y-120512111D01*
X89131109Y-121559730D02*
X88178728Y-121559730D01*
X88178728Y-121559730D02*
X88178728Y-119559730D01*
X88178728Y-119559730D02*
X89131109Y-119559730D01*
X75940632Y-122779618D02*
X77083489Y-122779618D01*
X76512060Y-124779618D02*
X76512060Y-122779618D01*
X77750156Y-123731999D02*
X78416823Y-123731999D01*
X78702537Y-124779618D02*
X77750156Y-124779618D01*
X77750156Y-124779618D02*
X77750156Y-122779618D01*
X77750156Y-122779618D02*
X78702537Y-122779618D01*
X80702537Y-124779618D02*
X80035870Y-123827237D01*
X79559680Y-124779618D02*
X79559680Y-122779618D01*
X79559680Y-122779618D02*
X80321585Y-122779618D01*
X80321585Y-122779618D02*
X80512061Y-122874856D01*
X80512061Y-122874856D02*
X80607299Y-122970094D01*
X80607299Y-122970094D02*
X80702537Y-123160570D01*
X80702537Y-123160570D02*
X80702537Y-123446284D01*
X80702537Y-123446284D02*
X80607299Y-123636760D01*
X80607299Y-123636760D02*
X80512061Y-123731999D01*
X80512061Y-123731999D02*
X80321585Y-123827237D01*
X80321585Y-123827237D02*
X79559680Y-123827237D01*
X81559680Y-124779618D02*
X81559680Y-122779618D01*
X81559680Y-122779618D02*
X82226347Y-124208189D01*
X82226347Y-124208189D02*
X82893013Y-122779618D01*
X82893013Y-122779618D02*
X82893013Y-124779618D01*
X83845394Y-124779618D02*
X83845394Y-122779618D01*
X84797775Y-124779618D02*
X84797775Y-122779618D01*
X84797775Y-122779618D02*
X85940632Y-124779618D01*
X85940632Y-124779618D02*
X85940632Y-122779618D01*
X86797775Y-124208189D02*
X87750156Y-124208189D01*
X86607299Y-124779618D02*
X87273965Y-122779618D01*
X87273965Y-122779618D02*
X87940632Y-124779618D01*
X89559680Y-124779618D02*
X88607299Y-124779618D01*
X88607299Y-124779618D02*
X88607299Y-122779618D01*
D11*
X70900156Y-122145180D02*
X70900156Y-120645180D01*
X72650156Y-122395180D02*
X71150156Y-122395180D01*
X72650156Y-122395180D02*
X72650156Y-122395180D01*
D12*
X71150156Y-122395180D02*
X72650156Y-122395180D01*
D11*
X71150156Y-122395180D02*
G75*
G02*
X70650156Y-122395180I-250000J0D01*
G01*
X70650156Y-122395180D02*
G75*
G02*
X71150156Y-122395180I250000J0D01*
G01*
X68208806Y-125355661D02*
G75*
G02*
X68071037Y-119566064I2691350J2960481D01*
G01*
X68471075Y-124554362D02*
G75*
G02*
X68334761Y-120399873I2429081J2159182D01*
G01*
X73591505Y-119434697D02*
G75*
G02*
X73729273Y-125224297I-2691350J-2960482D01*
G01*
X73330358Y-120235001D02*
G75*
G02*
X73466733Y-124391408I-2430203J-2160178D01*
G01*
D10*
X73205042Y-122395180D02*
G75*
G02*
X68595270Y-122395180I-2304886J0D01*
G01*
X68595270Y-122395180D02*
G75*
G02*
X73205042Y-122395180I2304886J0D01*
G01*
D12*
X92250000Y-55500000D02*
X92250000Y-115500000D01*
X131750000Y-55500000D02*
X92250000Y-55500000D01*
X131750000Y-58750000D02*
X131750000Y-55500000D01*
X131750000Y-76250000D02*
X131750000Y-66000000D01*
X131750000Y-115500000D02*
X131750000Y-83250000D01*
X92250000Y-115500000D02*
X131750000Y-115500000D01*
D13*
X105657143Y-110590662D02*
X105257143Y-110019234D01*
X104971429Y-110590662D02*
X104971429Y-109390662D01*
X104971429Y-109390662D02*
X105428572Y-109390662D01*
X105428572Y-109390662D02*
X105542857Y-109447805D01*
X105542857Y-109447805D02*
X105600000Y-109504948D01*
X105600000Y-109504948D02*
X105657143Y-109619234D01*
X105657143Y-109619234D02*
X105657143Y-109790662D01*
X105657143Y-109790662D02*
X105600000Y-109904948D01*
X105600000Y-109904948D02*
X105542857Y-109962091D01*
X105542857Y-109962091D02*
X105428572Y-110019234D01*
X105428572Y-110019234D02*
X104971429Y-110019234D01*
X106571429Y-109962091D02*
X106171429Y-109962091D01*
X106171429Y-110590662D02*
X106171429Y-109390662D01*
X106171429Y-109390662D02*
X106742857Y-109390662D01*
X107200000Y-110590662D02*
X107200000Y-109390662D01*
X107771429Y-110590662D02*
X107771429Y-109390662D01*
X107771429Y-109390662D02*
X108057143Y-109390662D01*
X108057143Y-109390662D02*
X108228572Y-109447805D01*
X108228572Y-109447805D02*
X108342857Y-109562091D01*
X108342857Y-109562091D02*
X108400000Y-109676377D01*
X108400000Y-109676377D02*
X108457143Y-109904948D01*
X108457143Y-109904948D02*
X108457143Y-110076377D01*
X108457143Y-110076377D02*
X108400000Y-110304948D01*
X108400000Y-110304948D02*
X108342857Y-110419234D01*
X108342857Y-110419234D02*
X108228572Y-110533520D01*
X108228572Y-110533520D02*
X108057143Y-110590662D01*
X108057143Y-110590662D02*
X107771429Y-110590662D01*
X109885715Y-110590662D02*
X109885715Y-109390662D01*
X109885715Y-109390662D02*
X110285715Y-110247805D01*
X110285715Y-110247805D02*
X110685715Y-109390662D01*
X110685715Y-109390662D02*
X110685715Y-110590662D01*
X111657144Y-109962091D02*
X111257144Y-109962091D01*
X111257144Y-110590662D02*
X111257144Y-109390662D01*
X111257144Y-109390662D02*
X111828572Y-109390662D01*
X112971429Y-110590662D02*
X112571429Y-110019234D01*
X112285715Y-110590662D02*
X112285715Y-109390662D01*
X112285715Y-109390662D02*
X112742858Y-109390662D01*
X112742858Y-109390662D02*
X112857143Y-109447805D01*
X112857143Y-109447805D02*
X112914286Y-109504948D01*
X112914286Y-109504948D02*
X112971429Y-109619234D01*
X112971429Y-109619234D02*
X112971429Y-109790662D01*
X112971429Y-109790662D02*
X112914286Y-109904948D01*
X112914286Y-109904948D02*
X112857143Y-109962091D01*
X112857143Y-109962091D02*
X112742858Y-110019234D01*
X112742858Y-110019234D02*
X112285715Y-110019234D01*
X114171429Y-110476377D02*
X114114286Y-110533520D01*
X114114286Y-110533520D02*
X113942858Y-110590662D01*
X113942858Y-110590662D02*
X113828572Y-110590662D01*
X113828572Y-110590662D02*
X113657143Y-110533520D01*
X113657143Y-110533520D02*
X113542858Y-110419234D01*
X113542858Y-110419234D02*
X113485715Y-110304948D01*
X113485715Y-110304948D02*
X113428572Y-110076377D01*
X113428572Y-110076377D02*
X113428572Y-109904948D01*
X113428572Y-109904948D02*
X113485715Y-109676377D01*
X113485715Y-109676377D02*
X113542858Y-109562091D01*
X113542858Y-109562091D02*
X113657143Y-109447805D01*
X113657143Y-109447805D02*
X113828572Y-109390662D01*
X113828572Y-109390662D02*
X113942858Y-109390662D01*
X113942858Y-109390662D02*
X114114286Y-109447805D01*
X114114286Y-109447805D02*
X114171429Y-109504948D01*
X114685715Y-110133520D02*
X115600001Y-110133520D01*
X116742857Y-109390662D02*
X116171429Y-109390662D01*
X116171429Y-109390662D02*
X116114286Y-109962091D01*
X116114286Y-109962091D02*
X116171429Y-109904948D01*
X116171429Y-109904948D02*
X116285715Y-109847805D01*
X116285715Y-109847805D02*
X116571429Y-109847805D01*
X116571429Y-109847805D02*
X116685715Y-109904948D01*
X116685715Y-109904948D02*
X116742857Y-109962091D01*
X116742857Y-109962091D02*
X116800000Y-110076377D01*
X116800000Y-110076377D02*
X116800000Y-110362091D01*
X116800000Y-110362091D02*
X116742857Y-110476377D01*
X116742857Y-110476377D02*
X116685715Y-110533520D01*
X116685715Y-110533520D02*
X116571429Y-110590662D01*
X116571429Y-110590662D02*
X116285715Y-110590662D01*
X116285715Y-110590662D02*
X116171429Y-110533520D01*
X116171429Y-110533520D02*
X116114286Y-110476377D01*
X117257143Y-109504948D02*
X117314286Y-109447805D01*
X117314286Y-109447805D02*
X117428572Y-109390662D01*
X117428572Y-109390662D02*
X117714286Y-109390662D01*
X117714286Y-109390662D02*
X117828572Y-109447805D01*
X117828572Y-109447805D02*
X117885714Y-109504948D01*
X117885714Y-109504948D02*
X117942857Y-109619234D01*
X117942857Y-109619234D02*
X117942857Y-109733520D01*
X117942857Y-109733520D02*
X117885714Y-109904948D01*
X117885714Y-109904948D02*
X117200000Y-110590662D01*
X117200000Y-110590662D02*
X117942857Y-110590662D01*
X118400000Y-109504948D02*
X118457143Y-109447805D01*
X118457143Y-109447805D02*
X118571429Y-109390662D01*
X118571429Y-109390662D02*
X118857143Y-109390662D01*
X118857143Y-109390662D02*
X118971429Y-109447805D01*
X118971429Y-109447805D02*
X119028571Y-109504948D01*
X119028571Y-109504948D02*
X119085714Y-109619234D01*
X119085714Y-109619234D02*
X119085714Y-109733520D01*
X119085714Y-109733520D02*
X119028571Y-109904948D01*
X119028571Y-109904948D02*
X118342857Y-110590662D01*
X118342857Y-110590662D02*
X119085714Y-110590662D01*
X143443608Y-56840662D02*
X143443608Y-55640662D01*
X143443608Y-55640662D02*
X143900751Y-55640662D01*
X143900751Y-55640662D02*
X144015036Y-55697805D01*
X144015036Y-55697805D02*
X144072179Y-55754948D01*
X144072179Y-55754948D02*
X144129322Y-55869234D01*
X144129322Y-55869234D02*
X144129322Y-56040662D01*
X144129322Y-56040662D02*
X144072179Y-56154948D01*
X144072179Y-56154948D02*
X144015036Y-56212091D01*
X144015036Y-56212091D02*
X143900751Y-56269234D01*
X143900751Y-56269234D02*
X143443608Y-56269234D01*
X144529322Y-55640662D02*
X144815036Y-56840662D01*
X144815036Y-56840662D02*
X145043608Y-55983520D01*
X145043608Y-55983520D02*
X145272179Y-56840662D01*
X145272179Y-56840662D02*
X145557894Y-55640662D01*
X146700751Y-56840662D02*
X146300751Y-56269234D01*
X146015037Y-56840662D02*
X146015037Y-55640662D01*
X146015037Y-55640662D02*
X146472180Y-55640662D01*
X146472180Y-55640662D02*
X146586465Y-55697805D01*
X146586465Y-55697805D02*
X146643608Y-55754948D01*
X146643608Y-55754948D02*
X146700751Y-55869234D01*
X146700751Y-55869234D02*
X146700751Y-56040662D01*
X146700751Y-56040662D02*
X146643608Y-56154948D01*
X146643608Y-56154948D02*
X146586465Y-56212091D01*
X146586465Y-56212091D02*
X146472180Y-56269234D01*
X146472180Y-56269234D02*
X146015037Y-56269234D01*
X148072180Y-56783520D02*
X148243609Y-56840662D01*
X148243609Y-56840662D02*
X148529323Y-56840662D01*
X148529323Y-56840662D02*
X148643609Y-56783520D01*
X148643609Y-56783520D02*
X148700751Y-56726377D01*
X148700751Y-56726377D02*
X148757894Y-56612091D01*
X148757894Y-56612091D02*
X148757894Y-56497805D01*
X148757894Y-56497805D02*
X148700751Y-56383520D01*
X148700751Y-56383520D02*
X148643609Y-56326377D01*
X148643609Y-56326377D02*
X148529323Y-56269234D01*
X148529323Y-56269234D02*
X148300751Y-56212091D01*
X148300751Y-56212091D02*
X148186466Y-56154948D01*
X148186466Y-56154948D02*
X148129323Y-56097805D01*
X148129323Y-56097805D02*
X148072180Y-55983520D01*
X148072180Y-55983520D02*
X148072180Y-55869234D01*
X148072180Y-55869234D02*
X148129323Y-55754948D01*
X148129323Y-55754948D02*
X148186466Y-55697805D01*
X148186466Y-55697805D02*
X148300751Y-55640662D01*
X148300751Y-55640662D02*
X148586466Y-55640662D01*
X148586466Y-55640662D02*
X148757894Y-55697805D01*
X149157894Y-55640662D02*
X149443608Y-56840662D01*
X149443608Y-56840662D02*
X149672180Y-55983520D01*
X149672180Y-55983520D02*
X149900751Y-56840662D01*
X149900751Y-56840662D02*
X150186466Y-55640662D01*
X113329322Y-123140662D02*
X114072179Y-123140662D01*
X114072179Y-123140662D02*
X113672179Y-123597805D01*
X113672179Y-123597805D02*
X113843608Y-123597805D01*
X113843608Y-123597805D02*
X113957894Y-123654948D01*
X113957894Y-123654948D02*
X114015036Y-123712091D01*
X114015036Y-123712091D02*
X114072179Y-123826377D01*
X114072179Y-123826377D02*
X114072179Y-124112091D01*
X114072179Y-124112091D02*
X114015036Y-124226377D01*
X114015036Y-124226377D02*
X113957894Y-124283520D01*
X113957894Y-124283520D02*
X113843608Y-124340662D01*
X113843608Y-124340662D02*
X113500751Y-124340662D01*
X113500751Y-124340662D02*
X113386465Y-124283520D01*
X113386465Y-124283520D02*
X113329322Y-124226377D01*
X114415036Y-123140662D02*
X114815036Y-124340662D01*
X114815036Y-124340662D02*
X115215036Y-123140662D01*
X115500750Y-123140662D02*
X116243607Y-123140662D01*
X116243607Y-123140662D02*
X115843607Y-123597805D01*
X115843607Y-123597805D02*
X116015036Y-123597805D01*
X116015036Y-123597805D02*
X116129322Y-123654948D01*
X116129322Y-123654948D02*
X116186464Y-123712091D01*
X116186464Y-123712091D02*
X116243607Y-123826377D01*
X116243607Y-123826377D02*
X116243607Y-124112091D01*
X116243607Y-124112091D02*
X116186464Y-124226377D01*
X116186464Y-124226377D02*
X116129322Y-124283520D01*
X116129322Y-124283520D02*
X116015036Y-124340662D01*
X116015036Y-124340662D02*
X115672179Y-124340662D01*
X115672179Y-124340662D02*
X115557893Y-124283520D01*
X115557893Y-124283520D02*
X115500750Y-124226377D01*
X117672179Y-124340662D02*
X117672179Y-123140662D01*
X117672179Y-123140662D02*
X118129322Y-123140662D01*
X118129322Y-123140662D02*
X118243607Y-123197805D01*
X118243607Y-123197805D02*
X118300750Y-123254948D01*
X118300750Y-123254948D02*
X118357893Y-123369234D01*
X118357893Y-123369234D02*
X118357893Y-123540662D01*
X118357893Y-123540662D02*
X118300750Y-123654948D01*
X118300750Y-123654948D02*
X118243607Y-123712091D01*
X118243607Y-123712091D02*
X118129322Y-123769234D01*
X118129322Y-123769234D02*
X117672179Y-123769234D01*
X119100750Y-123140662D02*
X119329322Y-123140662D01*
X119329322Y-123140662D02*
X119443607Y-123197805D01*
X119443607Y-123197805D02*
X119557893Y-123312091D01*
X119557893Y-123312091D02*
X119615036Y-123540662D01*
X119615036Y-123540662D02*
X119615036Y-123940662D01*
X119615036Y-123940662D02*
X119557893Y-124169234D01*
X119557893Y-124169234D02*
X119443607Y-124283520D01*
X119443607Y-124283520D02*
X119329322Y-124340662D01*
X119329322Y-124340662D02*
X119100750Y-124340662D01*
X119100750Y-124340662D02*
X118986465Y-124283520D01*
X118986465Y-124283520D02*
X118872179Y-124169234D01*
X118872179Y-124169234D02*
X118815036Y-123940662D01*
X118815036Y-123940662D02*
X118815036Y-123540662D01*
X118815036Y-123540662D02*
X118872179Y-123312091D01*
X118872179Y-123312091D02*
X118986465Y-123197805D01*
X118986465Y-123197805D02*
X119100750Y-123140662D01*
X120015036Y-123140662D02*
X120300750Y-124340662D01*
X120300750Y-124340662D02*
X120529322Y-123483520D01*
X120529322Y-123483520D02*
X120757893Y-124340662D01*
X120757893Y-124340662D02*
X121043608Y-123140662D01*
X121500751Y-123712091D02*
X121900751Y-123712091D01*
X122072179Y-124340662D02*
X121500751Y-124340662D01*
X121500751Y-124340662D02*
X121500751Y-123140662D01*
X121500751Y-123140662D02*
X122072179Y-123140662D01*
X123272179Y-124340662D02*
X122872179Y-123769234D01*
X122586465Y-124340662D02*
X122586465Y-123140662D01*
X122586465Y-123140662D02*
X123043608Y-123140662D01*
X123043608Y-123140662D02*
X123157893Y-123197805D01*
X123157893Y-123197805D02*
X123215036Y-123254948D01*
X123215036Y-123254948D02*
X123272179Y-123369234D01*
X123272179Y-123369234D02*
X123272179Y-123540662D01*
X123272179Y-123540662D02*
X123215036Y-123654948D01*
X123215036Y-123654948D02*
X123157893Y-123712091D01*
X123157893Y-123712091D02*
X123043608Y-123769234D01*
X123043608Y-123769234D02*
X122586465Y-123769234D01*
X102443608Y-123140662D02*
X102443608Y-124112091D01*
X102443608Y-124112091D02*
X102500751Y-124226377D01*
X102500751Y-124226377D02*
X102557894Y-124283520D01*
X102557894Y-124283520D02*
X102672179Y-124340662D01*
X102672179Y-124340662D02*
X102900751Y-124340662D01*
X102900751Y-124340662D02*
X103015036Y-124283520D01*
X103015036Y-124283520D02*
X103072179Y-124226377D01*
X103072179Y-124226377D02*
X103129322Y-124112091D01*
X103129322Y-124112091D02*
X103129322Y-123140662D01*
X103643608Y-124283520D02*
X103815037Y-124340662D01*
X103815037Y-124340662D02*
X104100751Y-124340662D01*
X104100751Y-124340662D02*
X104215037Y-124283520D01*
X104215037Y-124283520D02*
X104272179Y-124226377D01*
X104272179Y-124226377D02*
X104329322Y-124112091D01*
X104329322Y-124112091D02*
X104329322Y-123997805D01*
X104329322Y-123997805D02*
X104272179Y-123883520D01*
X104272179Y-123883520D02*
X104215037Y-123826377D01*
X104215037Y-123826377D02*
X104100751Y-123769234D01*
X104100751Y-123769234D02*
X103872179Y-123712091D01*
X103872179Y-123712091D02*
X103757894Y-123654948D01*
X103757894Y-123654948D02*
X103700751Y-123597805D01*
X103700751Y-123597805D02*
X103643608Y-123483520D01*
X103643608Y-123483520D02*
X103643608Y-123369234D01*
X103643608Y-123369234D02*
X103700751Y-123254948D01*
X103700751Y-123254948D02*
X103757894Y-123197805D01*
X103757894Y-123197805D02*
X103872179Y-123140662D01*
X103872179Y-123140662D02*
X104157894Y-123140662D01*
X104157894Y-123140662D02*
X104329322Y-123197805D01*
X105529322Y-124340662D02*
X105129322Y-123769234D01*
X104843608Y-124340662D02*
X104843608Y-123140662D01*
X104843608Y-123140662D02*
X105300751Y-123140662D01*
X105300751Y-123140662D02*
X105415036Y-123197805D01*
X105415036Y-123197805D02*
X105472179Y-123254948D01*
X105472179Y-123254948D02*
X105529322Y-123369234D01*
X105529322Y-123369234D02*
X105529322Y-123540662D01*
X105529322Y-123540662D02*
X105472179Y-123654948D01*
X105472179Y-123654948D02*
X105415036Y-123712091D01*
X105415036Y-123712091D02*
X105300751Y-123769234D01*
X105300751Y-123769234D02*
X104843608Y-123769234D01*
X107529322Y-124340662D02*
X106957894Y-124340662D01*
X106957894Y-124340662D02*
X106957894Y-123140662D01*
X107929323Y-123712091D02*
X108329323Y-123712091D01*
X108500751Y-124340662D02*
X107929323Y-124340662D01*
X107929323Y-124340662D02*
X107929323Y-123140662D01*
X107929323Y-123140662D02*
X108500751Y-123140662D01*
X109015037Y-124340662D02*
X109015037Y-123140662D01*
X109015037Y-123140662D02*
X109300751Y-123140662D01*
X109300751Y-123140662D02*
X109472180Y-123197805D01*
X109472180Y-123197805D02*
X109586465Y-123312091D01*
X109586465Y-123312091D02*
X109643608Y-123426377D01*
X109643608Y-123426377D02*
X109700751Y-123654948D01*
X109700751Y-123654948D02*
X109700751Y-123826377D01*
X109700751Y-123826377D02*
X109643608Y-124054948D01*
X109643608Y-124054948D02*
X109586465Y-124169234D01*
X109586465Y-124169234D02*
X109472180Y-124283520D01*
X109472180Y-124283520D02*
X109300751Y-124340662D01*
X109300751Y-124340662D02*
X109015037Y-124340662D01*
X157976377Y-69370677D02*
X158033520Y-69427820D01*
X158033520Y-69427820D02*
X158090662Y-69599248D01*
X158090662Y-69599248D02*
X158090662Y-69713534D01*
X158090662Y-69713534D02*
X158033520Y-69884963D01*
X158033520Y-69884963D02*
X157919234Y-69999248D01*
X157919234Y-69999248D02*
X157804948Y-70056391D01*
X157804948Y-70056391D02*
X157576377Y-70113534D01*
X157576377Y-70113534D02*
X157404948Y-70113534D01*
X157404948Y-70113534D02*
X157176377Y-70056391D01*
X157176377Y-70056391D02*
X157062091Y-69999248D01*
X157062091Y-69999248D02*
X156947805Y-69884963D01*
X156947805Y-69884963D02*
X156890662Y-69713534D01*
X156890662Y-69713534D02*
X156890662Y-69599248D01*
X156890662Y-69599248D02*
X156947805Y-69427820D01*
X156947805Y-69427820D02*
X157004948Y-69370677D01*
X158090662Y-68856391D02*
X156890662Y-68856391D01*
X157462091Y-68856391D02*
X157462091Y-68170677D01*
X158090662Y-68170677D02*
X156890662Y-68170677D01*
X157747805Y-67656391D02*
X157747805Y-67084963D01*
X158090662Y-67770677D02*
X156890662Y-67370677D01*
X156890662Y-67370677D02*
X158090662Y-66970677D01*
X158090662Y-65884963D02*
X157519234Y-66284963D01*
X158090662Y-66570677D02*
X156890662Y-66570677D01*
X156890662Y-66570677D02*
X156890662Y-66113534D01*
X156890662Y-66113534D02*
X156947805Y-65999249D01*
X156947805Y-65999249D02*
X157004948Y-65942106D01*
X157004948Y-65942106D02*
X157119234Y-65884963D01*
X157119234Y-65884963D02*
X157290662Y-65884963D01*
X157290662Y-65884963D02*
X157404948Y-65942106D01*
X157404948Y-65942106D02*
X157462091Y-65999249D01*
X157462091Y-65999249D02*
X157519234Y-66113534D01*
X157519234Y-66113534D02*
X157519234Y-66570677D01*
X156947805Y-64742106D02*
X156890662Y-64856392D01*
X156890662Y-64856392D02*
X156890662Y-65027820D01*
X156890662Y-65027820D02*
X156947805Y-65199249D01*
X156947805Y-65199249D02*
X157062091Y-65313534D01*
X157062091Y-65313534D02*
X157176377Y-65370677D01*
X157176377Y-65370677D02*
X157404948Y-65427820D01*
X157404948Y-65427820D02*
X157576377Y-65427820D01*
X157576377Y-65427820D02*
X157804948Y-65370677D01*
X157804948Y-65370677D02*
X157919234Y-65313534D01*
X157919234Y-65313534D02*
X158033520Y-65199249D01*
X158033520Y-65199249D02*
X158090662Y-65027820D01*
X158090662Y-65027820D02*
X158090662Y-64913534D01*
X158090662Y-64913534D02*
X158033520Y-64742106D01*
X158033520Y-64742106D02*
X157976377Y-64684963D01*
X157976377Y-64684963D02*
X157576377Y-64684963D01*
X157576377Y-64684963D02*
X157576377Y-64913534D01*
X158090662Y-64170677D02*
X156890662Y-64170677D01*
X158090662Y-63599248D02*
X156890662Y-63599248D01*
X156890662Y-63599248D02*
X158090662Y-62913534D01*
X158090662Y-62913534D02*
X156890662Y-62913534D01*
X156947805Y-61713534D02*
X156890662Y-61827820D01*
X156890662Y-61827820D02*
X156890662Y-61999248D01*
X156890662Y-61999248D02*
X156947805Y-62170677D01*
X156947805Y-62170677D02*
X157062091Y-62284962D01*
X157062091Y-62284962D02*
X157176377Y-62342105D01*
X157176377Y-62342105D02*
X157404948Y-62399248D01*
X157404948Y-62399248D02*
X157576377Y-62399248D01*
X157576377Y-62399248D02*
X157804948Y-62342105D01*
X157804948Y-62342105D02*
X157919234Y-62284962D01*
X157919234Y-62284962D02*
X158033520Y-62170677D01*
X158033520Y-62170677D02*
X158090662Y-61999248D01*
X158090662Y-61999248D02*
X158090662Y-61884962D01*
X158090662Y-61884962D02*
X158033520Y-61713534D01*
X158033520Y-61713534D02*
X157976377Y-61656391D01*
X157976377Y-61656391D02*
X157576377Y-61656391D01*
X157576377Y-61656391D02*
X157576377Y-61884962D01*
X157462091Y-116906391D02*
X157519234Y-116734963D01*
X157519234Y-116734963D02*
X157576377Y-116677820D01*
X157576377Y-116677820D02*
X157690662Y-116620677D01*
X157690662Y-116620677D02*
X157862091Y-116620677D01*
X157862091Y-116620677D02*
X157976377Y-116677820D01*
X157976377Y-116677820D02*
X158033520Y-116734963D01*
X158033520Y-116734963D02*
X158090662Y-116849248D01*
X158090662Y-116849248D02*
X158090662Y-117306391D01*
X158090662Y-117306391D02*
X156890662Y-117306391D01*
X156890662Y-117306391D02*
X156890662Y-116906391D01*
X156890662Y-116906391D02*
X156947805Y-116792106D01*
X156947805Y-116792106D02*
X157004948Y-116734963D01*
X157004948Y-116734963D02*
X157119234Y-116677820D01*
X157119234Y-116677820D02*
X157233520Y-116677820D01*
X157233520Y-116677820D02*
X157347805Y-116734963D01*
X157347805Y-116734963D02*
X157404948Y-116792106D01*
X157404948Y-116792106D02*
X157462091Y-116906391D01*
X157462091Y-116906391D02*
X157462091Y-117306391D01*
X156890662Y-116277820D02*
X156890662Y-115592106D01*
X158090662Y-115934963D02*
X156890662Y-115934963D01*
X158090662Y-115192105D02*
X156890662Y-115192105D01*
X156890662Y-115192105D02*
X158090662Y-114506391D01*
X158090662Y-114506391D02*
X156890662Y-114506391D01*
X157004948Y-113077819D02*
X156947805Y-113020676D01*
X156947805Y-113020676D02*
X156890662Y-112906391D01*
X156890662Y-112906391D02*
X156890662Y-112620676D01*
X156890662Y-112620676D02*
X156947805Y-112506391D01*
X156947805Y-112506391D02*
X157004948Y-112449248D01*
X157004948Y-112449248D02*
X157119234Y-112392105D01*
X157119234Y-112392105D02*
X157233520Y-112392105D01*
X157233520Y-112392105D02*
X157404948Y-112449248D01*
X157404948Y-112449248D02*
X158090662Y-113134962D01*
X158090662Y-113134962D02*
X158090662Y-112392105D01*
X157462091Y-107406391D02*
X157519234Y-107234963D01*
X157519234Y-107234963D02*
X157576377Y-107177820D01*
X157576377Y-107177820D02*
X157690662Y-107120677D01*
X157690662Y-107120677D02*
X157862091Y-107120677D01*
X157862091Y-107120677D02*
X157976377Y-107177820D01*
X157976377Y-107177820D02*
X158033520Y-107234963D01*
X158033520Y-107234963D02*
X158090662Y-107349248D01*
X158090662Y-107349248D02*
X158090662Y-107806391D01*
X158090662Y-107806391D02*
X156890662Y-107806391D01*
X156890662Y-107806391D02*
X156890662Y-107406391D01*
X156890662Y-107406391D02*
X156947805Y-107292106D01*
X156947805Y-107292106D02*
X157004948Y-107234963D01*
X157004948Y-107234963D02*
X157119234Y-107177820D01*
X157119234Y-107177820D02*
X157233520Y-107177820D01*
X157233520Y-107177820D02*
X157347805Y-107234963D01*
X157347805Y-107234963D02*
X157404948Y-107292106D01*
X157404948Y-107292106D02*
X157462091Y-107406391D01*
X157462091Y-107406391D02*
X157462091Y-107806391D01*
X156890662Y-106777820D02*
X156890662Y-106092106D01*
X158090662Y-106434963D02*
X156890662Y-106434963D01*
X158090662Y-105692105D02*
X156890662Y-105692105D01*
X156890662Y-105692105D02*
X158090662Y-105006391D01*
X158090662Y-105006391D02*
X156890662Y-105006391D01*
X158090662Y-102892105D02*
X158090662Y-103577819D01*
X158090662Y-103234962D02*
X156890662Y-103234962D01*
X156890662Y-103234962D02*
X157062091Y-103349248D01*
X157062091Y-103349248D02*
X157176377Y-103463533D01*
X157176377Y-103463533D02*
X157233520Y-103577819D01*
X85343608Y-61962091D02*
X85515036Y-62019234D01*
X85515036Y-62019234D02*
X85572179Y-62076377D01*
X85572179Y-62076377D02*
X85629322Y-62190662D01*
X85629322Y-62190662D02*
X85629322Y-62362091D01*
X85629322Y-62362091D02*
X85572179Y-62476377D01*
X85572179Y-62476377D02*
X85515036Y-62533520D01*
X85515036Y-62533520D02*
X85400751Y-62590662D01*
X85400751Y-62590662D02*
X84943608Y-62590662D01*
X84943608Y-62590662D02*
X84943608Y-61390662D01*
X84943608Y-61390662D02*
X85343608Y-61390662D01*
X85343608Y-61390662D02*
X85457894Y-61447805D01*
X85457894Y-61447805D02*
X85515036Y-61504948D01*
X85515036Y-61504948D02*
X85572179Y-61619234D01*
X85572179Y-61619234D02*
X85572179Y-61733520D01*
X85572179Y-61733520D02*
X85515036Y-61847805D01*
X85515036Y-61847805D02*
X85457894Y-61904948D01*
X85457894Y-61904948D02*
X85343608Y-61962091D01*
X85343608Y-61962091D02*
X84943608Y-61962091D01*
X86372179Y-61390662D02*
X86600751Y-61390662D01*
X86600751Y-61390662D02*
X86715036Y-61447805D01*
X86715036Y-61447805D02*
X86829322Y-61562091D01*
X86829322Y-61562091D02*
X86886465Y-61790662D01*
X86886465Y-61790662D02*
X86886465Y-62190662D01*
X86886465Y-62190662D02*
X86829322Y-62419234D01*
X86829322Y-62419234D02*
X86715036Y-62533520D01*
X86715036Y-62533520D02*
X86600751Y-62590662D01*
X86600751Y-62590662D02*
X86372179Y-62590662D01*
X86372179Y-62590662D02*
X86257894Y-62533520D01*
X86257894Y-62533520D02*
X86143608Y-62419234D01*
X86143608Y-62419234D02*
X86086465Y-62190662D01*
X86086465Y-62190662D02*
X86086465Y-61790662D01*
X86086465Y-61790662D02*
X86143608Y-61562091D01*
X86143608Y-61562091D02*
X86257894Y-61447805D01*
X86257894Y-61447805D02*
X86372179Y-61390662D01*
X87629322Y-61390662D02*
X87857894Y-61390662D01*
X87857894Y-61390662D02*
X87972179Y-61447805D01*
X87972179Y-61447805D02*
X88086465Y-61562091D01*
X88086465Y-61562091D02*
X88143608Y-61790662D01*
X88143608Y-61790662D02*
X88143608Y-62190662D01*
X88143608Y-62190662D02*
X88086465Y-62419234D01*
X88086465Y-62419234D02*
X87972179Y-62533520D01*
X87972179Y-62533520D02*
X87857894Y-62590662D01*
X87857894Y-62590662D02*
X87629322Y-62590662D01*
X87629322Y-62590662D02*
X87515037Y-62533520D01*
X87515037Y-62533520D02*
X87400751Y-62419234D01*
X87400751Y-62419234D02*
X87343608Y-62190662D01*
X87343608Y-62190662D02*
X87343608Y-61790662D01*
X87343608Y-61790662D02*
X87400751Y-61562091D01*
X87400751Y-61562091D02*
X87515037Y-61447805D01*
X87515037Y-61447805D02*
X87629322Y-61390662D01*
X88486465Y-61390662D02*
X89172180Y-61390662D01*
X88829322Y-62590662D02*
X88829322Y-61390662D01*
X70629322Y-62590662D02*
X70229322Y-62019234D01*
X69943608Y-62590662D02*
X69943608Y-61390662D01*
X69943608Y-61390662D02*
X70400751Y-61390662D01*
X70400751Y-61390662D02*
X70515036Y-61447805D01*
X70515036Y-61447805D02*
X70572179Y-61504948D01*
X70572179Y-61504948D02*
X70629322Y-61619234D01*
X70629322Y-61619234D02*
X70629322Y-61790662D01*
X70629322Y-61790662D02*
X70572179Y-61904948D01*
X70572179Y-61904948D02*
X70515036Y-61962091D01*
X70515036Y-61962091D02*
X70400751Y-62019234D01*
X70400751Y-62019234D02*
X69943608Y-62019234D01*
X71143608Y-61962091D02*
X71543608Y-61962091D01*
X71715036Y-62590662D02*
X71143608Y-62590662D01*
X71143608Y-62590662D02*
X71143608Y-61390662D01*
X71143608Y-61390662D02*
X71715036Y-61390662D01*
X72172179Y-62533520D02*
X72343608Y-62590662D01*
X72343608Y-62590662D02*
X72629322Y-62590662D01*
X72629322Y-62590662D02*
X72743608Y-62533520D01*
X72743608Y-62533520D02*
X72800750Y-62476377D01*
X72800750Y-62476377D02*
X72857893Y-62362091D01*
X72857893Y-62362091D02*
X72857893Y-62247805D01*
X72857893Y-62247805D02*
X72800750Y-62133520D01*
X72800750Y-62133520D02*
X72743608Y-62076377D01*
X72743608Y-62076377D02*
X72629322Y-62019234D01*
X72629322Y-62019234D02*
X72400750Y-61962091D01*
X72400750Y-61962091D02*
X72286465Y-61904948D01*
X72286465Y-61904948D02*
X72229322Y-61847805D01*
X72229322Y-61847805D02*
X72172179Y-61733520D01*
X72172179Y-61733520D02*
X72172179Y-61619234D01*
X72172179Y-61619234D02*
X72229322Y-61504948D01*
X72229322Y-61504948D02*
X72286465Y-61447805D01*
X72286465Y-61447805D02*
X72400750Y-61390662D01*
X72400750Y-61390662D02*
X72686465Y-61390662D01*
X72686465Y-61390662D02*
X72857893Y-61447805D01*
X73372179Y-61962091D02*
X73772179Y-61962091D01*
X73943607Y-62590662D02*
X73372179Y-62590662D01*
X73372179Y-62590662D02*
X73372179Y-61390662D01*
X73372179Y-61390662D02*
X73943607Y-61390662D01*
X74286464Y-61390662D02*
X74972179Y-61390662D01*
X74629321Y-62590662D02*
X74629321Y-61390662D01*
D14*
X99916666Y-112454819D02*
X99916666Y-113169104D01*
X99916666Y-113169104D02*
X99869047Y-113311961D01*
X99869047Y-113311961D02*
X99773809Y-113407200D01*
X99773809Y-113407200D02*
X99630952Y-113454819D01*
X99630952Y-113454819D02*
X99535714Y-113454819D01*
X100916666Y-113454819D02*
X100345238Y-113454819D01*
X100630952Y-113454819D02*
X100630952Y-112454819D01*
X100630952Y-112454819D02*
X100535714Y-112597676D01*
X100535714Y-112597676D02*
X100440476Y-112692914D01*
X100440476Y-112692914D02*
X100345238Y-112740533D01*
X141971259Y-54999999D02*
X142209354Y-54999999D01*
X142114116Y-55238094D02*
X142209354Y-54999999D01*
X142209354Y-54999999D02*
X142114116Y-54761904D01*
X142399830Y-55142856D02*
X142209354Y-54999999D01*
X142209354Y-54999999D02*
X142399830Y-54857142D01*
X143061620Y-55000000D02*
X142823525Y-55000000D01*
X142918763Y-54761905D02*
X142823525Y-55000000D01*
X142823525Y-55000000D02*
X142918763Y-55238095D01*
X142633049Y-54857143D02*
X142823525Y-55000000D01*
X142823525Y-55000000D02*
X142633049Y-55142857D01*
X87954819Y-86761904D02*
X88764342Y-86761904D01*
X88764342Y-86761904D02*
X88859580Y-86714285D01*
X88859580Y-86714285D02*
X88907200Y-86666666D01*
X88907200Y-86666666D02*
X88954819Y-86571428D01*
X88954819Y-86571428D02*
X88954819Y-86380952D01*
X88954819Y-86380952D02*
X88907200Y-86285714D01*
X88907200Y-86285714D02*
X88859580Y-86238095D01*
X88859580Y-86238095D02*
X88764342Y-86190476D01*
X88764342Y-86190476D02*
X87954819Y-86190476D01*
X88050057Y-85761904D02*
X88002438Y-85714285D01*
X88002438Y-85714285D02*
X87954819Y-85619047D01*
X87954819Y-85619047D02*
X87954819Y-85380952D01*
X87954819Y-85380952D02*
X88002438Y-85285714D01*
X88002438Y-85285714D02*
X88050057Y-85238095D01*
X88050057Y-85238095D02*
X88145295Y-85190476D01*
X88145295Y-85190476D02*
X88240533Y-85190476D01*
X88240533Y-85190476D02*
X88383390Y-85238095D01*
X88383390Y-85238095D02*
X88954819Y-85809523D01*
X88954819Y-85809523D02*
X88954819Y-85190476D01*
X137204819Y-75261904D02*
X138014342Y-75261904D01*
X138014342Y-75261904D02*
X138109580Y-75214285D01*
X138109580Y-75214285D02*
X138157200Y-75166666D01*
X138157200Y-75166666D02*
X138204819Y-75071428D01*
X138204819Y-75071428D02*
X138204819Y-74880952D01*
X138204819Y-74880952D02*
X138157200Y-74785714D01*
X138157200Y-74785714D02*
X138109580Y-74738095D01*
X138109580Y-74738095D02*
X138014342Y-74690476D01*
X138014342Y-74690476D02*
X137204819Y-74690476D01*
X137204819Y-74309523D02*
X137204819Y-73642857D01*
X137204819Y-73642857D02*
X138204819Y-74071428D01*
X145954819Y-68261904D02*
X146764342Y-68261904D01*
X146764342Y-68261904D02*
X146859580Y-68214285D01*
X146859580Y-68214285D02*
X146907200Y-68166666D01*
X146907200Y-68166666D02*
X146954819Y-68071428D01*
X146954819Y-68071428D02*
X146954819Y-67880952D01*
X146954819Y-67880952D02*
X146907200Y-67785714D01*
X146907200Y-67785714D02*
X146859580Y-67738095D01*
X146859580Y-67738095D02*
X146764342Y-67690476D01*
X146764342Y-67690476D02*
X145954819Y-67690476D01*
X145954819Y-66785714D02*
X145954819Y-66976190D01*
X145954819Y-66976190D02*
X146002438Y-67071428D01*
X146002438Y-67071428D02*
X146050057Y-67119047D01*
X146050057Y-67119047D02*
X146192914Y-67214285D01*
X146192914Y-67214285D02*
X146383390Y-67261904D01*
X146383390Y-67261904D02*
X146764342Y-67261904D01*
X146764342Y-67261904D02*
X146859580Y-67214285D01*
X146859580Y-67214285D02*
X146907200Y-67166666D01*
X146907200Y-67166666D02*
X146954819Y-67071428D01*
X146954819Y-67071428D02*
X146954819Y-66880952D01*
X146954819Y-66880952D02*
X146907200Y-66785714D01*
X146907200Y-66785714D02*
X146859580Y-66738095D01*
X146859580Y-66738095D02*
X146764342Y-66690476D01*
X146764342Y-66690476D02*
X146526247Y-66690476D01*
X146526247Y-66690476D02*
X146431009Y-66738095D01*
X146431009Y-66738095D02*
X146383390Y-66785714D01*
X146383390Y-66785714D02*
X146335771Y-66880952D01*
X146335771Y-66880952D02*
X146335771Y-67071428D01*
X146335771Y-67071428D02*
X146383390Y-67166666D01*
X146383390Y-67166666D02*
X146431009Y-67214285D01*
X146431009Y-67214285D02*
X146526247Y-67261904D01*
X130204819Y-64261904D02*
X131014342Y-64261904D01*
X131014342Y-64261904D02*
X131109580Y-64214285D01*
X131109580Y-64214285D02*
X131157200Y-64166666D01*
X131157200Y-64166666D02*
X131204819Y-64071428D01*
X131204819Y-64071428D02*
X131204819Y-63880952D01*
X131204819Y-63880952D02*
X131157200Y-63785714D01*
X131157200Y-63785714D02*
X131109580Y-63738095D01*
X131109580Y-63738095D02*
X131014342Y-63690476D01*
X131014342Y-63690476D02*
X130204819Y-63690476D01*
X130204819Y-62738095D02*
X130204819Y-63214285D01*
X130204819Y-63214285D02*
X130681009Y-63261904D01*
X130681009Y-63261904D02*
X130633390Y-63214285D01*
X130633390Y-63214285D02*
X130585771Y-63119047D01*
X130585771Y-63119047D02*
X130585771Y-62880952D01*
X130585771Y-62880952D02*
X130633390Y-62785714D01*
X130633390Y-62785714D02*
X130681009Y-62738095D01*
X130681009Y-62738095D02*
X130776247Y-62690476D01*
X130776247Y-62690476D02*
X131014342Y-62690476D01*
X131014342Y-62690476D02*
X131109580Y-62738095D01*
X131109580Y-62738095D02*
X131157200Y-62785714D01*
X131157200Y-62785714D02*
X131204819Y-62880952D01*
X131204819Y-62880952D02*
X131204819Y-63119047D01*
X131204819Y-63119047D02*
X131157200Y-63214285D01*
X131157200Y-63214285D02*
X131109580Y-63261904D01*
X147704819Y-67261904D02*
X148514342Y-67261904D01*
X148514342Y-67261904D02*
X148609580Y-67214285D01*
X148609580Y-67214285D02*
X148657200Y-67166666D01*
X148657200Y-67166666D02*
X148704819Y-67071428D01*
X148704819Y-67071428D02*
X148704819Y-66880952D01*
X148704819Y-66880952D02*
X148657200Y-66785714D01*
X148657200Y-66785714D02*
X148609580Y-66738095D01*
X148609580Y-66738095D02*
X148514342Y-66690476D01*
X148514342Y-66690476D02*
X147704819Y-66690476D01*
X148038152Y-65785714D02*
X148704819Y-65785714D01*
X147657200Y-66023809D02*
X148371485Y-66261904D01*
X148371485Y-66261904D02*
X148371485Y-65642857D01*
X133957200Y-115783332D02*
X134004819Y-115640475D01*
X134004819Y-115640475D02*
X134004819Y-115402380D01*
X134004819Y-115402380D02*
X133957200Y-115307142D01*
X133957200Y-115307142D02*
X133909580Y-115259523D01*
X133909580Y-115259523D02*
X133814342Y-115211904D01*
X133814342Y-115211904D02*
X133719104Y-115211904D01*
X133719104Y-115211904D02*
X133623866Y-115259523D01*
X133623866Y-115259523D02*
X133576247Y-115307142D01*
X133576247Y-115307142D02*
X133528628Y-115402380D01*
X133528628Y-115402380D02*
X133481009Y-115592856D01*
X133481009Y-115592856D02*
X133433390Y-115688094D01*
X133433390Y-115688094D02*
X133385771Y-115735713D01*
X133385771Y-115735713D02*
X133290533Y-115783332D01*
X133290533Y-115783332D02*
X133195295Y-115783332D01*
X133195295Y-115783332D02*
X133100057Y-115735713D01*
X133100057Y-115735713D02*
X133052438Y-115688094D01*
X133052438Y-115688094D02*
X133004819Y-115592856D01*
X133004819Y-115592856D02*
X133004819Y-115354761D01*
X133004819Y-115354761D02*
X133052438Y-115211904D01*
X133004819Y-114878570D02*
X134004819Y-114640475D01*
X134004819Y-114640475D02*
X133290533Y-114449999D01*
X133290533Y-114449999D02*
X134004819Y-114259523D01*
X134004819Y-114259523D02*
X133004819Y-114021428D01*
X134004819Y-113116666D02*
X134004819Y-113688094D01*
X134004819Y-113402380D02*
X133004819Y-113402380D01*
X133004819Y-113402380D02*
X133147676Y-113497618D01*
X133147676Y-113497618D02*
X133242914Y-113592856D01*
X133242914Y-113592856D02*
X133290533Y-113688094D01*
X150944642Y-97084819D02*
X150611309Y-96608628D01*
X150373214Y-97084819D02*
X150373214Y-96084819D01*
X150373214Y-96084819D02*
X150754166Y-96084819D01*
X150754166Y-96084819D02*
X150849404Y-96132438D01*
X150849404Y-96132438D02*
X150897023Y-96180057D01*
X150897023Y-96180057D02*
X150944642Y-96275295D01*
X150944642Y-96275295D02*
X150944642Y-96418152D01*
X150944642Y-96418152D02*
X150897023Y-96513390D01*
X150897023Y-96513390D02*
X150849404Y-96561009D01*
X150849404Y-96561009D02*
X150754166Y-96608628D01*
X150754166Y-96608628D02*
X150373214Y-96608628D01*
X151897023Y-97084819D02*
X151325595Y-97084819D01*
X151611309Y-97084819D02*
X151611309Y-96084819D01*
X151611309Y-96084819D02*
X151516071Y-96227676D01*
X151516071Y-96227676D02*
X151420833Y-96322914D01*
X151420833Y-96322914D02*
X151325595Y-96370533D01*
X152801785Y-96084819D02*
X152325595Y-96084819D01*
X152325595Y-96084819D02*
X152277976Y-96561009D01*
X152277976Y-96561009D02*
X152325595Y-96513390D01*
X152325595Y-96513390D02*
X152420833Y-96465771D01*
X152420833Y-96465771D02*
X152658928Y-96465771D01*
X152658928Y-96465771D02*
X152754166Y-96513390D01*
X152754166Y-96513390D02*
X152801785Y-96561009D01*
X152801785Y-96561009D02*
X152849404Y-96656247D01*
X152849404Y-96656247D02*
X152849404Y-96894342D01*
X152849404Y-96894342D02*
X152801785Y-96989580D01*
X152801785Y-96989580D02*
X152754166Y-97037200D01*
X152754166Y-97037200D02*
X152658928Y-97084819D01*
X152658928Y-97084819D02*
X152420833Y-97084819D01*
X152420833Y-97084819D02*
X152325595Y-97037200D01*
X152325595Y-97037200D02*
X152277976Y-96989580D01*
X119444642Y-120274819D02*
X119111309Y-119798628D01*
X118873214Y-120274819D02*
X118873214Y-119274819D01*
X118873214Y-119274819D02*
X119254166Y-119274819D01*
X119254166Y-119274819D02*
X119349404Y-119322438D01*
X119349404Y-119322438D02*
X119397023Y-119370057D01*
X119397023Y-119370057D02*
X119444642Y-119465295D01*
X119444642Y-119465295D02*
X119444642Y-119608152D01*
X119444642Y-119608152D02*
X119397023Y-119703390D01*
X119397023Y-119703390D02*
X119349404Y-119751009D01*
X119349404Y-119751009D02*
X119254166Y-119798628D01*
X119254166Y-119798628D02*
X118873214Y-119798628D01*
X120397023Y-120274819D02*
X119825595Y-120274819D01*
X120111309Y-120274819D02*
X120111309Y-119274819D01*
X120111309Y-119274819D02*
X120016071Y-119417676D01*
X120016071Y-119417676D02*
X119920833Y-119512914D01*
X119920833Y-119512914D02*
X119825595Y-119560533D01*
X121254166Y-119608152D02*
X121254166Y-120274819D01*
X121016071Y-119227200D02*
X120777976Y-119941485D01*
X120777976Y-119941485D02*
X121397023Y-119941485D01*
X141083333Y-71954819D02*
X140750000Y-71478628D01*
X140511905Y-71954819D02*
X140511905Y-70954819D01*
X140511905Y-70954819D02*
X140892857Y-70954819D01*
X140892857Y-70954819D02*
X140988095Y-71002438D01*
X140988095Y-71002438D02*
X141035714Y-71050057D01*
X141035714Y-71050057D02*
X141083333Y-71145295D01*
X141083333Y-71145295D02*
X141083333Y-71288152D01*
X141083333Y-71288152D02*
X141035714Y-71383390D01*
X141035714Y-71383390D02*
X140988095Y-71431009D01*
X140988095Y-71431009D02*
X140892857Y-71478628D01*
X140892857Y-71478628D02*
X140511905Y-71478628D01*
X141559524Y-71954819D02*
X141750000Y-71954819D01*
X141750000Y-71954819D02*
X141845238Y-71907200D01*
X141845238Y-71907200D02*
X141892857Y-71859580D01*
X141892857Y-71859580D02*
X141988095Y-71716723D01*
X141988095Y-71716723D02*
X142035714Y-71526247D01*
X142035714Y-71526247D02*
X142035714Y-71145295D01*
X142035714Y-71145295D02*
X141988095Y-71050057D01*
X141988095Y-71050057D02*
X141940476Y-71002438D01*
X141940476Y-71002438D02*
X141845238Y-70954819D01*
X141845238Y-70954819D02*
X141654762Y-70954819D01*
X141654762Y-70954819D02*
X141559524Y-71002438D01*
X141559524Y-71002438D02*
X141511905Y-71050057D01*
X141511905Y-71050057D02*
X141464286Y-71145295D01*
X141464286Y-71145295D02*
X141464286Y-71383390D01*
X141464286Y-71383390D02*
X141511905Y-71478628D01*
X141511905Y-71478628D02*
X141559524Y-71526247D01*
X141559524Y-71526247D02*
X141654762Y-71573866D01*
X141654762Y-71573866D02*
X141845238Y-71573866D01*
X141845238Y-71573866D02*
X141940476Y-71526247D01*
X141940476Y-71526247D02*
X141988095Y-71478628D01*
X141988095Y-71478628D02*
X142035714Y-71383390D01*
X103920833Y-120204819D02*
X103587500Y-119728628D01*
X103349405Y-120204819D02*
X103349405Y-119204819D01*
X103349405Y-119204819D02*
X103730357Y-119204819D01*
X103730357Y-119204819D02*
X103825595Y-119252438D01*
X103825595Y-119252438D02*
X103873214Y-119300057D01*
X103873214Y-119300057D02*
X103920833Y-119395295D01*
X103920833Y-119395295D02*
X103920833Y-119538152D01*
X103920833Y-119538152D02*
X103873214Y-119633390D01*
X103873214Y-119633390D02*
X103825595Y-119681009D01*
X103825595Y-119681009D02*
X103730357Y-119728628D01*
X103730357Y-119728628D02*
X103349405Y-119728628D01*
X104777976Y-119204819D02*
X104587500Y-119204819D01*
X104587500Y-119204819D02*
X104492262Y-119252438D01*
X104492262Y-119252438D02*
X104444643Y-119300057D01*
X104444643Y-119300057D02*
X104349405Y-119442914D01*
X104349405Y-119442914D02*
X104301786Y-119633390D01*
X104301786Y-119633390D02*
X104301786Y-120014342D01*
X104301786Y-120014342D02*
X104349405Y-120109580D01*
X104349405Y-120109580D02*
X104397024Y-120157200D01*
X104397024Y-120157200D02*
X104492262Y-120204819D01*
X104492262Y-120204819D02*
X104682738Y-120204819D01*
X104682738Y-120204819D02*
X104777976Y-120157200D01*
X104777976Y-120157200D02*
X104825595Y-120109580D01*
X104825595Y-120109580D02*
X104873214Y-120014342D01*
X104873214Y-120014342D02*
X104873214Y-119776247D01*
X104873214Y-119776247D02*
X104825595Y-119681009D01*
X104825595Y-119681009D02*
X104777976Y-119633390D01*
X104777976Y-119633390D02*
X104682738Y-119585771D01*
X104682738Y-119585771D02*
X104492262Y-119585771D01*
X104492262Y-119585771D02*
X104397024Y-119633390D01*
X104397024Y-119633390D02*
X104349405Y-119681009D01*
X104349405Y-119681009D02*
X104301786Y-119776247D01*
X134420833Y-85454819D02*
X134087500Y-84978628D01*
X133849405Y-85454819D02*
X133849405Y-84454819D01*
X133849405Y-84454819D02*
X134230357Y-84454819D01*
X134230357Y-84454819D02*
X134325595Y-84502438D01*
X134325595Y-84502438D02*
X134373214Y-84550057D01*
X134373214Y-84550057D02*
X134420833Y-84645295D01*
X134420833Y-84645295D02*
X134420833Y-84788152D01*
X134420833Y-84788152D02*
X134373214Y-84883390D01*
X134373214Y-84883390D02*
X134325595Y-84931009D01*
X134325595Y-84931009D02*
X134230357Y-84978628D01*
X134230357Y-84978628D02*
X133849405Y-84978628D01*
X135325595Y-84454819D02*
X134849405Y-84454819D01*
X134849405Y-84454819D02*
X134801786Y-84931009D01*
X134801786Y-84931009D02*
X134849405Y-84883390D01*
X134849405Y-84883390D02*
X134944643Y-84835771D01*
X134944643Y-84835771D02*
X135182738Y-84835771D01*
X135182738Y-84835771D02*
X135277976Y-84883390D01*
X135277976Y-84883390D02*
X135325595Y-84931009D01*
X135325595Y-84931009D02*
X135373214Y-85026247D01*
X135373214Y-85026247D02*
X135373214Y-85264342D01*
X135373214Y-85264342D02*
X135325595Y-85359580D01*
X135325595Y-85359580D02*
X135277976Y-85407200D01*
X135277976Y-85407200D02*
X135182738Y-85454819D01*
X135182738Y-85454819D02*
X134944643Y-85454819D01*
X134944643Y-85454819D02*
X134849405Y-85407200D01*
X134849405Y-85407200D02*
X134801786Y-85359580D01*
X131954819Y-77916666D02*
X131478628Y-78249999D01*
X131954819Y-78488094D02*
X130954819Y-78488094D01*
X130954819Y-78488094D02*
X130954819Y-78107142D01*
X130954819Y-78107142D02*
X131002438Y-78011904D01*
X131002438Y-78011904D02*
X131050057Y-77964285D01*
X131050057Y-77964285D02*
X131145295Y-77916666D01*
X131145295Y-77916666D02*
X131288152Y-77916666D01*
X131288152Y-77916666D02*
X131383390Y-77964285D01*
X131383390Y-77964285D02*
X131431009Y-78011904D01*
X131431009Y-78011904D02*
X131478628Y-78107142D01*
X131478628Y-78107142D02*
X131478628Y-78488094D01*
X131288152Y-77059523D02*
X131954819Y-77059523D01*
X130907200Y-77297618D02*
X131621485Y-77535713D01*
X131621485Y-77535713D02*
X131621485Y-76916666D01*
X155954819Y-70916666D02*
X155478628Y-71249999D01*
X155954819Y-71488094D02*
X154954819Y-71488094D01*
X154954819Y-71488094D02*
X154954819Y-71107142D01*
X154954819Y-71107142D02*
X155002438Y-71011904D01*
X155002438Y-71011904D02*
X155050057Y-70964285D01*
X155050057Y-70964285D02*
X155145295Y-70916666D01*
X155145295Y-70916666D02*
X155288152Y-70916666D01*
X155288152Y-70916666D02*
X155383390Y-70964285D01*
X155383390Y-70964285D02*
X155431009Y-71011904D01*
X155431009Y-71011904D02*
X155478628Y-71107142D01*
X155478628Y-71107142D02*
X155478628Y-71488094D01*
X154954819Y-70583332D02*
X154954819Y-69964285D01*
X154954819Y-69964285D02*
X155335771Y-70297618D01*
X155335771Y-70297618D02*
X155335771Y-70154761D01*
X155335771Y-70154761D02*
X155383390Y-70059523D01*
X155383390Y-70059523D02*
X155431009Y-70011904D01*
X155431009Y-70011904D02*
X155526247Y-69964285D01*
X155526247Y-69964285D02*
X155764342Y-69964285D01*
X155764342Y-69964285D02*
X155859580Y-70011904D01*
X155859580Y-70011904D02*
X155907200Y-70059523D01*
X155907200Y-70059523D02*
X155954819Y-70154761D01*
X155954819Y-70154761D02*
X155954819Y-70440475D01*
X155954819Y-70440475D02*
X155907200Y-70535713D01*
X155907200Y-70535713D02*
X155859580Y-70583332D01*
X150833333Y-62454819D02*
X150500000Y-61978628D01*
X150261905Y-62454819D02*
X150261905Y-61454819D01*
X150261905Y-61454819D02*
X150642857Y-61454819D01*
X150642857Y-61454819D02*
X150738095Y-61502438D01*
X150738095Y-61502438D02*
X150785714Y-61550057D01*
X150785714Y-61550057D02*
X150833333Y-61645295D01*
X150833333Y-61645295D02*
X150833333Y-61788152D01*
X150833333Y-61788152D02*
X150785714Y-61883390D01*
X150785714Y-61883390D02*
X150738095Y-61931009D01*
X150738095Y-61931009D02*
X150642857Y-61978628D01*
X150642857Y-61978628D02*
X150261905Y-61978628D01*
X151214286Y-61550057D02*
X151261905Y-61502438D01*
X151261905Y-61502438D02*
X151357143Y-61454819D01*
X151357143Y-61454819D02*
X151595238Y-61454819D01*
X151595238Y-61454819D02*
X151690476Y-61502438D01*
X151690476Y-61502438D02*
X151738095Y-61550057D01*
X151738095Y-61550057D02*
X151785714Y-61645295D01*
X151785714Y-61645295D02*
X151785714Y-61740533D01*
X151785714Y-61740533D02*
X151738095Y-61883390D01*
X151738095Y-61883390D02*
X151166667Y-62454819D01*
X151166667Y-62454819D02*
X151785714Y-62454819D01*
X75583333Y-90454819D02*
X75250000Y-89978628D01*
X75011905Y-90454819D02*
X75011905Y-89454819D01*
X75011905Y-89454819D02*
X75392857Y-89454819D01*
X75392857Y-89454819D02*
X75488095Y-89502438D01*
X75488095Y-89502438D02*
X75535714Y-89550057D01*
X75535714Y-89550057D02*
X75583333Y-89645295D01*
X75583333Y-89645295D02*
X75583333Y-89788152D01*
X75583333Y-89788152D02*
X75535714Y-89883390D01*
X75535714Y-89883390D02*
X75488095Y-89931009D01*
X75488095Y-89931009D02*
X75392857Y-89978628D01*
X75392857Y-89978628D02*
X75011905Y-89978628D01*
X76535714Y-90454819D02*
X75964286Y-90454819D01*
X76250000Y-90454819D02*
X76250000Y-89454819D01*
X76250000Y-89454819D02*
X76154762Y-89597676D01*
X76154762Y-89597676D02*
X76059524Y-89692914D01*
X76059524Y-89692914D02*
X75964286Y-89740533D01*
X155050057Y-91845238D02*
X155002438Y-91940476D01*
X155002438Y-91940476D02*
X154907200Y-92035714D01*
X154907200Y-92035714D02*
X154764342Y-92178571D01*
X154764342Y-92178571D02*
X154716723Y-92273809D01*
X154716723Y-92273809D02*
X154716723Y-92369047D01*
X154954819Y-92321428D02*
X154907200Y-92416666D01*
X154907200Y-92416666D02*
X154811961Y-92511904D01*
X154811961Y-92511904D02*
X154621485Y-92559523D01*
X154621485Y-92559523D02*
X154288152Y-92559523D01*
X154288152Y-92559523D02*
X154097676Y-92511904D01*
X154097676Y-92511904D02*
X154002438Y-92416666D01*
X154002438Y-92416666D02*
X153954819Y-92321428D01*
X153954819Y-92321428D02*
X153954819Y-92130952D01*
X153954819Y-92130952D02*
X154002438Y-92035714D01*
X154002438Y-92035714D02*
X154097676Y-91940476D01*
X154097676Y-91940476D02*
X154288152Y-91892857D01*
X154288152Y-91892857D02*
X154621485Y-91892857D01*
X154621485Y-91892857D02*
X154811961Y-91940476D01*
X154811961Y-91940476D02*
X154907200Y-92035714D01*
X154907200Y-92035714D02*
X154954819Y-92130952D01*
X154954819Y-92130952D02*
X154954819Y-92321428D01*
X153954819Y-91559523D02*
X153954819Y-90940476D01*
X153954819Y-90940476D02*
X154335771Y-91273809D01*
X154335771Y-91273809D02*
X154335771Y-91130952D01*
X154335771Y-91130952D02*
X154383390Y-91035714D01*
X154383390Y-91035714D02*
X154431009Y-90988095D01*
X154431009Y-90988095D02*
X154526247Y-90940476D01*
X154526247Y-90940476D02*
X154764342Y-90940476D01*
X154764342Y-90940476D02*
X154859580Y-90988095D01*
X154859580Y-90988095D02*
X154907200Y-91035714D01*
X154907200Y-91035714D02*
X154954819Y-91130952D01*
X154954819Y-91130952D02*
X154954819Y-91416666D01*
X154954819Y-91416666D02*
X154907200Y-91511904D01*
X154907200Y-91511904D02*
X154859580Y-91559523D01*
X139904761Y-64300057D02*
X139809523Y-64252438D01*
X139809523Y-64252438D02*
X139714285Y-64157200D01*
X139714285Y-64157200D02*
X139571428Y-64014342D01*
X139571428Y-64014342D02*
X139476190Y-63966723D01*
X139476190Y-63966723D02*
X139380952Y-63966723D01*
X139428571Y-64204819D02*
X139333333Y-64157200D01*
X139333333Y-64157200D02*
X139238095Y-64061961D01*
X139238095Y-64061961D02*
X139190476Y-63871485D01*
X139190476Y-63871485D02*
X139190476Y-63538152D01*
X139190476Y-63538152D02*
X139238095Y-63347676D01*
X139238095Y-63347676D02*
X139333333Y-63252438D01*
X139333333Y-63252438D02*
X139428571Y-63204819D01*
X139428571Y-63204819D02*
X139619047Y-63204819D01*
X139619047Y-63204819D02*
X139714285Y-63252438D01*
X139714285Y-63252438D02*
X139809523Y-63347676D01*
X139809523Y-63347676D02*
X139857142Y-63538152D01*
X139857142Y-63538152D02*
X139857142Y-63871485D01*
X139857142Y-63871485D02*
X139809523Y-64061961D01*
X139809523Y-64061961D02*
X139714285Y-64157200D01*
X139714285Y-64157200D02*
X139619047Y-64204819D01*
X139619047Y-64204819D02*
X139428571Y-64204819D01*
X140238095Y-63300057D02*
X140285714Y-63252438D01*
X140285714Y-63252438D02*
X140380952Y-63204819D01*
X140380952Y-63204819D02*
X140619047Y-63204819D01*
X140619047Y-63204819D02*
X140714285Y-63252438D01*
X140714285Y-63252438D02*
X140761904Y-63300057D01*
X140761904Y-63300057D02*
X140809523Y-63395295D01*
X140809523Y-63395295D02*
X140809523Y-63490533D01*
X140809523Y-63490533D02*
X140761904Y-63633390D01*
X140761904Y-63633390D02*
X140190476Y-64204819D01*
X140190476Y-64204819D02*
X140809523Y-64204819D01*
X134454761Y-78800057D02*
X134359523Y-78752438D01*
X134359523Y-78752438D02*
X134264285Y-78657200D01*
X134264285Y-78657200D02*
X134121428Y-78514342D01*
X134121428Y-78514342D02*
X134026190Y-78466723D01*
X134026190Y-78466723D02*
X133930952Y-78466723D01*
X133978571Y-78704819D02*
X133883333Y-78657200D01*
X133883333Y-78657200D02*
X133788095Y-78561961D01*
X133788095Y-78561961D02*
X133740476Y-78371485D01*
X133740476Y-78371485D02*
X133740476Y-78038152D01*
X133740476Y-78038152D02*
X133788095Y-77847676D01*
X133788095Y-77847676D02*
X133883333Y-77752438D01*
X133883333Y-77752438D02*
X133978571Y-77704819D01*
X133978571Y-77704819D02*
X134169047Y-77704819D01*
X134169047Y-77704819D02*
X134264285Y-77752438D01*
X134264285Y-77752438D02*
X134359523Y-77847676D01*
X134359523Y-77847676D02*
X134407142Y-78038152D01*
X134407142Y-78038152D02*
X134407142Y-78371485D01*
X134407142Y-78371485D02*
X134359523Y-78561961D01*
X134359523Y-78561961D02*
X134264285Y-78657200D01*
X134264285Y-78657200D02*
X134169047Y-78704819D01*
X134169047Y-78704819D02*
X133978571Y-78704819D01*
X135359523Y-78704819D02*
X134788095Y-78704819D01*
X135073809Y-78704819D02*
X135073809Y-77704819D01*
X135073809Y-77704819D02*
X134978571Y-77847676D01*
X134978571Y-77847676D02*
X134883333Y-77942914D01*
X134883333Y-77942914D02*
X134788095Y-77990533D01*
X150309819Y-78968333D02*
X151024104Y-78968333D01*
X151024104Y-78968333D02*
X151166961Y-79015952D01*
X151166961Y-79015952D02*
X151262200Y-79111190D01*
X151262200Y-79111190D02*
X151309819Y-79254047D01*
X151309819Y-79254047D02*
X151309819Y-79349285D01*
X150309819Y-78015952D02*
X150309819Y-78492142D01*
X150309819Y-78492142D02*
X150786009Y-78539761D01*
X150786009Y-78539761D02*
X150738390Y-78492142D01*
X150738390Y-78492142D02*
X150690771Y-78396904D01*
X150690771Y-78396904D02*
X150690771Y-78158809D01*
X150690771Y-78158809D02*
X150738390Y-78063571D01*
X150738390Y-78063571D02*
X150786009Y-78015952D01*
X150786009Y-78015952D02*
X150881247Y-77968333D01*
X150881247Y-77968333D02*
X151119342Y-77968333D01*
X151119342Y-77968333D02*
X151214580Y-78015952D01*
X151214580Y-78015952D02*
X151262200Y-78063571D01*
X151262200Y-78063571D02*
X151309819Y-78158809D01*
X151309819Y-78158809D02*
X151309819Y-78396904D01*
X151309819Y-78396904D02*
X151262200Y-78492142D01*
X151262200Y-78492142D02*
X151214580Y-78539761D01*
X68166666Y-92704819D02*
X68166666Y-93419104D01*
X68166666Y-93419104D02*
X68119047Y-93561961D01*
X68119047Y-93561961D02*
X68023809Y-93657200D01*
X68023809Y-93657200D02*
X67880952Y-93704819D01*
X67880952Y-93704819D02*
X67785714Y-93704819D01*
X68595238Y-92800057D02*
X68642857Y-92752438D01*
X68642857Y-92752438D02*
X68738095Y-92704819D01*
X68738095Y-92704819D02*
X68976190Y-92704819D01*
X68976190Y-92704819D02*
X69071428Y-92752438D01*
X69071428Y-92752438D02*
X69119047Y-92800057D01*
X69119047Y-92800057D02*
X69166666Y-92895295D01*
X69166666Y-92895295D02*
X69166666Y-92990533D01*
X69166666Y-92990533D02*
X69119047Y-93133390D01*
X69119047Y-93133390D02*
X68547619Y-93704819D01*
X68547619Y-93704819D02*
X69166666Y-93704819D01*
X115511905Y-120204819D02*
X115511905Y-119204819D01*
X115511905Y-119204819D02*
X115750000Y-119204819D01*
X115750000Y-119204819D02*
X115892857Y-119252438D01*
X115892857Y-119252438D02*
X115988095Y-119347676D01*
X115988095Y-119347676D02*
X116035714Y-119442914D01*
X116035714Y-119442914D02*
X116083333Y-119633390D01*
X116083333Y-119633390D02*
X116083333Y-119776247D01*
X116083333Y-119776247D02*
X116035714Y-119966723D01*
X116035714Y-119966723D02*
X115988095Y-120061961D01*
X115988095Y-120061961D02*
X115892857Y-120157200D01*
X115892857Y-120157200D02*
X115750000Y-120204819D01*
X115750000Y-120204819D02*
X115511905Y-120204819D01*
X116940476Y-119538152D02*
X116940476Y-120204819D01*
X116702381Y-119157200D02*
X116464286Y-119871485D01*
X116464286Y-119871485D02*
X117083333Y-119871485D01*
X147984905Y-69799819D02*
X147984905Y-68799819D01*
X147984905Y-68799819D02*
X148223000Y-68799819D01*
X148223000Y-68799819D02*
X148365857Y-68847438D01*
X148365857Y-68847438D02*
X148461095Y-68942676D01*
X148461095Y-68942676D02*
X148508714Y-69037914D01*
X148508714Y-69037914D02*
X148556333Y-69228390D01*
X148556333Y-69228390D02*
X148556333Y-69371247D01*
X148556333Y-69371247D02*
X148508714Y-69561723D01*
X148508714Y-69561723D02*
X148461095Y-69656961D01*
X148461095Y-69656961D02*
X148365857Y-69752200D01*
X148365857Y-69752200D02*
X148223000Y-69799819D01*
X148223000Y-69799819D02*
X147984905Y-69799819D01*
X148889667Y-68799819D02*
X149508714Y-68799819D01*
X149508714Y-68799819D02*
X149175381Y-69180771D01*
X149175381Y-69180771D02*
X149318238Y-69180771D01*
X149318238Y-69180771D02*
X149413476Y-69228390D01*
X149413476Y-69228390D02*
X149461095Y-69276009D01*
X149461095Y-69276009D02*
X149508714Y-69371247D01*
X149508714Y-69371247D02*
X149508714Y-69609342D01*
X149508714Y-69609342D02*
X149461095Y-69704580D01*
X149461095Y-69704580D02*
X149413476Y-69752200D01*
X149413476Y-69752200D02*
X149318238Y-69799819D01*
X149318238Y-69799819D02*
X149032524Y-69799819D01*
X149032524Y-69799819D02*
X148937286Y-69752200D01*
X148937286Y-69752200D02*
X148889667Y-69704580D01*
X107261905Y-120204819D02*
X107261905Y-119204819D01*
X107261905Y-119204819D02*
X107500000Y-119204819D01*
X107500000Y-119204819D02*
X107642857Y-119252438D01*
X107642857Y-119252438D02*
X107738095Y-119347676D01*
X107738095Y-119347676D02*
X107785714Y-119442914D01*
X107785714Y-119442914D02*
X107833333Y-119633390D01*
X107833333Y-119633390D02*
X107833333Y-119776247D01*
X107833333Y-119776247D02*
X107785714Y-119966723D01*
X107785714Y-119966723D02*
X107738095Y-120061961D01*
X107738095Y-120061961D02*
X107642857Y-120157200D01*
X107642857Y-120157200D02*
X107500000Y-120204819D01*
X107500000Y-120204819D02*
X107261905Y-120204819D01*
X108214286Y-119300057D02*
X108261905Y-119252438D01*
X108261905Y-119252438D02*
X108357143Y-119204819D01*
X108357143Y-119204819D02*
X108595238Y-119204819D01*
X108595238Y-119204819D02*
X108690476Y-119252438D01*
X108690476Y-119252438D02*
X108738095Y-119300057D01*
X108738095Y-119300057D02*
X108785714Y-119395295D01*
X108785714Y-119395295D02*
X108785714Y-119490533D01*
X108785714Y-119490533D02*
X108738095Y-119633390D01*
X108738095Y-119633390D02*
X108166667Y-120204819D01*
X108166667Y-120204819D02*
X108785714Y-120204819D01*
X155954819Y-62488094D02*
X154954819Y-62488094D01*
X154954819Y-62488094D02*
X154954819Y-62249999D01*
X154954819Y-62249999D02*
X155002438Y-62107142D01*
X155002438Y-62107142D02*
X155097676Y-62011904D01*
X155097676Y-62011904D02*
X155192914Y-61964285D01*
X155192914Y-61964285D02*
X155383390Y-61916666D01*
X155383390Y-61916666D02*
X155526247Y-61916666D01*
X155526247Y-61916666D02*
X155716723Y-61964285D01*
X155716723Y-61964285D02*
X155811961Y-62011904D01*
X155811961Y-62011904D02*
X155907200Y-62107142D01*
X155907200Y-62107142D02*
X155954819Y-62249999D01*
X155954819Y-62249999D02*
X155954819Y-62488094D01*
X155954819Y-60964285D02*
X155954819Y-61535713D01*
X155954819Y-61249999D02*
X154954819Y-61249999D01*
X154954819Y-61249999D02*
X155097676Y-61345237D01*
X155097676Y-61345237D02*
X155192914Y-61440475D01*
X155192914Y-61440475D02*
X155240533Y-61535713D01*
X137109580Y-70142857D02*
X137157200Y-70190476D01*
X137157200Y-70190476D02*
X137204819Y-70333333D01*
X137204819Y-70333333D02*
X137204819Y-70428571D01*
X137204819Y-70428571D02*
X137157200Y-70571428D01*
X137157200Y-70571428D02*
X137061961Y-70666666D01*
X137061961Y-70666666D02*
X136966723Y-70714285D01*
X136966723Y-70714285D02*
X136776247Y-70761904D01*
X136776247Y-70761904D02*
X136633390Y-70761904D01*
X136633390Y-70761904D02*
X136442914Y-70714285D01*
X136442914Y-70714285D02*
X136347676Y-70666666D01*
X136347676Y-70666666D02*
X136252438Y-70571428D01*
X136252438Y-70571428D02*
X136204819Y-70428571D01*
X136204819Y-70428571D02*
X136204819Y-70333333D01*
X136204819Y-70333333D02*
X136252438Y-70190476D01*
X136252438Y-70190476D02*
X136300057Y-70142857D01*
X137204819Y-69190476D02*
X137204819Y-69761904D01*
X137204819Y-69476190D02*
X136204819Y-69476190D01*
X136204819Y-69476190D02*
X136347676Y-69571428D01*
X136347676Y-69571428D02*
X136442914Y-69666666D01*
X136442914Y-69666666D02*
X136490533Y-69761904D01*
X137204819Y-68238095D02*
X137204819Y-68809523D01*
X137204819Y-68523809D02*
X136204819Y-68523809D01*
X136204819Y-68523809D02*
X136347676Y-68619047D01*
X136347676Y-68619047D02*
X136442914Y-68714285D01*
X136442914Y-68714285D02*
X136490533Y-68809523D01*
X139109580Y-70142857D02*
X139157200Y-70190476D01*
X139157200Y-70190476D02*
X139204819Y-70333333D01*
X139204819Y-70333333D02*
X139204819Y-70428571D01*
X139204819Y-70428571D02*
X139157200Y-70571428D01*
X139157200Y-70571428D02*
X139061961Y-70666666D01*
X139061961Y-70666666D02*
X138966723Y-70714285D01*
X138966723Y-70714285D02*
X138776247Y-70761904D01*
X138776247Y-70761904D02*
X138633390Y-70761904D01*
X138633390Y-70761904D02*
X138442914Y-70714285D01*
X138442914Y-70714285D02*
X138347676Y-70666666D01*
X138347676Y-70666666D02*
X138252438Y-70571428D01*
X138252438Y-70571428D02*
X138204819Y-70428571D01*
X138204819Y-70428571D02*
X138204819Y-70333333D01*
X138204819Y-70333333D02*
X138252438Y-70190476D01*
X138252438Y-70190476D02*
X138300057Y-70142857D01*
X139204819Y-69190476D02*
X139204819Y-69761904D01*
X139204819Y-69476190D02*
X138204819Y-69476190D01*
X138204819Y-69476190D02*
X138347676Y-69571428D01*
X138347676Y-69571428D02*
X138442914Y-69666666D01*
X138442914Y-69666666D02*
X138490533Y-69761904D01*
X138204819Y-68571428D02*
X138204819Y-68476190D01*
X138204819Y-68476190D02*
X138252438Y-68380952D01*
X138252438Y-68380952D02*
X138300057Y-68333333D01*
X138300057Y-68333333D02*
X138395295Y-68285714D01*
X138395295Y-68285714D02*
X138585771Y-68238095D01*
X138585771Y-68238095D02*
X138823866Y-68238095D01*
X138823866Y-68238095D02*
X139014342Y-68285714D01*
X139014342Y-68285714D02*
X139109580Y-68333333D01*
X139109580Y-68333333D02*
X139157200Y-68380952D01*
X139157200Y-68380952D02*
X139204819Y-68476190D01*
X139204819Y-68476190D02*
X139204819Y-68571428D01*
X139204819Y-68571428D02*
X139157200Y-68666666D01*
X139157200Y-68666666D02*
X139109580Y-68714285D01*
X139109580Y-68714285D02*
X139014342Y-68761904D01*
X139014342Y-68761904D02*
X138823866Y-68809523D01*
X138823866Y-68809523D02*
X138585771Y-68809523D01*
X138585771Y-68809523D02*
X138395295Y-68761904D01*
X138395295Y-68761904D02*
X138300057Y-68714285D01*
X138300057Y-68714285D02*
X138252438Y-68666666D01*
X138252438Y-68666666D02*
X138204819Y-68571428D01*
X146083333Y-62359580D02*
X146035714Y-62407200D01*
X146035714Y-62407200D02*
X145892857Y-62454819D01*
X145892857Y-62454819D02*
X145797619Y-62454819D01*
X145797619Y-62454819D02*
X145654762Y-62407200D01*
X145654762Y-62407200D02*
X145559524Y-62311961D01*
X145559524Y-62311961D02*
X145511905Y-62216723D01*
X145511905Y-62216723D02*
X145464286Y-62026247D01*
X145464286Y-62026247D02*
X145464286Y-61883390D01*
X145464286Y-61883390D02*
X145511905Y-61692914D01*
X145511905Y-61692914D02*
X145559524Y-61597676D01*
X145559524Y-61597676D02*
X145654762Y-61502438D01*
X145654762Y-61502438D02*
X145797619Y-61454819D01*
X145797619Y-61454819D02*
X145892857Y-61454819D01*
X145892857Y-61454819D02*
X146035714Y-61502438D01*
X146035714Y-61502438D02*
X146083333Y-61550057D01*
X146654762Y-61883390D02*
X146559524Y-61835771D01*
X146559524Y-61835771D02*
X146511905Y-61788152D01*
X146511905Y-61788152D02*
X146464286Y-61692914D01*
X146464286Y-61692914D02*
X146464286Y-61645295D01*
X146464286Y-61645295D02*
X146511905Y-61550057D01*
X146511905Y-61550057D02*
X146559524Y-61502438D01*
X146559524Y-61502438D02*
X146654762Y-61454819D01*
X146654762Y-61454819D02*
X146845238Y-61454819D01*
X146845238Y-61454819D02*
X146940476Y-61502438D01*
X146940476Y-61502438D02*
X146988095Y-61550057D01*
X146988095Y-61550057D02*
X147035714Y-61645295D01*
X147035714Y-61645295D02*
X147035714Y-61692914D01*
X147035714Y-61692914D02*
X146988095Y-61788152D01*
X146988095Y-61788152D02*
X146940476Y-61835771D01*
X146940476Y-61835771D02*
X146845238Y-61883390D01*
X146845238Y-61883390D02*
X146654762Y-61883390D01*
X146654762Y-61883390D02*
X146559524Y-61931009D01*
X146559524Y-61931009D02*
X146511905Y-61978628D01*
X146511905Y-61978628D02*
X146464286Y-62073866D01*
X146464286Y-62073866D02*
X146464286Y-62264342D01*
X146464286Y-62264342D02*
X146511905Y-62359580D01*
X146511905Y-62359580D02*
X146559524Y-62407200D01*
X146559524Y-62407200D02*
X146654762Y-62454819D01*
X146654762Y-62454819D02*
X146845238Y-62454819D01*
X146845238Y-62454819D02*
X146940476Y-62407200D01*
X146940476Y-62407200D02*
X146988095Y-62359580D01*
X146988095Y-62359580D02*
X147035714Y-62264342D01*
X147035714Y-62264342D02*
X147035714Y-62073866D01*
X147035714Y-62073866D02*
X146988095Y-61978628D01*
X146988095Y-61978628D02*
X146940476Y-61931009D01*
X146940476Y-61931009D02*
X146845238Y-61883390D01*
X137109580Y-60416666D02*
X137157200Y-60464285D01*
X137157200Y-60464285D02*
X137204819Y-60607142D01*
X137204819Y-60607142D02*
X137204819Y-60702380D01*
X137204819Y-60702380D02*
X137157200Y-60845237D01*
X137157200Y-60845237D02*
X137061961Y-60940475D01*
X137061961Y-60940475D02*
X136966723Y-60988094D01*
X136966723Y-60988094D02*
X136776247Y-61035713D01*
X136776247Y-61035713D02*
X136633390Y-61035713D01*
X136633390Y-61035713D02*
X136442914Y-60988094D01*
X136442914Y-60988094D02*
X136347676Y-60940475D01*
X136347676Y-60940475D02*
X136252438Y-60845237D01*
X136252438Y-60845237D02*
X136204819Y-60702380D01*
X136204819Y-60702380D02*
X136204819Y-60607142D01*
X136204819Y-60607142D02*
X136252438Y-60464285D01*
X136252438Y-60464285D02*
X136300057Y-60416666D01*
X136204819Y-59559523D02*
X136204819Y-59749999D01*
X136204819Y-59749999D02*
X136252438Y-59845237D01*
X136252438Y-59845237D02*
X136300057Y-59892856D01*
X136300057Y-59892856D02*
X136442914Y-59988094D01*
X136442914Y-59988094D02*
X136633390Y-60035713D01*
X136633390Y-60035713D02*
X137014342Y-60035713D01*
X137014342Y-60035713D02*
X137109580Y-59988094D01*
X137109580Y-59988094D02*
X137157200Y-59940475D01*
X137157200Y-59940475D02*
X137204819Y-59845237D01*
X137204819Y-59845237D02*
X137204819Y-59654761D01*
X137204819Y-59654761D02*
X137157200Y-59559523D01*
X137157200Y-59559523D02*
X137109580Y-59511904D01*
X137109580Y-59511904D02*
X137014342Y-59464285D01*
X137014342Y-59464285D02*
X136776247Y-59464285D01*
X136776247Y-59464285D02*
X136681009Y-59511904D01*
X136681009Y-59511904D02*
X136633390Y-59559523D01*
X136633390Y-59559523D02*
X136585771Y-59654761D01*
X136585771Y-59654761D02*
X136585771Y-59845237D01*
X136585771Y-59845237D02*
X136633390Y-59940475D01*
X136633390Y-59940475D02*
X136681009Y-59988094D01*
X136681009Y-59988094D02*
X136776247Y-60035713D01*
X131833333Y-60359580D02*
X131785714Y-60407200D01*
X131785714Y-60407200D02*
X131642857Y-60454819D01*
X131642857Y-60454819D02*
X131547619Y-60454819D01*
X131547619Y-60454819D02*
X131404762Y-60407200D01*
X131404762Y-60407200D02*
X131309524Y-60311961D01*
X131309524Y-60311961D02*
X131261905Y-60216723D01*
X131261905Y-60216723D02*
X131214286Y-60026247D01*
X131214286Y-60026247D02*
X131214286Y-59883390D01*
X131214286Y-59883390D02*
X131261905Y-59692914D01*
X131261905Y-59692914D02*
X131309524Y-59597676D01*
X131309524Y-59597676D02*
X131404762Y-59502438D01*
X131404762Y-59502438D02*
X131547619Y-59454819D01*
X131547619Y-59454819D02*
X131642857Y-59454819D01*
X131642857Y-59454819D02*
X131785714Y-59502438D01*
X131785714Y-59502438D02*
X131833333Y-59550057D01*
X132738095Y-59454819D02*
X132261905Y-59454819D01*
X132261905Y-59454819D02*
X132214286Y-59931009D01*
X132214286Y-59931009D02*
X132261905Y-59883390D01*
X132261905Y-59883390D02*
X132357143Y-59835771D01*
X132357143Y-59835771D02*
X132595238Y-59835771D01*
X132595238Y-59835771D02*
X132690476Y-59883390D01*
X132690476Y-59883390D02*
X132738095Y-59931009D01*
X132738095Y-59931009D02*
X132785714Y-60026247D01*
X132785714Y-60026247D02*
X132785714Y-60264342D01*
X132785714Y-60264342D02*
X132738095Y-60359580D01*
X132738095Y-60359580D02*
X132690476Y-60407200D01*
X132690476Y-60407200D02*
X132595238Y-60454819D01*
X132595238Y-60454819D02*
X132357143Y-60454819D01*
X132357143Y-60454819D02*
X132261905Y-60407200D01*
X132261905Y-60407200D02*
X132214286Y-60359580D01*
X152858333Y-70179580D02*
X152810714Y-70227200D01*
X152810714Y-70227200D02*
X152667857Y-70274819D01*
X152667857Y-70274819D02*
X152572619Y-70274819D01*
X152572619Y-70274819D02*
X152429762Y-70227200D01*
X152429762Y-70227200D02*
X152334524Y-70131961D01*
X152334524Y-70131961D02*
X152286905Y-70036723D01*
X152286905Y-70036723D02*
X152239286Y-69846247D01*
X152239286Y-69846247D02*
X152239286Y-69703390D01*
X152239286Y-69703390D02*
X152286905Y-69512914D01*
X152286905Y-69512914D02*
X152334524Y-69417676D01*
X152334524Y-69417676D02*
X152429762Y-69322438D01*
X152429762Y-69322438D02*
X152572619Y-69274819D01*
X152572619Y-69274819D02*
X152667857Y-69274819D01*
X152667857Y-69274819D02*
X152810714Y-69322438D01*
X152810714Y-69322438D02*
X152858333Y-69370057D01*
X153715476Y-69608152D02*
X153715476Y-70274819D01*
X153477381Y-69227200D02*
X153239286Y-69941485D01*
X153239286Y-69941485D02*
X153858333Y-69941485D01*
X66583333Y-90359580D02*
X66535714Y-90407200D01*
X66535714Y-90407200D02*
X66392857Y-90454819D01*
X66392857Y-90454819D02*
X66297619Y-90454819D01*
X66297619Y-90454819D02*
X66154762Y-90407200D01*
X66154762Y-90407200D02*
X66059524Y-90311961D01*
X66059524Y-90311961D02*
X66011905Y-90216723D01*
X66011905Y-90216723D02*
X65964286Y-90026247D01*
X65964286Y-90026247D02*
X65964286Y-89883390D01*
X65964286Y-89883390D02*
X66011905Y-89692914D01*
X66011905Y-89692914D02*
X66059524Y-89597676D01*
X66059524Y-89597676D02*
X66154762Y-89502438D01*
X66154762Y-89502438D02*
X66297619Y-89454819D01*
X66297619Y-89454819D02*
X66392857Y-89454819D01*
X66392857Y-89454819D02*
X66535714Y-89502438D01*
X66535714Y-89502438D02*
X66583333Y-89550057D01*
X66916667Y-89454819D02*
X67535714Y-89454819D01*
X67535714Y-89454819D02*
X67202381Y-89835771D01*
X67202381Y-89835771D02*
X67345238Y-89835771D01*
X67345238Y-89835771D02*
X67440476Y-89883390D01*
X67440476Y-89883390D02*
X67488095Y-89931009D01*
X67488095Y-89931009D02*
X67535714Y-90026247D01*
X67535714Y-90026247D02*
X67535714Y-90264342D01*
X67535714Y-90264342D02*
X67488095Y-90359580D01*
X67488095Y-90359580D02*
X67440476Y-90407200D01*
X67440476Y-90407200D02*
X67345238Y-90454819D01*
X67345238Y-90454819D02*
X67059524Y-90454819D01*
X67059524Y-90454819D02*
X66964286Y-90407200D01*
X66964286Y-90407200D02*
X66916667Y-90359580D01*
X126833333Y-121609580D02*
X126785714Y-121657200D01*
X126785714Y-121657200D02*
X126642857Y-121704819D01*
X126642857Y-121704819D02*
X126547619Y-121704819D01*
X126547619Y-121704819D02*
X126404762Y-121657200D01*
X126404762Y-121657200D02*
X126309524Y-121561961D01*
X126309524Y-121561961D02*
X126261905Y-121466723D01*
X126261905Y-121466723D02*
X126214286Y-121276247D01*
X126214286Y-121276247D02*
X126214286Y-121133390D01*
X126214286Y-121133390D02*
X126261905Y-120942914D01*
X126261905Y-120942914D02*
X126309524Y-120847676D01*
X126309524Y-120847676D02*
X126404762Y-120752438D01*
X126404762Y-120752438D02*
X126547619Y-120704819D01*
X126547619Y-120704819D02*
X126642857Y-120704819D01*
X126642857Y-120704819D02*
X126785714Y-120752438D01*
X126785714Y-120752438D02*
X126833333Y-120800057D01*
X127214286Y-120800057D02*
X127261905Y-120752438D01*
X127261905Y-120752438D02*
X127357143Y-120704819D01*
X127357143Y-120704819D02*
X127595238Y-120704819D01*
X127595238Y-120704819D02*
X127690476Y-120752438D01*
X127690476Y-120752438D02*
X127738095Y-120800057D01*
X127738095Y-120800057D02*
X127785714Y-120895295D01*
X127785714Y-120895295D02*
X127785714Y-120990533D01*
X127785714Y-120990533D02*
X127738095Y-121133390D01*
X127738095Y-121133390D02*
X127166667Y-121704819D01*
X127166667Y-121704819D02*
X127785714Y-121704819D01*
X124058333Y-117679580D02*
X124010714Y-117727200D01*
X124010714Y-117727200D02*
X123867857Y-117774819D01*
X123867857Y-117774819D02*
X123772619Y-117774819D01*
X123772619Y-117774819D02*
X123629762Y-117727200D01*
X123629762Y-117727200D02*
X123534524Y-117631961D01*
X123534524Y-117631961D02*
X123486905Y-117536723D01*
X123486905Y-117536723D02*
X123439286Y-117346247D01*
X123439286Y-117346247D02*
X123439286Y-117203390D01*
X123439286Y-117203390D02*
X123486905Y-117012914D01*
X123486905Y-117012914D02*
X123534524Y-116917676D01*
X123534524Y-116917676D02*
X123629762Y-116822438D01*
X123629762Y-116822438D02*
X123772619Y-116774819D01*
X123772619Y-116774819D02*
X123867857Y-116774819D01*
X123867857Y-116774819D02*
X124010714Y-116822438D01*
X124010714Y-116822438D02*
X124058333Y-116870057D01*
X125010714Y-117774819D02*
X124439286Y-117774819D01*
X124725000Y-117774819D02*
X124725000Y-116774819D01*
X124725000Y-116774819D02*
X124629762Y-116917676D01*
X124629762Y-116917676D02*
X124534524Y-117012914D01*
X124534524Y-117012914D02*
X124439286Y-117060533D01*
X146119047Y-96431009D02*
X146261904Y-96478628D01*
X146261904Y-96478628D02*
X146309523Y-96526247D01*
X146309523Y-96526247D02*
X146357142Y-96621485D01*
X146357142Y-96621485D02*
X146357142Y-96764342D01*
X146357142Y-96764342D02*
X146309523Y-96859580D01*
X146309523Y-96859580D02*
X146261904Y-96907200D01*
X146261904Y-96907200D02*
X146166666Y-96954819D01*
X146166666Y-96954819D02*
X145785714Y-96954819D01*
X145785714Y-96954819D02*
X145785714Y-95954819D01*
X145785714Y-95954819D02*
X146119047Y-95954819D01*
X146119047Y-95954819D02*
X146214285Y-96002438D01*
X146214285Y-96002438D02*
X146261904Y-96050057D01*
X146261904Y-96050057D02*
X146309523Y-96145295D01*
X146309523Y-96145295D02*
X146309523Y-96240533D01*
X146309523Y-96240533D02*
X146261904Y-96335771D01*
X146261904Y-96335771D02*
X146214285Y-96383390D01*
X146214285Y-96383390D02*
X146119047Y-96431009D01*
X146119047Y-96431009D02*
X145785714Y-96431009D01*
X146690476Y-95954819D02*
X147357142Y-95954819D01*
X147357142Y-95954819D02*
X146690476Y-96954819D01*
X146690476Y-96954819D02*
X147357142Y-96954819D01*
X148261904Y-96954819D02*
X147690476Y-96954819D01*
X147976190Y-96954819D02*
X147976190Y-95954819D01*
X147976190Y-95954819D02*
X147880952Y-96097676D01*
X147880952Y-96097676D02*
X147785714Y-96192914D01*
X147785714Y-96192914D02*
X147690476Y-96240533D01*
D15*
%TO.C,SW2*%
X69750000Y-57125000D02*
X69750000Y-59125000D01*
X70750000Y-55825000D02*
X71200000Y-55375000D01*
X70750000Y-60425000D02*
X71200000Y-60875000D01*
X71200000Y-55375000D02*
X73800000Y-55375000D01*
X71200000Y-60875000D02*
X73800000Y-60875000D01*
X74250000Y-55825000D02*
X73800000Y-55375000D01*
X74250000Y-60425000D02*
X73800000Y-60875000D01*
X75250000Y-57125000D02*
X75250000Y-59125000D01*
%TO.C,J1*%
X104520000Y-111670000D02*
X122360000Y-111670000D01*
X122360000Y-114330000D02*
X122360000Y-111670000D01*
X104520000Y-114330000D02*
X104520000Y-111670000D01*
X104520000Y-114330000D02*
X122360000Y-114330000D01*
X103250000Y-114330000D02*
X101920000Y-114330000D01*
X101920000Y-114330000D02*
X101920000Y-113000000D01*
D16*
%TO.C,SW6*%
X140578420Y-54677600D02*
X138632780Y-54677600D01*
X138632780Y-54677600D02*
X138632780Y-53382198D01*
X138632780Y-53382198D02*
X136880180Y-53382198D01*
X136880180Y-53382198D02*
X136880180Y-54677600D01*
X136880180Y-54677600D02*
X134934540Y-54677600D01*
X134276680Y-55739140D02*
X134276680Y-56460860D01*
X137703140Y-57522400D02*
X139310960Y-57522400D01*
X141236280Y-56460860D02*
X141236280Y-55739140D01*
D15*
%TO.C,U2*%
X61575000Y-87370000D02*
X67735000Y-87370000D01*
X61575000Y-87370000D02*
X61575000Y-69130000D01*
X86535000Y-87370000D02*
X87315000Y-87370000D01*
X87315000Y-87370000D02*
X87315000Y-86370000D01*
X61575000Y-69130000D02*
X67990000Y-69130000D01*
X86535000Y-69130000D02*
X87315000Y-69130000D01*
X87315000Y-69130000D02*
X87315000Y-70130000D01*
X68460000Y-87875000D02*
X67960000Y-87375000D01*
X68460000Y-87375000D01*
X68460000Y-87875000D01*
G36*
X68460000Y-87875000D02*
G01*
X67960000Y-87375000D01*
X68460000Y-87375000D01*
X68460000Y-87875000D01*
G37*
%TO.C,U7*%
X142250000Y-83695000D02*
X144200000Y-83695000D01*
X142250000Y-83695000D02*
X140300000Y-83695000D01*
X142250000Y-73575000D02*
X144200000Y-73575000D01*
X142250000Y-73575000D02*
X140300000Y-73575000D01*
X145190000Y-83970000D02*
X144710000Y-83970000D01*
X144950000Y-83640000D01*
X145190000Y-83970000D01*
G36*
X145190000Y-83970000D02*
G01*
X144710000Y-83970000D01*
X144950000Y-83640000D01*
X145190000Y-83970000D01*
G37*
%TO.C,U6*%
X144760000Y-70040000D02*
X144280000Y-70040000D01*
X144520000Y-69710000D01*
X144760000Y-70040000D01*
G36*
X144760000Y-70040000D02*
G01*
X144280000Y-70040000D01*
X144520000Y-69710000D01*
X144760000Y-70040000D01*
G37*
X141500000Y-65140000D02*
X144000000Y-65140000D01*
X144000000Y-69860000D02*
X141500000Y-69860000D01*
D16*
%TO.C,U5*%
X135008000Y-64250000D02*
G75*
G02*
X134804800Y-64250000I-101600J0D01*
G01*
X134804800Y-64250000D02*
G75*
G02*
X135008000Y-64250000I101600J0D01*
G01*
X133509345Y-62318900D02*
X132484055Y-62318900D01*
X132484055Y-64681100D02*
X133509345Y-64681100D01*
D15*
%TO.C,U4*%
X149700000Y-64990000D02*
X149460000Y-64660000D01*
X149940000Y-64660000D01*
X149700000Y-64990000D01*
G36*
X149700000Y-64990000D02*
G01*
X149460000Y-64660000D01*
X149940000Y-64660000D01*
X149700000Y-64990000D01*
G37*
X151000000Y-68060000D02*
X151800000Y-68060000D01*
X151000000Y-68060000D02*
X150200000Y-68060000D01*
X151000000Y-64940000D02*
X151800000Y-64940000D01*
X151000000Y-64940000D02*
X150200000Y-64940000D01*
%TO.C,SW5*%
X154500000Y-112000000D02*
X152500000Y-112000000D01*
X155800000Y-113000000D02*
X156250000Y-113450000D01*
X151200000Y-113000000D02*
X150750000Y-113450000D01*
X156250000Y-113450000D02*
X156250000Y-116050000D01*
X150750000Y-113450000D02*
X150750000Y-116050000D01*
X155800000Y-116500000D02*
X156250000Y-116050000D01*
X151200000Y-116500000D02*
X150750000Y-116050000D01*
X154500000Y-117500000D02*
X152500000Y-117500000D01*
%TO.C,SW4*%
X89750000Y-57125000D02*
X89750000Y-59125000D01*
X88750000Y-60425000D02*
X88300000Y-60875000D01*
X88750000Y-55825000D02*
X88300000Y-55375000D01*
X85700000Y-60875000D02*
X88300000Y-60875000D01*
X85700000Y-55375000D02*
X88300000Y-55375000D01*
X85250000Y-60425000D02*
X85700000Y-60875000D01*
X85250000Y-55825000D02*
X85700000Y-55375000D01*
X84250000Y-57125000D02*
X84250000Y-59125000D01*
%TO.C,SW3*%
X154500000Y-102500000D02*
X152500000Y-102500000D01*
X155800000Y-103500000D02*
X156250000Y-103950000D01*
X151200000Y-103500000D02*
X150750000Y-103950000D01*
X156250000Y-103950000D02*
X156250000Y-106550000D01*
X150750000Y-103950000D02*
X150750000Y-106550000D01*
X155800000Y-107000000D02*
X156250000Y-106550000D01*
X151200000Y-107000000D02*
X150750000Y-106550000D01*
X154500000Y-108000000D02*
X152500000Y-108000000D01*
%TO.C,SW1*%
X143750000Y-109750000D02*
G75*
G02*
X137750000Y-109750000I-3000000J0D01*
G01*
X137750000Y-109750000D02*
G75*
G02*
X143750000Y-109750000I3000000J0D01*
G01*
X146650000Y-103650000D02*
X146650000Y-107750000D01*
X144250000Y-103650000D02*
X146650000Y-103650000D01*
X139450000Y-103650000D02*
X142050000Y-103650000D01*
X134850000Y-103650000D02*
X137250000Y-103650000D01*
X134850000Y-107750000D02*
X134850000Y-103650000D01*
X140250000Y-109750000D02*
X141250000Y-109750000D01*
X140750000Y-110250000D02*
X140750000Y-109250000D01*
X146650000Y-111750000D02*
X146650000Y-115850000D01*
X134850000Y-111750000D02*
X134850000Y-115850000D01*
X134850000Y-115850000D02*
X146650000Y-115850000D01*
X136650000Y-116950000D02*
X136950000Y-117250000D01*
X136950000Y-117250000D02*
X136650000Y-117550000D01*
X136650000Y-117550000D02*
X136650000Y-116950000D01*
%TO.C,R15*%
X151842224Y-95722500D02*
X151332776Y-95722500D01*
X151842224Y-94677500D02*
X151332776Y-94677500D01*
%TO.C,R14*%
X119832776Y-120727500D02*
X120342224Y-120727500D01*
X119832776Y-121772500D02*
X120342224Y-121772500D01*
%TO.C,R13*%
X148592224Y-77907500D02*
X148082776Y-77907500D01*
X148592224Y-76862500D02*
X148082776Y-76862500D01*
%TO.C,R12*%
X148592224Y-80157500D02*
X148082776Y-80157500D01*
X148592224Y-79112500D02*
X148082776Y-79112500D01*
%TO.C,R11*%
X148592224Y-76157500D02*
X148082776Y-76157500D01*
X148592224Y-75112500D02*
X148082776Y-75112500D01*
%TO.C,R10*%
X148082776Y-80862500D02*
X148592224Y-80862500D01*
X148082776Y-81907500D02*
X148592224Y-81907500D01*
%TO.C,R9*%
X144254724Y-70727500D02*
X143745276Y-70727500D01*
X144254724Y-71772500D02*
X143745276Y-71772500D01*
%TO.C,R7*%
X148592224Y-73227500D02*
X148082776Y-73227500D01*
X148592224Y-74272500D02*
X148082776Y-74272500D01*
%TO.C,R6*%
X104342224Y-121772500D02*
X103832776Y-121772500D01*
X104342224Y-120727500D02*
X103832776Y-120727500D01*
%TO.C,R5*%
X134332776Y-82977500D02*
X134842224Y-82977500D01*
X134332776Y-84022500D02*
X134842224Y-84022500D01*
%TO.C,R4*%
X130977500Y-80917224D02*
X130977500Y-80407776D01*
X132022500Y-80917224D02*
X132022500Y-80407776D01*
%TO.C,R3*%
X154977500Y-67657776D02*
X154977500Y-68167224D01*
X156022500Y-67657776D02*
X156022500Y-68167224D01*
%TO.C,R2*%
X151417224Y-62977500D02*
X150907776Y-62977500D01*
X151417224Y-64022500D02*
X150907776Y-64022500D01*
%TO.C,R1*%
X72745276Y-90522500D02*
X73254724Y-90522500D01*
X72745276Y-89477500D02*
X73254724Y-89477500D01*
%TO.C,Q3*%
X152927500Y-93590000D02*
X152447500Y-93590000D01*
X152687500Y-93260000D01*
X152927500Y-93590000D01*
G36*
X152927500Y-93590000D02*
G01*
X152447500Y-93590000D01*
X152687500Y-93260000D01*
X152927500Y-93590000D01*
G37*
X151387500Y-90190000D02*
X150587500Y-90190000D01*
X151387500Y-90190000D02*
X152187500Y-90190000D01*
X151387500Y-93310000D02*
X150587500Y-93310000D01*
X151387500Y-93310000D02*
X152187500Y-93310000D01*
%TO.C,Q2*%
X138440000Y-61000000D02*
X138440000Y-61650000D01*
X138440000Y-61000000D02*
X138440000Y-60350000D01*
X141560000Y-61000000D02*
X141560000Y-61650000D01*
X141560000Y-61000000D02*
X141560000Y-60350000D01*
X138490000Y-62162500D02*
X138160000Y-62402500D01*
X138160000Y-61922500D01*
X138490000Y-62162500D01*
G36*
X138490000Y-62162500D02*
G01*
X138160000Y-62402500D01*
X138160000Y-61922500D01*
X138490000Y-62162500D01*
G37*
%TO.C,Q1*%
X135870000Y-82040000D02*
X135390000Y-82040000D01*
X135630000Y-81710000D01*
X135870000Y-82040000D01*
G36*
X135870000Y-82040000D02*
G01*
X135390000Y-82040000D01*
X135630000Y-81710000D01*
X135870000Y-82040000D01*
G37*
X135250000Y-79440000D02*
X133850000Y-79440000D01*
X135260000Y-81760000D02*
X133850000Y-81760000D01*
%TO.C,J5*%
X154720000Y-83335000D02*
X156500000Y-83335000D01*
X151800000Y-81435000D02*
X151800000Y-82235000D01*
X154720000Y-73935000D02*
X156500000Y-73935000D01*
%TO.C,J2*%
X88042000Y-94833000D02*
X87788000Y-94845000D01*
X88042000Y-111470000D02*
X88042000Y-94833000D01*
X84702000Y-111445000D02*
X88042000Y-111470000D01*
X84702000Y-94845000D02*
X87788000Y-94845000D01*
X69881000Y-92039000D02*
X69881000Y-94452000D01*
X79660000Y-94452000D02*
X69881000Y-94452000D01*
X79660000Y-92039000D02*
X79660000Y-94452000D01*
X69881000Y-92039000D02*
X79660000Y-92039000D01*
X61602000Y-94845000D02*
X84702000Y-94845000D01*
X61602000Y-111445000D02*
X61602000Y-94845000D01*
X84702000Y-111445000D02*
X61602000Y-111445000D01*
X61180000Y-118850000D02*
X61180000Y-91550000D01*
X88580000Y-118850000D02*
X61180000Y-118850000D01*
X88580000Y-91550000D02*
X88580000Y-118850000D01*
X61180000Y-91550000D02*
X88580000Y-91550000D01*
%TO.C,D4*%
X114727500Y-120515000D02*
X114727500Y-121985000D01*
X114727500Y-121985000D02*
X117012500Y-121985000D01*
X117012500Y-120515000D02*
X114727500Y-120515000D01*
%TO.C,D3*%
X146640000Y-72250000D02*
X150500000Y-72250000D01*
X146640000Y-70250000D02*
X150500000Y-70250000D01*
X146640000Y-70250000D02*
X146640000Y-72250000D01*
%TO.C,D2*%
X109447500Y-121985000D02*
X109447500Y-120515000D01*
X109447500Y-120515000D02*
X107162500Y-120515000D01*
X107162500Y-121985000D02*
X109447500Y-121985000D01*
%TO.C,D1*%
X156235000Y-65087500D02*
X156235000Y-62802500D01*
X154765000Y-62802500D02*
X154765000Y-65087500D01*
X156235000Y-62802500D02*
X154765000Y-62802500D01*
%TO.C,C11*%
X137260000Y-66640580D02*
X137260000Y-66359420D01*
X136240000Y-66640580D02*
X136240000Y-66359420D01*
%TO.C,C10*%
X139260000Y-66665580D02*
X139260000Y-66384420D01*
X138240000Y-66665580D02*
X138240000Y-66384420D01*
%TO.C,C9*%
X148084420Y-82625000D02*
X148365580Y-82625000D01*
X148084420Y-83645000D02*
X148365580Y-83645000D01*
%TO.C,C8*%
X143634420Y-62510000D02*
X143915580Y-62510000D01*
X143634420Y-61490000D02*
X143915580Y-61490000D01*
%TO.C,C6*%
X136240000Y-62634420D02*
X136240000Y-62915580D01*
X137260000Y-62634420D02*
X137260000Y-62915580D01*
%TO.C,C5*%
X134640580Y-59490000D02*
X134359420Y-59490000D01*
X134640580Y-60510000D02*
X134359420Y-60510000D01*
%TO.C,C4*%
X152884420Y-71760000D02*
X153165580Y-71760000D01*
X152884420Y-70740000D02*
X153165580Y-70740000D01*
%TO.C,C3*%
X69615580Y-90510000D02*
X69334420Y-90510000D01*
X69615580Y-89490000D02*
X69334420Y-89490000D01*
%TO.C,C2*%
X124084420Y-120740000D02*
X124365580Y-120740000D01*
X124084420Y-121760000D02*
X124365580Y-121760000D01*
%TO.C,C1*%
X124084420Y-118240000D02*
X124365580Y-118240000D01*
X124084420Y-119260000D02*
X124365580Y-119260000D01*
%TO.C,BZ1*%
X133979216Y-93249999D02*
G75*
G02*
X133979216Y-90250000I6400000J1499999D01*
G01*
X146609216Y-91750000D02*
G75*
G02*
X134149216Y-91750000I-6230000J0D01*
G01*
X134149216Y-91750000D02*
G75*
G02*
X146609216Y-91750000I6230000J0D01*
G01*
%TD*%
M02*
