M48
; DRILL file {KiCad 8.0.4+dfsg-1} date 2025-03-09T22:36:14+0100
; FORMAT={-:-/ absolute / inch / decimal}
; #@! TF.CreationDate,2025-03-09T22:36:14+01:00
; #@! TF.GenerationSoftware,Kicad,Pcbnew,8.0.4+dfsg-1
; #@! TF.FileFunction,Plated,1,2,PTH
FMAT,2
INCH
; #@! TA.AperFunction,Plated,PTH,ComponentDrill
T1C0.0079
; #@! TA.AperFunction,Plated,PTH,ViaDrill
T2C0.0118
; #@! TA.AperFunction,Plated,PTH,ComponentDrill
T3C0.0157
; #@! TA.AperFunction,Plated,PTH,ComponentDrill
T4C0.0236
; #@! TA.AperFunction,Plated,PTH,ComponentDrill
T5C0.0350
; #@! TA.AperFunction,Plated,PTH,ComponentDrill
T6C0.0394
; #@! TA.AperFunction,Plated,PTH,ComponentDrill
T7C0.0591
; #@! TA.AperFunction,Plated,PTH,ComponentDrill
T8C0.0669
; #@! TA.AperFunction,Plated,PTH,ComponentDrill
T9C0.0866
%
G90
G05
T1
X2.9528Y-3.0775
X2.9528Y-3.1375
X2.9828Y-3.0474
X2.9828Y-3.1075
X2.9828Y-3.1675
X3.0128Y-3.0775
X3.0128Y-3.1375
X3.0428Y-3.0474
X3.0428Y-3.1075
X3.0428Y-3.1675
X3.0728Y-3.0775
X3.0728Y-3.1375
T2
X2.4213Y-2.4803
X2.4213Y-2.9429
X2.4213Y-3.4547
X2.4213Y-3.9665
X2.4213Y-4.6555
X2.5591Y-2.5591
X2.5591Y-2.7559
X2.6378Y-3.1398
X2.6476Y-2.8248
X2.6772Y-3.2677
X2.7067Y-3.6122
X2.7165Y-4.2028
X2.7264Y-2.8248
X2.7362Y-2.4902
X2.7362Y-3.189
X2.7657Y-3.3563
X2.7657Y-4.3602
X2.7657Y-4.498
X2.7756Y-2.4213
X2.7756Y-3.2283
X2.7854Y-2.8248
X2.8051Y-2.5591
X2.815Y-4.3602
X2.815Y-4.498
X2.815Y-4.8622
X2.8248Y-2.8642
X2.8445Y-3.75
X2.8642Y-2.1654
X2.874Y-2.5984
X2.8937Y-2.7953
X2.9035Y-3.3465
X2.9134Y-2.8543
X2.9134Y-2.9626
X2.9134Y-3.2972
X2.9687Y-2.8248
X2.9724Y-2.6673
X2.9724Y-3.4941
X2.9724Y-4.1634
X2.9823Y-2.4213
X3.002Y-3.2972
X3.0167Y-3.5138
X3.0413Y-3.8583
X3.0648Y-3.5396
X3.0738Y-3.3593
X3.1496Y-2.8642
X3.185Y-4.8482
X3.189Y-4.0354
X3.189Y-4.498
X3.2185Y-3.0906
X3.248Y-3.6319
X3.2579Y-3.7598
X3.2776Y-3.3563
X3.3268Y-3.6319
X3.3465Y-3.8484
X3.3563Y-2.874
X3.3563Y-2.9331
X3.364Y-2.6891
X3.4252Y-2.1654
X3.4252Y-2.3622
X3.4788Y-2.9756
X3.4941Y-2.9035
X3.5039Y-3.0118
X3.5039Y-3.2579
X3.5106Y-3.2055
X3.5138Y-3.061
X3.5177Y-3.1555
X3.5189Y-3.1055
X3.5236Y-2.5787
X3.5335Y-2.9823
X3.5492Y-4.8482
X3.5728Y-3.4941
X3.6024Y-4.0551
X3.6024Y-4.3209
X3.6024Y-4.4783
X3.6122Y-2.6969
X3.6122Y-3.5236
X3.6516Y-4.2717
X3.6614Y-3.061
X3.6614Y-3.1496
X3.6614Y-3.376
X3.6614Y-3.4547
X3.6811Y-3.0118
X3.6909Y-4.2421
X3.7106Y-3.1299
X3.7303Y-3.5138
X3.75Y-3.002
X3.9173Y-4.4685
X3.9646Y-3.5787
X3.9961Y-2.185
X4.0028Y-3.5795
X4.0945Y-4.6949
X4.1339Y-3.3661
X4.3209Y-3.0217
X4.4094Y-4.7736
X4.4094Y-4.8622
X4.4193Y-4.5276
X4.439Y-2.185
X4.439Y-2.5787
X4.439Y-2.6969
X4.6161Y-3.3858
X4.6555Y-4.6457
X4.7638Y-4.5276
X4.8228Y-4.2323
X4.8228Y-4.3012
X4.8327Y-3.1693
X4.8524Y-2.185
X4.8917Y-3.5433
X4.8917Y-3.9764
X4.9213Y-3.2776
X4.9803Y-3.0118
X4.9803Y-3.0118
X5.0295Y-4.8622
X5.0591Y-3.1299
X5.1181Y-3.4843
X5.1575Y-2.4803
X5.1969Y-2.4114
X5.1969Y-2.5787
X5.2264Y-3.1791
X5.2756Y-2.3031
X5.278Y-2.8863
X5.2854Y-2.4213
X5.2953Y-2.628
X5.2953Y-2.6969
X5.2953Y-3.1594
X5.3051Y-3.2283
X5.3051Y-4.7244
X5.3346Y-2.5394
X5.3543Y-3.9961
X5.374Y-2.3425
X5.3937Y-3.1594
X5.4134Y-4.5079
X5.4331Y-2.5394
X5.4724Y-2.5
X5.502Y-3.8287
X5.5217Y-2.5
X5.5217Y-3.6909
X5.5315Y-3.3366
X5.5413Y-4.5079
X5.5709Y-2.2933
X5.5709Y-2.3524
X5.5894Y-3.2153
X5.5906Y-3.1727
X5.6004Y-2.5394
X5.6004Y-2.7559
X5.6102Y-2.9626
X5.6201Y-2.8642
X5.6398Y-4.7244
X5.6693Y-4.8622
X5.7283Y-2.372
X5.7283Y-2.8642
X5.7382Y-2.4902
X5.7579Y-3.0171
X5.7677Y-3.1156
X5.7972Y-2.4902
X5.8071Y-3.8287
X5.8563Y-2.7067
X5.8563Y-2.7362
X5.8563Y-2.8543
X5.876Y-4.4193
X5.876Y-4.6161
X5.8858Y-4.3209
X5.8957Y-2.185
X5.9154Y-3.6811
X5.9154Y-3.9272
X5.935Y-2.8642
X5.9449Y-3.3268
X5.9547Y-2.5394
X5.9547Y-2.6181
X5.9547Y-2.7264
X5.9941Y-2.8642
X6.0433Y-4.3209
X6.0531Y-2.5098
X6.0531Y-2.5787
X6.1122Y-2.7657
X6.122Y-2.8543
X6.122Y-3.3465
X6.122Y-3.563
X6.122Y-3.8287
X6.2008Y-4.3209
T3
X2.4252Y-2.2736
X2.4252Y-4.813
X2.4442Y-2.2277
X2.4442Y-2.3196
X2.4442Y-4.7671
X2.4442Y-4.8589
X2.4902Y-2.2087
X2.4902Y-2.3386
X2.4902Y-4.748
X2.4902Y-4.878
X2.5361Y-2.2277
X2.5361Y-2.3196
X2.5361Y-4.7671
X2.5361Y-4.8589
X2.5551Y-2.2736
X2.5551Y-4.813
X6.0511Y-2.2736
X6.0511Y-4.813
X6.0701Y-2.2277
X6.0701Y-2.3196
X6.0701Y-4.7671
X6.0701Y-4.8589
X6.1161Y-2.2087
X6.1161Y-2.3386
X6.1161Y-4.748
X6.1161Y-4.878
X6.162Y-2.2277
X6.162Y-2.3196
X6.162Y-4.7671
X6.162Y-4.8589
X6.181Y-2.2736
X6.181Y-4.813
T5
X5.3643Y-2.2087
X5.4823Y-2.2087
T6
X2.7937Y-3.6713
X2.8937Y-3.6713
X2.9937Y-3.6713
X3.0937Y-3.6713
X4.065Y-4.4488
X4.165Y-4.4488
X4.265Y-4.4488
X4.365Y-4.4488
X4.465Y-4.4488
X4.565Y-4.4488
X4.665Y-4.4488
X4.765Y-4.4488
X5.4283Y-3.6122
X5.4429Y-4.0453
X5.4429Y-4.6161
X5.5413Y-4.6161
X5.6252Y-3.6122
X5.6398Y-4.0453
X5.6398Y-4.6161
T7
X2.5886Y-4.4291
T8
X2.4886Y-4.3291
X2.4886Y-4.5291
X2.6886Y-4.3291
X2.6886Y-4.5291
T9
X2.4902Y-2.2736
X2.4902Y-4.813
X6.1161Y-2.2736
X6.1161Y-4.813
T4
G00X6.0175Y-2.9258
M15
G01X6.0608Y-2.9258
M16
G05
G00X6.0175Y-3.2659
M15
G01X6.0608Y-3.2659
M16
G05
G00X6.1919Y-2.9258
M15
G01X6.2156Y-2.9258
M16
G05
G00X6.1919Y-3.2659
M15
G01X6.2156Y-3.2659
M16
G05
T7
G00X5.3209Y-4.3465
M15
G01X5.3209Y-4.2953
M16
G05
G00X5.7618Y-4.3465
M15
G01X5.7618Y-4.2953
M16
G05
M30
